<svg width="322" height="200" viewBox="0 0 322 200" fill="none" xmlns="http://www.w3.org/2000/svg">
<rect width="322" height="200" transform="translate(-0.125)" fill="white"/>
<path d="M144.745 97.3902C143.305 96.5702 141.645 96.1602 139.815 96.1602H135.595C135.125 96.1602 134.725 96.3202 134.395 96.6402C134.065 96.9602 133.895 97.3802 133.895 97.8602V113.66C133.895 114.13 134.065 114.54 134.385 114.87C134.715 115.2 135.115 115.36 135.595 115.36H139.815C141.655 115.36 143.305 114.95 144.745 114.13C146.185 113.31 147.325 112.16 148.125 110.7C148.925 109.25 149.325 107.58 149.325 105.75C149.325 103.92 148.915 102.25 148.125 100.81C147.325 99.3602 146.185 98.2102 144.745 97.3902ZM139.815 112.24H137.295V99.2802H139.815C141.015 99.2802 142.095 99.5602 143.035 100.1C143.975 100.64 144.705 101.41 145.235 102.38C145.765 103.36 146.025 104.49 146.025 105.74C146.025 106.99 145.755 108.13 145.235 109.12C144.715 110.1 143.975 110.87 143.035 111.41C142.095 111.96 141.015 112.24 139.815 112.24Z" fill="#6CBCFF"/>
<path d="M165.874 97.1802C164.404 96.3502 162.704 95.9302 160.844 95.9302C158.964 95.9302 157.264 96.3502 155.784 97.1802C154.304 98.0102 153.134 99.1902 152.314 100.68C151.504 102.16 151.084 103.87 151.084 105.75C151.084 107.63 151.494 109.34 152.314 110.83C153.134 112.33 154.304 113.51 155.784 114.35C157.254 115.18 158.964 115.6 160.844 115.6C162.724 115.6 164.424 115.18 165.894 114.35C167.364 113.52 168.534 112.33 169.354 110.84C170.174 109.35 170.594 107.64 170.594 105.76C170.594 103.88 170.174 102.18 169.354 100.69C168.524 99.1902 167.354 98.0102 165.874 97.1802ZM160.834 112.43C159.604 112.43 158.494 112.14 157.514 111.55C156.534 110.96 155.764 110.16 155.224 109.16C154.674 108.15 154.394 107 154.394 105.75C154.394 104.5 154.674 103.35 155.224 102.34C155.774 101.34 156.534 100.53 157.504 99.9602C158.474 99.3902 159.594 99.0902 160.834 99.0902C162.074 99.0902 163.194 99.3802 164.164 99.9602C165.134 100.54 165.904 101.34 166.444 102.34C166.994 103.35 167.274 104.5 167.274 105.75C167.274 107 166.994 108.15 166.444 109.16C165.894 110.17 165.124 110.97 164.154 111.55C163.184 112.13 162.064 112.43 160.834 112.43Z" fill="#6CBCFF"/>
<path d="M185.844 110.96C183.534 112.69 180.844 112.83 178.754 111.52C177.814 110.93 177.054 110.12 176.494 109.11C175.934 108.1 175.654 106.97 175.654 105.75C175.654 104.55 175.934 103.42 176.494 102.4C177.044 101.38 177.804 100.57 178.754 99.9802C179.694 99.3902 180.734 99.1002 181.844 99.1002C182.744 99.1002 183.474 99.2102 184.024 99.4302C184.574 99.6502 185.164 100.02 185.764 100.53C186.444 101.08 187.364 101.08 187.994 100.51C188.324 100.22 188.494 99.8302 188.494 99.3802C188.494 99.1202 188.454 98.8802 188.364 98.6702C188.264 98.4402 188.094 98.2302 187.844 98.0502C186.914 97.3002 185.984 96.7602 185.074 96.4302C184.164 96.1002 183.074 95.9302 181.844 95.9302C180.094 95.9302 178.484 96.3702 177.034 97.2502C175.594 98.1202 174.434 99.3202 173.604 100.81C172.774 102.3 172.354 103.96 172.354 105.75C172.354 107.55 172.774 109.23 173.604 110.72C174.434 112.22 175.594 113.42 177.034 114.28C178.484 115.15 180.104 115.59 181.844 115.59C184.084 115.59 186.104 114.87 187.904 113.42C188.244 113.08 188.424 112.67 188.424 112.21C188.424 111.74 188.284 111.35 188.004 111.05C187.484 110.5 186.644 110.39 185.844 110.96Z" fill="#6CBCFF"/>
<path d="M198.335 72.17C198.295 71.9 198.165 71.66 197.965 71.46L197.835 71.33L195.545 69.04L179.315 52.83L178.475 51.99L176.905 50.42C176.705 50.22 176.465 50.09 176.195 50.05V50H130.445C126.555 50 123.375 53.18 123.375 57.07V142.93C123.375 146.82 126.555 150 130.445 150H191.305C195.195 150 198.375 146.82 198.375 142.93V72.47C198.375 72.37 198.365 72.27 198.335 72.17ZM176.205 53.7L193.825 71.33L194.655 72.16H180.445C178.095 72.16 176.205 70.25 176.205 67.92V53.7ZM195.545 142.93C195.545 145.26 193.635 147.17 191.305 147.17H130.445C128.095 147.17 126.205 145.26 126.205 142.93V57.07C126.205 54.72 128.095 52.83 130.445 52.83H173.375V67.93C173.375 71.82 176.555 75 180.445 75H195.545V142.93Z" fill="#6CBCFF"/>
</svg>
