<svg width="20" height="20" viewBox="0 0 20 20" fill="none" xmlns="http://www.w3.org/2000/svg">
<path d="M10.0001 7.50008C9.83526 7.50008 9.67415 7.54896 9.53711 7.64052C9.40007 7.73209 9.29325 7.86224 9.23018 8.01451C9.16711 8.16678 9.15061 8.33434 9.18276 8.49599C9.21491 8.65764 9.29428 8.80613 9.41083 8.92267C9.52737 9.03921 9.67586 9.11858 9.83751 9.15074C9.99916 9.18289 10.1667 9.16639 10.319 9.10331C10.4713 9.04024 10.6014 8.93343 10.693 8.79639C10.7845 8.65935 10.8334 8.49823 10.8334 8.33341C10.8334 8.1124 10.7456 7.90044 10.5893 7.74416C10.4331 7.58788 10.2211 7.50008 10.0001 7.50008ZM15.8334 1.66675H4.16675C3.50371 1.66675 2.86782 1.93014 2.39898 2.39898C1.93014 2.86782 1.66675 3.50371 1.66675 4.16675V12.5001C1.66675 13.1631 1.93014 13.799 2.39898 14.2678C2.86782 14.7367 3.50371 15.0001 4.16675 15.0001H13.8251L16.9084 18.0917C16.9863 18.169 17.0786 18.2301 17.1802 18.2716C17.2817 18.313 17.3904 18.334 17.5001 18.3334C17.6094 18.3362 17.7178 18.3134 17.8167 18.2667C17.9689 18.2042 18.0992 18.0981 18.1911 17.9616C18.2831 17.8252 18.3326 17.6646 18.3334 17.5001V4.16675C18.3334 3.50371 18.07 2.86782 17.6012 2.39898C17.1323 1.93014 16.4965 1.66675 15.8334 1.66675ZM16.6667 15.4917L14.7584 13.5751C14.6805 13.4978 14.5882 13.4367 14.4867 13.3953C14.3851 13.3538 14.2764 13.3328 14.1667 13.3334H4.16675C3.94573 13.3334 3.73377 13.2456 3.57749 13.0893C3.42121 12.9331 3.33341 12.7211 3.33341 12.5001V4.16675C3.33341 3.94573 3.42121 3.73377 3.57749 3.57749C3.73377 3.42121 3.94573 3.33341 4.16675 3.33341H15.8334C16.0544 3.33341 16.2664 3.42121 16.4227 3.57749C16.579 3.73377 16.6667 3.94573 16.6667 4.16675V15.4917ZM6.66675 7.50008C6.50193 7.50008 6.34081 7.54896 6.20377 7.64052C6.06673 7.73209 5.95992 7.86224 5.89685 8.01451C5.83378 8.16678 5.81727 8.33434 5.84943 8.49599C5.88158 8.65764 5.96095 8.80613 6.07749 8.92267C6.19404 9.03921 6.34252 9.11858 6.50417 9.15074C6.66582 9.18289 6.83338 9.16639 6.98565 9.10331C7.13792 9.04024 7.26807 8.93343 7.35964 8.79639C7.45121 8.65935 7.50008 8.49823 7.50008 8.33341C7.50008 8.1124 7.41228 7.90044 7.256 7.74416C7.09972 7.58788 6.88776 7.50008 6.66675 7.50008ZM13.3334 7.50008C13.1686 7.50008 13.0075 7.54896 12.8704 7.64052C12.7334 7.73209 12.6266 7.86224 12.5635 8.01451C12.5004 8.16678 12.4839 8.33434 12.5161 8.49599C12.5482 8.65764 12.6276 8.80613 12.7442 8.92267C12.8607 9.03921 13.0092 9.11858 13.1708 9.15074C13.3325 9.18289 13.5 9.16639 13.6523 9.10331C13.8046 9.04024 13.9347 8.93343 14.0263 8.79639C14.1179 8.65935 14.1667 8.49823 14.1667 8.33341C14.1667 8.1124 14.079 7.90044 13.9227 7.74416C13.7664 7.58788 13.5544 7.50008 13.3334 7.50008Z" fill="#0050C5"/>
</svg>
