<svg width="37" height="50" viewBox="0 0 37 50" fill="none" xmlns="http://www.w3.org/2000/svg">
<path d="M25.9 0C26.15 0 26.4 0.1 26.6 0.3L36.71 10.4C36.91 10.6 37 10.85 37 11.11V45C37 47.75 34.75 50 32 50H5C2.25 50 0 47.75 0 45V5C0 2.25 2.25 0 5 0H25.9Z" fill="white"/>
<path d="M36.71 10.4L36.36 10.05L35.07 8.76L28.3 2L26.6 0.3C26.4 0.1 26.15 0 25.9 0L5 0C2.25 0 0 2.25 0 5V45C0 47.75 2.25 50 5 50H32C34.75 50 37 47.75 37 45V11.11C37 10.85 36.91 10.6 36.71 10.4ZM33.53 10.05H29.5C28.09 10.05 26.95 8.91 26.95 7.5V3.47L33.53 10.05ZM35 45C35 46.66 33.65 48 32 48H5C3.34 48 2 46.66 2 45V5C2 3.35 3.34 2 5 2H24.5V7.5C24.5 10.25 26.75 12.5 29.5 12.5H35V28.75V45Z" fill="#005FE7"/>
<path d="M10.73 23.77C9.97 23.34 9.1 23.12 8.14 23.12H5.96C5.7 23.12 5.46 23.21 5.28 23.39C5.09 23.57 5 23.81 5 24.08V32.25C5 32.52 5.1 32.75 5.28 32.93C5.46 33.11 5.7 33.21 5.96 33.21H8.14C9.1 33.21 9.97 32.99 10.73 32.56C11.49 32.13 12.09 31.52 12.51 30.75C12.93 29.99 13.14 29.11 13.14 28.15C13.14 27.19 12.93 26.32 12.51 25.56C12.09 24.81 11.49 24.2 10.73 23.77ZM8.14 31.44H6.92V24.91H8.14C8.74 24.91 9.29 25.05 9.76 25.32C10.23 25.59 10.6 25.98 10.86 26.47C11.13 26.97 11.26 27.54 11.26 28.17C11.26 28.8 11.13 29.38 10.86 29.88C10.59 30.38 10.23 30.76 9.76 31.03C9.29 31.3 8.75 31.44 8.14 31.44Z" fill="#005FE7"/>
<path d="M21.5295 23.66C20.7495 23.22 19.8695 23 18.8895 23C17.8995 23 17.0095 23.22 16.2295 23.66C15.4495 24.1 14.8395 24.72 14.4095 25.5C13.9795 26.28 13.7695 27.17 13.7695 28.16C13.7695 29.15 13.9895 30.04 14.4095 30.82C14.8395 31.61 15.4595 32.23 16.2295 32.67C17.0095 33.11 17.8995 33.33 18.8795 33.33C19.8595 33.33 20.7595 33.11 21.5295 32.67C22.2995 32.23 22.9195 31.61 23.3495 30.82C23.7795 30.04 23.9995 29.14 23.9995 28.16C23.9995 27.17 23.7795 26.28 23.3495 25.5C22.9295 24.72 22.3095 24.1 21.5295 23.66ZM18.8895 24.81C19.5195 24.81 20.0795 24.96 20.5695 25.25C21.0595 25.54 21.4395 25.94 21.7195 26.45C21.9995 26.96 22.1395 27.54 22.1395 28.17C22.1395 28.8 21.9995 29.38 21.7195 29.89C21.4395 30.4 21.0595 30.8 20.5595 31.1C19.5695 31.69 18.1995 31.69 17.2095 31.1C16.7195 30.81 16.3295 30.4 16.0495 29.89C15.7695 29.38 15.6295 28.8 15.6295 28.17C15.6295 27.54 15.7695 26.96 16.0495 26.45C16.3195 25.94 16.7095 25.54 17.1995 25.25C17.6995 24.95 18.2595 24.81 18.8895 24.81Z" fill="#005FE7"/>
<path d="M31.6401 30.79C30.9801 31.28 30.3201 31.52 29.6201 31.52C29.0601 31.52 28.5401 31.37 28.0701 31.08C27.5901 30.78 27.2101 30.37 26.9301 29.86C26.6501 29.35 26.5101 28.78 26.5101 28.16C26.5101 27.55 26.6501 26.98 26.9301 26.47C27.2101 25.96 27.5901 25.54 28.0701 25.25C28.5401 24.96 29.0601 24.81 29.6201 24.81C30.0701 24.81 30.4401 24.86 30.7101 24.97C30.9901 25.08 31.2801 25.27 31.5901 25.53C31.9701 25.84 32.5001 25.84 32.8501 25.52C33.0401 25.35 33.1401 25.13 33.1401 24.87C33.1401 24.72 33.1201 24.59 33.0601 24.47C33.0001 24.34 32.9001 24.22 32.7701 24.12C32.2801 23.73 31.8001 23.44 31.3101 23.27C30.8301 23.1 30.2601 23.01 29.6101 23.01C28.6901 23.01 27.8401 23.24 27.0801 23.7C26.3201 24.16 25.7101 24.79 25.2801 25.57C24.8401 26.35 24.6201 27.23 24.6201 28.16C24.6201 29.11 24.8401 29.98 25.2801 30.77C25.7201 31.56 26.3201 32.19 27.0801 32.65C27.8401 33.11 28.6901 33.34 29.6101 33.34C30.7901 33.34 31.8501 32.96 32.8001 32.19C32.9901 32 33.0901 31.76 33.0901 31.51C33.0901 31.25 33.0101 31.03 32.8501 30.85C32.5701 30.53 32.1001 30.47 31.6401 30.79Z" fill="#005FE7"/>
</svg>
