<svg width="150" height="110" viewBox="0 0 150 110" fill="none" xmlns="http://www.w3.org/2000/svg">
<path fill-rule="evenodd" clip-rule="evenodd" d="M16.321 98.0285C27.6423 110.354 71.4222 103.274 100.249 103.274C112.685 103.274 154.419 109.507 137.185 66.6969C80.679 -73.6716 -19.5505 58.9766 16.321 98.0285Z" fill="#0050C5"/>
<path fill-rule="evenodd" clip-rule="evenodd" d="M64.7925 97.693C64.8301 97.6646 64.8694 97.634 64.8858 97.5903C64.9383 97.4504 64.7324 97.3575 64.5805 97.3608C64.3601 97.3657 64.0774 97.5114 64.1449 97.7174C64.1839 97.8366 64.3335 97.8918 64.4591 97.8698C64.5848 97.8479 64.6913 97.7692 64.7925 97.693ZM68.1583 95.3611C68.4627 95.4549 68.7632 95.5706 69.0283 95.7448C69.5261 96.0718 69.8648 96.5796 70.1898 97.0733C70.4228 97.4273 70.659 97.7882 70.7753 98.1939C70.9013 98.6333 70.8788 99.1022 70.7944 99.551C70.5317 100.949 69.6523 102.225 68.4276 102.985C67.203 103.745 65.6513 103.977 64.2514 103.61C63.9789 103.539 63.7045 103.442 63.4948 103.257C63.3187 103.101 63.2 102.894 63.0914 102.687C62.5211 101.602 62.1367 100.397 62.1807 99.1774C62.2246 97.9575 62.7356 96.7232 63.7036 95.9565C64.9183 94.9944 66.6688 94.9025 68.1583 95.3611Z" fill="white"/>
<path fill-rule="evenodd" clip-rule="evenodd" d="M117.28 40.2348C116.969 40.2311 116.678 40.4737 116.647 40.7615C116.635 40.8791 116.688 41.0253 116.814 41.0416C116.908 41.0537 116.991 40.9859 117.054 40.9198C117.188 40.78 117.303 40.6245 117.396 40.4581C117.427 40.4023 117.454 40.3307 117.413 40.2806C117.384 40.2441 117.329 40.2354 117.28 40.2348ZM118.749 39.0133C119.555 39.2753 120.286 39.7363 120.847 40.3364C121.329 40.8521 121.696 41.5216 121.594 42.1988C121.557 42.4474 121.459 42.6845 121.346 42.9126C120.921 43.7767 120.189 44.6049 119.185 44.7722C118.658 44.86 118.114 44.7548 117.608 44.5942C117.021 44.4084 116.463 44.1479 115.952 43.8221C115.681 43.6493 115.412 43.4443 115.293 43.1591C115.211 42.9625 115.208 42.746 115.211 42.5352C115.219 42.0138 115.256 41.4836 115.451 40.9948C115.698 40.3765 116.181 39.866 116.694 39.4104C116.9 39.2272 117.118 39.0467 117.383 38.9485C117.816 38.7879 118.309 38.8703 118.749 39.0133Z" fill="white"/>
<path fill-rule="evenodd" clip-rule="evenodd" d="M118.839 0.822246C121.979 4.06035 124.457 7.93237 126.079 12.1344C126.19 12.423 126.298 12.7436 126.192 13.0342C125.374 15.271 123.794 17.1359 122.246 18.9492C121.256 20.1079 120.267 21.2666 119.277 22.4253C118.333 23.5314 117.388 24.6377 116.411 25.7161C111.439 31.2064 105.564 36.0072 98.7603 38.9611C98.5035 39.0726 98.2281 39.1838 97.9515 39.1392C97.675 39.0947 97.4159 38.8272 97.4883 38.5576C98.3295 35.4245 99.1761 32.1489 98.5011 28.9761C98.3383 28.2108 98.1567 27.2473 98.7915 26.7868C103.93 23.0584 107.63 17.7292 111.176 12.4724C112.068 11.1506 112.957 9.82509 113.746 8.44004C115.147 5.98091 116.225 3.33997 116.946 0.605156C117.045 0.229869 117.521 0.0608773 117.898 0.159227C118.274 0.257576 118.569 0.543171 118.839 0.822246" fill="white"/>
<path fill-rule="evenodd" clip-rule="evenodd" d="M20.9303 13.4019C21.4408 18.0169 22.8614 22.5294 25.0868 26.6043C26.4646 29.1274 28.1406 31.4733 29.812 33.8122C30.9751 35.4397 32.2189 37.1358 34.0338 37.9769C34.5163 38.2006 34.449 38.8964 34.3195 39.4122C33.7597 41.6422 33.4985 43.9468 33.5451 46.2455C33.5495 46.4627 33.5552 46.6878 33.4699 46.8875C33.1802 47.5656 32.188 47.4526 31.5048 47.1753C27.2781 45.4593 24.033 42.0083 21.0016 38.5991C17.0658 34.1727 13.1885 29.552 10.8634 24.1041C10.7054 23.7337 10.552 23.3439 10.5784 22.9421C10.6054 22.5327 10.8157 22.1605 11.0291 21.8101C13.1368 18.3477 16.0691 15.3912 19.5138 13.2553C19.7564 13.1048 20.0155 12.954 20.3008 12.9442C20.5861 12.9343 20.899 13.1181 20.9303 13.4019Z" fill="white"/>
<path fill-rule="evenodd" clip-rule="evenodd" d="M118.223 94.3612C118.587 93.7439 119.039 93.0642 119.746 92.9471C120.025 92.9009 120.172 92.598 120.266 92.3318C121.435 89.053 121.548 85.4068 120.584 82.062C120.308 81.1073 120.647 80.0952 120.983 79.1599C121.848 76.7462 122.713 74.3324 123.578 71.9187C123.082 71.0612 121.775 71.0866 121.106 70.3568C120.244 69.4176 120.894 67.9244 121.569 66.8433C125.513 60.5273 129.456 54.2112 133.399 47.8952C133.882 47.1214 134.943 46.8788 135.831 47.085C136.72 47.2912 137.479 47.8505 138.209 48.3964C141.086 50.5448 143.962 52.6932 146.838 54.8416C148.381 55.9947 150.085 57.4676 149.996 59.3924C149.947 60.4575 149.338 61.4043 148.748 62.2927C146.469 65.7278 144.19 69.1628 141.91 72.5978C140.626 74.533 140.981 77.0746 140.593 79.3645C139.979 82.9827 137.499 85.9542 135.201 88.8157C132.904 91.6773 130.606 94.8726 130.476 98.5401C130.323 102.911 128.246 107.18 124.903 110C125.873 107.647 119.746 108.585 112.737 105.797C113.891 101.716 116.068 98.013 118.223 94.3612Z" fill="white"/>
<path fill-rule="evenodd" clip-rule="evenodd" d="M41.2663 104.595C40.8293 104.237 40.6899 103.634 40.6128 103.073C39.7202 96.5822 43.5533 90.1761 42.8706 83.6601C42.5187 80.3022 40.976 77.169 39.0347 74.4134C37.6941 72.5105 37.6189 69.9612 38.1191 67.6843C38.6192 65.4074 39.6282 63.2784 40.3087 61.0493C43.3349 51.1364 39.6526 40.5464 36.012 30.8445C43.2665 27.336 51.7319 28.0155 59.7686 28.4909C67.8053 28.9662 76.4487 28.9999 83.147 24.5111C84.0651 34.2217 82.0407 43.943 80.0278 53.4853C90.2415 52.4901 100.455 51.4949 110.669 50.4997C110.962 50.4712 111.282 50.4492 111.526 50.6155C111.85 50.8374 111.9 51.29 111.919 51.6842C112.396 61.7829 112.686 71.8905 112.787 82.0001C112.789 82.2537 112.781 82.5364 112.603 82.7162C112.451 82.8702 112.218 82.9024 112.003 82.9263C97.6937 84.5212 83.384 86.116 69.0743 87.7109C67.8368 87.8488 66.0741 87.5265 66.1465 86.2772C66.4697 80.7068 66.2811 75.1066 65.5839 69.5709C61.781 69.427 57.9522 70.007 54.3604 71.271C53.5455 71.5578 52.5656 72.3289 53.0051 73.0758C55.9127 78.0175 52.3039 85.4453 56.2529 89.5934C57.6107 91.0197 57.5169 93.2635 57.2478 95.219C56.671 99.4104 55.691 103.546 54.3261 107.549C54.9859 102.941 41.6695 107.065 41.2663 104.595Z" fill="white"/>
<path fill-rule="evenodd" clip-rule="evenodd" d="M0.336432 0.00668329C0.348653 0.105018 0.295445 0.208274 0.208272 0.255391C0.138848 0.185933 0.0694241 0.116476 0 0.0470182C0.104075 0.001498 0.222109 -0.0114856 0.33359 0.0103235L0.336432 0.00668329Z" fill="#25282B"/>
<path fill-rule="evenodd" clip-rule="evenodd" d="M67.1212 95.3601C67.3649 95.4366 67.6055 95.531 67.8177 95.6732C68.2162 95.94 68.4873 96.3543 68.7475 96.7572C68.934 97.046 69.1231 97.3405 69.2162 97.6715C69.317 98.03 69.2991 98.4126 69.2315 98.7789C69.0212 99.9197 68.3172 100.961 67.3369 101.581C66.3565 102.201 65.1144 102.39 63.9937 102.091C63.7755 102.033 63.5558 101.954 63.388 101.802C63.247 101.676 63.152 101.506 63.0651 101.338C62.6085 100.453 62.3008 99.4693 62.336 98.474C62.3711 97.4787 62.7803 96.4715 63.5552 95.8459C64.5276 95.0609 65.9288 94.9859 67.1212 95.3601M65.7546 101.286C66.3642 101.194 66.9006 100.795 67.251 100.288C67.6014 99.7805 67.7811 99.172 67.8674 98.5614C67.9167 98.2128 67.9212 97.8132 67.6751 97.5614C67.5278 97.4107 67.3173 97.3434 67.1155 97.283C66.3576 97.0562 65.4924 96.8634 64.8136 97.2696C64.3193 97.5654 64.0437 98.1136 63.7938 98.6327C63.5012 99.2407 63.5735 100.008 63.9745 100.551C64.3754 101.093 65.0876 101.387 65.7546 101.286V101.286Z" fill="#25282B"/>
<path fill-rule="evenodd" clip-rule="evenodd" d="M94.9663 67.9776C94.9769 67.8483 94.9925 67.7095 95.0781 67.612C95.1618 67.5166 95.2935 67.4823 95.417 67.4535C98.6016 66.712 101.891 66.4219 105.156 66.5946C105.572 66.6166 106.107 66.7574 106.134 67.1729C106.292 69.5554 106.45 71.9379 106.607 74.3204C106.615 74.441 106.619 74.5747 106.542 74.6677C106.479 74.7435 106.378 74.7728 106.283 74.7976C102.887 75.6831 99.3069 75.8576 95.8408 75.3068C95.7516 75.2926 95.6577 75.2759 95.5884 75.2179C95.5046 75.1477 95.4753 75.0335 95.4514 74.9269C94.9403 72.6527 94.7762 70.3008 94.9663 67.9776ZM95.7172 71.9299C95.7797 72.8296 95.9684 73.7205 96.276 74.5683C96.5828 74.6125 96.8864 74.6762 97.192 74.7279C99.8261 75.174 102.52 74.7252 105.154 74.277C105.341 74.2452 105.546 74.2029 105.661 74.0525C105.779 73.8988 105.763 73.6848 105.742 73.4923C105.651 72.6713 105.56 71.8504 105.47 71.0294C105.462 70.9632 105.453 70.8922 105.408 70.8429C105.354 70.7831 105.265 70.7735 105.184 70.7682C103.313 70.6449 101.435 70.7846 99.5644 70.9242C98.5306 71.0014 97.4967 71.0785 96.4629 71.1557C96.2199 71.1738 95.9439 71.2098 95.8042 71.4095C95.7013 71.5565 95.7047 71.7508 95.7172 71.9299ZM95.7467 68.4961C95.5831 69.0209 95.5537 69.5868 95.6621 70.1257C95.6816 70.2225 95.709 70.3247 95.7825 70.3906C95.8914 70.4884 96.0575 70.4722 96.2023 70.451C97.9637 70.193 99.7441 70.0648 101.524 70.0678C101.775 70.0682 101.852 69.7301 101.85 69.479C101.846 69.111 101.842 68.743 101.838 68.375C101.835 68.1621 101.825 67.9275 101.679 67.7723C101.504 67.5857 101.211 67.5916 100.956 67.6111C100.366 67.6561 99.7764 67.7012 99.1866 67.7462C98.9045 67.7678 98.1562 67.9594 97.8124 67.9821C97.2136 68.0776 96.6149 68.1732 96.0161 68.2687C95.9523 68.2789 95.8849 68.2907 95.8357 68.3326C95.7879 68.3735 95.7654 68.4361 95.7467 68.4961ZM103.643 70.0969C104.111 70.103 104.58 70.0561 105.038 69.9576C105.147 69.9342 105.261 69.9044 105.339 69.8245C105.453 69.7072 105.452 69.5233 105.443 69.3599C105.419 68.8855 105.395 68.411 105.371 67.9365C105.362 67.7673 105.343 67.5767 105.211 67.4708C105.094 67.3776 104.93 67.3832 104.782 67.3933C104.261 67.4287 103.741 67.4641 103.22 67.4995C103.138 67.5052 103.051 67.5121 102.982 67.5577C102.856 67.641 102.837 67.8155 102.834 67.9665C102.822 68.4694 102.843 68.9731 102.895 69.4734C102.911 69.6182 102.932 69.7707 103.021 69.8855C103.161 70.0644 103.416 70.094 103.643 70.0969Z" fill="#FEBE3F"/>
<path fill-rule="evenodd" clip-rule="evenodd" d="M103.117 57.5658C103.812 57.2647 104.666 57.3656 105.272 57.8206C105.879 58.2755 106.214 59.0669 106.12 59.8191C106.546 59.5887 107.087 59.3617 107.485 59.6385C107.934 59.951 107.831 60.624 107.764 61.1671C107.646 62.116 107.799 63.0969 108.2 63.9649C108.365 64.3234 108.508 64.8674 108.14 65.012C108.078 65.0364 108.01 65.042 107.944 65.0474C103.635 65.3947 99.3263 65.742 95.0174 66.0893C94.8992 66.0988 94.7669 66.1039 94.6775 66.0261C94.5863 65.9466 94.5749 65.8114 94.5699 65.6905C94.5286 64.6769 94.4873 63.6632 94.446 62.6496C94.435 62.3777 94.4296 62.0845 94.5832 61.8599C94.8373 61.4881 95.3696 61.4892 95.8142 61.418C96.2589 61.3468 96.7762 60.9716 96.605 60.555C96.4142 60.0906 97.0645 59.7513 97.5608 59.6757C98.0571 59.6002 98.7154 59.3043 98.565 58.8253C98.4008 58.302 99.1208 57.9772 99.6644 57.905C100.048 57.8541 100.449 57.8048 100.813 57.9364C101.177 58.0681 101.484 58.4427 101.402 58.8209C101.309 59.2539 101.836 59.6573 102.252 59.5044C102.667 59.3514 102.836 58.7831 102.625 58.3933C102.454 58.0749 102.785 57.7096 103.117 57.5658ZM105.342 64.2455C105.181 63.9467 105.179 63.5909 105.178 63.2514C105.171 61.6571 105.073 60.0632 104.885 58.4801C104.875 58.4002 104.86 58.3109 104.795 58.2641C104.738 58.2237 104.663 58.2285 104.594 58.2349C104.257 58.2664 103.858 58.3408 103.725 58.6517C103.668 58.7843 103.675 58.9342 103.683 59.0782C103.768 60.6761 103.853 62.274 103.939 63.8718C103.947 64.0207 103.966 64.1915 104.09 64.2747C104.158 64.32 104.242 64.3284 104.323 64.3329C104.665 64.3515 105.009 64.322 105.342 64.2455ZM99.5461 61.7888C99.5044 62.0549 99.4457 62.3193 99.4301 62.5882C99.4039 63.0378 99.4986 63.4847 99.5928 63.925C99.6532 64.2074 100.018 64.3464 100.285 64.2375C100.553 64.1286 100.714 63.8433 100.759 63.558C100.803 63.2727 100.751 62.9824 100.706 62.6972C100.527 61.577 100.45 60.4407 100.475 59.3066C100.481 59.0196 100.202 58.7605 99.916 58.7888C99.6303 58.8171 99.4069 59.1262 99.4695 59.4064C99.6438 60.1863 99.67 60.9992 99.5461 61.7888ZM102.38 60.2585C102.212 60.0384 101.827 60.1556 101.696 60.3995C101.565 60.6433 101.605 60.9391 101.638 61.214C101.723 61.9321 101.731 62.6592 101.662 63.3789C101.641 63.5911 101.619 63.8228 101.736 64.0008C101.916 64.2748 102.312 64.2723 102.638 64.2392C102.74 64.2288 102.858 64.209 102.909 64.12C102.945 64.058 102.936 63.9811 102.927 63.9102C102.776 62.7935 102.626 61.6768 102.476 60.56C102.461 60.4543 102.445 60.3433 102.38 60.2585ZM106.112 60.7383C105.986 60.9109 105.959 61.1356 105.948 61.3494C105.91 62.0824 106.007 62.8149 106.104 63.5424C106.142 63.8291 106.273 64.1975 106.562 64.1779C106.854 64.1581 106.931 63.767 106.924 63.474C106.906 62.698 106.888 61.922 106.87 61.146C106.865 60.9419 106.844 60.7056 106.674 60.5916C106.497 60.4722 106.239 60.5657 106.112 60.7383ZM97.2804 60.555C97.2804 60.555 97.4088 61.5677 97.4536 62.0838C97.5098 62.7316 97.5814 63.3781 97.6684 64.0225C97.681 64.1161 97.6979 64.2174 97.7669 64.2818C97.8866 64.3935 98.3483 64.3193 98.4333 64.1794C98.5184 64.0395 98.5136 63.8649 98.5062 63.7014C98.4828 63.1841 98.4593 62.6669 98.4359 62.1496C98.4108 61.5951 98.279 60.3995 98.279 60.3995M95.6058 64.2221C95.6427 64.3382 95.6863 64.4596 95.7801 64.5372C95.9631 64.6887 96.2599 64.5949 96.4042 64.4062C96.5485 64.2174 96.5811 63.9688 96.6086 63.7328C96.6425 63.4432 96.6752 63.1423 96.5815 62.8662C96.4877 62.5902 96.2282 62.3473 95.9378 62.3729C95.6707 62.3965 95.4639 62.6406 95.4016 62.9014C95.3392 63.1622 95.3918 63.4357 95.4566 63.6959C95.5007 63.8728 95.5505 64.0484 95.6058 64.2221Z" fill="#E7EAF0"/>
<path fill-rule="evenodd" clip-rule="evenodd" d="M114.416 24.3174C113.78 25.2725 113.09 26.24 112.106 26.8297C111.122 27.4194 109.763 27.5342 108.878 26.8032C107.902 25.9966 107.842 24.5426 107.919 23.2788C107.949 22.7922 107.988 22.3018 108.127 21.8347C108.369 21.0245 108.897 20.3332 109.448 19.6921C110.117 18.9144 110.857 18.1642 111.785 17.7265C112.712 17.2888 113.865 17.212 114.734 17.7565C115.774 18.4083 116.159 19.7949 115.962 21.0066C115.765 22.2184 115.097 23.2957 114.416 24.3174ZM112.396 25.3279C113.198 24.4733 113.886 23.5117 114.436 22.4765C114.798 21.7953 115.106 21.0548 115.091 20.2836C115.077 19.5124 114.67 18.7062 113.954 18.42C113.021 18.0473 111.997 18.6436 111.217 19.2771C110.662 19.7282 110.125 20.223 109.769 20.8433C109.544 21.2355 109.398 21.6671 109.253 22.0955C108.978 22.906 108.7 23.7505 108.805 24.5997C108.909 25.4489 109.517 26.3015 110.368 26.3895C111.155 26.4709 111.854 25.9052 112.396 25.3279Z" fill="#FEBE3F"/>
<path fill-rule="evenodd" clip-rule="evenodd" d="M26.6303 29.5401C27.6269 30.5498 28.4497 31.7307 29.0515 33.0155C29.6563 34.3067 29.0465 35.9661 27.8595 36.7561C26.6726 37.546 25.0677 37.5356 23.7663 36.9535C22.4648 36.3713 21.442 35.2849 20.6887 34.0742C20.1208 33.1615 19.6805 32.1386 19.6333 31.0647C19.5861 29.9907 19.9814 28.8605 20.8309 28.2019C21.6901 27.5358 22.8983 27.4406 23.9374 27.7602C24.9764 28.0799 25.8666 28.7664 26.6303 29.5401ZM22.7418 28.9262C21.8794 28.8374 21.1134 29.6289 20.9654 30.4832C20.8175 31.3375 21.1431 32.2043 21.5645 32.962C22.4782 34.6051 24.1084 36.0646 25.9861 35.9737C26.9513 35.927 28.0093 35.2583 27.9921 34.292C27.9847 33.8741 27.7786 33.4886 27.5727 33.1249C27.0259 32.1587 26.4352 31.2024 25.6463 30.4212C24.8574 29.6401 23.8461 29.0399 22.7418 28.9262Z" fill="#FEBE3F"/>
<path fill-rule="evenodd" clip-rule="evenodd" d="M64.6648 98.1576C65.0434 97.8699 65.5142 97.6837 65.9886 97.7144C66.4631 97.745 66.9327 98.0172 67.1311 98.4492C67.3441 98.913 67.2114 99.4891 66.8791 99.8763C66.5468 100.264 66.046 100.477 65.5407 100.548C65.1958 100.596 64.7847 100.553 64.5959 100.26C64.5047 100.119 64.4841 99.9452 64.4658 99.7782C64.4329 99.4783 64.4 99.1784 64.3671 98.8786C64.3532 98.7515 64.3397 98.6197 64.3806 98.4986C64.4286 98.3562 64.5452 98.2485 64.6648 98.1576M66.1624 99.0201C66.2175 98.9778 66.2751 98.932 66.2991 98.8669C66.3759 98.6581 66.0745 98.5194 65.8521 98.5244C65.5294 98.5317 65.1156 98.7491 65.2144 99.0565C65.2716 99.2344 65.4905 99.3167 65.6745 99.2839C65.8584 99.2512 66.0143 99.1339 66.1624 99.0201H66.1624Z" fill="#25282B"/>
<path fill-rule="evenodd" clip-rule="evenodd" d="M118.286 2.28362C121.236 5.33734 123.564 8.98886 125.088 12.9516C125.193 13.2238 125.294 13.5261 125.194 13.8001C124.425 15.9096 122.942 17.6683 121.487 19.3784L118.698 22.6565C117.811 23.6996 116.923 24.743 116.006 25.7599C111.335 30.9376 105.815 35.465 99.4226 38.2507C99.1814 38.3558 98.9226 38.4607 98.6628 38.4187C98.403 38.3766 98.1596 38.1244 98.2276 37.8701C99.0179 34.9155 99.8133 31.8264 99.1791 28.8343C99.0261 28.1126 98.8556 27.2039 99.4519 26.7696C104.28 23.2536 107.756 18.2278 111.087 13.2703C111.925 12.0238 112.76 10.7738 113.501 9.46763C114.817 7.14853 115.831 4.65798 116.508 2.0789C116.601 1.72498 117.048 1.56561 117.402 1.65836C117.756 1.75111 118.032 2.02044 118.286 2.28362ZM116.222 6.07581C115.922 5.95184 115.646 6.28714 115.493 6.57333C115.353 6.83633 115.213 7.09967 115.073 7.36323L114.998 7.50402C111.942 13.2449 108.839 19.0739 104.182 23.5956C103.742 24.0228 103.25 24.539 103.331 25.1469C103.591 27.0957 102.551 29.1536 100.828 30.0997C100.045 30.5293 100.054 31.6376 100.169 32.5228C100.215 32.8772 100.349 33.3214 100.705 33.3514C101.749 33.4394 102.751 33.9536 103.432 34.7505C103.647 35.0019 104.054 34.8448 104.334 34.6688C111.379 30.2392 116.792 23.6964 122.078 17.2679C122.26 17.0461 122.454 16.7667 122.359 16.4957C121.559 14.2171 121.687 11.6276 122.708 9.43918C122.106 8.24038 121.388 7.09968 120.568 6.03803C119.203 6.63066 117.597 6.64462 116.222 6.07581ZM99.5119 37.0805C99.7897 37.2261 100.126 37.0877 100.404 36.9425C101.135 36.5611 101.839 36.1281 102.509 35.6479C102.686 35.521 102.738 35.2675 102.676 35.0589C102.613 34.8502 102.457 34.682 102.283 34.5503C101.741 34.1391 100.984 34.0309 100.349 34.2741C100.232 34.319 100.115 34.3776 100.034 34.4737C99.9395 34.5863 99.9049 34.7363 99.8745 34.8802C99.7211 35.6078 99.6 36.3422 99.5119 37.0805ZM119.296 4.55855C118.818 3.62243 118.079 2.82078 117.186 2.2668C116.875 2.54083 116.815 2.95724 116.753 3.38175C116.711 3.67304 116.668 3.96815 116.543 4.2237C116.503 4.30692 116.453 4.38654 116.404 4.46597C116.309 4.6172 116.215 4.76778 116.185 4.94145C116.139 5.20635 116.363 5.53867 116.617 5.45102C116.824 5.37976 117.04 5.42553 117.259 5.4717C117.374 5.49606 117.49 5.52054 117.605 5.52797C118.276 5.57129 118.833 5.04558 119.296 4.55855ZM123.09 10.1693C122.578 11.1894 122.659 12.3943 122.752 13.5323L122.886 15.1643C122.9 15.3438 122.998 15.586 123.171 15.5363C123.279 15.2357 123.483 14.9877 123.688 14.739C123.868 14.5215 124.047 14.3035 124.163 14.0493C124.555 13.1886 124.12 12.1966 123.692 11.3535L123.09 10.1693ZM100.135 28.2832C100.157 28.6024 100.488 28.8414 100.808 28.8324C101.128 28.8234 101.416 28.6165 101.602 28.3568C101.789 28.0971 101.892 27.7877 101.992 27.4838L102.321 26.48C102.413 26.2002 102.419 25.7723 102.126 25.7394C102.021 25.7275 101.92 25.7834 101.833 25.845C101.505 26.0782 101.266 26.4133 101.034 26.7418L100.4 27.6367C100.263 27.8308 100.119 28.0459 100.135 28.2832Z" fill="#25282B"/>
<path fill-rule="evenodd" clip-rule="evenodd" d="M24.5865 25.6039C22.3612 21.5289 20.9405 17.0164 20.4301 12.4014C20.3987 12.1177 20.0858 11.9338 19.8005 11.9437C19.5152 11.9536 19.2561 12.1043 19.0135 12.2548C15.5688 14.3908 12.6365 17.3473 10.5288 20.8096C10.3155 21.1601 10.1051 21.5322 10.0782 21.9416C10.0517 22.3435 10.2051 22.7332 10.3632 23.1036C12.6883 28.5515 16.5655 33.1723 20.5014 37.5986C23.5328 41.0078 26.7778 44.4588 31.0046 46.1748C31.6877 46.4522 32.68 46.5652 32.9696 45.8871C33.0539 45.6898 33.0494 45.4678 33.045 45.2532L33.0448 45.245C32.9983 42.9464 33.2594 40.6417 33.8192 38.4118C33.9487 37.8959 34.0161 37.2001 33.5335 36.9765C31.7187 36.1353 30.4749 34.4392 29.3118 32.8117C27.6403 30.4729 25.9644 28.1269 24.5865 25.6039ZM28.5151 43.4163C28.2651 43.483 28.0155 43.3253 27.8068 43.1724C23.9598 40.3535 20.9787 36.5383 18.0496 32.7743L12.8806 26.132C13.7531 25.5763 13.8639 24.3688 13.8829 23.3344C13.9076 21.9899 13.9257 20.6056 13.44 19.3516C13.3321 19.0729 13.4726 18.764 13.6231 18.5057C14.2685 17.3982 15.1636 16.4371 16.2224 15.7147C16.3249 15.6447 16.4334 15.5753 16.5563 15.5579C16.8805 15.5121 17.1293 15.8275 17.3026 16.1054C17.9869 17.2029 18.9275 18.4442 20.2177 18.3538C20.7089 18.3194 20.9813 18.8981 21.1247 19.3693C22.9068 25.2289 26.2529 30.5141 30.1768 35.2163C30.6868 35.8273 30.8147 36.652 30.9415 37.4692C31.0828 38.3805 31.2228 39.2825 31.8893 39.8684C32.4585 40.3687 32.3528 41.2671 32.1993 42.0092C32.1678 42.161 32.1304 42.3237 32.0151 42.4273C31.9294 42.5043 31.8137 42.5364 31.7024 42.5661L28.5151 43.4163ZM19.3952 16.9965C18.6895 16.5033 18.0799 15.8732 17.6105 15.1515C17.5089 14.9953 17.4103 14.8204 17.4281 14.635C17.4475 14.4334 17.5991 14.2721 17.75 14.1371C18.1226 13.8036 18.5437 13.5244 18.9959 13.311C19.1615 13.2329 19.3754 13.1694 19.5129 13.2903C19.5939 13.3614 19.6195 13.4751 19.6406 13.5808L20.2924 16.8411C20.331 17.0338 20.1288 17.2074 19.9324 17.213C19.7359 17.2186 19.5563 17.1091 19.3952 16.9965ZM12.945 23.3023C12.9312 23.9156 12.8843 24.6038 12.4248 25.01C12.3287 25.0215 12.2648 24.9159 12.2271 24.8267C11.896 24.0429 11.5604 23.2401 11.5082 22.3908C11.4561 21.5415 11.7407 20.6218 12.4346 20.1295C12.5285 20.0629 12.6663 20.0079 12.7491 20.0878C12.7824 20.1199 12.7967 20.1665 12.8088 20.2112C12.9974 20.9044 12.9826 21.6345 12.9664 22.3527L12.945 23.3023ZM31.6714 43.7004C31.7828 43.7916 31.7947 43.9547 31.7977 44.0987L31.8308 45.675C31.1843 45.3165 30.5649 44.9091 29.9797 44.4575C29.8687 44.3718 29.7468 44.2331 29.8148 44.1105C29.8485 44.0497 29.9185 44.0204 29.9837 43.9964C30.4021 43.8421 30.8346 43.7264 31.2741 43.6511C31.41 43.6279 31.5647 43.6131 31.6714 43.7004ZM31.7086 37.4915C31.7027 37.4203 31.7027 37.3427 31.745 37.2852C31.8566 37.1334 32.0988 37.2708 32.2012 37.429C32.4478 37.8099 32.5022 38.3089 32.3436 38.7341C31.9814 38.4235 31.7482 37.967 31.7086 37.4915Z" fill="#25282B"/>
<path fill-rule="evenodd" clip-rule="evenodd" d="M131.618 27.2762C131.576 26.7868 131.249 26.3056 130.774 26.183C130.17 26.0273 129.584 26.4526 129.105 26.8515C128.963 26.9695 128.815 27.0964 128.755 27.2709C128.653 27.5669 128.836 27.8788 129.017 28.1346C129.224 28.4275 129.445 28.7219 129.746 28.9154C130.048 29.109 130.451 29.1842 130.767 29.0159C130.928 28.9302 131.054 28.7902 131.163 28.6436C131.456 28.2496 131.659 27.7655 131.618 27.2762ZM130.278 28.5306C130.074 28.5613 129.861 28.4786 129.711 28.3367C129.485 28.1241 129.395 27.7824 129.474 27.4825C129.557 27.1668 129.822 26.906 130.139 26.8281C130.456 26.7502 130.812 26.8585 131.032 27.0998C131.024 27.1656 131.017 27.2318 131.01 27.298C130.986 27.523 130.963 27.7484 130.885 27.9598C130.784 28.2334 130.566 28.4874 130.278 28.5306Z" fill="#25282B"/>
<path fill-rule="evenodd" clip-rule="evenodd" d="M130.865 24.6196C129.829 24.5943 128.654 24.7111 128.01 25.5228C127.756 25.8427 127.616 26.2382 127.516 26.6342C127.359 27.2538 127.287 27.895 127.304 28.5339C127.311 28.811 127.542 29.0255 127.766 29.1894C128.223 29.5247 128.727 29.7964 129.259 29.9943C129.658 30.1428 130.088 30.2507 130.508 30.1804C130.779 30.1349 131.036 30.0153 131.257 29.8513C131.75 29.4865 132.058 28.9137 132.206 28.3191C132.355 27.7245 132.359 27.1039 132.34 26.4913C132.319 25.818 132.189 25.0171 131.576 24.7377C131.356 24.6373 131.107 24.6256 130.865 24.6196ZM131.702 28.3607C131.388 29.1624 130.508 29.8026 129.681 29.565C129.157 29.4146 128.645 29.1688 128.279 28.7647C127.913 28.3606 127.715 27.7785 127.865 27.2542C127.915 27.079 128.001 26.9164 128.086 26.7553L128.57 25.8391C128.635 25.7166 128.701 25.5925 128.797 25.4919C128.971 25.3075 129.226 25.2221 129.475 25.1722C129.977 25.0719 130.502 25.0897 130.996 25.2237C131.315 25.3103 131.661 25.4911 131.727 25.815C131.899 26.6584 132.015 27.5589 131.702 28.3607Z" fill="#25282B"/>
<path fill-rule="evenodd" clip-rule="evenodd" d="M119.71 41.0276C119.902 41.3202 119.842 41.7111 119.715 42.037C119.547 42.4665 119.264 42.8645 118.863 43.093C118.463 43.3215 117.937 43.3549 117.546 43.1093C117.156 42.8637 116.96 42.3176 117.169 41.9066C117.218 41.8116 117.284 41.7274 117.35 41.6432C117.413 41.5626 117.476 41.482 117.524 41.3918C117.555 41.3324 117.58 41.2695 117.604 41.2066C117.639 41.1159 117.675 41.0254 117.73 40.9463C117.929 40.665 118.32 40.6097 118.665 40.6146C119.055 40.6201 119.496 40.7009 119.71 41.0276ZM118.839 41.2134C118.304 41.2067 117.803 41.6548 117.75 42.1866C117.729 42.4039 117.821 42.6741 118.037 42.704C118.199 42.7265 118.341 42.6012 118.45 42.4791C118.681 42.2208 118.879 41.9335 119.038 41.6261C119.092 41.523 119.139 41.3906 119.068 41.2981C119.017 41.2307 118.923 41.2145 118.839 41.2134Z" fill="#25282B"/>
<path fill-rule="evenodd" clip-rule="evenodd" d="M120.581 40.1655C120.053 39.5592 119.366 39.0935 118.607 38.8287C118.193 38.6843 117.729 38.601 117.322 38.7633C117.073 38.8625 116.867 39.0449 116.673 39.23C116.191 39.6903 115.736 40.206 115.504 40.8307C115.32 41.3245 115.286 41.8602 115.278 42.387C115.275 42.6 115.278 42.8187 115.355 43.0173C115.467 43.3055 115.72 43.5126 115.975 43.6872C116.456 44.0163 116.982 44.2796 117.533 44.4672C118.01 44.6295 118.521 44.7358 119.017 44.6471C119.963 44.478 120.651 43.6414 121.051 42.7683C121.157 42.5378 121.249 42.2983 121.284 42.0471C121.38 41.363 121.034 40.6866 120.581 40.1655ZM120.163 41.3246C120.25 42.0912 119.931 42.8778 119.383 43.4204C119.046 43.7538 118.614 44.0063 118.144 44.0658C117.674 44.1252 117.166 43.9718 116.855 43.614C116.37 43.0554 116.142 42.2809 116.249 41.5484C116.355 40.8158 116.794 40.1381 117.418 39.7409C117.564 39.6481 117.721 39.5696 117.887 39.5234C118.196 39.438 118.531 39.4683 118.832 39.5771C119.558 39.8388 120.076 40.5581 120.163 41.3246Z" fill="#25282B"/>
<path fill-rule="evenodd" clip-rule="evenodd" d="M143.821 61.7112C143.634 61.781 143.425 61.7333 143.234 61.6734C141.943 61.2674 140.894 60.3596 139.863 59.4673L139.862 59.4664L139.861 59.4655C139.723 59.3453 139.584 59.2253 139.445 59.107C137.738 57.6503 135.885 56.3643 133.922 55.2744C133.723 55.1635 133.513 55.0468 133.391 54.8539C133.269 54.6611 133.273 54.3674 133.461 54.2387C134.341 53.6379 134.912 52.6069 134.953 51.5422C134.965 51.2585 135.285 51.0693 135.568 51.0921C135.851 51.1148 136.098 51.2849 136.329 51.4492L145.295 57.8144C145.47 57.9383 145.658 58.0819 145.7 58.2916C145.735 58.4628 145.664 58.636 145.591 58.7951C145.205 59.6485 144.76 60.4755 144.261 61.2686C144.149 61.4482 144.02 61.6371 143.821 61.7112ZM134.851 54.1603C134.746 54.3462 134.654 54.6151 134.825 54.7437L142.141 60.2531C142.542 60.5549 143.165 60.8376 143.48 60.4477C143.843 59.9999 144.181 59.5328 144.494 59.049C144.579 58.9166 144.666 58.7654 144.635 58.6108C144.607 58.4697 144.489 58.3673 144.377 58.2767C141.692 56.0993 138.849 54.1166 135.878 52.3494L134.851 54.1603Z" fill="#25282B"/>
<path fill-rule="evenodd" clip-rule="evenodd" d="M131.21 57.5295C131.328 57.3268 131.472 57.105 131.701 57.0553C131.876 57.0172 132.055 57.0923 132.216 57.1708C133.097 57.5987 133.904 58.1786 134.59 58.8773C134.755 59.0454 134.776 59.316 134.702 59.5399C134.629 59.7638 134.477 59.9522 134.329 60.1352C134.09 60.4293 133.836 60.7352 133.484 60.8748C133.104 61.0254 132.661 60.9528 132.301 60.7589C131.941 60.5651 131.653 60.2618 131.398 59.9419C131.066 59.5247 130.769 59.0243 130.82 58.4934C130.854 58.1456 131.034 57.8314 131.21 57.5295ZM132.751 59.8656C133.305 60.0811 133.659 59.9103 133.674 59.5469C133.683 59.3176 133.483 59.141 133.301 59.0011L132.751 58.5777C132.569 58.4378 132.368 58.2913 132.139 58.2927C131.909 58.2942 131.676 58.5308 131.77 58.7402C131.756 58.8413 132.197 59.6501 132.751 59.8656Z" fill="#25282B"/>
<path fill-rule="evenodd" clip-rule="evenodd" d="M130.564 64.3391C130.699 64.4131 130.842 64.4855 130.996 64.4887C131.15 64.492 131.317 64.4047 131.355 64.2554C131.444 63.9048 131.676 63.6142 131.903 63.3297C131.928 63.2986 131.952 63.2677 131.977 63.2367C132.226 62.9219 132.465 62.5654 132.472 62.1643C132.479 61.7633 132.147 61.3358 131.749 61.3906C131.436 61.4337 131.145 61.2285 130.918 61.009C130.905 60.997 130.893 60.9849 130.881 60.9727C130.857 60.9493 130.833 60.9257 130.81 60.9021C130.619 60.7123 130.426 60.5194 130.173 60.437C129.873 60.3391 129.464 60.4949 129.44 60.81C129.392 61.4447 128.864 61.9226 128.375 62.3297C128.229 62.4515 128.361 62.6853 128.498 62.8177C129.115 63.4139 129.812 63.9271 130.564 64.3391ZM130.662 63.1297L129.698 62.4778C129.453 62.312 129.473 61.9059 129.691 61.7064C129.91 61.5069 130.249 61.4916 130.528 61.5915C130.806 61.6914 131.038 61.8873 131.263 62.0793C131.412 62.2065 131.432 62.4379 131.364 62.6215C131.296 62.8051 131.157 62.9522 131.022 63.0938C130.976 63.1423 130.924 63.1937 130.858 63.2023C130.787 63.2114 130.721 63.1696 130.662 63.1297Z" fill="#25282B"/>
<path fill-rule="evenodd" clip-rule="evenodd" d="M138.301 63.1726L138.772 62.1714C138.917 61.8648 139.056 61.4854 138.862 61.2082C138.794 61.1119 138.694 61.044 138.597 60.9783L136.882 59.8229C136.698 59.6983 136.497 59.5688 136.274 59.5723C136.01 59.5765 135.789 59.7651 135.601 59.9511C135.32 60.2297 135.057 60.5267 134.815 60.8396C134.631 61.0779 134.48 61.4698 134.731 61.6351L137.355 63.3564C137.562 63.4922 137.824 63.6318 138.042 63.5135C138.17 63.4441 138.239 63.3041 138.301 63.1726ZM137.72 62.4638C137.61 62.4892 137.495 62.4612 137.386 62.4286C136.724 62.229 136.118 61.8467 135.652 61.3352C135.498 61.165 135.585 60.8646 135.782 60.7453C135.979 60.6261 136.234 60.6535 136.447 60.7425C136.584 60.8001 136.709 60.8802 136.834 60.9605C136.903 61.0044 136.972 61.0485 137.043 61.0888C137.119 61.1321 137.198 61.172 137.278 61.2118C137.503 61.3248 137.729 61.4379 137.883 61.6334C138.091 61.8979 138.048 62.3885 137.72 62.4638Z" fill="#25282B"/>
<path fill-rule="evenodd" clip-rule="evenodd" d="M138.606 63.5822C138.908 63.5103 139.001 63.2021 139.097 62.8816C139.176 62.6168 139.258 62.3437 139.463 62.1888C139.815 61.9222 140.315 62.145 140.695 62.3711L141.903 63.0901C142.096 63.2047 142.293 63.3232 142.431 63.4997C142.569 63.6761 142.637 63.9261 142.54 64.1283C142.476 64.2633 142.354 64.3528 142.231 64.4429C142.13 64.5168 142.029 64.5912 141.958 64.6914C141.868 64.8202 141.834 64.9815 141.8 65.1409C141.758 65.341 141.717 65.5381 141.565 65.6639C141.286 65.8931 140.873 65.7094 140.565 65.5215L138.863 64.481C138.691 64.376 138.51 64.2608 138.426 64.0781C138.341 63.8953 138.41 63.6288 138.606 63.5822ZM140.838 64.6154C141.082 64.5321 141.277 64.3513 141.466 64.1753C141.602 64.0478 141.419 63.8378 141.257 63.7462L140.214 63.1588C140.105 63.0975 139.954 63.0417 139.869 63.1337C139.598 63.4302 139.558 63.9141 139.778 64.2507C139.998 64.5874 140.457 64.7453 140.838 64.6154Z" fill="#25282B"/>
<path fill-rule="evenodd" clip-rule="evenodd" d="M128.87 64.5789C128.637 64.5131 128.399 64.4461 128.208 64.316C127.912 64.114 127.5 64.1629 127.189 64.3415C126.878 64.52 126.647 64.8062 126.422 65.0858C126.298 65.241 126.17 65.4029 126.122 65.596C126.075 65.7892 126.132 66.0233 126.305 66.1202L128.124 67.1341C128.262 67.2109 128.416 67.2903 128.57 67.2561C128.723 67.2222 128.829 67.086 128.921 66.9589L129.389 66.3149C129.65 65.9564 129.922 65.4995 129.731 65.0994C129.579 64.7787 129.229 64.6802 128.87 64.5789ZM128.295 66.2471C128.2 66.2723 128.102 66.2264 128.014 66.1818L126.775 65.5511C127.013 65.2139 127.466 65.0845 127.877 65.1253C128.288 65.1661 128.669 65.3488 129.041 65.5286L128.472 66.1201C128.42 66.1731 128.366 66.2283 128.295 66.2471Z" fill="#25282B"/>
<path fill-rule="evenodd" clip-rule="evenodd" d="M114.022 104.856C115.136 100.916 117.238 97.3405 119.319 93.8147C119.67 93.2187 120.106 92.5623 120.789 92.4493C121.058 92.4047 121.2 92.1122 121.292 91.8552C122.42 88.6895 122.529 85.1689 121.598 81.9395C121.332 81.0177 121.659 80.0405 121.983 79.1374L124.489 72.1458C124.228 71.695 123.736 71.497 123.236 71.2963C122.819 71.1284 122.397 70.9587 122.102 70.6378C121.27 69.731 121.898 68.2893 122.549 67.2455L133.972 48.9506C134.438 48.2034 135.462 47.9693 136.32 48.1683C137.178 48.3674 137.91 48.9074 138.616 49.4346L146.947 55.6576C148.437 56.7709 150.082 58.193 149.997 60.0514C149.949 61.0798 149.361 61.994 148.791 62.8518L142.189 72.8016C141.335 74.0882 141.232 75.6523 141.128 77.2237C141.081 77.9343 141.034 78.6464 140.917 79.335C140.348 82.6943 138.111 85.4763 135.968 88.1418C135.882 88.2481 135.797 88.3544 135.712 88.4604C133.494 91.2233 131.274 94.3084 131.15 97.8495C131.001 102.07 128.996 106.192 125.768 108.914L128.577 102.099C129.245 100.478 129.864 98.4612 128.746 97.1108C128.24 96.4998 127.475 96.1766 126.742 95.8755L122.379 94.0853C122.078 93.9618 121.768 93.8365 121.443 93.8345C120.429 93.8283 119.826 94.9277 119.415 95.8543C117.994 99.0598 116.178 102.09 114.022 104.856ZM128.368 95.5998C129.116 95.8768 130.169 96.045 130.523 95.3304C132.239 91.8716 134.002 88.3463 136.733 85.6171C138.307 84.0441 139.271 81.9452 139.817 79.7878C140.363 77.6304 140.518 75.3961 140.67 73.1759C140.007 73.4172 139.95 74.3116 139.953 75.0169C139.959 76.5718 139.687 78.1274 139.154 79.588C139.042 79.8937 138.893 80.2241 138.594 80.353C138.295 80.482 137.855 80.2229 137.955 79.9134C138.726 77.5375 139.013 75.0059 138.794 72.5177C138.727 71.7462 138.583 70.921 138.034 70.3743C138.094 71.5923 138.153 72.8159 138.03 74.0292C137.816 76.1284 137.064 78.1298 136.318 80.1035C136.221 80.3598 136.104 80.6391 135.858 80.7595C135.612 80.88 135.23 80.6891 135.294 80.4228L136.411 75.8047C137.026 73.2655 137.63 70.5341 136.679 68.1009C136.2 68.0688 136.087 68.7535 136.13 69.2316C136.423 72.5062 135.518 75.7564 134.621 78.9195C134.517 79.2888 134.147 79.7506 133.859 79.4966C133.735 79.3871 133.729 79.1983 133.739 79.0331C133.796 78.1029 134.051 77.2024 134.305 76.3029C134.384 76.0237 134.463 75.7446 134.536 75.4647C135.21 72.885 135.382 70.1753 135.039 67.5313C134.449 68.2877 134.199 69.247 133.963 70.1768L132.561 75.6963C131.927 78.1913 131.117 80.9343 128.919 82.2747C128.744 82.3815 128.541 82.4807 128.342 82.4334C128.094 82.3746 127.953 82.1184 127.85 81.8855C126.447 78.7259 126.272 75.0397 127.369 71.7613C127.435 71.5623 127.233 71.3544 127.024 71.3379C126.815 71.3215 126.619 71.4354 126.448 71.5564C124.648 72.8262 123.959 75.1264 123.387 77.2532L122.625 80.0812C122.514 80.4943 122.402 80.9111 122.379 81.3382C122.344 81.9873 122.513 82.6225 122.682 83.2543C122.721 83.4007 122.76 83.547 122.797 83.6932C123.529 86.6313 123.198 89.8223 121.879 92.5478C121.685 92.9496 122.198 93.3151 122.617 93.4701L128.368 95.5998ZM131.21 68.6104C130.91 68.4037 130.589 68.1677 130.496 67.8154C130.354 67.275 130.868 66.7322 131.422 66.6595C131.976 66.5868 132.518 66.8543 132.977 67.1727C133.624 67.6213 134.442 66.9373 134.927 66.3167C134.273 65.9259 133.65 65.3194 133.625 64.5586C133.599 63.7979 134.524 63.0732 135.139 63.521C135.378 63.6947 135.667 63.801 135.953 63.9062C136.381 64.0637 136.802 64.2186 137.036 64.5935C137.304 65.0199 137.209 65.5965 136.937 66.0199C136.665 66.4434 136.246 66.7473 135.838 67.0409C136.424 67.0991 136.995 67.3082 137.48 67.6426L138.009 66.1014C138.05 65.9819 138.095 65.8569 138.189 65.7725C138.37 65.6098 138.652 65.6601 138.884 65.7338C139.493 65.927 140.091 66.2288 140.492 66.7255C140.894 67.2221 141.062 67.9436 140.781 68.5175C140.5 69.0914 139.708 69.3975 139.17 69.0514C139.059 68.9796 138.947 68.8837 138.835 68.7877C138.536 68.5312 138.236 68.2747 137.947 68.48C138.83 69.1672 139.436 70.1996 139.606 71.3051C142.384 67.0732 145.132 62.8218 147.85 58.5512C148.109 58.1435 148.319 57.5009 147.896 57.2665C146.091 56.2651 144.496 54.9238 142.904 53.5858C140.895 51.8968 138.892 50.2129 136.481 49.2241C136.328 49.1613 136.161 49.1006 136.001 49.1428C135.833 49.187 135.716 49.3328 135.61 49.4704C131.121 55.3304 127.092 61.543 123.573 68.0321C123.082 68.9374 123.739 70.0165 124.367 70.8322C124.682 71.2398 125.288 71.6703 125.63 71.2864C126.062 70.8024 126.77 70.5258 127.381 70.7419C127.993 70.958 128.373 71.7532 128.041 72.31C127.8 72.7127 128.271 73.1604 128.682 73.3857C129.504 73.836 130.347 74.2476 131.208 74.6186C131.327 74.6702 131.467 74.7208 131.583 74.6624C131.694 74.6068 131.739 74.4747 131.774 74.3556L132.727 71.075C132.884 70.5355 132.989 69.8353 132.526 69.5166L131.21 68.6104ZM148.264 59.4141C148.137 59.3707 148.022 59.4974 147.948 59.6087L140.81 70.2949C140.618 70.5823 140.421 70.8813 140.365 71.2224C140.309 71.5635 140.434 71.9602 140.745 72.1121C141.259 72.3636 141.796 71.8351 142.126 71.3675L148.758 61.9668C149.251 61.2688 148.834 60.3146 148.413 59.5716C148.376 59.5073 148.334 59.4381 148.264 59.4141ZM128.167 73.6839C128.041 73.5924 127.853 73.647 127.748 73.7614C127.643 73.8759 127.6 74.0326 127.56 74.1829C127.463 74.553 127.365 74.9267 127.35 75.3091C127.336 75.6915 127.405 76.0715 127.475 76.4479L128.158 80.1639C128.187 80.3197 128.22 80.4852 128.331 80.5988C128.441 80.7123 128.656 80.7369 128.746 80.6062C129.758 79.1264 130.784 77.6177 131.313 75.9049C131.379 75.692 131.398 75.3926 131.189 75.3141C130.115 74.9098 129.095 74.3598 128.167 73.6839ZM136.061 64.5153C135.718 64.1889 135.265 63.9804 134.795 63.9324C134.365 63.8886 134.118 64.4915 134.314 64.8758C134.51 65.2602 134.942 65.4506 135.343 65.6111C135.625 65.7244 135.968 65.8312 136.215 65.6523C136.569 65.3952 136.378 64.8171 136.061 64.5153ZM133.243 68.8214C133.382 68.722 133.401 68.5188 133.362 68.3519C133.214 67.7229 132.525 67.4016 131.905 67.2173C131.666 67.1461 131.368 67.0964 131.199 67.2807C131.058 67.4345 131.088 67.6893 131.21 67.8588C131.331 68.0284 131.522 68.1329 131.705 68.2319L132.662 68.747C132.843 68.8449 133.075 68.9411 133.243 68.8214ZM138.684 66.5544C138.482 66.8255 138.502 67.2197 138.671 67.513C138.84 67.8062 139.133 68.0098 139.441 68.1484C139.547 68.196 139.663 68.2378 139.777 68.2151C139.875 68.1956 139.959 68.1296 140.018 68.0498C140.239 67.7545 140.132 67.3098 139.879 67.0417C139.626 66.7735 139.266 66.6392 138.919 66.5135C138.859 66.4918 138.79 66.4708 138.735 66.5036C138.714 66.516 138.698 66.535 138.684 66.5544Z" fill="#25282B"/>
<path d="M49.267 33.8644C49.6291 33.8537 50.1123 33.9485 50.1378 34.3099L44.3974 35.1275C44.0881 35.1716 43.7413 35.2067 43.4924 35.0178C43.2435 34.8288 43.2686 34.3287 43.5788 34.2912C45.4671 34.0627 47.3657 33.9203 49.267 33.8644Z" fill="#25282B"/>
<path d="M44.4959 36.4795C44.3102 36.5005 44.0763 36.5678 44.06 36.754C44.0391 36.9924 44.3779 37.0609 44.6161 37.0378L56.0698 35.9262C56.2194 35.9117 56.3876 35.8869 56.4754 35.7649C56.5944 35.5994 56.4769 35.3499 56.2946 35.2587C56.1124 35.1674 55.8966 35.1882 55.6941 35.2111L44.4959 36.4795Z" fill="#25282B"/>
<path fill-rule="evenodd" clip-rule="evenodd" d="M42.7753 91.1319C42.9077 90.1533 43.0932 89.0763 43.862 88.4565C44.4751 87.9623 45.3167 87.8835 46.1039 87.8683C48.6829 87.8188 51.2701 88.2376 53.7017 89.0984C54.4709 89.3707 55.276 89.7293 55.6966 90.4286C56.1519 91.1857 56.0409 92.1406 55.9151 93.0151L53.962 106.584C55.3087 102.655 56.2755 98.5948 56.8446 94.48C57.1101 92.5603 57.2027 90.3574 55.863 88.9572C53.7718 86.7714 53.8288 83.6579 53.8868 80.4921C53.9369 77.76 53.9876 74.9888 52.6587 72.7415C52.2251 72.0082 53.1918 71.2512 53.9958 70.9697C57.5396 69.7287 61.3171 69.1593 65.0692 69.3006C65.757 74.7351 65.9431 80.233 65.6243 85.7016C65.5528 86.928 67.292 87.2445 68.5129 87.1091L110.868 82.412C111.079 82.3885 111.309 82.3569 111.459 82.2057C111.634 82.0292 111.643 81.7516 111.641 81.5027C111.541 71.5779 111.255 61.6549 110.784 51.7407C110.766 51.3538 110.716 50.9095 110.396 50.6916C110.156 50.5283 109.84 50.5499 109.551 50.578L79.3198 53.5089C81.3058 44.1411 83.3032 34.5974 82.3973 25.0642C75.7886 29.471 67.2609 29.4379 59.3317 28.9713C59.0022 28.9519 58.6719 28.9321 58.3411 28.9124C50.7104 28.4563 42.7529 27.9806 35.8929 31.2819C39.4848 40.8065 43.1179 51.203 40.1321 60.9347C39.868 61.7957 39.5537 62.6414 39.2395 63.4868C38.7552 64.7902 38.2712 66.0926 37.9718 67.4485C37.4784 69.6837 37.5525 72.1865 38.8752 74.0546C40.7905 76.7599 42.3126 79.8359 42.6598 83.1324C42.9892 86.2607 42.2531 89.3632 41.5178 92.4622C40.7496 95.7002 39.9822 98.9343 40.4322 102.19C40.5083 102.741 40.6458 103.333 41.077 103.684L42.7753 91.1319ZM49.1569 65.6237L48.9631 61.3085C48.9281 60.5282 48.0177 60.0561 47.8053 59.946L47.8046 59.9456C46.2212 59.1246 43.9937 60.5181 44.0391 62.3013C42.7049 59.7257 42.5022 56.774 42.3015 53.8521C42.2579 53.2164 42.2143 52.5822 42.1592 51.9535C41.5702 45.2312 39.5445 38.729 37.5312 32.2883C37.2442 31.3699 38.4841 30.7743 39.4361 30.6347C45.683 29.7187 52.0054 29.8452 58.3308 29.9717C61.1979 30.0291 64.0656 30.0865 66.9272 30.0468C72.0118 29.9762 77.3919 29.4949 81.5163 26.5202C82.4434 32.7009 81.1834 38.9369 79.9393 45.0943C79.771 45.9272 79.603 46.7587 79.4408 47.5884C78.079 54.5518 77.1521 61.9743 79.7576 68.5738C79.8674 68.8519 79.493 69.0616 79.2004 69.1227C77.0575 69.5697 74.8419 69.666 72.6683 69.4065C71.7359 69.2952 70.8133 69.1193 69.8906 68.9434C69.1957 68.8109 68.5007 68.6784 67.8013 68.5734C62.5365 67.7834 57.041 68.6034 52.2361 70.8962C52.0435 70.9881 51.8144 70.9451 51.6128 70.8753C50.6397 70.5383 49.9455 69.6392 49.5991 68.6693C49.2527 67.6994 49.2031 66.6525 49.1569 65.6237ZM69.8726 69.8664C70.321 69.9559 70.8722 70.1558 70.8999 70.6123C71.1644 74.9658 74.6237 78.8779 78.8769 79.8414C83.1301 80.805 87.8438 78.8565 90.3237 75.2689C92.8036 71.6813 92.9978 66.6975 90.9643 62.8393C88.7835 58.7015 83.4836 56.5042 79.0153 57.8851C78.8079 56.9707 78.8312 56.005 79.0825 55.1017C79.1292 54.934 79.19 54.7586 79.3254 54.6491C79.4576 54.5422 79.6363 54.5178 79.8052 54.4975L92.3925 52.9812C93.4991 52.8479 94.6085 52.7144 95.7231 52.7052C100.516 52.6657 105.305 52.1878 110.012 51.2792C110.743 61.1001 111.087 70.9498 111.043 80.7977C111.041 81.2649 110.899 81.8857 110.432 81.8993C102.51 82.1301 94.6506 83.1723 86.7881 84.2149C81.5056 84.9153 76.2217 85.616 70.9166 86.0709C69.7342 86.1722 68.5436 86.2614 67.3622 86.1488C67.1481 86.1284 66.9065 86.0847 66.7901 85.9037C66.7199 85.7946 66.712 85.6581 66.7062 85.5284L65.9998 69.7768C65.9907 69.5733 66.003 69.3279 66.1792 69.2257C66.296 69.158 66.4422 69.1823 66.5746 69.2087L69.8726 69.8664ZM48.1993 66.2196C48.0742 67.0377 47.9333 67.9582 48.4692 68.5771C50.4681 70.886 52.5447 73.3527 53.0761 76.3601C53.3242 77.7645 53.2176 79.2099 53.1114 80.6495C52.9777 82.4627 52.8447 84.2667 53.4221 85.9678C53.4372 86.0121 53.4527 86.0566 53.4683 86.1012C53.5744 86.4044 53.6825 86.7135 53.6481 87.0301C53.6087 87.3933 53.2935 87.7586 52.9336 87.6965L48.7547 86.9757C47.3709 86.737 45.9088 86.5048 44.5943 86.9988C44.3402 87.0944 44.0476 86.9267 43.9114 86.6918C43.7752 86.4569 43.7573 86.1741 43.7455 85.9029C43.7313 85.5754 43.7206 85.2456 43.7098 84.9147C43.6423 82.8341 43.5736 80.7146 42.6107 78.8916L39.5384 73.0753C39.0849 72.2166 38.6208 71.3197 38.5895 70.3491C38.5686 69.701 38.7435 69.0643 38.917 68.4394L40.4496 62.918C40.7723 61.7556 41.1136 60.5562 41.8778 59.6228C43.7341 62.7725 43.9173 66.8475 42.3511 70.1512C42.2062 70.4568 42.6488 70.7715 42.9643 70.6497C43.2798 70.5279 43.44 70.1822 43.5512 69.8628C43.9968 68.5834 44.153 67.2345 44.3094 65.8838C44.436 64.7909 44.5628 63.6967 44.843 62.637C45.0147 61.9878 45.2623 61.3251 45.7635 60.8783C46.2648 60.4315 47.0823 60.2785 47.6075 60.6968C48.0095 61.017 48.1401 61.564 48.2166 62.0722C48.4183 63.413 48.4174 64.7841 48.2138 66.1245C48.2091 66.1561 48.2042 66.1878 48.1993 66.2196ZM81.0361 75.0349C78.9859 74.9927 77.2096 73.3198 76.6009 71.3614C76.4766 70.9616 76.7351 70.5229 77.0916 70.3034C77.4481 70.0838 77.8795 70.032 78.2956 69.9852L81.2995 69.6477C80.386 67.8719 79.7354 65.9611 79.3753 63.9967C79.3427 63.8185 79.3129 63.6314 79.3692 63.4592C79.4681 63.1569 79.7938 62.9978 80.0953 62.8964C82.536 62.0761 85.4666 63.072 86.9018 65.21C88.337 67.3479 88.1489 70.4383 86.4644 72.3858C85.735 73.2291 84.7794 73.8514 83.7727 74.3303C82.9142 74.7386 81.9865 75.0545 81.0361 75.0349ZM90.7649 64.4798C91.1296 65.6845 91.2349 66.9518 91.2851 68.2096C90.4659 68.0855 89.6386 68.0151 88.8102 67.9989C88.6482 65.8833 87.2403 63.9718 85.3893 62.9349C83.5383 61.8981 81.3042 61.674 79.2126 62.029C79.1949 61.7308 79.1405 61.4196 79.0862 61.1084C78.9427 60.2872 78.7992 59.466 79.3301 58.8831C79.6508 58.531 80.1393 58.3902 80.6075 58.3029C82.7399 57.9056 85.0137 58.3219 86.8671 59.449C88.7205 60.5761 90.1363 62.4035 90.7649 64.4798ZM75.7287 71.1479C75.7253 71.187 75.722 71.2254 75.7202 71.2621C75.7064 71.5544 75.8426 71.8226 75.9774 72.088C76.0136 72.1591 76.0496 72.2301 76.0827 72.3012C76.2389 72.6379 76.3147 73.0814 76.0535 73.3451C75.4215 73.983 74.8631 74.6938 74.3927 75.4587C74.2763 75.6479 73.9901 75.6634 73.7987 75.5506C73.6074 75.4377 73.4887 75.2366 73.3782 75.0439C72.679 73.8246 71.9623 72.5492 71.8751 71.1464C71.8643 70.9719 71.8835 70.7608 72.0382 70.6795C72.1063 70.6436 72.1867 70.6426 72.2637 70.6423L75.3908 70.6328C75.4656 70.6326 75.5442 70.6334 75.6092 70.6703C75.7626 70.7575 75.745 70.96 75.7287 71.1479Z" fill="#25282B"/>
<path d="M52.717 45.9113C51.9935 45.4841 51.1595 45.2704 50.24 45.2704L48.1198 45.2704C47.8836 45.2704 47.6826 45.3538 47.5168 45.5205C47.351 45.6873 47.2656 45.9061 47.2656 46.1562L47.2656 54.3891C47.2656 54.634 47.351 54.8477 47.5118 55.0196C47.6776 55.1916 47.8786 55.2749 48.1198 55.2749L50.24 55.2749C51.1645 55.2749 51.9935 55.0613 52.717 54.634C53.4405 54.2067 54.0133 53.6075 54.4153 52.8468C54.8172 52.0912 55.0182 51.221 55.0182 50.2675C55.0182 49.3139 54.8122 48.4437 54.4153 47.6934C54.0133 46.9378 53.4405 46.3386 52.717 45.9113ZM50.24 53.6492L48.9739 53.6492L48.9739 46.8961L50.24 46.8961C50.843 46.8961 51.3856 47.042 51.8579 47.3234C52.3302 47.6048 52.6969 48.006 52.9632 48.5115C53.2295 49.0221 53.3602 49.6109 53.3602 50.2623C53.3602 50.9136 53.2245 51.5076 52.9632 52.0235C52.702 52.5341 52.3302 52.9353 51.8579 53.2167C51.3856 53.5033 50.843 53.6492 50.24 53.6492Z" fill="#0050C5"/>
<path d="M63.6018 45.9062C62.8481 45.484 61.9765 45.2704 61.0228 45.2704C60.0588 45.2704 59.1872 45.484 58.4284 45.9062C57.6695 46.3283 57.0696 46.9285 56.6492 47.6864C56.2339 48.4391 56.0186 49.3088 56.0186 50.265C56.0186 51.2212 56.2288 52.091 56.6492 52.8488C57.0696 53.6117 57.6695 54.2119 58.4284 54.6392C59.1821 55.0613 60.0588 55.2749 61.0228 55.2749C61.9867 55.2749 62.8583 55.0613 63.6121 54.6392C64.3658 54.217 64.9657 53.6117 65.3861 52.8539C65.8065 52.0961 66.0219 51.2263 66.0219 50.2701C66.0219 49.3139 65.8065 48.4493 65.3861 47.6914C64.9605 46.9285 64.3606 46.3283 63.6018 45.9062ZM61.0176 53.6626C60.387 53.6626 59.8179 53.5151 59.3154 53.215C58.8129 52.9149 58.4181 52.508 58.1412 51.9994C57.8592 51.4857 57.7157 50.9008 57.7157 50.265C57.7157 49.6293 57.8592 49.0444 58.1412 48.5307C58.4232 48.022 58.8129 47.6101 59.3103 47.3201C59.8076 47.0302 60.3819 46.8776 61.0176 46.8776C61.6534 46.8776 62.2277 47.0251 62.725 47.3201C63.2224 47.6151 63.6172 48.022 63.8941 48.5307C64.1761 49.0444 64.3196 49.6293 64.3196 50.265C64.3196 50.9008 64.1761 51.4857 63.8941 51.9994C63.6121 52.5131 63.2173 52.92 62.7199 53.215C62.2226 53.51 61.6483 53.6626 61.0176 53.6626Z" fill="#0050C5"/>
<path d="M73.6697 52.9188C72.4886 53.7992 71.1131 53.8704 70.0444 53.2038C69.5638 52.9036 69.1752 52.4914 68.8888 51.9774C68.6025 51.4634 68.4593 50.8884 68.4593 50.2676C68.4593 49.6569 68.6025 49.0819 68.8888 48.5628C69.1701 48.0438 69.5587 47.6316 70.0444 47.3314C70.5251 47.0311 71.0569 46.8836 71.6244 46.8836C72.0846 46.8836 72.4579 46.9395 72.7391 47.0515C73.0203 47.1634 73.322 47.3517 73.6288 47.6112C73.9765 47.8911 74.4469 47.8911 74.769 47.6011C74.9378 47.4535 75.0247 47.255 75.0247 47.026C75.0247 46.8937 75.0043 46.7716 74.9582 46.6647C74.9071 46.5477 74.8202 46.4408 74.6923 46.3492C74.2168 45.9676 73.7413 45.6928 73.276 45.5249C72.8107 45.3569 72.2533 45.2704 71.6244 45.2704C70.7296 45.2704 69.9064 45.4943 69.165 45.9421C68.4287 46.3849 67.8355 46.9955 67.4111 47.7537C66.9867 48.512 66.772 49.3567 66.772 50.2676C66.772 51.1836 66.9867 52.0385 67.4111 52.7967C67.8355 53.56 68.4287 54.1707 69.165 54.6083C69.9064 55.051 70.7347 55.2749 71.6244 55.2749C72.7698 55.2749 73.8026 54.9085 74.723 54.1707C74.8969 53.9976 74.9889 53.789 74.9889 53.5549C74.9889 53.3158 74.9173 53.1173 74.7742 52.9646C74.5083 52.6847 74.0788 52.6288 73.6697 52.9188Z" fill="#0050C5"/>
</svg>
