<svg width="32" height="32" viewBox="0 0 32 32" fill="none" xmlns="http://www.w3.org/2000/svg">
<path d="M3.48718 32C1.16239 27.9382 0 23.8399 0 19.705C0 16.0457 0.854701 12.5512 2.5641 9.22127C4.30769 5.85477 6.82051 2.78102 10.1026 0L14.0513 2.57976C14.3932 2.79931 14.6325 3.07376 14.7692 3.40309C14.906 3.69582 14.9744 3.98856 14.9744 4.2813C14.9744 4.61063 14.906 4.92167 14.7692 5.21441C14.6325 5.50715 14.4786 5.76329 14.3077 5.98285C13.8632 6.53173 13.3846 7.1721 12.8718 7.90395C12.3932 8.63579 11.9487 9.44083 11.5385 10.319C11.1282 11.1607 10.7863 12.0938 10.5128 13.1184C10.2393 14.1429 10.1026 15.2407 10.1026 16.4117C10.1026 17.6558 10.2906 18.9914 10.6667 20.4185C11.0427 21.809 11.6752 23.2727 12.5641 24.8096C12.8718 25.3219 13.0256 25.8342 13.0256 26.3465C13.0256 27.5174 12.4103 28.3408 11.1795 28.8165L3.48718 32ZM20.5128 32C18.188 27.9382 17.0256 23.8399 17.0256 19.705C17.0256 16.0457 17.8803 12.5512 19.5897 9.22127C21.3333 5.85477 23.8462 2.78102 27.1282 0L31.0769 2.57976C31.4188 2.79931 31.6581 3.07376 31.7949 3.40309C31.9316 3.69582 32 3.98856 32 4.2813C32 4.61063 31.9316 4.92167 31.7949 5.21441C31.6581 5.50715 31.5043 5.76329 31.3333 5.98285C30.8889 6.53173 30.4103 7.1721 29.8974 7.90395C29.4188 8.63579 28.9744 9.44083 28.5641 10.319C28.1538 11.1607 27.812 12.0938 27.5385 13.1184C27.265 14.1429 27.1282 15.2407 27.1282 16.4117C27.1282 17.6558 27.3162 18.9914 27.6923 20.4185C28.0684 21.809 28.7009 23.2727 29.5897 24.8096C29.8974 25.3219 30.0513 25.8342 30.0513 26.3465C30.0513 27.5174 29.4359 28.3408 28.2051 28.8165L20.5128 32Z" fill="#0050C5"/>
</svg>
