<svg width="75" height="100" viewBox="0 0 75 100" fill="none" xmlns="http://www.w3.org/2000/svg">
<path d="M74.96 22.1722C74.92 21.9022 74.79 21.6622 74.59 21.4621L74.4599 21.3321L72.1696 19.0419L55.9375 2.83028L55.1073 1.9902L53.5371 0.420042C53.3371 0.220022 53.0971 0.090009 52.827 0.050005V0H7.07094C3.18042 0 0 3.18032 0 7.07071V92.9293C0 96.8197 3.18042 100 7.07094 100H67.9291C71.8196 100 75 96.8197 75 92.9293V22.4722C75 22.3722 74.99 22.2722 74.96 22.1722ZM52.827 3.70037L70.4494 21.3321L71.2795 22.1622H62.5583H62.5183H57.0776C54.7273 22.1622 52.837 20.252 52.837 17.9218V3.70037H52.827ZM72.1696 92.9293C72.1696 95.2595 70.2594 97.1697 67.9291 97.1697H7.07094C4.72063 97.1697 2.83038 95.2595 2.83038 92.9293V7.07071C2.83038 4.72047 4.72063 2.83028 7.07094 2.83028H49.9967V17.9318C49.9967 21.8222 53.1771 25.0025 57.0676 25.0025H72.1696V92.9293Z" fill="#25282B"/>
<path d="M54.1972 73.7374H20.8028C20.2627 73.7374 19.8226 74.1774 19.8226 74.7175V75.5275C19.8226 76.0676 20.2627 76.5076 20.8028 76.5076H54.1872C54.7273 76.5076 55.1673 76.0676 55.1673 75.5275V74.7175C55.1773 74.1774 54.7373 73.7374 54.1972 73.7374Z" fill="#25282B"/>
<path d="M36.2348 66.9867L36.2848 67.0367C36.3648 67.1567 36.4548 67.2467 36.5749 67.3267L36.8149 67.5667C37.1949 67.9468 37.825 67.9468 38.2051 67.5667L38.4451 67.3267C38.5651 67.2467 38.6551 67.1567 38.7351 67.0367L38.7851 66.9867L50.2967 55.4755C50.6767 55.0955 50.6767 54.4654 50.2967 54.0854L49.7166 53.5153C49.3366 53.1353 48.7065 53.1353 48.3264 53.5153L38.8952 62.9463V33.1433C38.8952 32.6033 38.4551 32.1632 37.915 32.1632H37.1049C36.5648 32.1632 36.1248 32.6033 36.1248 33.1433V62.9463L26.6935 53.5153C26.3135 53.1353 25.6834 53.1353 25.3033 53.5153L24.7233 54.0854C24.3432 54.4654 24.3432 55.0955 24.7233 55.4755L36.2348 66.9867Z" fill="#25282B"/>
</svg>
