<svg width="24" height="24" viewBox="0 0 24 24" fill="none" xmlns="http://www.w3.org/2000/svg">
<path fill-rule="evenodd" clip-rule="evenodd" d="M24 12C24 5.37309 18.6269 0 12 0C5.37309 0 0 5.37309 0 12C0 17.989 4.38761 22.9537 10.1252 23.8549V15.4696H7.07748V12H10.1252V9.35562C10.1252 6.34843 11.9173 4.68621 14.6578 4.68621C15.9707 4.68621 17.3444 4.92077 17.3444 4.92077V7.87398H15.8306C14.3406 7.87398 13.8748 8.79875 13.8748 9.7488V11.9999H17.2026L16.671 15.4695H13.8747V23.8549C19.6123 22.9553 23.9999 17.9906 23.9999 11.9999L24 12Z" fill="#1977F3"/>
<path fill-rule="evenodd" clip-rule="evenodd" d="M16.671 15.4695L17.2026 11.9999H13.8749V9.74881C13.8749 8.80042 14.3389 7.87399 15.8307 7.87399H17.3444V4.92078C17.3444 4.92078 15.9708 4.68622 14.6579 4.68622C11.9174 4.68622 10.1252 6.34677 10.1252 9.35563V12H7.07751V15.4696H10.1252V23.8549C10.7361 23.951 11.3621 24 12 24C12.6379 24 13.264 23.9493 13.8749 23.8549V15.4696H16.6711L16.671 15.4695Z" fill="#FEFEFE"/>
</svg>
