<svg width="37" height="50" viewBox="0 0 37 50" fill="none" xmlns="http://www.w3.org/2000/svg">
<path d="M25.9 0C26.15 0 26.4 0.1 26.6 0.3L36.71 10.4C36.91 10.6 37 10.85 37 11.11V45C37 47.75 34.75 50 32 50H5C2.25 50 0 47.75 0 45V5C0 2.25 2.25 0 5 0H25.9Z" fill="white"/>
<path d="M36.7139 10.4L36.3685 10.05L35.0957 8.76L28.416 2L26.7387 0.3C26.5413 0.1 26.2947 0 26.048 0H4.93333C2.22 0 0 2.25 0 5V45C0 47.75 2.22 50 4.93333 50H32.0667C34.78 50 37 47.75 37 45V11.11C37 10.85 36.9112 10.6 36.7139 10.4ZM33.5763 10.05H29.6C28.2088 10.05 27.084 8.91 27.084 7.5V3.47L33.5763 10.05ZM35.0267 45C35.0267 46.66 33.6947 48 32.0667 48H4.93333C3.29547 48 1.97333 46.66 1.97333 45V5C1.97333 3.35 3.29547 2 4.93333 2H24.6667V7.5C24.6667 10.25 26.8867 12.5 29.6 12.5H35.0267V45Z" fill="#25282B"/>
<path d="M7.40002 17.51H30.1C30.65 17.51 31.1 17.96 31.1 18.51C31.1 19.06 30.65 19.51 30.1 19.51H7.40002C6.85002 19.51 6.40002 19.06 6.40002 18.51C6.40002 17.96 6.85002 17.51 7.40002 17.51Z" fill="#25282B"/>
<path d="M7.40002 26.78H30.1C30.65 26.78 31.1 27.23 31.1 27.78C31.1 28.33 30.65 28.78 30.1 28.78H7.40002C6.85002 28.78 6.40002 28.33 6.40002 27.78C6.40002 27.23 6.85002 26.78 7.40002 26.78Z" fill="#25282B"/>
<path d="M7.40002 36.05H30.1C30.65 36.05 31.1 36.5 31.1 37.05C31.1 37.6 30.65 38.05 30.1 38.05H7.40002C6.85002 38.05 6.40002 37.6 6.40002 37.05C6.40002 36.5 6.85002 36.05 7.40002 36.05Z" fill="#25282B"/>
</svg>
