<svg width="37" height="50" viewBox="0 0 37 50" fill="none" xmlns="http://www.w3.org/2000/svg">
<path d="M25.9 0C26.15 0 26.4 0.1 26.6 0.3L36.71 10.4C36.91 10.6 37 10.85 37 11.11V45C37 47.75 34.75 50 32 50H5C2.25 50 0 47.75 0 45V5C0 2.25 2.25 0 5 0H25.9Z" fill="white"/>
<path d="M36.71 10.4L36.36 10.05L35.07 8.76L28.3 2L26.6 0.300003C26.4 0.100003 26.15 0 25.9 0H5C2.25 0 0 2.25 0 5V45C0 47.75 2.25 50 5 50H32C34.75 50 37 47.75 37 45V11.11C37 10.85 36.91 10.6 36.71 10.4ZM33.53 10.05H29.5C28.09 10.05 26.95 8.91 26.95 7.5V3.47L33.53 10.05ZM35 45C35 46.66 33.65 48 32 48H5C3.34 48 2 46.66 2 45V5C2 3.35 3.34 2 5 2H24.5V7.5C24.5 10.25 26.75 12.5 29.5 12.5H35V45Z" fill="#059E00"/>
<path d="M28.8003 23.07C28.6403 22.92 28.4303 22.84 28.1803 22.84H23.9503C23.7103 22.84 23.5003 22.92 23.3303 23.08C23.1603 23.24 23.0703 23.46 23.0703 23.71V31.83C23.0703 32.07 23.1603 32.29 23.3203 32.45C23.4903 32.62 23.7003 32.7 23.9403 32.7C24.1803 32.7 24.3903 32.62 24.5603 32.45C24.7303 32.28 24.8103 32.07 24.8103 31.83V28.55H28.0003C28.2403 28.55 28.4503 28.47 28.6103 28.32C28.7803 28.17 28.8603 27.96 28.8603 27.72C28.8603 27.48 28.7703 27.28 28.6103 27.12C28.4503 26.97 28.2403 26.89 28.0003 26.89H24.8103V24.47H28.1603C28.4103 24.47 28.6203 24.39 28.7703 24.25C28.9303 24.1 29.0203 23.89 29.0203 23.66C29.0403 23.44 28.9603 23.23 28.8003 23.07Z" fill="#059E00"/>
<path d="M10.78 24.8C11.26 24.5 11.8 24.35 12.37 24.35C12.83 24.35 13.21 24.41 13.49 24.52C13.77 24.63 14.07 24.82 14.38 25.09C14.74 25.39 15.22 25.36 15.53 25.08C15.7 24.93 15.79 24.73 15.79 24.5C15.79 24.36 15.77 24.24 15.72 24.13C15.67 24.01 15.58 23.91 15.46 23.81C14.98 23.43 14.51 23.15 14.04 22.98C13.57 22.81 13.01 22.73 12.38 22.73C11.48 22.73 10.65 22.96 9.9 23.41C9.16 23.86 8.56 24.47 8.14 25.24C7.71 26.01 7.5 26.86 7.5 27.78C7.5 28.71 7.72 29.57 8.14 30.34C8.57 31.11 9.16 31.73 9.9 32.17C10.64 32.62 11.48 32.84 12.37 32.84C13.55 32.84 14.59 32.47 15.47 31.74C15.66 31.59 15.75 31.37 15.75 31.1V28.23C15.75 27.98 15.66 27.77 15.5 27.6C15.34 27.43 15.13 27.35 14.89 27.35H12.65C12.4 27.35 12.2 27.42 12.03 27.57C11.86 27.72 11.77 27.92 11.77 28.15C11.77 28.38 11.86 28.58 12.03 28.73C12.19 28.88 12.4 28.95 12.65 28.95H14.06V30.7C12.99 31.35 11.75 31.34 10.79 30.74C10.3 30.44 9.91 30.02 9.63 29.5C9.34 28.98 9.2 28.4 9.2 27.77C9.2 27.15 9.35 26.57 9.63 26.05C9.9 25.53 10.29 25.11 10.78 24.8Z" fill="#059E00"/>
<path d="M18.76 23.09C18.59 23.25 18.5 23.47 18.5 23.72V31.84C18.5 32.08 18.58 32.29 18.75 32.46C18.92 32.63 19.13 32.71 19.37 32.71C19.62 32.71 19.84 32.62 20 32.45C20.16 32.28 20.24 32.07 20.24 31.83V23.71C20.24 23.46 20.15 23.25 19.99 23.08C19.68 22.77 19.11 22.76 18.76 23.09Z" fill="#059E00"/>
</svg>
