<svg width="24" height="24" viewBox="0 0 24 24" fill="none" xmlns="http://www.w3.org/2000/svg">
<path d="M12.0106 5.88551C11.7995 5.88551 11.5908 5.89628 11.3851 5.91735C11.1795 5.93841 10.9766 5.96963 10.7773 6.01061C10.5779 6.05159 10.3821 6.10233 10.1902 6.16223L9.62688 6.36905L9.0906 6.62801L8.58453 6.93594L8.11168 7.28962L7.67535 7.68597L7.27861 8.12191L6.92455 8.59423L6.61623 9.09984L6.35712 9.63551C6.27924 9.81873 6.20996 10.0066 6.14999 10.1983C6.09002 10.3901 6.03928 10.5858 5.99822 10.785C5.95716 10.9841 5.92595 11.1867 5.9048 11.3922C5.88366 11.5977 5.87305 11.8062 5.87305 12.0171C5.87305 12.2279 5.88381 12.4364 5.9048 12.6419C5.92567 12.8458 5.95685 13.0485 5.99822 13.2493C6.03928 13.4492 6.09002 13.6441 6.14999 13.8359C6.20996 14.0277 6.27916 14.2154 6.35712 14.3987L6.61623 14.9344L6.92455 15.4399L7.27861 15.9123L7.67535 16.3482L8.11168 16.7446L8.58453 17.0983L9.0906 17.4062L9.62688 17.6652L10.1902 17.872L10.7773 18.0236C10.9782 18.0649 11.1811 18.0961 11.3851 18.1169C11.5929 18.1381 11.8017 18.1487 12.0106 18.1487C12.2217 18.1487 12.4304 18.1379 12.636 18.1169C12.8401 18.0961 13.0429 18.0649 13.2439 18.0236L13.831 17.872L14.3943 17.6652L14.9305 17.4062L15.4367 17.0983L15.9095 16.7446L16.3459 16.3482L16.7427 15.9123L17.0967 15.4399L17.405 14.9344L17.6641 14.3987L17.8713 13.8359C17.9313 13.6441 17.982 13.4484 18.0231 13.2493L18.1165 12.6418C18.1375 12.4363 18.1483 12.2278 18.1483 12.017C18.1483 11.8062 18.1375 11.5977 18.1165 11.3921C18.0956 11.1883 18.0644 10.9856 18.0231 10.7849C17.982 10.585 17.9313 10.3901 17.8713 10.1982L17.6641 9.63543L17.405 9.09976L17.0967 8.59415L16.7427 8.12184L16.3459 7.68589L15.9095 7.28954L15.4367 6.93586L14.9305 6.62793L14.3943 6.36898L13.831 6.16215L13.2439 6.01053L12.636 5.91727C12.4282 5.89605 12.2195 5.88542 12.0106 5.88544V5.88551ZM12.0106 8.0019C12.1501 8.0019 12.2879 8.00881 12.4235 8.0225L12.8233 8.08301L13.2095 8.18143L13.5793 8.31575L13.9309 8.48413L14.2615 8.68442L14.5706 8.91485L14.8556 9.17334L15.1143 9.45797L15.3449 9.76675L15.5455 10.0978L15.7138 10.4492C15.7644 10.5694 15.8093 10.6927 15.8484 10.8187C15.8875 10.9447 15.9203 11.0735 15.9468 11.2047C15.9733 11.3359 15.9929 11.4693 16.0073 11.6049L16.0279 12.0175C16.0279 12.1568 16.021 12.2945 16.0073 12.4301C15.9936 12.5657 15.9735 12.6992 15.9468 12.8303C15.9201 12.9614 15.8872 13.0902 15.8484 13.2163L15.7138 13.5858L15.5455 13.9372L15.3449 14.2682L15.1143 14.577L14.8556 14.8616L14.5706 15.1201L14.2615 15.3506L13.9309 15.5509L13.5793 15.7192L13.2095 15.8536L12.8233 15.952L12.4235 16.0124C12.2863 16.0262 12.1484 16.033 12.0105 16.033C11.8726 16.033 11.7347 16.0262 11.5975 16.0124L11.1977 15.952C11.0664 15.9254 10.9376 15.8925 10.8114 15.8536L10.4416 15.7192L10.09 15.5509L9.75936 15.3506L9.45027 15.1201L9.16533 14.8616L8.90661 14.577L8.67595 14.2682L8.47543 13.9372L8.30705 13.5858L8.17249 13.2163L8.07408 12.8303L8.01357 12.4301C7.99981 12.293 7.99293 12.1553 7.99297 12.0175C7.99293 11.8797 7.99981 11.742 8.01357 11.6049C8.02718 11.4693 8.0474 11.3358 8.07408 11.2047C8.10049 11.0745 8.13336 10.9457 8.17257 10.8188L8.30712 10.4493L8.4755 10.0979L8.67602 9.76683L8.90668 9.45805L9.16541 9.17342L9.45035 8.91492L9.75943 8.68449L10.09 8.48421L10.4416 8.31582C10.5627 8.265 10.6861 8.22017 10.8116 8.1815L11.1978 8.08309C11.3291 8.05649 11.4627 8.03619 11.5976 8.02258C11.7349 8.00883 11.8727 8.00195 12.0107 8.00197L12.0106 8.0019Z" fill="url(#paint0_radial_290_1828)"/>
<path d="M18.3972 4.1413C18.3484 4.14131 18.2997 4.14377 18.2512 4.14868C18.2027 4.15358 18.1545 4.16092 18.1068 4.17067C18.059 4.18041 18.0118 4.19254 17.9652 4.20703C17.9187 4.22153 17.8729 4.23837 17.828 4.25747C17.7831 4.2766 17.7392 4.29797 17.6964 4.32152C17.6536 4.34502 17.6121 4.37065 17.5719 4.39833C17.5316 4.42604 17.4928 4.45575 17.4555 4.48736C17.4183 4.51894 17.3826 4.55238 17.3487 4.58755C17.3147 4.62273 17.2825 4.65961 17.2522 4.69803C17.222 4.73646 17.1936 4.77639 17.1673 4.81767C17.141 4.85892 17.1167 4.90146 17.0946 4.94515C17.0725 4.98886 17.0526 5.03367 17.0349 5.07939C17.0172 5.12511 17.0019 5.17168 16.9888 5.21894C16.9758 5.2662 16.9651 5.31408 16.9568 5.36241C16.9486 5.41073 16.9427 5.45943 16.9392 5.50834C16.9368 5.54299 16.9356 5.57771 16.9355 5.61245C16.9355 5.66151 16.938 5.71055 16.9429 5.75938C16.9477 5.80818 16.955 5.8567 16.9647 5.90477C16.9744 5.95284 16.9864 6.00039 17.0008 6.04724C17.0152 6.09411 17.032 6.14022 17.051 6.18541C17.0699 6.2306 17.0912 6.27482 17.1145 6.31788C17.1379 6.36094 17.1634 6.40279 17.1909 6.44328C17.2184 6.48375 17.2479 6.52281 17.2793 6.5603C17.3107 6.59783 17.3439 6.63376 17.3789 6.66795C17.4138 6.70211 17.4505 6.7345 17.4887 6.76498C17.5268 6.79548 17.5665 6.82404 17.6075 6.85055C17.6486 6.87706 17.6909 6.90149 17.7343 6.92375C17.7777 6.94601 17.8222 6.96608 17.8676 6.98387C17.9131 7.00164 17.9593 7.01712 18.0063 7.03024C18.0532 7.04333 18.1008 7.05406 18.1488 7.06237C18.1968 7.07072 18.2452 7.07665 18.2938 7.08014C18.3282 7.08259 18.3627 7.08382 18.3972 7.08383C18.446 7.08384 18.4947 7.0814 18.5432 7.07652C18.5917 7.07162 18.6399 7.06428 18.6876 7.05453C18.7354 7.04479 18.7826 7.03266 18.8292 7.01817C18.8757 7.00367 18.9215 6.98683 18.9664 6.96773C19.0113 6.94862 19.0552 6.92727 19.098 6.90376C19.1407 6.88023 19.1823 6.85457 19.2225 6.82687C19.2628 6.79919 19.3016 6.7695 19.3389 6.73791C19.3761 6.70631 19.4118 6.67285 19.4457 6.63765C19.4797 6.60246 19.5119 6.56559 19.5422 6.52717C19.5724 6.48874 19.6008 6.44881 19.6271 6.40753C19.6534 6.36626 19.6777 6.32369 19.6998 6.27998C19.7219 6.23626 19.7418 6.19145 19.7595 6.14573C19.7772 6.10002 19.7925 6.05344 19.8056 6.00618C19.8186 5.95893 19.8293 5.91104 19.8375 5.86271C19.8458 5.81439 19.8517 5.76569 19.8552 5.71678C19.8576 5.68213 19.8588 5.64741 19.8588 5.61268C19.8588 5.56363 19.8564 5.51462 19.8515 5.46582C19.8467 5.41702 19.8394 5.3685 19.8297 5.32043C19.82 5.27236 19.808 5.22481 19.7936 5.17796C19.7792 5.13109 19.7624 5.08498 19.7434 5.03979C19.7245 4.9946 19.7032 4.95038 19.6799 4.90732C19.6565 4.86426 19.631 4.82241 19.6035 4.78192C19.576 4.74142 19.5464 4.70234 19.515 4.66482C19.4836 4.62729 19.4504 4.59137 19.4155 4.55718C19.3806 4.52301 19.3439 4.49063 19.3057 4.46015C19.2675 4.42967 19.2279 4.40113 19.1869 4.37465C19.1458 4.34814 19.1035 4.32371 19.0601 4.30145C19.0167 4.27918 18.9722 4.25912 18.9267 4.24133C18.8813 4.22356 18.8351 4.20808 18.7881 4.19496C18.7412 4.18184 18.6936 4.17109 18.6456 4.16275C18.5976 4.15442 18.5492 4.14852 18.5006 4.14506C18.4662 4.14261 18.4317 4.14137 18.3972 4.14137V4.1413Z" fill="url(#paint1_radial_290_1828)"/>
<path d="M10.8467 0.021708C10.1792 0.0206316 9.58347 0.0233991 9.04834 0.030934L7.61364 0.0693773C7.18861 0.0878301 6.81309 0.111894 6.47602 0.143033C6.30749 0.158564 6.14848 0.175941 5.99779 0.195085C5.85438 0.21316 5.71137 0.234207 5.56884 0.25821C5.43313 0.281276 5.30435 0.306186 5.18087 0.33325C5.05739 0.360314 4.93944 0.389532 4.82565 0.420902C4.71441 0.451577 4.60403 0.485318 4.49465 0.522086C4.38747 0.558222 4.28291 0.596512 4.17965 0.637416C3.97313 0.719223 3.77169 0.811024 3.56425 0.913898C3.40463 0.993091 3.25716 1.07328 3.11707 1.15817C2.97699 1.24305 2.84428 1.3327 2.71434 1.43035C2.58053 1.5314 2.45155 1.63869 2.32783 1.75189C2.19851 1.86968 2.06642 1.99923 1.92918 2.14401C1.75672 2.32492 1.60687 2.49361 1.47385 2.65915C1.40735 2.74188 1.34507 2.82369 1.2864 2.90595C1.22839 2.98703 1.17293 3.0699 1.1201 3.15445C1.06782 3.23826 1.0183 3.3236 0.970938 3.41141C0.922837 3.50072 0.877378 3.59144 0.834618 3.68343C0.747121 3.87134 0.665467 4.07371 0.583968 4.2996C0.523505 4.4666 0.469364 4.63582 0.42166 4.8069C0.372991 4.98174 0.329703 5.16465 0.291106 5.36248C0.252509 5.56031 0.218833 5.77306 0.189231 6.00833C0.157333 6.26623 0.13185 6.52487 0.112806 6.78404C0.0912778 7.06898 0.0734402 7.38252 0.0588317 7.73151L0.0242328 8.89188L0.00562618 10.3064L0.000244141 12.0161L0.0160059 14.5024L0.0652133 16.3861L0.103118 17.1219L0.150481 17.7316C0.165663 17.896 0.184659 18.0599 0.207454 18.2234C0.228213 18.3685 0.25051 18.4956 0.274499 18.6055C0.323173 18.829 0.38073 19.0505 0.447032 19.2695C0.510516 19.4791 0.583115 19.6859 0.664622 19.8892C0.744738 20.0883 0.832388 20.2804 0.927728 20.4652C1.02307 20.6501 1.1261 20.8277 1.23681 20.9983C1.34753 21.1689 1.46593 21.3325 1.59234 21.4891C1.71859 21.6458 1.85289 21.7957 1.99468 21.9385C2.13669 22.0815 2.28647 22.2176 2.44432 22.3469C2.60403 22.4777 2.77005 22.6006 2.94177 22.7152C3.10116 22.8217 3.25885 22.9193 3.4177 23.0089C3.57655 23.0985 3.73678 23.1797 3.90147 23.2536C4.06616 23.3275 4.23501 23.394 4.41138 23.4538C4.58776 23.5136 4.77152 23.5668 4.96574 23.6141C5.15995 23.6613 5.36555 23.7027 5.58314 23.7388C5.80073 23.775 6.03331 23.806 6.28181 23.8326C6.5303 23.8593 6.79541 23.8814 7.08027 23.8998C7.36514 23.9183 7.66961 23.9331 7.99676 23.9449C8.50214 23.9632 9.26716 23.9739 10.1494 23.978L13.0053 23.9722L15.7097 23.9343L16.738 23.9054L17.4079 23.8709C17.5517 23.8592 17.6924 23.8454 17.8282 23.8292C17.964 23.813 18.0979 23.7944 18.2283 23.7734C18.3587 23.7523 18.4862 23.7288 18.6114 23.7026C18.7352 23.6768 18.8584 23.6481 18.9808 23.6163C19.102 23.5855 19.2214 23.5505 19.3397 23.5134C19.4579 23.4763 19.575 23.4361 19.6913 23.3931C19.8083 23.3497 19.9242 23.3036 20.039 23.2546C20.1545 23.2054 20.2699 23.1528 20.3857 23.097C20.5636 23.0113 20.7067 22.9399 20.8324 22.8702C20.9507 22.8053 21.0646 22.7328 21.1734 22.653C21.2807 22.574 21.3874 22.4841 21.5104 22.3707C21.6335 22.2574 21.7729 22.1208 21.9455 21.9482C22.0972 21.7965 22.2251 21.6647 22.3354 21.5449C22.4458 21.425 22.5387 21.3171 22.6202 21.2132C22.6979 21.1146 22.7703 21.0118 22.837 20.9055C22.9022 20.8017 22.9621 20.6939 23.0233 20.5743C23.1152 20.3944 23.197 20.2278 23.2703 20.067C23.3414 19.9121 23.4064 19.7544 23.4651 19.5943C23.5229 19.4355 23.573 19.274 23.6151 19.1103C23.6585 18.942 23.6959 18.7642 23.7282 18.5692C23.7604 18.3742 23.7877 18.162 23.8114 17.9251C23.8351 17.6881 23.8552 17.4262 23.8729 17.132L23.9198 16.1442L23.9601 14.9158L23.9889 13.5472L23.9999 12.1162L23.9743 9.30561L23.9399 8.04675L23.893 6.96587L23.8346 6.1232C23.8133 5.88869 23.7904 5.70401 23.7661 5.57915C23.7393 5.44118 23.7092 5.30385 23.676 5.16727C23.6437 5.03436 23.6082 4.90226 23.5695 4.77107C23.5318 4.64326 23.4909 4.51643 23.4467 4.39071C23.403 4.26654 23.3567 4.14498 23.3083 4.02604C23.2598 3.90709 23.2074 3.79092 23.1528 3.6772C23.0982 3.56349 23.041 3.45254 22.981 3.34413C22.9209 3.23572 22.8583 3.13 22.7929 3.0269C22.7275 2.92379 22.6594 2.8233 22.5884 2.7255C22.5178 2.62801 22.4442 2.53276 22.3677 2.43987C22.2916 2.34749 22.2126 2.25754 22.1308 2.17015C22.0491 2.08287 21.9646 1.9982 21.8776 1.91627C21.7905 1.83431 21.7007 1.75496 21.6082 1.67823C21.5152 1.60124 21.42 1.52717 21.3224 1.4561C21.2239 1.38432 21.1232 1.31555 21.0204 1.24989C20.9163 1.18331 20.8102 1.11982 20.7023 1.05952C20.5925 0.998213 20.4809 0.940062 20.3678 0.885143C20.1801 0.793879 20.0065 0.712918 19.836 0.641106C19.6684 0.569837 19.4976 0.506539 19.3241 0.451426C19.1496 0.396452 18.9679 0.349321 18.768 0.308648C18.5681 0.267975 18.3501 0.234068 18.1034 0.205236C17.8566 0.176403 17.5811 0.153107 17.2661 0.133732C16.951 0.114356 16.5966 0.0991316 16.192 0.0868298L14.8168 0.0560756L13.0763 0.035547L10.8475 0.0218605L10.8467 0.021708ZM12.0042 2.13624L15.2183 2.15454L16.4308 2.17792C16.7648 2.1873 17.0196 2.19829 17.169 2.21098C17.3635 2.22735 17.5488 2.24788 17.726 2.27249C17.8961 2.29597 18.0653 2.32518 18.2334 2.36006C18.3949 2.39389 18.5489 2.43233 18.6963 2.4757C18.8437 2.51906 18.9845 2.56765 19.1196 2.6214C19.2547 2.67514 19.3838 2.73427 19.5082 2.79901C19.6315 2.86326 19.7513 2.93396 19.8672 3.01083C19.9825 3.08733 20.0937 3.16975 20.2017 3.25856C20.3096 3.34736 20.4143 3.44254 20.5164 3.54434C20.6243 3.65175 20.7238 3.76116 20.8155 3.87403C20.9069 3.9862 20.9915 4.10377 21.0687 4.2261C21.1469 4.35017 21.2173 4.47894 21.2795 4.61168C21.3432 4.747 21.4004 4.89001 21.4518 5.04202C21.5031 5.19402 21.5489 5.35556 21.5894 5.52817C21.6318 5.71117 21.6674 5.8957 21.696 6.08137C21.7267 6.2782 21.753 6.4881 21.7753 6.71284C21.7976 6.93758 21.8161 7.17724 21.8313 7.43365C21.8434 7.63932 21.854 7.91073 21.863 8.23127L21.8856 9.32422L21.9028 12.0014L21.8832 14.6761L21.8597 15.7659L21.8273 16.5585C21.8048 16.9296 21.7812 17.2416 21.7529 17.5132C21.7386 17.649 21.7233 17.7746 21.7062 17.8925C21.6902 18.0038 21.6713 18.1147 21.6494 18.2251C21.6294 18.3257 21.6062 18.4257 21.5798 18.5249C21.5545 18.6196 21.5261 18.7134 21.4945 18.8061C21.4627 18.8993 21.4281 18.9915 21.3908 19.0826C21.3513 19.1788 21.3097 19.2741 21.2659 19.3684C21.2269 19.4526 21.1859 19.5345 21.1425 19.6142C21.0997 19.6931 21.0541 19.7705 21.006 19.8464C20.9583 19.9215 20.9083 19.9945 20.8561 20.0651C20.8041 20.1355 20.7495 20.2041 20.6926 20.2706C20.6358 20.3368 20.5767 20.4009 20.5152 20.4628C20.4537 20.5247 20.3899 20.5844 20.3238 20.6421C20.2576 20.6997 20.1891 20.7551 20.1181 20.8085C20.0471 20.8618 19.9737 20.913 19.8978 20.9621C19.8219 21.0111 19.7437 21.0582 19.6628 21.1031C19.582 21.148 19.4987 21.1909 19.413 21.2317C19.3258 21.2732 19.2373 21.312 19.1478 21.3481C19.0552 21.3855 18.9616 21.4202 18.8671 21.4523C18.6749 21.5178 18.4722 21.5753 18.2587 21.6249C18.0363 21.6763 17.8118 21.7183 17.5858 21.7509C17.499 21.7635 17.2993 21.7755 17.0133 21.7865L15.9233 21.8168L12.8332 21.857L9.59893 21.862L8.32876 21.8485L7.504 21.8228L6.89582 21.7801C6.70699 21.7642 6.53138 21.7465 6.36684 21.7264C6.2023 21.7063 6.04907 21.684 5.90491 21.6588C5.76829 21.6351 5.63251 21.6069 5.49779 21.5742C5.37496 21.5443 5.25338 21.5095 5.13335 21.4698C5.01764 21.4313 4.907 21.389 4.79935 21.3425C4.69171 21.296 4.58715 21.245 4.48358 21.1894C4.38001 21.1337 4.27752 21.0733 4.17388 21.0074C4.09569 20.9577 4.02011 20.9074 3.94737 20.8541C3.87464 20.8008 3.80436 20.7477 3.7367 20.6921C3.66904 20.6364 3.60407 20.579 3.54141 20.52C3.47917 20.4612 3.41905 20.4002 3.36119 20.3371C3.30353 20.2743 3.2484 20.2095 3.1955 20.1425C3.1424 20.0752 3.0918 20.0059 3.0438 19.9349C2.9951 19.8628 2.94901 19.7889 2.90564 19.7134C2.86181 19.6373 2.82014 19.5586 2.78054 19.4774C2.74028 19.3947 2.70272 19.3106 2.6679 19.2254C2.63253 19.1387 2.59901 19.0492 2.56749 18.9568C2.50444 18.7719 2.44908 18.5751 2.40095 18.3652C2.35282 18.1553 2.31176 17.9323 2.27701 17.6947C2.24226 17.4571 2.21427 17.2052 2.19197 16.9375C2.17552 16.7403 2.16245 16.4332 2.15245 16.0456L2.13154 14.6675L2.13923 11.1541L2.19974 7.79694L2.24587 6.61412L2.27201 6.22315C2.28109 6.11874 2.29047 6.04139 2.30008 5.99495C2.33175 5.84218 2.36366 5.70001 2.39665 5.56692C2.42746 5.44137 2.46174 5.31668 2.49944 5.19302C2.53527 5.07631 2.57302 4.96698 2.61339 4.86341C2.65231 4.76308 2.6957 4.66455 2.74341 4.56809C2.79 4.47429 2.84005 4.38448 2.89441 4.29706C2.94877 4.20964 3.00743 4.12484 3.0714 4.04049C3.13537 3.95615 3.20426 3.87288 3.27923 3.78846C3.35419 3.70404 3.43515 3.61877 3.52296 3.53089C3.62529 3.42797 3.73184 3.32935 3.84235 3.23526C3.94669 3.14649 4.05549 3.06311 4.16835 2.98545C4.27929 2.90857 4.39309 2.84014 4.51157 2.77725C4.63005 2.71435 4.75322 2.65753 4.88278 2.6064C5.01233 2.55527 5.14842 2.50953 5.29258 2.46801C5.44403 2.42552 5.59717 2.38928 5.7516 2.35937C5.91398 2.32754 6.08644 2.29978 6.27058 2.27556C6.45472 2.25134 6.65063 2.23043 6.86007 2.21228C7.00616 2.19967 7.25788 2.18845 7.58934 2.17899L8.79569 2.15516L12.0048 2.13555L12.0042 2.13624Z" fill="url(#paint2_radial_290_1828)"/>
<defs>
<radialGradient id="paint0_radial_290_1828" cx="0" cy="0" r="1" gradientUnits="userSpaceOnUse" gradientTransform="translate(3.82378 25.7243) rotate(-9.53101) scale(50.723 30.7886)">
<stop stop-color="#FED576"/>
<stop offset="0.263" stop-color="#F47133"/>
<stop offset="0.609" stop-color="#BC3081"/>
<stop offset="1" stop-color="#4C63D2"/>
</radialGradient>
<radialGradient id="paint1_radial_290_1828" cx="0" cy="0" r="1" gradientUnits="userSpaceOnUse" gradientTransform="translate(3.82388 25.7243) rotate(-9.53104) scale(50.7228 30.7886)">
<stop stop-color="#FED576"/>
<stop offset="0.263" stop-color="#F47133"/>
<stop offset="0.609" stop-color="#BC3081"/>
<stop offset="1" stop-color="#4C63D2"/>
</radialGradient>
<radialGradient id="paint2_radial_290_1828" cx="0" cy="0" r="1" gradientUnits="userSpaceOnUse" gradientTransform="translate(3.82381 25.7243) rotate(-9.53101) scale(50.723 30.7886)">
<stop stop-color="#FED576"/>
<stop offset="0.263" stop-color="#F47133"/>
<stop offset="0.609" stop-color="#BC3081"/>
<stop offset="1" stop-color="#4C63D2"/>
</radialGradient>
</defs>
</svg>
