<svg width="20" height="20" viewBox="0 0 20 20" fill="none" xmlns="http://www.w3.org/2000/svg">
<path d="M12.625 11.8H7.375C7.14294 11.8 6.92038 11.8948 6.75628 12.0636C6.59219 12.2324 6.5 12.4613 6.5 12.7C6.5 12.9387 6.59219 13.1676 6.75628 13.3364C6.92038 13.5052 7.14294 13.6 7.375 13.6H12.625C12.8571 13.6 13.0796 13.5052 13.2437 13.3364C13.4078 13.1676 13.5 12.9387 13.5 12.7C13.5 12.4613 13.4078 12.2324 13.2437 12.0636C13.0796 11.8948 12.8571 11.8 12.625 11.8ZM14.375 2.8H13.3425C13.162 2.27481 12.8279 1.8199 12.3862 1.49764C11.9444 1.17539 11.4166 1.00157 10.875 1H9.125C8.58342 1.00157 8.05557 1.17539 7.61382 1.49764C7.17206 1.8199 6.83802 2.27481 6.6575 2.8H5.625C4.92881 2.8 4.26113 3.08446 3.76884 3.59081C3.27656 4.09716 3 4.78392 3 5.5V16.3C3 17.0161 3.27656 17.7028 3.76884 18.2092C4.26113 18.7155 4.92881 19 5.625 19H14.375C15.0712 19 15.7389 18.7155 16.2312 18.2092C16.7234 17.7028 17 17.0161 17 16.3V5.5C17 4.78392 16.7234 4.09716 16.2312 3.59081C15.7389 3.08446 15.0712 2.8 14.375 2.8ZM8.25 3.7C8.25 3.4613 8.34219 3.23239 8.50628 3.0636C8.67038 2.89482 8.89294 2.8 9.125 2.8H10.875C11.1071 2.8 11.3296 2.89482 11.4937 3.0636C11.6578 3.23239 11.75 3.4613 11.75 3.7V4.6H8.25V3.7ZM15.25 16.3C15.25 16.5387 15.1578 16.7676 14.9937 16.9364C14.8296 17.1052 14.6071 17.2 14.375 17.2H5.625C5.39294 17.2 5.17038 17.1052 5.00628 16.9364C4.84219 16.7676 4.75 16.5387 4.75 16.3V5.5C4.75 5.26131 4.84219 5.03239 5.00628 4.8636C5.17038 4.69482 5.39294 4.6 5.625 4.6H6.5V5.5C6.5 5.73869 6.59219 5.96761 6.75628 6.1364C6.92038 6.30518 7.14294 6.4 7.375 6.4H12.625C12.8571 6.4 13.0796 6.30518 13.2437 6.1364C13.4078 5.96761 13.5 5.73869 13.5 5.5V4.6H14.375C14.6071 4.6 14.8296 4.69482 14.9937 4.8636C15.1578 5.03239 15.25 5.26131 15.25 5.5V16.3ZM12.625 8.2H7.375C7.14294 8.2 6.92038 8.29482 6.75628 8.4636C6.59219 8.63239 6.5 8.8613 6.5 9.1C6.5 9.33869 6.59219 9.56761 6.75628 9.7364C6.92038 9.90518 7.14294 10 7.375 10H12.625C12.8571 10 13.0796 9.90518 13.2437 9.7364C13.4078 9.56761 13.5 9.33869 13.5 9.1C13.5 8.8613 13.4078 8.63239 13.2437 8.4636C13.0796 8.29482 12.8571 8.2 12.625 8.2Z" fill="#25282B"/>
</svg>
