<svg width="37" height="50" viewBox="0 0 37 50" fill="none" xmlns="http://www.w3.org/2000/svg">
<path d="M25.9 0C26.15 0 26.4 0.1 26.6 0.3L36.71 10.4C36.91 10.6 37 10.85 37 11.11V45C37 47.75 34.75 50 32 50H5C2.25 50 0 47.75 0 45V5C0 2.25 2.25 0 5 0H25.9Z" fill="white"/>
<path d="M36.71 10.4L36.36 10.05L35.07 8.76L28.3 2L26.6 0.3C26.4 0.1 26.15 0 25.9 0L5 0C2.25 0 0 2.25 0 5V45C0 47.75 2.25 50 5 50H32C34.75 50 37 47.75 37 45V11.11C37 10.85 36.91 10.6 36.71 10.4ZM33.53 10.05H29.5C28.09 10.05 26.95 8.91 26.95 7.5V3.47L33.53 10.05ZM35 45C35 46.66 33.65 48 32 48H5C3.34 48 2 46.66 2 45V5C2 3.35 3.34 2 5 2H24.5V7.5C24.5 10.25 26.75 12.5 29.5 12.5H35V45Z" fill="#005FE7"/>
<path d="M10.78 23.09C10.62 23.25 10.53 23.47 10.53 23.72V29.71C10.53 30.16 10.4 30.52 10.14 30.8C9.88 31.08 9.55 31.21 9.14 31.21C8.73 31.21 8.39999 31.08 8.14999 30.8C7.88999 30.52 7.75999 30.16 7.75999 29.71C7.75999 29.46 7.67999 29.25 7.50999 29.08C7.18999 28.76 6.60999 28.75 6.25999 29.08C6.08999 29.24 6 29.46 6 29.71C6 30.31 6.12999 30.85 6.39999 31.33C6.66999 31.8 7.04 32.18 7.52 32.45C7.99 32.71 8.53 32.85 9.14 32.85C9.74 32.85 10.28 32.72 10.76 32.45C11.23 32.18 11.61 31.81 11.88 31.34C12.15 30.87 12.28 30.32 12.28 29.72V23.73C12.28 23.48 12.19 23.26 12.02 23.1C11.7 22.77 11.12 22.76 10.78 23.09Z" fill="#005FE7"/>
<path d="M20.0701 23.27C19.5701 22.99 18.9901 22.84 18.3601 22.84H15.9601C15.7201 22.84 15.5101 22.92 15.3401 23.08C15.1701 23.24 15.0801 23.46 15.0801 23.71V31.83C15.0801 32.07 15.1601 32.28 15.3301 32.45C15.5001 32.62 15.7101 32.7 15.9501 32.7C16.2001 32.7 16.4101 32.61 16.5801 32.44C16.7401 32.27 16.8301 32.06 16.8301 31.82V29.44H18.3601C18.9901 29.44 19.5701 29.3 20.0701 29.03C20.5801 28.75 20.9801 28.36 21.2601 27.87C21.5401 27.38 21.6801 26.81 21.6801 26.19C21.6801 25.55 21.5401 24.97 21.2601 24.46C20.9801 23.96 20.5801 23.56 20.0701 23.27ZM19.9801 26.2C19.9801 26.68 19.8301 27.06 19.5301 27.36C19.2201 27.66 18.8401 27.81 18.3601 27.81H16.8301V24.5H18.3601C18.8401 24.5 19.2201 24.66 19.5201 24.97C19.8301 25.29 19.9801 25.7 19.9801 26.2Z" fill="#005FE7"/>
<path d="M30.4296 27.36H28.1896C27.9396 27.36 27.7396 27.43 27.5696 27.58C27.3996 27.73 27.3096 27.93 27.3096 28.16C27.3096 28.39 27.3996 28.59 27.5696 28.74C27.7296 28.89 27.9396 28.96 28.1896 28.96H29.5996V30.71C28.5296 31.36 27.2896 31.35 26.3296 30.75C25.8396 30.45 25.4496 30.03 25.1696 29.51C24.8796 28.99 24.7396 28.41 24.7396 27.78C24.7396 27.16 24.8896 26.58 25.1696 26.06C25.4596 25.54 25.8496 25.12 26.3296 24.81C26.8096 24.51 27.3396 24.36 27.9196 24.36C28.3796 24.36 28.7596 24.42 29.0396 24.53C29.3296 24.64 29.6196 24.83 29.9296 25.1C30.2896 25.4 30.7696 25.37 31.0796 25.09C31.2496 24.94 31.3396 24.74 31.3396 24.51C31.3396 24.38 31.3196 24.25 31.2696 24.14C31.2196 24.02 31.1296 23.92 31.0096 23.82C30.5396 23.44 30.0596 23.16 29.5896 22.99C29.1196 22.82 28.5596 22.74 27.9296 22.74C27.0296 22.74 26.1996 22.97 25.4596 23.42C24.7196 23.87 24.1196 24.48 23.6996 25.25C23.2696 26.02 23.0596 26.87 23.0596 27.79C23.0596 28.72 23.2796 29.58 23.6996 30.35C24.1296 31.12 24.7196 31.74 25.4696 32.18C26.2096 32.63 27.0496 32.85 27.9396 32.85C29.1096 32.85 30.1596 32.48 31.0396 31.75C31.2296 31.6 31.3196 31.38 31.3196 31.11V28.24C31.3196 27.99 31.2396 27.78 31.0696 27.61C30.8796 27.44 30.6696 27.36 30.4296 27.36Z" fill="#005FE7"/>
</svg>
