<svg width="37" height="50" viewBox="0 0 37 50" fill="none" xmlns="http://www.w3.org/2000/svg">
<path d="M25.9 0C26.15 0 26.4 0.1 26.6 0.3L36.71 10.4C36.91 10.6 37 10.85 37 11.11V45C37 47.75 34.75 50 32 50H5C2.25 50 0 47.75 0 45V5C0 2.25 2.25 0 5 0H25.9Z" fill="white"/>
<path d="M36.7139 10.4L36.3685 10.05L35.0957 8.76L28.416 2L26.7387 0.300003C26.5413 0.100003 26.2947 0 26.048 0H4.93333C2.22 0 0 2.25 0 5V45C0 47.75 2.22 50 4.93333 50H32.0667C34.78 50 37 47.75 37 45V11.11C37 10.85 36.9112 10.6 36.7139 10.4ZM33.5763 10.05H29.6C28.2088 10.05 27.084 8.91 27.084 7.5V3.47L33.5763 10.05ZM35.0267 45C35.0267 46.66 33.6947 48 32.0667 48H4.93333C3.29547 48 1.97333 46.66 1.97333 45V5C1.97333 3.35 3.29547 2 4.93333 2H24.6667V7.5C24.6667 10.25 26.8867 12.5 29.6 12.5H35.0267V45Z" fill="#7A62F4"/>
<path d="M18.552 31.2534L14.3334 35.4721C13.8226 35.965 13.1405 36.2405 12.4306 36.2405C11.7208 36.2405 11.0386 35.965 10.5279 35.4721C10.2774 35.2226 10.0786 34.926 9.94299 34.5995C9.80736 34.273 9.73754 33.9229 9.73754 33.5693C9.73754 33.2158 9.80736 32.8657 9.94299 32.5392C10.0786 32.2127 10.2774 31.9161 10.5279 31.6666L14.7465 27.448C14.9513 27.2432 15.0663 26.9656 15.0663 26.676C15.0663 26.3865 14.9513 26.1088 14.7465 25.904C14.5418 25.6993 14.2641 25.5843 13.9746 25.5843C13.685 25.5843 13.4073 25.6993 13.2026 25.904L8.98395 30.1335C8.13409 31.0586 7.67446 32.2762 7.70104 33.5321C7.72763 34.788 8.23838 35.9851 9.12664 36.8733C10.0149 37.7616 11.212 38.2723 12.4679 38.2989C13.7238 38.3255 14.9414 37.8659 15.8664 37.016L20.0959 32.7974C20.3007 32.5926 20.4157 32.315 20.4157 32.0254C20.4157 31.7359 20.3007 31.4582 20.0959 31.2534C19.8912 31.0487 19.6135 30.9337 19.324 30.9337C19.0344 30.9337 18.7567 31.0487 18.552 31.2534ZM27.8808 18.1191C26.9662 17.2102 25.7291 16.7 24.4396 16.7C23.1501 16.7 21.913 17.2102 20.9984 18.1191L16.7689 22.3378C16.6675 22.4392 16.5871 22.5595 16.5322 22.692C16.4773 22.8244 16.4491 22.9664 16.4491 23.1097C16.4491 23.2531 16.4773 23.3951 16.5322 23.5275C16.5871 23.66 16.6675 23.7803 16.7689 23.8817C16.8702 23.9831 16.9906 24.0635 17.123 24.1184C17.2555 24.1732 17.3975 24.2015 17.5408 24.2015C17.6842 24.2015 17.8261 24.1732 17.9586 24.1184C18.0911 24.0635 18.2114 23.9831 18.3128 23.8817L22.5314 19.6631C23.0422 19.1701 23.7243 18.8946 24.4342 18.8946C25.144 18.8946 25.8261 19.1701 26.3369 19.6631C26.5874 19.9126 26.7862 20.2091 26.9218 20.5356C27.0574 20.8622 27.1272 21.2122 27.1272 21.5658C27.1272 21.9194 27.0574 22.2695 26.9218 22.596C26.7862 22.9225 26.5874 23.219 26.3369 23.4685L22.1183 27.6872C22.0163 27.7883 21.9355 27.9085 21.8803 28.041C21.8251 28.1735 21.7966 28.3156 21.7966 28.4591C21.7966 28.6027 21.8251 28.7448 21.8803 28.8773C21.9355 29.0098 22.0163 29.13 22.1183 29.2311C22.2193 29.333 22.3396 29.4139 22.4721 29.4691C22.6046 29.5243 22.7467 29.5527 22.8902 29.5527C23.0338 29.5527 23.1759 29.5243 23.3084 29.4691C23.4409 29.4139 23.5611 29.333 23.6622 29.2311L27.8808 25.0016C28.7898 24.087 29.2999 22.8499 29.2999 21.5604C29.2999 20.2709 28.7898 19.0338 27.8808 18.1191ZM14.9857 31.0142C15.0873 31.115 15.2078 31.1947 15.3403 31.2488C15.4727 31.303 15.6146 31.3304 15.7577 31.3296C15.9008 31.3304 16.0426 31.303 16.1751 31.2488C16.3076 31.1947 16.4281 31.115 16.5297 31.0142L21.8791 25.6648C22.0838 25.4601 22.1988 25.1824 22.1988 24.8929C22.1988 24.6033 22.0838 24.3256 21.8791 24.1209C21.6743 23.9162 21.3966 23.8011 21.1071 23.8011C20.8175 23.8011 20.5399 23.9162 20.3351 24.1209L14.9857 29.4703C14.8838 29.5714 14.8029 29.6916 14.7477 29.8241C14.6925 29.9566 14.6641 30.0987 14.6641 30.2423C14.6641 30.3858 14.6925 30.5279 14.7477 30.6604C14.8029 30.7929 14.8838 30.9132 14.9857 31.0142Z" fill="#7A62F4"/>
</svg>
