<svg width="18" height="18" viewBox="0 0 18 18" fill="none" xmlns="http://www.w3.org/2000/svg">
  <path
    d="M8.5 2C7.04131 2 5.64236 2.59 4.61091 3.6402C3.57946 4.6904 3 6.11477 3 7.59998C3 11.38 7.84688 15.65 8.05313 15.832C8.17765 15.9404 8.33613 16 8.5 16C8.66387 16 8.82235 15.9404 8.94687 15.832C9.1875 15.65 14 11.38 14 7.59998C14 6.11477 13.4205 4.6904 12.3891 3.6402C11.3576 2.59 9.95869 2 8.5 2ZM8.5 14.355C7.03562 12.955 4.375 9.93797 4.375 7.59998C4.375 6.48608 4.8096 5.41779 5.58318 4.63014C6.35677 3.84249 7.40598 3.4 8.5 3.4C9.59402 3.4 10.6432 3.84249 11.4168 4.63014C12.1904 5.41779 12.625 6.48608 12.625 7.59998C12.625 9.93797 9.96438 12.962 8.5 14.355ZM8.5 4.79999C7.9561 4.79999 7.42442 4.96421 6.97218 5.27187C6.51995 5.57954 6.16747 6.01684 5.95933 6.52847C5.75119 7.0401 5.69673 7.60309 5.80284 8.14623C5.90895 8.68938 6.17086 9.18829 6.55546 9.57987C6.94005 9.97146 7.43005 10.2381 7.9635 10.3462C8.49695 10.4542 9.04988 10.3988 9.55238 10.1868C10.0549 9.97491 10.4844 9.61603 10.7865 9.15557C11.0887 8.69512 11.25 8.15377 11.25 7.59998C11.25 6.85738 10.9603 6.14519 10.4445 5.62009C9.92882 5.09499 9.22935 4.79999 8.5 4.79999ZM8.5 8.99998C8.22805 8.99998 7.96221 8.91787 7.73609 8.76404C7.50997 8.6102 7.33374 8.39155 7.22967 8.13574C7.1256 7.87992 7.09837 7.59843 7.15142 7.32686C7.20447 7.05528 7.33543 6.80583 7.52773 6.61004C7.72003 6.41424 7.96503 6.28091 8.23175 6.22689C8.49847 6.17287 8.77494 6.20059 9.02619 6.30655C9.27744 6.41252 9.49218 6.59196 9.64327 6.82219C9.79436 7.05241 9.875 7.32309 9.875 7.59998C9.875 7.97128 9.73013 8.32738 9.47227 8.58993C9.21441 8.85248 8.86467 8.99998 8.5 8.99998Z"
    fill="black" />
</svg>