<svg width="100" height="30" viewBox="0 0 100 30" fill="none" xmlns="http://www.w3.org/2000/svg">
<path d="M34.9746 25.0059V15.3342H36.3416C36.5806 15.3342 36.7476 15.3782 36.8416 15.4662C36.9356 15.5542 36.9986 15.7052 37.0306 15.9192L37.1716 17.0882C37.5166 16.4912 37.9226 16.0202 38.3876 15.6742C38.8526 15.3282 39.3746 15.1562 39.9526 15.1562C40.4296 15.1562 40.8256 15.2662 41.1396 15.4862L40.8376 17.2302C40.8186 17.3432 40.7776 17.4232 40.7146 17.4702C40.6516 17.5172 40.5666 17.5412 40.4596 17.5412C40.3656 17.5412 40.2366 17.5192 40.0736 17.4752C39.9096 17.4312 39.6936 17.4092 39.4226 17.4092C38.9386 17.4092 38.5236 17.5432 38.1786 17.8102C37.8336 18.0772 37.5406 18.4691 37.3016 18.9841V25.0069H34.9746V25.0059Z" fill="#0050C5"/>
<path d="M50.1688 25.0069H49.1228C48.9028 25.0069 48.7298 24.9739 48.6048 24.9079C48.4788 24.8419 48.3848 24.709 48.3218 24.507L48.1148 23.819C47.8698 24.039 47.6298 24.233 47.3938 24.399C47.1578 24.565 46.9148 24.705 46.6638 24.8179C46.4128 24.9309 46.1458 25.0159 45.8628 25.0729C45.5798 25.1289 45.2658 25.1579 44.9198 25.1579C44.5108 25.1579 44.1338 25.1029 43.7888 24.9929C43.4438 24.8829 43.1468 24.717 42.8978 24.497C42.6498 24.276 42.4568 24.002 42.3188 23.674C42.1808 23.346 42.1118 22.965 42.1118 22.529C42.1118 22.163 42.2078 21.802 42.3988 21.4461C42.5908 21.0891 42.9098 20.7681 43.3558 20.4811C43.8018 20.1941 44.3958 19.9561 45.1368 19.7671C45.8788 19.5781 46.7988 19.4831 47.8988 19.4831V18.9131C47.8988 18.2612 47.7618 17.7782 47.4888 17.4652C47.2158 17.1512 46.8178 16.9942 46.2968 16.9942C45.9198 16.9942 45.6058 17.0382 45.3548 17.1262C45.1038 17.2142 44.8848 17.3132 44.6998 17.4232C44.5148 17.5332 44.3428 17.6322 44.1858 17.7202C44.0288 17.8082 43.8558 17.8522 43.6668 17.8522C43.5098 17.8522 43.3748 17.8122 43.2618 17.7292C43.1488 17.6482 43.0578 17.5472 42.9888 17.4282L42.5648 16.6832C43.6768 15.6652 45.0188 15.1562 46.5898 15.1562C47.1558 15.1562 47.6598 15.2492 48.1028 15.4342C48.5458 15.6192 48.9208 15.8772 49.2298 16.2072C49.5378 16.5372 49.7718 16.9322 49.9318 17.3902C50.0918 17.8492 50.1718 18.3522 50.1718 18.8981V25.0069H50.1688ZM45.6448 23.555C45.8838 23.555 46.1038 23.534 46.3048 23.49C46.5058 23.447 46.6958 23.382 46.8748 23.295C47.0538 23.209 47.2268 23.102 47.3928 22.975C47.5598 22.848 47.7278 22.698 47.8968 22.525V20.9061C47.2178 20.9061 46.6508 20.9481 46.1958 21.0341C45.7398 21.1191 45.3738 21.2291 45.0978 21.3621C44.8208 21.4951 44.6248 21.65 44.5088 21.827C44.3928 22.004 44.3338 22.197 44.3338 22.406C44.3338 22.818 44.4548 23.112 44.6968 23.289C44.9398 23.466 45.2548 23.555 45.6448 23.555Z" fill="#0050C5"/>
<path d="M57.1533 25.0076H55.0423L51.1963 15.3359H53.1283C53.2983 15.3359 53.4413 15.3769 53.5573 15.4589C53.6733 15.5409 53.7533 15.6449 53.7973 15.7699L55.6633 20.9358C55.7703 21.2367 55.8593 21.5327 55.9323 21.8217C56.0043 22.1107 56.0693 22.3997 56.1253 22.6887C56.1813 22.3997 56.2463 22.1107 56.3183 21.8217C56.3903 21.5327 56.4833 21.2377 56.5963 20.9358L58.5093 15.7699C58.5533 15.6439 58.6323 15.5409 58.7453 15.4589C58.8583 15.3779 58.9933 15.3359 59.1503 15.3359H60.9883L57.1533 25.0076Z" fill="#0050C5"/>
<path d="M66.2393 15.1836C66.8483 15.1836 67.4093 15.2806 67.9213 15.4756C68.4333 15.6706 68.8743 15.9546 69.2453 16.3286C69.6163 16.7025 69.9053 17.1615 70.1123 17.7055C70.3193 18.2485 70.4233 18.8695 70.4233 19.5675C70.4233 19.7435 70.4153 19.8895 70.3993 20.0054C70.3833 20.1214 70.3553 20.2134 70.3143 20.2784C70.2733 20.3444 70.2183 20.3914 70.1493 20.4204C70.0803 20.4484 69.9923 20.4634 69.8853 20.4634H63.9093C63.9783 21.4554 64.2453 22.1854 64.7103 22.6504C65.1753 23.1164 65.7913 23.3483 66.5573 23.3483C66.9343 23.3483 67.2593 23.3043 67.5333 23.2164C67.8063 23.1284 68.0453 23.0314 68.2493 22.9244C68.4533 22.8174 68.6323 22.7204 68.7873 22.6324C68.9413 22.5444 69.0903 22.5004 69.2343 22.5004C69.3283 22.5004 69.4103 22.5194 69.4793 22.5564C69.5483 22.5944 69.6083 22.6474 69.6583 22.7174L70.3373 23.5663C70.0793 23.8673 69.7903 24.1203 69.4703 24.3243C69.1493 24.5293 68.8153 24.6923 68.4663 24.8153C68.1173 24.9383 67.7623 25.0233 67.4013 25.0743C67.0403 25.1243 66.6893 25.1493 66.3503 25.1493C65.6773 25.1493 65.0523 25.0383 64.4743 24.8143C63.8963 24.5913 63.3933 24.2613 62.9663 23.8243C62.5383 23.3873 62.2024 22.8474 61.9574 22.2024C61.7124 21.5584 61.5894 20.8124 61.5894 19.9635C61.5894 19.3035 61.6964 18.6835 61.9094 18.1015C62.1224 17.5205 62.4294 17.0145 62.8283 16.5836C63.2273 16.1526 63.7143 15.8126 64.2893 15.5606C64.8673 15.3096 65.5163 15.1836 66.2393 15.1836ZM66.2863 16.8515C65.6073 16.8515 65.0763 17.0435 64.6933 17.4265C64.3103 17.8105 64.0653 18.3535 63.9583 19.0575H68.3313C68.3313 18.7555 68.2903 18.4715 68.2083 18.2045C68.1263 17.9375 68.0013 17.7035 67.8313 17.5025C67.6613 17.3015 67.4483 17.1425 67.1903 17.0265C66.9333 16.9105 66.6313 16.8515 66.2863 16.8515Z" fill="#0050C5"/>
<path d="M72.5063 25.0053V15.3336H73.9293C74.2313 15.3336 74.4293 15.4756 74.5233 15.7576L74.6833 16.5216C74.8783 16.3206 75.0843 16.1376 75.3003 15.9746C75.5173 15.8116 75.7463 15.6706 75.9883 15.5506C76.2303 15.4306 76.4893 15.3396 76.7663 15.2776C77.0423 15.2146 77.3443 15.1836 77.6713 15.1836C78.1993 15.1836 78.6673 15.2726 79.0753 15.4516C79.4843 15.6316 79.8243 15.8826 80.0983 16.2056C80.3723 16.5296 80.5793 16.9165 80.7203 17.3655C80.8613 17.8145 80.9323 18.3095 80.9323 18.8495V25.0053H78.6043V18.8495C78.6043 18.2585 78.4673 17.8015 78.1943 17.4785C77.9213 17.1545 77.5113 16.9925 76.9643 16.9925C76.5623 16.9925 76.1853 17.0835 75.8333 17.2655C75.4813 17.4485 75.1483 17.6965 74.8343 18.0105V25.0043H72.5063V25.0053Z" fill="#0050C5"/>
<path d="M83.4111 25.0059V15.3342H84.7781C85.0171 15.3342 85.1841 15.3782 85.2781 15.4662C85.3721 15.5542 85.4351 15.7052 85.4671 15.9192L85.6081 17.0882C85.9531 16.4912 86.3591 16.0202 86.8241 15.6742C87.2891 15.3282 87.8111 15.1562 88.3891 15.1562C88.8661 15.1562 89.2621 15.2662 89.5761 15.4862L89.2741 17.2302C89.2551 17.3432 89.2141 17.4232 89.1511 17.4702C89.0881 17.5172 89.0031 17.5412 88.8961 17.5412C88.8021 17.5412 88.6731 17.5192 88.5101 17.4752C88.3461 17.4312 88.1301 17.4092 87.8591 17.4092C87.3751 17.4092 86.9601 17.5432 86.6151 17.8102C86.2701 18.0772 85.9771 18.4691 85.7381 18.9841V25.0069H83.4111V25.0059Z" fill="#0050C5"/>
<path d="M94.7311 27.6664C94.6621 27.8304 94.5721 27.9534 94.4621 28.0384C94.3521 28.1234 94.1841 28.1654 93.9581 28.1654H92.2241L94.0341 24.2916L90.1221 15.3359H92.1581C92.3461 15.3359 92.4911 15.3799 92.5911 15.4679C92.6911 15.5559 92.7671 15.6569 92.8171 15.7699L94.8811 20.7847C94.9501 20.9487 95.0101 21.1177 95.0601 21.2937C95.1101 21.4697 95.1541 21.6457 95.1921 21.8207C95.2421 21.6387 95.2971 21.4627 95.3571 21.2937C95.4171 21.1247 95.4811 20.9517 95.5501 20.7747L97.4921 15.7699C97.5421 15.6439 97.6251 15.5409 97.7421 15.4589C97.8581 15.3779 97.9891 15.3359 98.1331 15.3359H100L94.7311 27.6664Z" fill="#0050C5"/>
<path d="M29.9056 18.3995L29.8666 18.2815L27.2146 14.6216C27.1966 14.5966 27.1706 14.5786 27.1416 14.5696L24.3196 13.7196L21.5526 7.0599L12.9657 0.0361738C12.9147 -0.00582454 12.8437 -0.0118243 12.7867 0.0211744C12.7297 0.0541731 12.6997 0.116171 12.7097 0.180168L14.0007 8.59184L14.9727 10.7798L8.48474 9.23081L8.47474 9.22881L0.110808 9.6008C0.0598081 9.6028 0.0168085 9.6378 0.00380857 9.6868C-0.00919132 9.73579 0.0118085 9.78679 0.0558082 9.81279L12.6057 17.3915L16.8317 21.1233L12.9737 23.5053C12.9417 23.5253 12.9147 23.5533 12.8957 23.5853L11.4747 26.0542C11.4477 26.1012 11.4437 26.1581 11.4647 26.2081C11.4857 26.2591 11.5287 26.2961 11.5817 26.3111L12.9747 26.6901L12.6797 28.849C12.6727 28.903 12.6927 28.957 12.7337 28.993C12.7757 29.03 12.8317 29.043 12.8867 29.029L15.5637 28.3091L15.7687 29.876C15.7747 29.924 15.8057 29.966 15.8497 29.986C15.8697 29.995 15.8897 30 15.9107 30C15.9377 30 15.9637 29.993 15.9877 29.978L18.6827 28.2791C18.7237 28.2531 18.7547 28.2141 18.7707 28.1681L19.2687 26.7411L20.0656 23.1923L24.2096 19.1894L27.3156 18.6734L29.7686 20.1844C29.8166 20.2134 29.8766 20.2144 29.9246 20.1854C29.9726 20.1574 29.9996 20.1054 29.9966 20.0494L29.9056 18.3995ZM28.9716 18.6124L27.8956 17.9505L27.9606 17.1605L28.9716 18.6124ZM26.1296 15.2226L23.9736 17.9335L21.8876 14.9606L23.9496 14.5656L26.1296 15.2226ZM15.1167 14.3166L12.8187 16.4535L4.35877 11.3387L15.1167 14.3166ZM8.38574 10.1498L15.6717 11.8897L16.4717 12.0897L15.7797 13.5496L4.17478 10.3368L8.38574 10.1498ZM20.0166 9.89979L21.0716 8.31585L23.3306 13.7516L21.2116 14.1576L20.6826 13.7766L20.0166 9.89979ZM20.5046 14.7816L17.7837 19.8684L16.5187 14.1486L17.3107 12.4787L20.5046 14.7816ZM19.1237 10.1688L19.6107 13.0027L17.3417 11.3667L17.3297 11.3587L16.1107 11.0537L15.2717 9.19981L19.1237 10.1688ZM14.8697 8.15386L13.9267 2.0111L20.5516 7.42988L19.3237 9.27281L14.8697 8.15386ZM16.8427 19.9054L13.5687 17.0145L15.7537 14.9826L16.8427 19.9054ZM17.5537 23.0733L18.3477 26.5731L17.9757 27.6371L16.5297 28.5491L16.3667 27.3091L17.5537 23.0733ZM23.3856 18.7034L19.6266 22.3353L18.1827 21.0833L21.1566 15.5256L23.3856 18.7034ZM15.5957 22.9663L13.3147 25.8312L12.7567 25.6792L13.6147 24.1882L15.5957 22.9663ZM16.5387 23.2633L15.4617 27.1051L15.2887 27.4321L13.7517 27.8461L13.9307 26.5391L16.5387 23.2633ZM19.1317 23.1243L18.8257 24.4922L18.3647 22.4583L19.1317 23.1243ZM27.1286 15.9835L26.9796 17.7985L24.9986 18.1285L26.9156 15.7186L27.1286 15.9835Z" fill="#0050C5"/>
</svg>
