<svg width="33" height="24" viewBox="0 0 33 24" fill="none" xmlns="http://www.w3.org/2000/svg">
<path d="M0.5 3.5C0.5 2.11929 1.61929 1 3 1H30C31.3807 1 32.5 2.11929 32.5 3.5V20.5C32.5 21.8807 31.3807 23 30 23H3C1.61929 23 0.5 21.8807 0.5 20.5V3.5Z" fill="white" stroke="#D6D6D7"/>
<g opacity="0.01">
<rect x="7" y="5.5" width="19.2185" height="12.5356" fill="white"/>
</g>
<rect x="14.1797" y="6.83203" width="6.08157" height="9.79598" fill="#FF5F00"/>
<path fill-rule="evenodd" clip-rule="evenodd" d="M14.8072 11.7327C14.8057 9.82143 15.6953 8.01562 17.2198 6.83557C14.6299 4.82828 10.9108 5.12066 8.67605 7.50723C6.44132 9.89381 6.44132 13.5733 8.67605 15.9599C10.9108 18.3465 14.6299 18.6388 17.2198 16.6316C15.6948 15.4511 14.8051 13.6446 14.8072 11.7327Z" fill="#EB001B"/>
<path fill-rule="evenodd" clip-rule="evenodd" d="M26.8441 15.4319V15.839H26.8017V15.4319H26.7109V15.3477H26.9406V15.4319H26.8441ZM27.2885 15.3477V15.839H27.2402V15.467L27.165 15.7863H27.1129L27.0376 15.467V15.839H26.9874V15.3477H27.0569L27.138 15.6986L27.219 15.3477H27.2885Z" fill="#F79E1B"/>
<path fill-rule="evenodd" clip-rule="evenodd" d="M27.4395 11.7312C27.4394 14.1163 26.0585 16.292 23.8832 17.3343C21.7078 18.3766 19.12 18.1025 17.2188 16.6283C18.7426 15.4473 19.6323 13.6417 19.6323 11.7303C19.6323 9.81896 18.7426 8.01339 17.2188 6.83234C19.12 5.3582 21.7078 5.08406 23.8832 6.12634C26.0585 7.16862 27.4394 9.34434 27.4395 11.7295V11.7312Z" fill="#F79E1B"/>
</svg>
