<?xml version="1.0" encoding="UTF-8" ?>
<!DOCTYPE svg PUBLIC "-//W3C//DTD SVG 1.1//EN" "http://www.w3.org/Graphics/SVG/1.1/DTD/svg11.dtd">
<svg width="421pt" height="474pt" viewBox="0 0 421 474" version="1.1" xmlns="http://www.w3.org/2000/svg">
<g id="#ffffffff">
</g>
<g id="#3fa69cff">
<path fill="#3fa69c" opacity="1.00" d=" M 128.75 19.72 C 165.82 3.16 207.92 -1.75 247.82 5.66 C 300.83 15.14 349.18 47.07 379.13 91.77 C 382.06 96.48 385.59 100.93 387.51 106.19 C 386.42 104.72 384.93 103.57 383.98 101.99 C 377.35 90.94 369.54 80.57 360.77 71.12 C 338.25 46.20 309.33 27.20 277.59 16.24 C 245.60 4.97 210.67 2.21 177.26 7.94 C 117.39 17.44 63.38 56.23 33.93 109.03 C 32.50 112.11 30.77 115.03 28.46 117.55 C 29.52 114.44 31.04 111.53 32.66 108.68 C 53.75 69.54 88.09 37.71 128.75 19.72 Z" />
</g>
<g id="#109083ff">
<path fill="#109083" opacity="1.00" d=" M 177.26 7.94 C 210.67 2.21 245.60 4.97 277.59 16.24 C 276.81 21.58 278.73 26.75 279.25 32.03 C 282.74 58.33 281.37 85.28 275.10 111.07 C 273.76 116.96 272.16 122.80 269.80 128.38 C 266.15 126.47 262.17 124.93 257.99 125.00 C 220.78 124.97 183.58 125.06 146.38 124.93 C 147.61 124.40 148.58 123.23 149.96 123.09 C 155.59 122.52 161.27 123.59 166.88 122.76 C 168.56 122.47 169.46 120.74 170.60 119.66 C 164.34 118.29 157.92 119.45 151.59 118.81 C 151.97 118.42 152.73 117.64 153.11 117.26 C 158.71 116.40 164.41 117.57 170.03 116.87 C 172.02 116.94 172.55 114.72 173.42 113.36 C 179.32 100.63 183.73 87.04 184.91 72.99 C 185.24 68.99 185.94 65.02 186.07 61.01 C 185.91 56.99 185.21 53.01 184.99 48.99 C 184.15 35.24 179.65 22.06 174.37 9.44 C 175.32 8.92 176.29 8.42 177.26 7.94 Z" />
</g>
<g id="#159386ff">
<path fill="#159386" opacity="1.00" d=" M 33.93 109.03 C 63.38 56.23 117.39 17.44 177.26 7.94 C 176.29 8.42 175.32 8.92 174.37 9.44 C 179.65 22.06 184.15 35.24 184.99 48.99 C 185.21 53.01 185.91 56.99 186.07 61.01 C 185.94 65.02 185.24 68.99 184.91 72.99 C 183.73 87.04 179.32 100.63 173.42 113.36 C 172.55 114.72 172.02 116.94 170.03 116.87 C 164.41 117.57 158.71 116.40 153.11 117.26 C 152.73 117.64 151.97 118.42 151.59 118.81 C 157.92 119.45 164.34 118.29 170.60 119.66 C 169.46 120.74 168.56 122.47 166.88 122.76 C 161.27 123.59 155.59 122.52 149.96 123.09 C 148.58 123.23 147.61 124.40 146.38 124.93 C 138.56 125.06 130.75 124.99 122.94 124.96 C 112.62 124.53 102.67 131.23 98.54 140.58 C 95.63 146.48 96.09 153.17 95.99 159.55 C 93.17 164.86 94.15 170.96 93.91 176.73 C 92.69 177.04 91.47 177.36 90.25 177.67 C 89.74 174.79 89.05 171.92 89.05 168.98 C 89.72 166.30 90.38 163.61 91.32 161.01 C 90.52 161.04 88.92 161.10 88.12 161.14 C 86.16 166.77 87.84 172.80 86.43 178.48 C 62.01 182.59 36.30 179.08 14.05 168.12 C 13.19 168.79 12.31 169.43 11.41 170.05 C 14.73 151.93 20.06 133.97 28.46 117.55 C 30.77 115.03 32.50 112.11 33.93 109.03 Z" />
</g>
<g id="#0a8e80ff">
<path fill="#0a8e80" opacity="1.00" d=" M 279.25 32.03 C 278.73 26.75 276.81 21.58 277.59 16.24 C 309.33 27.20 338.25 46.20 360.77 71.12 C 359.86 76.72 359.88 82.41 359.10 88.02 C 357.28 106.82 353.96 125.58 348.19 143.58 C 344.43 139.76 340.63 135.98 336.61 132.42 C 336.44 132.25 336.10 131.92 335.93 131.75 C 322.95 144.67 310.03 157.65 297.07 170.58 C 295.41 167.84 294.16 164.89 293.34 161.79 C 293.18 161.65 292.86 161.36 292.70 161.21 C 291.33 156.14 291.07 149.89 286.17 146.82 C 285.11 144.76 283.57 143.02 281.50 141.94 C 279.07 136.37 275.07 131.47 269.80 128.38 C 272.16 122.80 273.76 116.96 275.10 111.07 C 281.37 85.28 282.74 58.33 279.25 32.03 Z" />
</g>
<g id="#068b7eff">
<path fill="#068b7e" opacity="1.00" d=" M 359.10 88.02 C 359.88 82.41 359.86 76.72 360.77 71.12 C 369.54 80.57 377.35 90.94 383.98 101.99 C 384.93 103.57 386.42 104.72 387.51 106.19 C 388.95 107.65 389.68 109.60 390.65 111.36 C 406.19 141.15 414.22 174.84 413.59 208.45 C 411.55 206.76 409.52 205.05 407.63 203.18 C 387.85 183.28 367.97 163.48 348.19 143.58 C 353.96 125.58 357.28 106.82 359.10 88.02 Z" />
</g>
<g id="#e2e2e2ff">
<path fill="#e2e2e2" opacity="1.00" d=" M 98.54 140.58 C 102.67 131.23 112.62 124.53 122.94 124.96 C 130.75 124.99 138.56 125.06 146.38 124.93 C 183.58 125.06 220.78 124.97 257.99 125.00 C 262.17 124.93 266.15 126.47 269.80 128.38 C 275.07 131.47 279.07 136.37 281.50 141.94 C 282.66 145.16 283.10 148.59 283.04 152.00 C 282.95 162.87 283.00 173.75 283.00 184.62 C 287.72 179.97 292.38 175.26 297.07 170.58 C 310.03 157.65 322.95 144.67 335.93 131.75 C 336.10 131.92 336.44 132.25 336.61 132.42 C 336.60 139.52 336.55 146.62 336.59 153.72 C 336.48 170.86 336.74 188.01 336.45 205.16 C 256.37 205.09 176.29 204.98 96.21 205.07 C 95.87 189.90 96.25 174.72 95.99 159.55 C 96.09 153.17 95.63 146.48 98.54 140.58 Z" />
</g>
<g id="#0a8176ff">
<path fill="#0a8176" opacity="1.00" d=" M 336.61 132.42 C 340.63 135.98 344.43 139.76 348.19 143.58 C 367.97 163.48 387.85 183.28 407.63 203.18 C 406.50 204.53 405.42 205.92 404.26 207.25 C 392.05 219.37 380.00 231.66 367.70 243.71 C 366.06 245.37 364.25 246.96 363.12 249.05 C 362.73 251.36 363.08 253.71 363.15 256.03 C 365.04 254.24 367.00 252.52 369.09 250.96 C 367.61 254.34 365.58 257.42 363.35 260.40 C 358.77 266.42 361.18 274.51 358.16 281.11 C 356.54 286.00 353.22 290.30 348.51 292.55 C 344.13 295.19 338.90 293.87 334.10 294.18 C 331.01 295.88 328.78 298.80 326.18 301.14 C 324.84 299.95 323.49 298.77 322.14 297.60 C 324.21 295.44 326.15 293.16 328.23 291.01 C 326.67 290.17 325.15 289.28 323.65 288.36 C 314.59 296.35 306.42 305.29 297.78 313.73 C 277.25 334.23 256.75 354.76 236.23 375.26 C 230.65 380.76 225.33 386.54 219.46 391.73 C 217.41 390.06 215.37 388.38 213.39 386.65 C 197.78 371.58 182.70 355.96 167.24 340.74 C 156.51 329.82 145.48 319.20 134.84 308.20 C 145.64 307.62 156.50 308.77 167.24 307.49 C 164.73 307.26 162.26 306.71 159.76 306.39 C 166.86 305.87 174.05 305.22 180.96 303.19 C 188.96 302.85 197.03 302.79 204.99 303.92 C 208.35 304.60 210.68 301.10 213.95 301.01 C 218.18 300.85 222.44 301.24 226.65 300.56 C 232.42 299.47 238.24 301.53 244.01 300.33 C 251.10 298.93 259.33 300.56 264.99 295.05 C 266.57 295.98 268.24 296.74 269.81 297.69 C 274.72 295.99 279.93 294.52 283.81 290.88 C 290.46 285.53 294.15 277.39 295.47 269.10 C 296.04 264.98 297.88 260.75 301.38 258.32 C 306.35 256.57 310.28 261.32 313.90 264.02 C 316.92 266.98 321.88 266.05 324.73 269.27 C 328.46 272.98 331.92 276.97 336.05 280.26 C 336.73 277.14 337.04 273.92 337.92 270.86 C 339.69 268.34 341.85 266.05 342.95 263.12 C 342.17 262.74 341.42 262.31 340.70 261.84 C 341.93 258.26 343.88 254.86 343.87 250.97 C 344.05 244.30 344.32 237.64 345.15 231.02 C 345.91 225.08 342.69 218.97 345.14 213.23 C 347.09 208.37 345.46 203.09 346.33 198.05 C 347.04 194.06 346.80 190.02 346.27 186.02 C 346.24 180.78 347.62 175.60 347.05 170.34 C 346.34 170.75 345.63 171.15 344.92 171.55 C 345.69 169.19 346.43 166.79 346.62 164.31 C 345.90 159.06 341.53 155.11 336.59 153.72 C 336.55 146.62 336.60 139.52 336.61 132.42 Z" />
</g>
<g id="#0f8478ff">
<path fill="#0f8478" opacity="1.00" d=" M 281.50 141.94 C 283.57 143.02 285.11 144.76 286.17 146.82 C 291.07 149.89 291.33 156.14 292.70 161.21 C 292.86 161.36 293.18 161.65 293.34 161.79 C 294.16 164.89 295.41 167.84 297.07 170.58 C 292.38 175.26 287.72 179.97 283.00 184.62 C 283.00 173.75 282.95 162.87 283.04 152.00 C 283.10 148.59 282.66 145.16 281.50 141.94 Z" />
</g>
<g id="#117970ff">
<path fill="#117970" opacity="1.00" d=" M 336.59 153.72 C 341.53 155.11 345.90 159.06 346.62 164.31 C 346.43 166.79 345.69 169.19 344.92 171.55 C 345.63 171.15 346.34 170.75 347.05 170.34 C 347.62 175.60 346.24 180.78 346.27 186.02 C 346.80 190.02 347.04 194.06 346.33 198.05 C 345.46 203.09 347.09 208.37 345.14 213.23 C 342.69 218.97 345.91 225.08 345.15 231.02 C 344.32 237.64 344.05 244.30 343.87 250.97 C 343.88 254.86 341.93 258.26 340.70 261.84 C 341.42 262.31 342.17 262.74 342.95 263.12 C 341.85 266.05 339.69 268.34 337.92 270.86 C 337.04 273.92 336.73 277.14 336.05 280.26 C 331.92 276.97 328.46 272.98 324.73 269.27 C 321.88 266.05 316.92 266.98 313.90 264.02 C 310.28 261.32 306.35 256.57 301.38 258.32 C 297.88 260.75 296.04 264.98 295.47 269.10 C 294.15 277.39 290.46 285.53 283.81 290.88 C 279.93 294.52 274.72 295.99 269.81 297.69 C 268.24 296.74 266.57 295.98 264.99 295.05 C 259.33 300.56 251.10 298.93 244.01 300.33 C 238.24 301.53 232.42 299.47 226.65 300.56 C 222.44 301.24 218.18 300.85 213.95 301.01 C 210.68 301.10 208.35 304.60 204.99 303.92 C 197.03 302.79 188.96 302.85 180.96 303.19 C 174.05 305.22 166.86 305.87 159.76 306.39 C 162.26 306.71 164.73 307.26 167.24 307.49 C 156.50 308.77 145.64 307.62 134.84 308.20 C 134.21 307.53 133.57 306.87 132.92 306.22 C 126.18 299.54 119.17 293.12 112.82 286.05 C 117.44 287.34 122.22 288.07 127.02 288.09 C 167.36 288.01 207.70 288.03 248.04 287.94 C 256.16 288.17 264.99 287.77 271.81 282.81 C 274.91 280.41 278.67 277.60 278.66 273.28 C 280.94 268.84 282.99 264.11 282.95 259.02 C 283.08 247.68 282.95 236.34 283.00 225.01 C 300.79 242.72 318.47 260.55 336.29 278.22 C 336.44 253.87 336.14 229.51 336.45 205.16 C 336.74 188.01 336.48 170.86 336.59 153.72 Z" />
</g>
<g id="#0f8f82ff">
<path fill="#0f8f82" opacity="1.00" d=" M 93.91 176.73 C 94.15 170.96 93.17 164.86 95.99 159.55 C 96.25 174.72 95.87 189.90 96.21 205.07 C 96.51 223.07 96.18 241.08 96.37 259.07 C 96.38 263.84 98.22 268.28 100.15 272.54 C 101.41 279.15 107.77 282.54 112.82 286.05 C 119.17 293.12 126.18 299.54 132.92 306.22 C 128.41 305.79 123.94 304.94 119.74 303.20 C 116.96 301.90 113.86 302.26 110.97 302.91 C 101.42 304.92 91.67 305.70 81.98 306.71 C 74.69 307.45 67.36 306.74 60.05 307.02 C 53.94 307.35 47.89 306.25 41.81 305.82 C 39.05 301.85 36.92 297.33 32.98 294.33 C 30.99 292.06 29.90 289.17 28.43 286.56 C 13.83 258.56 6.78 226.65 8.61 195.10 C 9.03 186.70 10.00 178.34 11.41 170.05 C 12.31 169.43 13.19 168.79 14.05 168.12 C 36.30 179.08 62.01 182.59 86.43 178.48 C 87.84 172.80 86.16 166.77 88.12 161.14 C 88.92 161.10 90.52 161.04 91.32 161.01 C 90.38 163.61 89.72 166.30 89.05 168.98 C 89.05 171.92 89.74 174.79 90.25 177.67 C 91.47 177.36 92.69 177.04 93.91 176.73 Z" />
</g>
<g id="#048478ff">
<path fill="#048478" opacity="1.00" d=" M 407.63 203.18 C 409.52 205.05 411.55 206.76 413.59 208.45 C 412.98 258.25 393.21 306.22 364.23 346.14 C 324.94 400.25 270.19 441.51 211.00 471.72 C 210.94 446.81 211.13 421.90 210.92 397.00 C 210.90 396.30 210.84 394.90 210.81 394.20 C 205.06 394.17 199.27 394.65 193.58 393.50 C 200.76 393.28 207.31 390.22 213.39 386.65 C 215.37 388.38 217.41 390.06 219.46 391.73 C 225.33 386.54 230.65 380.76 236.23 375.26 C 256.75 354.76 277.25 334.23 297.78 313.73 C 306.42 305.29 314.59 296.35 323.65 288.36 C 325.15 289.28 326.67 290.17 328.23 291.01 C 326.15 293.16 324.21 295.44 322.14 297.60 C 323.49 298.77 324.84 299.95 326.18 301.14 C 328.78 298.80 331.01 295.88 334.10 294.18 C 338.90 293.87 344.13 295.19 348.51 292.55 C 353.22 290.30 356.54 286.00 358.16 281.11 C 361.18 274.51 358.77 266.42 363.35 260.40 C 365.58 257.42 367.61 254.34 369.09 250.96 C 367.00 252.52 365.04 254.24 363.15 256.03 C 363.08 253.71 362.73 251.36 363.12 249.05 C 364.25 246.96 366.06 245.37 367.70 243.71 C 380.00 231.66 392.05 219.37 404.26 207.25 C 405.42 205.92 406.50 204.53 407.63 203.18 Z" />
</g>
<g id="#f5f5f5ff">
<path fill="#f5f5f5" opacity="1.00" d=" M 96.21 205.07 C 176.29 204.98 256.37 205.09 336.45 205.16 C 336.14 229.51 336.44 253.87 336.29 278.22 C 318.47 260.55 300.79 242.72 283.00 225.01 C 282.95 236.34 283.08 247.68 282.95 259.02 C 282.99 264.11 280.94 268.84 278.66 273.28 C 273.37 280.36 264.97 285.25 255.98 284.99 C 211.66 285.00 167.34 285.02 123.02 284.98 C 113.82 285.18 105.33 279.93 100.15 272.54 C 98.22 268.28 96.38 263.84 96.37 259.07 C 96.18 241.08 96.51 223.07 96.21 205.07 Z" />
</g>
<g id="#196a65ff">
<path fill="#196a65" opacity="1.00" d=" M 100.15 272.54 C 105.33 279.93 113.82 285.18 123.02 284.98 C 167.34 285.02 211.66 285.00 255.98 284.99 C 264.97 285.25 273.37 280.36 278.66 273.28 C 278.67 277.60 274.91 280.41 271.81 282.81 C 264.99 287.77 256.16 288.17 248.04 287.94 C 207.70 288.03 167.36 288.01 127.02 288.09 C 122.22 288.07 117.44 287.34 112.82 286.05 C 107.77 282.54 101.41 279.15 100.15 272.54 Z" />
</g>
<g id="#0b7a70ff">
<path fill="#0b7a70" opacity="1.00" d=" M 32.98 294.33 C 36.92 297.33 39.05 301.85 41.81 305.82 C 76.30 355.38 133.50 388.13 193.58 393.50 C 199.27 394.65 205.06 394.17 210.81 394.20 C 210.84 394.90 210.90 396.30 210.92 397.00 C 142.68 397.09 75.78 360.63 38.44 303.59 C 36.51 300.57 34.45 297.62 32.98 294.33 Z" />
</g>
<g id="#088d7fff">
<path fill="#088d7f" opacity="1.00" d=" M 110.97 302.91 C 113.86 302.26 116.96 301.90 119.74 303.20 C 123.94 304.94 128.41 305.79 132.92 306.22 C 133.57 306.87 134.21 307.53 134.84 308.20 C 145.48 319.20 156.51 329.82 167.24 340.74 C 182.70 355.96 197.78 371.58 213.39 386.65 C 207.31 390.22 200.76 393.28 193.58 393.50 C 133.50 388.13 76.30 355.38 41.81 305.82 C 47.89 306.25 53.94 307.35 60.05 307.02 C 67.36 306.74 74.69 307.45 81.98 306.71 C 91.67 305.70 101.42 304.92 110.97 302.91 Z" />
</g>
</svg>
