<svg width="200" height="200" viewBox="0 0 200 200" fill="none" xmlns="http://www.w3.org/2000/svg">
<path fill-rule="evenodd" clip-rule="evenodd" d="M123.842 41.2215C124.156 29.5907 109.435 9.7354 85.3203 13.1948C58.9177 16.9824 39.7601 47.3197 43.5765 81.2272L43.7219 82.5296C46.0648 103.708 46.8476 120.391 42.7995 143.882C39.7729 161.446 61.2951 200.331 108.903 194.18C156.511 188.028 182.661 130.942 160.195 104.006C130.188 68.0275 123.157 66.6774 123.842 41.2215Z" fill="#0050C5"/>
<path fill-rule="evenodd" clip-rule="evenodd" d="M95.5691 75.1309C94.7523 73.029 93.2051 71.3124 91.8658 69.4982C88.2848 64.6474 86.0641 58.8033 85.5201 52.7985C85.2297 49.5929 86.3323 33.9469 92.1636 30.2764C89.2847 29.39 86.3323 28.4658 83.971 26.5957C81.6097 24.7255 79.9386 21.668 80.574 18.7235C81.5358 14.267 87.3238 12.3537 91.6412 13.8185C95.9586 15.2833 99.0643 18.9889 101.938 22.5284C104.686 22.297 105.368 18.2484 107.877 17.1059C109.57 16.3352 111.538 17.1253 113.179 18.0007C117.955 20.5483 122.428 24.0417 124.953 28.8293C127.478 33.6169 127.697 39.8665 124.48 44.2191C125.652 42.8773 128.08 44.5461 127.942 46.3223C127.803 48.0985 126.234 49.3874 124.736 50.3519C123.238 51.3163 121.564 52.3163 120.972 53.9967C119.482 58.2268 117.115 62.1457 114.064 65.433C112.2 67.4414 110.06 69.2485 108.678 71.6143C107.296 73.9801 106.834 77.1595 108.446 79.3748C110.59 77.0926 114.286 76.4509 117.074 77.8767C119.862 79.3024 121.506 82.6744 120.911 85.7488C124.796 86.0822 128.286 89.16 129.103 92.9726C136.98 100.913 143.414 110.28 147.998 120.483C150.907 126.959 153.068 133.741 155.222 140.505C156.065 143.152 156.918 145.925 156.449 148.663C155.496 154.223 149.464 157.498 143.862 158.156C136.886 158.976 129.618 156.941 124.081 152.619C121.124 161.816 118.172 171.86 121.534 180.917C122.254 182.856 120.814 185.059 118.934 185.921C117.053 186.782 114.888 186.656 112.825 186.513C101.257 185.712 89.6904 184.91 78.1232 184.108C75.6993 183.94 72.3852 182.514 73.2432 180.241C75.1592 175.164 75.7066 169.578 74.8128 164.226C74.1308 167.831 72.9483 171.34 71.3097 174.623C71.3097 174.623 65.5359 186.513 59.7778 180.411C56.496 173.78 56.3546 166.015 57.3233 158.68C58.292 151.345 60.2946 144.167 61.0771 136.81C61.8394 129.642 61.4343 122.39 62.1798 115.22C62.9252 108.051 64.9857 100.709 69.8791 95.4171C73.7507 91.2298 77.6224 87.0425 81.4941 82.8552C82.5365 81.7278 83.6352 80.5619 85.0767 80.033C86.5182 79.5041 88.4026 79.8405 89.1439 81.1851C90.0578 80.0482 91.1271 78.8227 92.5778 78.6706C94.0285 78.5186 95.5426 80.2958 94.6112 81.4184C96.2804 79.9022 96.3859 77.2328 95.5691 75.1309Z" fill="white"/>
<path fill-rule="evenodd" clip-rule="evenodd" d="M126.437 92.9728C134.314 100.913 140.748 110.281 145.331 120.483C148.241 126.959 150.402 133.741 152.556 140.505C153.399 143.152 154.252 145.925 153.783 148.663C152.829 154.223 146.798 157.498 141.195 158.157C134.22 158.976 127.399 156.517 121.863 152.195C118.905 161.391 115.506 171.861 118.868 180.917C119.172 181.737 119.967 182.666 119.628 183.459C119.167 184.541 117.352 185.424 116.267 185.921C115.982 186.052 116.744 183.346 116.711 179.375C116.654 172.618 113.821 149.141 120.49 150.692C136.779 154.48 149.059 153.893 149.317 149.852C150.624 129.337 125.62 89.1601 126.437 92.9728Z" fill="#E7EAF0"/>
<path fill-rule="evenodd" clip-rule="evenodd" d="M93.7024 75.1309C93.0621 73.4831 91.9728 72.072 90.8867 70.6651L90.8866 70.665L90.8866 70.6649L90.8865 70.6648L90.8864 70.6647L90.8863 70.6646L90.8862 70.6645L90.8862 70.6644L90.8861 70.6643L90.886 70.6642L90.8859 70.6641L90.8858 70.664L90.8858 70.6639L90.8857 70.6638L90.8856 70.6637L90.8855 70.6636C90.5867 70.2764 90.288 69.8896 89.9991 69.4982C86.4181 64.6474 84.1974 58.8033 83.6534 52.7985C83.363 49.5929 84.4657 33.9469 90.2969 30.2764C87.418 29.39 84.4657 28.4658 82.1043 26.5957C79.743 24.7255 78.0719 21.668 78.7073 18.7235C79.6691 14.267 85.4571 12.3537 89.7745 13.8185C94.0919 15.2833 97.1976 18.9889 100.071 22.5284C101.585 22.401 102.471 21.1155 103.382 19.7954C104.125 18.7187 104.883 17.6191 106.011 17.1059C107.703 16.3352 109.671 17.1253 111.312 18.0007C116.088 20.5483 120.561 24.0417 123.087 28.8293C125.612 33.6169 125.83 39.8665 122.613 44.2191C123.785 42.8773 126.214 44.5461 126.075 46.3223C125.936 48.0985 124.367 49.3874 122.869 50.3519C122.789 50.4032 122.709 50.4546 122.629 50.5063C121.196 51.4247 119.666 52.4057 119.105 53.9967C117.615 58.2268 115.248 62.1457 112.198 65.433C111.702 65.9675 111.186 66.4877 110.67 67.008C109.248 68.4428 107.826 69.8781 106.811 71.6143C105.429 73.9801 104.967 77.1595 106.58 79.3748C108.724 77.0926 112.42 76.4509 115.208 77.8767C117.996 79.3024 119.639 82.6744 119.044 85.7488C122.929 86.0822 126.419 89.16 127.236 92.9726C135.113 100.913 141.547 110.28 146.131 120.483C149.041 126.959 151.202 133.741 153.356 140.505C154.199 143.152 155.052 145.925 154.582 148.663C153.629 154.223 147.597 157.498 141.995 158.156C135.019 158.976 127.751 156.941 122.215 152.619C119.258 161.816 116.306 171.86 119.667 180.917C119.965 181.718 119.894 182.565 119.575 183.343C117.385 178.587 116.984 173.157 117.57 167.951C118.16 162.703 119.703 157.615 121.239 152.562C121.494 151.724 120.163 151.503 119.295 151.384C117.755 151.173 116.637 149.86 115.673 148.64L111.755 143.677C109.227 140.474 106.312 137.036 102.278 136.416C101.16 136.244 100.028 136.306 98.8943 136.369H98.8942H98.8941H98.894H98.8939H98.8939H98.8938H98.8937H98.8936H98.8935H98.8935H98.8934H98.8933H98.8932H98.8931H98.8931C98.2029 136.407 97.512 136.445 96.8232 136.431C94.1464 136.373 91.493 135.492 89.3136 133.937C88.791 133.564 88.2607 133.097 88.1534 132.464C88.0486 131.846 88.6073 131.121 89.2006 131.278L89.2426 131.291L89.2276 131.286C89.2186 131.283 89.2096 131.281 89.2006 131.278C87.3122 130.709 85.5139 129.841 83.8927 128.718C83.5939 128.511 83.2892 128.281 83.1352 127.952C82.8025 127.24 83.3531 126.369 84.0788 126.068C84.8045 125.768 85.6264 125.878 86.4034 125.992C85.4765 125.804 84.5209 125.604 83.7442 125.064C82.9675 124.524 82.4109 123.55 82.6514 122.635C82.8919 121.72 84.1525 121.154 84.8632 121.778C84.5532 120.854 85.2253 119.831 86.1047 119.412C86.9842 118.993 88.0033 119.027 88.976 119.08C93.0572 119.305 97.1269 119.741 101.163 120.384L100.572 112.081C100.548 111.742 100.519 111.388 100.335 111.102C100.1 110.736 99.6648 110.562 99.257 110.411C91.0409 107.367 82.5886 104.961 74.0012 103.221L75.9249 139.262C75.9839 140.367 76.2918 141.769 77.3837 141.949C84.1681 143.065 90.8232 144.966 97.1741 147.6C98.0661 147.97 98.7185 146.721 98.8827 145.77L100.51 136.338C100.736 140.325 100.166 144.356 98.8423 148.124C99.8545 148.361 100.44 147.024 100.602 145.997L102.072 136.676C102.322 139.98 102.033 143.325 101.22 146.537C101.033 147.275 100.75 148.09 100.06 148.412C99.476 148.683 98.7922 148.507 98.1741 148.327L76.6841 142.06C76.3463 141.961 75.9935 141.854 75.7431 141.607C75.3703 141.239 75.3194 140.664 75.2906 140.141L73.5022 107.644C73.3862 105.537 73.5013 103.426 73.6164 101.319L74.2059 90.53C70.7469 102.715 70.4202 115.631 71.8775 128.213C73.3347 140.795 76.5354 153.107 80.0424 165.279C78.5669 162.755 77.4892 159.998 76.8612 157.143C75.1459 159.598 73.3461 162.396 73.8355 165.351C74.6574 170.313 74.1333 175.492 72.3339 180.189C71.9235 181.26 72.6614 182.496 73.6716 183.039C74.6819 183.582 75.8801 183.609 77.0271 183.624L92.2978 183.813C91.8765 183.279 92.0285 182.392 92.6037 182.028C92.4497 183.687 94.5783 184.469 96.2299 184.693C104.033 185.755 112.327 186.75 119.498 183.518C119.02 184.549 118.112 185.442 117.067 185.921C115.186 186.782 113.022 186.656 110.958 186.513L76.2566 184.108C73.8326 183.94 70.5185 182.514 71.3765 180.241C73.2925 175.164 73.84 169.578 72.9461 164.226C72.2641 167.831 71.0816 171.34 69.443 174.623C70.1151 169.142 71.9524 163.807 74.7977 159.075C76.8228 155.707 75.6562 151.421 74.616 147.631C69.691 129.687 68.9275 110.615 72.4024 92.3344C64.9861 97.7555 61.89 107.375 61.0103 116.519C60.6426 120.342 60.5818 124.192 60.521 128.039C60.4364 133.393 60.3519 138.743 59.4399 144.011C59.0232 146.417 58.4354 148.795 57.848 151.171C56.9199 154.926 55.9929 158.676 55.7438 162.527C55.3549 168.54 56.6367 174.522 57.9111 180.411C54.6293 173.78 54.4879 166.015 55.4566 158.68C55.9011 155.314 56.5635 151.98 57.2257 148.648L57.2257 148.648C58.0064 144.719 58.787 140.79 59.2104 136.81C59.5943 133.2 59.6821 129.568 59.7699 125.937C59.8565 122.358 59.943 118.779 60.3131 115.22C61.0585 108.051 63.119 100.709 68.0124 95.4171L79.6274 82.8552C80.6698 81.7278 81.7686 80.5619 83.21 80.033C84.6515 79.5041 86.5359 79.8405 87.2772 81.1851C88.1911 80.0482 89.2604 78.8227 90.7111 78.6706C92.1618 78.5186 93.6759 80.2958 92.7445 81.4184C94.4137 79.9022 94.5192 77.2328 93.7024 75.1309ZM119.498 183.518C119.517 183.478 119.535 183.438 119.552 183.398L119.56 183.377L119.575 183.343C119.592 183.382 119.61 183.421 119.628 183.459L119.565 183.488L119.498 183.518ZM153.789 145.622C154.182 148.896 152.426 152.188 149.821 154.211C147.216 156.234 143.881 157.123 140.59 157.349C133.662 157.825 126.581 155.45 121.341 150.892C125.364 146.77 125.589 139.527 121.829 135.163C125.063 133.658 128.37 132.133 131.916 131.743C135.462 131.353 139.353 132.294 141.658 135.017C142.052 135.482 142.392 135.989 142.733 136.496C143.151 137.119 143.569 137.741 144.084 138.284C143.638 135.332 141.337 132.866 138.582 131.715C135.827 130.563 132.694 130.589 129.779 131.237C126.865 131.885 124.119 133.12 121.398 134.348C120.88 134.581 120.493 133.836 120.409 133.275L119.921 130.022C119.72 128.681 119.742 126.926 121.005 126.433C121.954 126.063 121.705 124.616 121.077 123.814C120.972 123.68 120.859 123.545 120.745 123.408C120.18 122.731 119.586 122.02 119.736 121.185C121.328 112.322 122.929 103.424 125.762 94.8769C125.849 94.6121 125.956 94.3251 126.197 94.1851C126.524 93.996 126.936 94.1596 127.264 94.3451C129.918 95.8447 131.504 98.524 133.086 101.197C133.645 102.141 134.203 103.084 134.807 103.974C135.74 105.347 136.809 106.618 137.877 107.89L137.877 107.89L137.877 107.89L137.877 107.89L137.878 107.89L137.878 107.89L137.878 107.891L137.878 107.891L137.878 107.891L137.878 107.891L137.878 107.891L137.878 107.891L137.878 107.891L137.878 107.891L137.878 107.891C138.671 108.835 139.465 109.779 140.203 110.766C144.756 116.847 146.989 124.161 149.227 131.491C150.247 134.835 151.269 138.182 152.513 141.416L152.579 141.589L152.664 141.807L152.665 141.81C153.146 143.052 153.631 144.303 153.789 145.622ZM118.123 126.482C118.772 126.476 119.452 126.462 120.021 126.148C120.59 125.834 120.992 125.116 120.729 124.522C120.479 123.958 119.759 123.755 119.148 123.835C118.794 123.881 118.455 123.997 118.116 124.113C117.87 124.197 117.623 124.281 117.371 124.339C116.112 124.627 114.827 124.248 113.549 123.87C112.166 123.462 110.791 123.056 109.466 123.501C110.323 122.083 110.266 120.328 110.212 118.66L110.204 118.4C109.932 109.546 111.896 100.632 115.865 92.7129C114.4 93.7608 113.349 95.3715 112.979 97.1342C112.935 97.3436 112.9 97.556 112.865 97.7684C112.775 98.3141 112.685 98.8597 112.445 99.3538C111.468 101.356 108.712 101.505 106.494 101.305C104.675 101.141 102.77 100.902 101.289 99.8342C100.546 99.2986 99.9477 98.5797 99.3529 97.8648C98.5611 96.913 97.7752 95.9683 96.6613 95.4727C94.8137 94.6507 92.8393 95.3357 90.8415 96.0287C89.0367 96.6548 87.213 97.2876 85.4466 96.8218C84.4513 96.5594 83.7629 97.7814 83.4642 98.7664L82.1626 103.058C81.5554 100.712 82.2971 98.0657 84.035 96.377C83.2907 95.8888 83.4911 94.8865 83.6896 93.8941C83.8906 92.889 84.0895 91.8941 83.3027 91.454C80.9275 90.1252 80.4574 86.9694 80.2547 84.2553C77.2326 85.3712 75.5085 88.6376 74.9771 91.815C74.6639 93.6878 74.6675 95.5886 74.6711 97.4914C74.6736 98.8168 74.6762 100.143 74.5716 101.462C83.6829 103.245 92.6637 105.695 101.418 108.786C101.954 108.975 102.517 109.186 102.875 109.628C103.26 110.103 103.331 110.751 103.388 111.36C103.674 114.438 103.944 117.644 102.842 120.533L102.851 111.53C102.852 111.032 102.767 110.408 102.292 110.255C101.554 110.018 101.208 111.145 101.269 111.918L101.796 118.61C101.868 119.526 102.002 120.558 102.739 121.107L89.4923 119.776C88.1163 119.638 86.4673 119.615 85.6625 120.74C85.7949 121.816 87.0811 122.267 88.1424 122.489L96.5744 124.247C93.9358 124.792 91.1626 124.303 88.6663 123.289C88.4767 123.212 88.2877 123.132 88.0985 123.052L88.0981 123.051C87.3078 122.716 86.5146 122.38 85.6673 122.268C84.617 122.129 83.4302 122.415 82.8203 123.282C86.593 125.776 90.9775 127.339 95.4778 127.792C95.4506 128.28 94.7993 128.426 94.3114 128.391C93.0421 128.298 91.8214 127.926 90.5995 127.553C90.0323 127.38 89.4649 127.207 88.8922 127.062C87.0858 126.604 85.0609 126.452 83.4574 127.402C87.0664 130.346 91.8251 131.368 96.388 132.301L88.8327 132.14C90.1688 134.518 93.1669 135.394 95.8906 135.538C96.6958 135.581 97.5084 135.58 98.3206 135.579H98.321C100.256 135.576 102.189 135.573 104.017 136.162C107.337 137.23 109.741 140.046 111.962 142.735L116.244 147.919C116.828 148.626 117.94 148.705 118.765 148.305C119.59 147.905 120.173 147.135 120.629 146.339C121.536 144.759 122.075 142.904 121.782 141.106C121.49 139.308 120.249 137.609 118.501 137.097C115.498 136.216 113.366 133.547 111.893 130.787C111.387 129.84 110.933 128.862 110.479 127.885L110.479 127.885L110.479 127.885L110.479 127.885L110.479 127.885L110.479 127.885L110.479 127.885L110.479 127.885L110.479 127.885L110.478 127.885L110.478 127.884L110.478 127.884L110.478 127.884L110.478 127.884C109.609 126.015 108.741 124.148 107.517 122.498C107.15 122.003 106.75 121.526 106.35 121.049C105.362 119.87 104.374 118.692 103.885 117.25C106.401 119.684 108.536 122.511 110.189 125.596C110.368 125.931 110.566 126.292 110.912 126.447C111.134 126.547 111.386 126.546 111.629 126.544L118.123 126.482ZM117.431 51.0003C118.038 50.9212 118.519 50.4654 118.954 50.0332L121.069 47.9293C117.162 57.6113 111.582 66.9724 103.123 73.093C101.406 74.3356 99.3643 75.4803 97.2776 75.1073C96.1846 74.9119 95.204 74.3124 94.3347 73.6216C92.5242 72.1831 91.0918 70.3205 89.8668 68.3592C86.4084 62.8219 84.488 56.3146 84.5172 49.7861C84.5464 43.2577 86.543 36.7322 90.2795 31.3787C90.4079 31.1946 90.5519 31.0015 90.7641 30.9282C90.9793 30.8538 91.215 30.9197 91.4329 30.986C99.2644 33.3666 107.021 35.9934 114.688 38.8613C115.901 39.3153 116.406 40.7437 116.627 42.0205C117.081 44.6504 116.96 47.3782 116.275 49.9574C116.117 50.5499 116.823 51.0794 117.431 51.0003ZM112.321 31.4256C113.244 31.4338 113.889 32.6692 113.366 33.4313C112.844 34.1934 111.46 34.039 111.118 33.1806C110.735 32.2178 109.748 31.6951 108.816 31.2021C108.717 31.1498 108.619 31.0978 108.522 31.0456C105.391 29.3593 102.985 26.6815 100.589 24.0167L100.589 24.0167C99.961 23.3176 99.3334 22.6194 98.6938 21.9402C97.4786 20.6499 96.2041 19.4155 94.8757 18.2421C93.4188 16.9552 91.8728 15.7271 90.0889 14.9549C88.305 14.1827 86.2423 13.9013 84.4065 14.5402C85.2335 14.5821 85.8814 15.5245 85.6244 16.3117C85.3674 17.0989 84.2882 17.4775 83.5957 17.0234C82.9033 16.5692 82.8205 15.4286 83.4401 14.8792C81.5627 15.4349 79.9852 16.9197 79.3168 18.7601C79.185 19.123 79.0871 19.5243 79.2076 19.891C79.2756 20.0978 79.4089 20.2815 79.5408 20.463C79.727 20.7195 79.9102 20.9718 79.9017 21.2792C79.8339 23.7395 82.2428 25.9671 84.6903 25.7075C85.1698 25.6567 85.3629 26.1347 85.5632 26.6307C85.6588 26.8673 85.7561 27.108 85.8868 27.2972C86.1204 27.6353 86.5107 27.8237 86.8844 27.9946C90.6832 29.7322 94.614 31.1812 98.6318 32.3249C99.0974 32.4574 99.7348 32.5126 99.9322 32.0706C100.197 31.4775 100.967 31.1696 101.568 31.4164C102.169 31.6632 102.5 32.4234 102.272 33.0315C102.169 33.304 102.505 33.5249 102.779 33.6239L116.465 38.5724C116.213 37.5595 117.5 36.5527 118.422 37.0414C119.345 37.5301 119.234 39.1602 118.254 39.5202L123.257 42.0426L124.155 34.7017C124.197 34.3587 124.06 33.8488 123.729 33.9469C123.115 34.1286 122.391 33.7816 122.149 33.1891C121.907 32.5966 122.179 31.842 122.745 31.5415C123.18 31.3102 123.342 30.7402 123.245 30.257C123.149 29.7738 122.852 29.3583 122.555 28.9652C119.342 24.7126 115.273 21.0921 110.605 18.5191C109.354 17.8295 107.838 17.2081 106.545 17.8157C105.797 18.1675 105.293 18.8597 104.801 19.5364L104.801 19.5365C104.723 19.6442 104.645 19.7514 104.566 19.8569C103.582 21.1763 102.364 22.321 100.987 23.2218L105.348 27.6585C104.987 26.8799 105.536 25.8308 106.381 25.6833C107.227 25.5357 108.099 26.3367 108.023 27.1915C107.947 28.0464 106.949 28.682 106.142 28.3885C107.963 29.8599 109.979 31.4047 112.321 31.4256ZM117.872 91.5215C118.535 91.5701 119.208 91.1721 119.485 90.5679C119.761 89.9637 119.623 89.1942 119.154 88.724C118.567 88.1365 119.246 87.0394 120.072 86.9542C120.898 86.8689 121.648 87.3964 122.31 87.8976L125.501 90.3133C125.888 90.6062 126.322 91.0439 126.153 91.4988C122.508 101.299 120.113 111.563 119.042 121.965C118.955 122.808 118.143 123.428 117.309 123.579C116.475 123.731 115.623 123.519 114.802 123.309L111.866 122.558C111.667 122.507 111.458 122.451 111.309 122.308C111.097 122.104 111.065 121.781 111.047 121.488C110.451 111.471 112.511 101.309 116.961 92.3162C117.152 91.9317 117.444 91.4901 117.872 91.5215ZM111.406 85.2393C110.611 84.64 110.794 83.1768 111.711 82.7905C109.441 82.9866 107.37 83.9982 105.297 85.0109C103.298 85.9875 101.297 86.9651 99.1134 87.2128C100.425 88.1031 101.045 89.8092 100.867 91.3847C100.689 92.9602 99.8066 94.3948 98.6598 95.4897C99.6416 97.37 101.263 98.9089 103.193 99.7908C103.872 100.102 104.651 100.334 105.359 100.094C105.514 100.042 105.679 99.9719 105.846 99.9008L105.846 99.9008C106.458 99.6416 107.105 99.367 107.412 99.8764C107.988 100.832 109.457 100.613 110.409 100.033C111.06 99.6371 111.666 99.1009 111.934 98.3878C112.202 97.6747 112.043 96.764 111.417 96.3305C110.896 95.9704 110.721 95.193 111.037 94.6447C111.353 94.0964 112.114 93.8579 112.686 94.1274C113.186 94.3628 113.654 93.7762 113.952 93.3112C114.655 92.2168 115.691 91.339 116.885 90.8248C116.407 90.1216 116.474 89.096 117.04 88.4611C115.578 87.3925 114.405 85.9322 113.677 84.2742C113.557 85.262 112.2 85.8387 111.406 85.2393ZM92.0442 81.4138L92.0442 81.4138L92.0442 81.4139L92.0442 81.414L92.0442 81.414L92.0442 81.4141L92.0442 81.4142L92.0441 81.4143C92.0261 81.5322 92.008 81.6499 91.9939 81.7669C91.928 82.3127 91.9869 82.9476 92.4243 83.2805C94.0935 81.2574 95.0747 78.6767 95.1713 76.0556C95.1906 75.5321 95.9844 75.6078 96.4791 75.7801C97.9397 76.2889 99.5795 76.0351 100.996 75.4147C102.413 74.7942 103.649 73.8334 104.869 72.8825C104.512 75.259 104.823 77.7323 105.757 79.9464L100.935 83.5677C100.744 83.7109 100.565 84.039 100.784 84.1346C102.611 83.542 104.163 82.3371 105.682 81.1571L105.825 81.0465C107.39 79.8318 109.028 78.6133 110.946 78.1165C112.864 77.6197 115.147 78.0117 116.369 79.5709C116.971 80.3395 117.259 81.3012 117.535 82.238L118.389 85.1392C118.574 85.768 118.756 86.4611 118.49 87.06C118.223 87.6588 117.285 87.9539 116.911 87.4156L115.163 84.9C114.33 83.7016 113.385 82.4211 111.978 82.0322C110.444 81.608 108.861 82.3747 107.434 83.0809C104.934 84.3184 102.374 85.4355 99.7659 86.4272C98.9641 86.7321 98.0748 86.4345 97.2048 86.1433C96.2144 85.8118 95.2489 85.4887 94.466 86.0724C94.1755 86.2891 93.7647 86.1707 93.4298 86.0323C91.1261 85.0804 89.0625 83.5539 87.478 81.6299L90.7953 79.4751C91.2564 79.1756 91.8976 79.6056 92.0541 80.1326C92.1771 80.5465 92.1104 80.9816 92.0442 81.4138ZM94.4833 94.268C92.9736 93.0338 92.2441 90.9181 92.6721 89.0158C92.7809 88.5323 92.2783 88.1579 91.8722 87.8739C91.466 87.59 91.0637 87.0364 91.3773 86.6526C91.5462 86.4458 91.3159 86.1563 91.1049 85.9927L87.0459 82.8461C86.559 82.4685 86.0568 82.0731 85.7757 81.5248C85.2676 80.5336 83.9113 80.0865 82.9133 80.5812C81.4963 81.2836 81.2987 83.1884 81.291 84.77C81.2891 85.1428 81.394 85.6376 81.7661 85.6587C82.7174 85.7126 83.1677 87.1896 82.4082 87.765C81.6643 88.3286 82.1953 89.5503 82.9351 90.1192C83.0965 90.2433 83.2693 90.3622 83.443 90.4817C84.0652 90.9099 84.6988 91.3459 84.861 92.0573C84.9816 92.5868 84.8031 93.1479 84.6288 93.6961C84.4107 94.3815 84.1991 95.0466 84.5872 95.6039C85.0624 96.2862 86.0759 96.2199 86.8932 96.0666C89.4497 95.5874 91.9835 94.9869 94.4833 94.268ZM112.521 127.342C114.361 127.193 116.213 127.197 118.053 127.353C118.207 127.366 118.37 127.383 118.494 127.476C118.684 127.619 118.718 127.886 118.74 128.123C118.916 130.072 119.286 132.004 119.843 133.879C119.757 134.11 119.511 134.165 119.255 134.223C119.088 134.261 118.917 134.3 118.784 134.389C118.353 134.675 118.478 135.361 118.799 135.768C118.912 135.911 119.043 136.043 119.174 136.173L119.174 136.174L119.174 136.174L119.174 136.174L119.174 136.174L119.174 136.174C119.414 136.413 119.652 136.652 119.776 136.962C115.831 135.726 112.954 132.193 111.418 128.354C111.325 128.122 111.235 127.862 111.319 127.627C111.404 127.391 111.752 127.252 111.912 127.445C111.975 127.521 111.991 127.624 112.004 127.722L112.273 129.64C112.308 129.891 112.718 129.893 112.857 129.682C112.996 129.471 112.945 129.192 112.889 128.945L112.521 127.342ZM99.7317 89.6075C99.2018 88.0801 97.7738 86.9031 96.1734 86.6743C95.5877 86.5906 94.9275 86.6501 94.5082 87.0675C93.5865 87.9849 93.2224 89.3843 93.4386 90.6666C93.6549 91.949 94.4077 93.1064 95.4003 93.9465C96.1422 94.5745 97.1884 95.0499 98.0692 94.6388C98.3315 94.5164 98.5553 94.324 98.7549 94.1144C99.8697 92.9435 100.262 91.1349 99.7317 89.6075ZM117.318 49.3244C117.753 46.2955 118.158 43.0295 116.728 40.3242C116.628 40.136 116.526 39.8882 116.668 39.73L121.157 41.9542C121.513 42.1306 121.935 42.4719 121.769 42.8331C121.576 43.2547 121.539 43.7208 121.502 44.1874V44.1875C121.487 44.3846 121.471 44.5819 121.444 44.776C121.279 45.9492 120.669 47.0239 119.895 47.9216C119.122 48.8193 118.187 49.5603 117.257 50.2955C117.225 49.9719 117.272 49.6463 117.318 49.3244ZM121.838 136.311C121.323 135.586 120.634 134.875 119.749 134.787C119.408 134.753 118.949 135.1 119.197 135.337C121.34 137.386 122.776 140.319 122.51 143.272C122.245 146.225 120.017 149.044 117.086 149.494C117.953 150.524 119.607 150.604 120.782 149.947C121.956 149.291 122.712 148.068 123.189 146.809C124.489 143.374 123.966 139.305 121.838 136.311ZM75.8319 102.289C79.0837 102.798 82.2563 103.713 85.4189 104.625L94.0367 107.11C96.6596 107.866 99.312 108.635 101.677 109.998C100.555 109.957 99.4645 109.636 98.3909 109.308C96.4925 108.728 94.6004 108.115 92.708 107.502C86.5691 105.513 80.4257 103.523 74.0475 102.638C74.4549 102.15 75.2042 102.191 75.8319 102.289ZM122.95 45.0266C122.457 45.47 122.221 46.1315 122.079 46.7797C122.038 46.97 122.002 47.1623 121.967 47.3545C121.882 47.8167 121.797 48.2788 121.625 48.7144C121.596 48.7859 121.566 48.8581 121.535 48.9307C121.379 49.295 121.218 49.6718 121.334 50.0395C123.196 49.92 124.88 48.4203 125.213 46.5852C125.325 45.9693 125.259 45.2459 124.771 44.8534C124.254 44.4374 123.444 44.5833 122.95 45.0266ZM113.421 20.9344C113.635 21.5423 113.312 22.2884 112.722 22.5477C112.132 22.8071 111.363 22.541 111.06 21.9723C110.726 21.3462 111.031 20.4661 111.681 20.1805C112.33 19.895 113.185 20.2653 113.421 20.9344ZM91.2628 21.5081C91.2997 20.9555 90.9526 20.3979 90.4405 20.187C89.7886 19.9185 88.9505 20.2755 88.6925 20.9316C88.4345 21.5876 88.8048 22.4199 89.4648 22.6674C90.2398 22.9581 91.2077 22.334 91.2628 21.5081ZM116.474 27.0755C116.492 27.7747 117.134 28.398 117.833 28.3961C118.575 28.394 119.236 27.6806 119.182 26.9407C119.131 26.2431 118.461 25.6506 117.762 25.6854C117.064 25.7202 116.455 26.3763 116.474 27.0755ZM96.5346 27.8874C96.0274 28.5212 94.9203 28.5228 94.4113 27.8905C93.9023 27.2582 94.1403 26.177 94.8678 25.8169C95.5953 25.4568 96.5993 25.9231 96.7935 26.7113C96.8929 27.1151 96.7944 27.5627 96.5346 27.8874ZM92.4216 38.4518C91.9925 39.1223 91.9008 39.9976 92.1818 40.7425C92.286 41.0188 92.4412 41.2804 92.6618 41.4766C93.3695 42.1061 94.5793 41.8401 95.175 41.1037C95.7706 40.3674 95.8526 39.3284 95.6769 38.3977C95.6069 38.0266 95.4778 37.6305 95.1612 37.4248C94.9408 37.2816 94.6635 37.2558 94.4014 37.2745C93.6072 37.3314 92.8508 37.7812 92.4216 38.4518ZM106.673 45.3148C106.439 45.0758 106.285 44.7676 106.189 44.4471C105.834 43.2591 106.334 41.8673 107.364 41.1773C107.83 40.8651 108.431 40.6917 108.958 40.8828C109.605 41.117 109.96 41.8224 110.083 42.499C110.258 43.4673 110.047 44.5527 109.334 45.231C108.621 45.9094 107.361 46.0181 106.673 45.3148ZM88.8187 58.6723C88.8424 58.074 88.891 57.4767 88.9643 56.8825C88.9896 56.6766 89.1679 56.4996 89.374 56.4756C89.4694 57.9412 89.5139 59.4102 89.5073 60.8789C88.8591 60.4038 88.7868 59.4754 88.8187 58.6723ZM112.898 52.3097C112.703 51.4187 112.034 50.646 111.18 50.3259C111.037 50.2724 111.043 50.0439 111.163 49.9498C111.283 49.8558 111.454 49.8652 111.603 49.9014C112.415 50.0998 112.917 50.8967 113.288 51.6457C113.387 51.8438 113.483 52.0748 113.397 52.2784C113.31 52.482 112.945 52.5258 112.898 52.3097ZM98.0478 182.163C97.9623 181.971 97.7455 181.879 97.5474 181.806C94.4454 180.676 91.152 180.072 87.8505 180.029C87.3799 180.023 86.8303 180.068 86.5712 180.461C86.8232 180.673 87.1851 180.673 87.5145 180.668C91.01 180.615 94.5146 181.264 97.7596 182.565C97.9553 182.643 98.1332 182.356 98.0478 182.163ZM99.766 47.0014C99.5794 47.1552 99.3734 47.2833 99.1675 47.4113C98.9351 47.5558 98.7029 47.7002 98.4986 47.8815C98.1135 48.2232 97.835 48.7759 98.0341 49.2507C98.2802 49.8372 99.0705 49.948 99.6964 49.8351L99.7305 49.8288L99.774 49.8207L99.775 49.8205C99.973 49.7831 100.175 49.745 100.368 49.7978C100.586 49.8575 100.778 50.0875 100.703 50.301C100.651 50.451 100.493 50.5346 100.345 50.5925C99.4283 50.9511 98.2837 50.8177 97.6034 50.1059C96.923 49.3941 96.9059 48.0906 97.6831 47.486L100.719 45.124C100.688 45.8462 100.324 46.5418 99.766 47.0014ZM111.393 53.0986C111.581 54.1651 111.308 55.2611 110.921 56.2727C109.254 60.6279 105.319 64.0412 100.771 65.0752C98.9415 65.4914 96.9227 65.5158 95.2942 64.5831C93.6657 63.6504 92.6189 61.5526 93.333 59.8171C94.1711 57.7802 96.7662 57.209 98.9684 57.1628C99.1609 57.1587 99.3554 57.1558 99.5512 57.1529H99.5515H99.5517H99.5519H99.5521H99.5523H99.5524H99.5525C101.596 57.1226 103.778 57.0902 105.257 55.7295C105.783 55.2453 106.162 54.6361 106.543 54.0257C106.863 53.5112 107.185 52.9959 107.595 52.5539C108.491 51.5876 110.246 51.1259 111.034 52.1825C111.231 52.4479 111.335 52.7727 111.393 53.0986ZM110.457 54.7239C110.684 53.8559 110.584 52.6072 109.697 52.476C109.366 52.4273 109.037 52.575 108.763 52.7653C108.081 53.2384 107.644 53.9512 107.205 54.6679C106.856 55.2367 106.505 55.8079 106.03 56.2639C104.788 57.4544 102.931 57.6651 101.217 57.8135L97.9239 58.0987C97.0838 58.1714 96.2133 58.2534 95.4822 58.6735C94.109 59.4626 93.6328 61.4799 94.5082 62.7998C95.4548 64.2272 97.4286 64.5371 99.1334 64.3722C104.388 63.864 109.121 59.8315 110.457 54.7239ZM112.334 121.442C112.155 121.463 111.969 121.412 111.825 121.304C111.728 121.231 111.65 121.132 111.601 121.021C111.443 120.658 111.657 120.182 112.033 120.06C112.41 119.938 112.863 120.198 112.947 120.585C113.031 120.972 112.727 121.397 112.334 121.442ZM118.426 121.491C118.296 121.377 118.122 121.315 117.95 121.32C117.525 121.333 117.184 121.812 117.311 122.217C117.438 122.622 117.991 122.821 118.347 122.589C118.703 122.358 118.745 121.771 118.426 121.491ZM105.618 90.6345C105.177 90.1268 105.215 89.2738 105.699 88.807C106.183 88.3403 107.037 88.3339 107.528 88.7933C108.053 89.2841 108.06 90.2211 107.543 90.7197C107.026 91.2183 106.089 91.1768 105.618 90.6345ZM99.8456 94.868C99.7445 95.1391 99.7361 95.4438 99.8221 95.72C100.067 96.5056 101.153 96.8794 101.829 96.4108C102.506 95.9423 102.537 94.7942 101.888 94.289C101.238 93.7838 100.133 94.0971 99.8456 94.868ZM88.165 92.8697C88.0128 93.3728 87.5311 93.7582 87.0068 93.7965C86.2332 93.8529 85.5104 93.0851 85.6135 92.3163C85.7166 91.5475 86.6161 90.9971 87.3475 91.2554C87.9754 91.4771 88.3579 92.2323 88.165 92.8697Z" fill="#25282B"/>
</svg>
