<svg width="150" height="110" viewBox="0 0 150 110" fill="none" xmlns="http://www.w3.org/2000/svg">
<path fill-rule="evenodd" clip-rule="evenodd" d="M16.3199 98.0285C27.6412 110.354 71.4211 103.274 100.248 103.274C112.684 103.274 154.418 109.507 137.184 66.6969C80.6779 -73.6716 -19.5516 58.9766 16.3199 98.0285Z" fill="#C1C2C4"/>
<path fill-rule="evenodd" clip-rule="evenodd" d="M64.7915 97.693C64.8291 97.6646 64.8685 97.634 64.8848 97.5903C64.9373 97.4504 64.7314 97.3575 64.5795 97.3608C64.3591 97.3657 64.0764 97.5114 64.1439 97.7174C64.183 97.8366 64.3325 97.8918 64.4582 97.8698C64.5838 97.8479 64.6903 97.7692 64.7915 97.693ZM68.1573 95.3611C68.4617 95.4549 68.7622 95.5706 69.0274 95.7448C69.5251 96.0718 69.8638 96.5796 70.1888 97.0733C70.4218 97.4273 70.6581 97.7882 70.7743 98.1939C70.9003 98.6333 70.8778 99.1022 70.7935 99.551C70.5307 100.949 69.6513 102.225 68.4267 102.985C67.202 103.745 65.6504 103.977 64.2504 103.61C63.9779 103.539 63.7035 103.442 63.4939 103.257C63.3177 103.101 63.1991 102.894 63.0904 102.687C62.5202 101.602 62.1358 100.397 62.1797 99.1774C62.2236 97.9575 62.7347 96.7232 63.7026 95.9565C64.9174 94.9944 66.6678 94.9025 68.1573 95.3611Z" fill="white"/>
<path fill-rule="evenodd" clip-rule="evenodd" d="M117.279 40.2348C116.968 40.2311 116.677 40.4737 116.646 40.7615C116.634 40.8791 116.687 41.0253 116.813 41.0416C116.907 41.0537 116.99 40.9859 117.053 40.9198C117.187 40.78 117.302 40.6245 117.395 40.4581C117.426 40.4023 117.453 40.3307 117.412 40.2806C117.383 40.2441 117.328 40.2354 117.279 40.2348ZM118.748 39.0133C119.554 39.2753 120.285 39.7363 120.846 40.3364C121.327 40.8521 121.694 41.5216 121.593 42.1988C121.556 42.4474 121.458 42.6845 121.345 42.9126C120.92 43.7767 120.188 44.6049 119.184 44.7722C118.657 44.86 118.113 44.7548 117.607 44.5942C117.02 44.4084 116.462 44.1479 115.951 43.8221C115.68 43.6493 115.41 43.4443 115.292 43.1591C115.21 42.9625 115.207 42.746 115.21 42.5352C115.218 42.0138 115.255 41.4836 115.45 40.9948C115.697 40.3765 116.18 39.866 116.693 39.4104C116.899 39.2272 117.117 39.0467 117.382 38.9485C117.815 38.7879 118.308 38.8703 118.748 39.0133Z" fill="white"/>
<path fill-rule="evenodd" clip-rule="evenodd" d="M118.838 0.822246C121.978 4.06035 124.456 7.93237 126.078 12.1344C126.189 12.423 126.297 12.7436 126.191 13.0342C125.373 15.271 123.793 17.1359 122.245 18.9492C121.255 20.1079 120.266 21.2666 119.276 22.4253C118.332 23.5314 117.387 24.6377 116.41 25.7161C111.438 31.2064 105.563 36.0072 98.7592 38.9611C98.5024 39.0726 98.227 39.1838 97.9504 39.1392C97.6739 39.0947 97.4148 38.8272 97.4872 38.5576C98.3284 35.4245 99.175 32.1489 98.5 28.9761C98.3372 28.2108 98.1556 27.2473 98.7904 26.7868C103.929 23.0584 107.629 17.7292 111.175 12.4724C112.066 11.1506 112.956 9.82509 113.745 8.44004C115.145 5.98091 116.224 3.33997 116.945 0.605156C117.044 0.229869 117.52 0.0608773 117.896 0.159227C118.273 0.257576 118.568 0.543171 118.838 0.822246" fill="white"/>
<path fill-rule="evenodd" clip-rule="evenodd" d="M20.9294 13.4019C21.4398 18.0169 22.8604 22.5294 25.0858 26.6043C26.4636 29.1274 28.1396 31.4733 29.8111 33.8122C30.9742 35.4397 32.218 37.1358 34.0328 37.9769C34.5153 38.2006 34.448 38.8964 34.3185 39.4122C33.7587 41.6422 33.4975 43.9468 33.5441 46.2455C33.5485 46.4627 33.5542 46.6878 33.4689 46.8875C33.1793 47.5656 32.187 47.4526 31.5039 47.1753C27.2771 45.4593 24.032 42.0083 21.0006 38.5991C17.0648 34.1727 13.1875 29.552 10.8625 24.1041C10.7044 23.7337 10.551 23.3439 10.5775 22.9421C10.6044 22.5327 10.8147 22.1605 11.0281 21.8101C13.1358 18.3477 16.0681 15.3912 19.5128 13.2553C19.7554 13.1048 20.0145 12.954 20.2998 12.9442C20.5851 12.9343 20.898 13.1181 20.9294 13.4019Z" fill="white"/>
<path fill-rule="evenodd" clip-rule="evenodd" d="M118.222 94.3612C118.586 93.7439 119.038 93.0642 119.745 92.9471C120.024 92.9009 120.171 92.598 120.265 92.3318C121.434 89.053 121.547 85.4068 120.583 82.062C120.307 81.1073 120.646 80.0952 120.982 79.1599C121.847 76.7462 122.712 74.3324 123.577 71.9187C123.081 71.0612 121.774 71.0866 121.105 70.3568C120.243 69.4176 120.893 67.9244 121.568 66.8433C125.512 60.5273 129.455 54.2112 133.398 47.8952C133.882 47.1214 134.942 46.8788 135.83 47.085C136.719 47.2912 137.478 47.8505 138.209 48.3964C141.085 50.5448 143.961 52.6932 146.837 54.8416C148.38 55.9947 150.084 57.4676 149.995 59.3924C149.946 60.4575 149.337 61.4043 148.747 62.2927C146.468 65.7278 144.189 69.1628 141.909 72.5978C140.625 74.533 140.98 77.0746 140.592 79.3645C139.979 82.9827 137.498 85.9542 135.2 88.8157C132.903 91.6773 130.605 94.8726 130.475 98.5401C130.322 102.911 128.245 107.18 124.902 110C125.872 107.647 119.745 108.585 112.736 105.797C113.89 101.716 116.067 98.013 118.222 94.3612Z" fill="white"/>
<path fill-rule="evenodd" clip-rule="evenodd" d="M41.2653 104.595C40.8283 104.237 40.689 103.634 40.6118 103.073C39.7193 96.5822 43.5524 90.1761 42.8696 83.6601C42.5177 80.3022 40.975 77.169 39.0337 74.4134C37.6931 72.5105 37.6179 69.9612 38.1181 67.6843C38.6182 65.4074 39.6272 63.2784 40.3077 61.0493C43.3339 51.1364 39.6516 40.5464 36.011 30.8445C43.2655 27.336 51.7309 28.0155 59.7677 28.4909C67.8044 28.9662 76.4477 28.9999 83.146 24.5111C84.0641 34.2217 82.0397 43.943 80.0268 53.4853C90.2405 52.4901 100.454 51.4949 110.668 50.4997C110.961 50.4712 111.281 50.4492 111.525 50.6155C111.849 50.8374 111.899 51.29 111.918 51.6842C112.395 61.7829 112.685 71.8905 112.786 82.0001C112.788 82.2537 112.78 82.5364 112.602 82.7162C112.45 82.8702 112.217 82.9024 112.002 82.9263C97.6927 84.5212 83.383 86.116 69.0733 87.7109C67.8358 87.8488 66.0731 87.5265 66.1456 86.2772C66.4687 80.7068 66.2801 75.1066 65.5829 69.5709C61.78 69.427 57.9512 70.007 54.3594 71.271C53.5445 71.5578 52.5647 72.3289 53.0042 73.0758C55.9117 78.0175 52.303 85.4453 56.2519 89.5934C57.6098 91.0197 57.5159 93.2635 57.2468 95.219C56.67 99.4104 55.69 103.546 54.3251 107.549C54.985 102.941 41.6685 107.065 41.2653 104.595Z" fill="white"/>
<path fill-rule="evenodd" clip-rule="evenodd" d="M0.335456 0.00668329C0.347677 0.105018 0.294468 0.208274 0.207296 0.255391C0.137872 0.185933 0.0684475 0.116476 -0.000976562 0.0470182C0.103099 0.001498 0.221132 -0.0114856 0.332614 0.0103235L0.335456 0.00668329Z" fill="#25282B"/>
<path fill-rule="evenodd" clip-rule="evenodd" d="M67.1202 95.3601C67.3639 95.4366 67.6045 95.531 67.8167 95.6732C68.2152 95.94 68.4864 96.3543 68.7465 96.7572C68.9331 97.046 69.1222 97.3405 69.2153 97.6715C69.3161 98.03 69.2981 98.4126 69.2306 98.7789C69.0202 99.9197 68.3162 100.961 67.3359 101.581C66.3555 102.201 65.1134 102.39 63.9927 102.091C63.7745 102.033 63.5548 101.954 63.387 101.802C63.2461 101.676 63.151 101.506 63.0641 101.338C62.6076 100.453 62.2999 99.4693 62.335 98.474C62.3702 97.4787 62.7793 96.4715 63.5542 95.8459C64.5266 95.0609 65.9279 94.9859 67.1202 95.3601M65.7536 101.286C66.3632 101.194 66.8997 100.795 67.25 100.288C67.6004 99.7805 67.7801 99.172 67.8664 98.5614C67.9157 98.2128 67.9202 97.8132 67.6741 97.5614C67.5268 97.4107 67.3164 97.3434 67.1145 97.283C66.3566 97.0562 65.4914 96.8634 64.8126 97.2696C64.3183 97.5654 64.0427 98.1136 63.7928 98.6327C63.5003 99.2407 63.5725 100.008 63.9735 100.551C64.3745 101.093 65.0866 101.387 65.7536 101.286V101.286Z" fill="#25282B"/>
<path fill-rule="evenodd" clip-rule="evenodd" d="M94.9653 67.9776C94.9759 67.8483 94.9915 67.7095 95.0771 67.612C95.1608 67.5166 95.2925 67.4823 95.4161 67.4535C98.6006 66.712 101.89 66.4219 105.155 66.5946C105.571 66.6166 106.106 66.7574 106.133 67.1729C106.291 69.5554 106.449 71.9379 106.606 74.3204C106.614 74.441 106.618 74.5747 106.541 74.6677C106.478 74.7435 106.377 74.7728 106.282 74.7976C102.886 75.6831 99.3059 75.8576 95.8398 75.3068C95.7506 75.2926 95.6567 75.2759 95.5874 75.2179C95.5037 75.1477 95.4743 75.0335 95.4504 74.9269C94.9394 72.6527 94.7752 70.3008 94.9653 67.9776ZM95.7162 71.9299C95.7787 72.8296 95.9674 73.7205 96.275 74.5683C96.5818 74.6125 96.8855 74.6762 97.1911 74.7279C99.8251 75.174 102.519 74.7252 105.153 74.277C105.34 74.2452 105.545 74.2029 105.66 74.0525C105.778 73.8988 105.762 73.6848 105.741 73.4923C105.65 72.6713 105.559 71.8504 105.469 71.0294C105.461 70.9632 105.452 70.8922 105.407 70.8429C105.353 70.7831 105.264 70.7735 105.183 70.7682C103.312 70.6449 101.434 70.7846 99.5634 70.9242C98.5296 71.0014 97.4958 71.0785 96.4619 71.1557C96.2189 71.1738 95.943 71.2098 95.8032 71.4095C95.7003 71.5565 95.7037 71.7508 95.7162 71.9299ZM95.7457 68.4961C95.5821 69.0209 95.5527 69.5868 95.6611 70.1257C95.6806 70.2225 95.708 70.3247 95.7815 70.3906C95.8904 70.4884 96.0565 70.4722 96.2013 70.451C97.9627 70.193 99.7431 70.0648 101.523 70.0678C101.774 70.0682 101.851 69.7301 101.849 69.479C101.845 69.111 101.841 68.743 101.837 68.375C101.834 68.1621 101.824 67.9275 101.678 67.7723C101.503 67.5857 101.21 67.5916 100.955 67.6111C100.365 67.6561 99.7754 67.7012 99.1857 67.7462C98.9035 67.7678 98.1553 67.9594 97.8114 67.9821C97.2126 68.0776 96.6139 68.1732 96.0152 68.2687C95.9513 68.2789 95.8839 68.2907 95.8348 68.3326C95.7869 68.3735 95.7644 68.4361 95.7457 68.4961ZM103.642 70.0969C104.11 70.103 104.579 70.0561 105.037 69.9576C105.146 69.9342 105.26 69.9044 105.338 69.8245C105.452 69.7072 105.451 69.5233 105.442 69.3599C105.418 68.8855 105.394 68.411 105.37 67.9365C105.361 67.7673 105.342 67.5767 105.21 67.4708C105.094 67.3776 104.929 67.3832 104.781 67.3933C104.26 67.4287 103.74 67.4641 103.219 67.4995C103.137 67.5052 103.05 67.5121 102.981 67.5577C102.855 67.641 102.836 67.8155 102.833 67.9665C102.821 68.4694 102.842 68.9731 102.894 69.4734C102.91 69.6182 102.931 69.7707 103.02 69.8855C103.16 70.0644 103.415 70.094 103.642 70.0969Z" fill="#FEBE3F"/>
<path fill-rule="evenodd" clip-rule="evenodd" d="M103.116 57.5658C103.811 57.2647 104.665 57.3656 105.271 57.8206C105.878 58.2755 106.213 59.0669 106.119 59.8191C106.545 59.5887 107.086 59.3617 107.484 59.6385C107.933 59.951 107.83 60.624 107.763 61.1671C107.645 62.116 107.798 63.0969 108.199 63.9649C108.364 64.3234 108.507 64.8674 108.139 65.012C108.077 65.0364 108.009 65.042 107.943 65.0474C103.634 65.3947 99.3253 65.742 95.0164 66.0893C94.8983 66.0988 94.7659 66.1039 94.6765 66.0261C94.5853 65.9466 94.5739 65.8114 94.569 65.6905C94.5277 64.6769 94.4864 63.6632 94.4451 62.6496C94.434 62.3777 94.4287 62.0845 94.5822 61.8599C94.8363 61.4881 95.3686 61.4892 95.8133 61.418C96.2579 61.3468 96.7752 60.9716 96.604 60.555C96.4133 60.0906 97.0635 59.7513 97.5598 59.6757C98.0561 59.6002 98.7144 59.3043 98.5641 58.8253C98.3998 58.302 99.1198 57.9772 99.6635 57.905C100.047 57.8541 100.448 57.8048 100.812 57.9364C101.176 58.0681 101.483 58.4427 101.401 58.8209C101.308 59.2539 101.835 59.6573 102.251 59.5044C102.666 59.3514 102.835 58.7831 102.625 58.3933C102.453 58.0749 102.784 57.7096 103.116 57.5658ZM105.341 64.2455C105.18 63.9467 105.178 63.5909 105.177 63.2514C105.17 61.6571 105.072 60.0632 104.884 58.4801C104.874 58.4002 104.859 58.3109 104.794 58.2641C104.737 58.2237 104.662 58.2285 104.593 58.2349C104.256 58.2664 103.857 58.3408 103.724 58.6517C103.667 58.7843 103.674 58.9342 103.682 59.0782C103.767 60.6761 103.852 62.274 103.938 63.8718C103.946 64.0207 103.965 64.1915 104.089 64.2747C104.157 64.32 104.241 64.3284 104.322 64.3329C104.664 64.3515 105.008 64.322 105.341 64.2455ZM99.5452 61.7888C99.5034 62.0549 99.4447 62.3193 99.4291 62.5882C99.403 63.0378 99.4976 63.4847 99.5918 63.925C99.6522 64.2074 100.017 64.3464 100.284 64.2375C100.552 64.1286 100.713 63.8433 100.758 63.558C100.802 63.2727 100.75 62.9824 100.705 62.6972C100.526 61.577 100.449 60.4407 100.474 59.3066C100.48 59.0196 100.201 58.7605 99.915 58.7888C99.6294 58.8171 99.4059 59.1262 99.4685 59.4064C99.6428 60.1863 99.669 60.9992 99.5452 61.7888ZM102.379 60.2585C102.211 60.0384 101.826 60.1556 101.695 60.3995C101.564 60.6433 101.604 60.9391 101.637 61.214C101.722 61.9321 101.73 62.6592 101.661 63.3789C101.64 63.5911 101.618 63.8228 101.735 64.0008C101.915 64.2748 102.311 64.2723 102.637 64.2392C102.739 64.2288 102.857 64.209 102.908 64.12C102.944 64.058 102.935 63.9811 102.926 63.9102C102.775 62.7935 102.625 61.6768 102.475 60.56C102.46 60.4543 102.444 60.3433 102.379 60.2585ZM106.111 60.7383C105.985 60.9109 105.958 61.1356 105.947 61.3494C105.909 62.0824 106.006 62.8149 106.103 63.5424C106.141 63.8291 106.273 64.1975 106.561 64.1779C106.853 64.1581 106.93 63.767 106.923 63.474C106.905 62.698 106.887 61.922 106.869 61.146C106.864 60.9419 106.843 60.7056 106.673 60.5916C106.496 60.4722 106.238 60.5657 106.111 60.7383ZM97.2794 60.555C97.2794 60.555 97.4078 61.5677 97.4526 62.0838C97.5088 62.7316 97.5805 63.3781 97.6674 64.0225C97.68 64.1161 97.6969 64.2174 97.7659 64.2818C97.8856 64.3935 98.3473 64.3193 98.4323 64.1794C98.5174 64.0395 98.5127 63.8649 98.5052 63.7014C98.4818 63.1841 98.4584 62.6669 98.4349 62.1496C98.4098 61.5951 98.278 60.3995 98.278 60.3995M95.6048 64.2221C95.6418 64.3382 95.6853 64.4596 95.7791 64.5372C95.9621 64.6887 96.259 64.5949 96.4033 64.4062C96.5476 64.2174 96.5801 63.9688 96.6077 63.7328C96.6415 63.4432 96.6742 63.1423 96.5805 62.8662C96.4867 62.5902 96.2272 62.3473 95.9368 62.3729C95.6698 62.3965 95.4629 62.6406 95.4006 62.9014C95.3383 63.1622 95.3908 63.4357 95.4556 63.6959C95.4997 63.8728 95.5495 64.0484 95.6048 64.2221Z" fill="#E7EAF0"/>
<path fill-rule="evenodd" clip-rule="evenodd" d="M114.415 24.3174C113.779 25.2725 113.089 26.24 112.105 26.8297C111.121 27.4194 109.762 27.5342 108.877 26.8032C107.901 25.9966 107.841 24.5426 107.918 23.2788C107.948 22.7922 107.987 22.3018 108.126 21.8347C108.368 21.0245 108.896 20.3332 109.447 19.6921C110.116 18.9144 110.856 18.1642 111.784 17.7265C112.711 17.2888 113.864 17.212 114.733 17.7565C115.773 18.4083 116.158 19.7949 115.961 21.0066C115.764 22.2184 115.096 23.2957 114.415 24.3174ZM112.395 25.3279C113.197 24.4733 113.885 23.5117 114.435 22.4765C114.797 21.7953 115.105 21.0548 115.09 20.2836C115.076 19.5124 114.669 18.7062 113.953 18.42C113.02 18.0473 111.996 18.6436 111.216 19.2771C110.661 19.7282 110.124 20.223 109.768 20.8433C109.543 21.2355 109.397 21.6671 109.252 22.0955C108.978 22.906 108.7 23.7505 108.804 24.5997C108.908 25.4489 109.516 26.3015 110.367 26.3895C111.154 26.4709 111.853 25.9052 112.395 25.3279Z" fill="#FEBE3F"/>
<path fill-rule="evenodd" clip-rule="evenodd" d="M26.6292 29.5401C27.6258 30.5498 28.4486 31.7307 29.0504 33.0155C29.6552 34.3067 29.0454 35.9661 27.8584 36.7561C26.6715 37.546 25.0666 37.5356 23.7652 36.9535C22.4637 36.3713 21.4409 35.2849 20.6876 34.0742C20.1197 33.1615 19.6794 32.1386 19.6322 31.0647C19.585 29.9907 19.9803 28.8605 20.8298 28.2019C21.689 27.5358 22.8972 27.4406 23.9363 27.7602C24.9753 28.0799 25.8655 28.7664 26.6292 29.5401ZM22.7407 28.9262C21.8783 28.8374 21.1123 29.6289 20.9643 30.4832C20.8164 31.3375 21.142 32.2043 21.5634 32.962C22.4771 34.6051 24.1073 36.0646 25.985 35.9737C26.9502 35.927 28.0082 35.2583 27.991 34.292C27.9836 33.8741 27.7775 33.4886 27.5716 33.1249C27.0248 32.1587 26.4341 31.2024 25.6452 30.4212C24.8563 29.6401 23.845 29.0399 22.7407 28.9262Z" fill="#FEBE3F"/>
<path fill-rule="evenodd" clip-rule="evenodd" d="M64.6638 98.1576C65.0424 97.8699 65.5132 97.6837 65.9877 97.7144C66.4621 97.745 66.9317 98.0172 67.1302 98.4492C67.3432 98.913 67.2104 99.4891 66.8781 99.8763C66.5458 100.264 66.0451 100.477 65.5397 100.548C65.1949 100.596 64.7837 100.553 64.5949 100.26C64.5038 100.119 64.4831 99.9452 64.4648 99.7782C64.4319 99.4783 64.399 99.1784 64.3661 98.8786C64.3522 98.7515 64.3387 98.6197 64.3796 98.4986C64.4276 98.3562 64.5442 98.2485 64.6638 98.1576M66.1614 99.0201C66.2165 98.9778 66.2742 98.932 66.2981 98.8669C66.375 98.6581 66.0735 98.5194 65.8512 98.5244C65.5284 98.5317 65.1147 98.7491 65.2134 99.0565C65.2706 99.2344 65.4896 99.3167 65.6735 99.2839C65.8574 99.2512 66.0133 99.1339 66.1614 99.0201H66.1614Z" fill="#25282B"/>
<path fill-rule="evenodd" clip-rule="evenodd" d="M118.285 2.28362C121.235 5.33734 123.563 8.98886 125.087 12.9516C125.192 13.2238 125.293 13.5261 125.193 13.8001C124.424 15.9096 122.941 17.6683 121.486 19.3784L118.697 22.6565C117.81 23.6996 116.922 24.743 116.005 25.7599C111.334 30.9376 105.814 35.465 99.4217 38.2507C99.1804 38.3558 98.9216 38.4607 98.6618 38.4187C98.4021 38.3766 98.1586 38.1244 98.2266 37.8701C99.0169 34.9155 99.8123 31.8264 99.1781 28.8343C99.0252 28.1126 98.8546 27.2039 99.4509 26.7696C104.279 23.2536 107.755 18.2278 111.086 13.2703C111.924 12.0238 112.759 10.7738 113.5 9.46763C114.816 7.14853 115.83 4.65798 116.507 2.0789C116.6 1.72498 117.047 1.56561 117.401 1.65836C117.755 1.75111 118.031 2.02044 118.285 2.28362ZM116.221 6.07581C115.922 5.95184 115.645 6.28714 115.492 6.57333C115.352 6.83633 115.212 7.09967 115.072 7.36323L114.997 7.50402C111.941 13.2449 108.838 19.0739 104.181 23.5956C103.741 24.0228 103.249 24.539 103.33 25.1469C103.59 27.0957 102.55 29.1536 100.827 30.0997C100.044 30.5293 100.053 31.6376 100.168 32.5228C100.214 32.8772 100.348 33.3214 100.704 33.3514C101.748 33.4394 102.75 33.9536 103.431 34.7505C103.646 35.0019 104.053 34.8448 104.333 34.6688C111.378 30.2392 116.791 23.6964 122.077 17.2679C122.259 17.0461 122.453 16.7667 122.358 16.4957C121.558 14.2171 121.686 11.6276 122.707 9.43918C122.105 8.24038 121.387 7.09968 120.567 6.03803C119.202 6.63066 117.596 6.64462 116.221 6.07581ZM99.5109 37.0805C99.7887 37.2261 100.125 37.0877 100.403 36.9425C101.134 36.5611 101.838 36.1281 102.508 35.6479C102.685 35.521 102.737 35.2675 102.675 35.0589C102.612 34.8502 102.456 34.682 102.282 34.5503C101.74 34.1391 100.983 34.0309 100.348 34.2741C100.231 34.319 100.114 34.3776 100.033 34.4737C99.9385 34.5863 99.9039 34.7363 99.8736 34.8802C99.7201 35.6078 99.5991 36.3422 99.5109 37.0805ZM119.295 4.55855C118.817 3.62243 118.078 2.82078 117.185 2.2668C116.874 2.54083 116.814 2.95724 116.752 3.38175C116.71 3.67304 116.667 3.96815 116.542 4.2237C116.502 4.30692 116.452 4.38654 116.403 4.46597C116.308 4.6172 116.214 4.76778 116.184 4.94145C116.138 5.20635 116.362 5.53867 116.616 5.45102C116.823 5.37976 117.039 5.42553 117.258 5.4717C117.373 5.49606 117.489 5.52054 117.604 5.52797C118.275 5.57129 118.832 5.04558 119.295 4.55855ZM123.09 10.1693C122.577 11.1894 122.658 12.3943 122.751 13.5323L122.885 15.1643C122.899 15.3438 122.997 15.586 123.17 15.5363C123.278 15.2357 123.482 14.9877 123.687 14.739C123.867 14.5215 124.046 14.3035 124.162 14.0493C124.554 13.1886 124.119 12.1966 123.691 11.3535L123.09 10.1693ZM100.134 28.2832C100.156 28.6024 100.487 28.8414 100.807 28.8324C101.127 28.8234 101.415 28.6165 101.601 28.3568C101.788 28.0971 101.891 27.7877 101.991 27.4838L102.32 26.48C102.412 26.2002 102.418 25.7723 102.125 25.7394C102.02 25.7275 101.919 25.7834 101.832 25.845C101.504 26.0782 101.265 26.4133 101.033 26.7418L100.399 27.6367C100.262 27.8308 100.118 28.0459 100.134 28.2832Z" fill="#25282B"/>
<path fill-rule="evenodd" clip-rule="evenodd" d="M24.5855 25.6039C22.3602 21.5289 20.9396 17.0164 20.4291 12.4014C20.3977 12.1177 20.0848 11.9338 19.7995 11.9437C19.5142 11.9536 19.2552 12.1043 19.0125 12.2548C15.5678 14.3908 12.6356 17.3473 10.5278 20.8096C10.3145 21.1601 10.1042 21.5322 10.0772 21.9416C10.0508 22.3435 10.2042 22.7332 10.3622 23.1036C12.6873 28.5515 16.5646 33.1723 20.5004 37.5986C23.5318 41.0078 26.7769 44.4588 31.0036 46.1748C31.6867 46.4522 32.679 46.5652 32.9686 45.8871C33.0529 45.6898 33.0484 45.4678 33.044 45.2532L33.0439 45.245C32.9973 42.9464 33.2585 40.6417 33.8183 38.4118C33.9478 37.8959 34.0151 37.2001 33.5326 36.9765C31.7177 36.1353 30.4739 34.4392 29.3108 32.8117C27.6393 30.4729 25.9634 28.1269 24.5855 25.6039ZM28.5142 43.4163C28.2642 43.483 28.0145 43.3253 27.8058 43.1724C23.9588 40.3535 20.9777 36.5383 18.0486 32.7743L12.8796 26.132C13.7521 25.5763 13.8629 24.3688 13.8819 23.3344C13.9067 21.9899 13.9247 20.6056 13.4391 19.3516C13.3311 19.0729 13.4716 18.764 13.6221 18.5057C14.2675 17.3982 15.1626 16.4371 16.2214 15.7147C16.3239 15.6447 16.4324 15.5753 16.5553 15.5579C16.8796 15.5121 17.1283 15.8275 17.3016 16.1054C17.986 17.2029 18.9265 18.4442 20.2167 18.3538C20.7079 18.3194 20.9804 18.8981 21.1237 19.3693C22.9058 25.2289 26.2519 30.5141 30.1759 35.2163C30.6858 35.8273 30.8137 36.652 30.9405 37.4692C31.0819 38.3805 31.2218 39.2825 31.8884 39.8684C32.4575 40.3687 32.3519 41.2671 32.1983 42.0092C32.1669 42.161 32.1294 42.3237 32.0141 42.4273C31.9284 42.5043 31.8127 42.5364 31.7014 42.5661L28.5142 43.4163ZM19.3942 16.9965C18.6885 16.5033 18.079 15.8732 17.6095 15.1515C17.508 14.9953 17.4093 14.8204 17.4271 14.635C17.4465 14.4334 17.5982 14.2721 17.7491 14.1371C18.1216 13.8036 18.5427 13.5244 18.995 13.311C19.1606 13.2329 19.3744 13.1694 19.512 13.2903C19.593 13.3614 19.6185 13.4751 19.6397 13.5808L20.2915 16.8411C20.33 17.0338 20.1279 17.2074 19.9314 17.213C19.7349 17.2186 19.5553 17.1091 19.3942 16.9965ZM12.944 23.3023C12.9302 23.9156 12.8834 24.6038 12.4239 25.01C12.3277 25.0215 12.2638 24.9159 12.2261 24.8267C11.895 24.0429 11.5594 23.2401 11.5072 22.3908C11.4551 21.5415 11.7397 20.6218 12.4337 20.1295C12.5276 20.0629 12.6653 20.0079 12.7482 20.0878C12.7815 20.1199 12.7957 20.1665 12.8079 20.2112C12.9964 20.9044 12.9816 21.6345 12.9654 22.3527L12.944 23.3023ZM31.6704 43.7004C31.7818 43.7916 31.7937 43.9547 31.7967 44.0987L31.8299 45.675C31.1833 45.3165 30.5639 44.9091 29.9787 44.4575C29.8677 44.3718 29.7458 44.2331 29.8138 44.1105C29.8475 44.0497 29.9175 44.0204 29.9827 43.9964C30.4011 43.8421 30.8336 43.7264 31.2731 43.6511C31.409 43.6279 31.5637 43.6131 31.6704 43.7004ZM31.7076 37.4915C31.7017 37.4203 31.7017 37.3427 31.744 37.2852C31.8556 37.1334 32.0978 37.2708 32.2002 37.429C32.4468 37.81 32.5012 38.3089 32.3426 38.7341C31.9805 38.4235 31.7472 37.967 31.7076 37.4915Z" fill="#25282B"/>
<path fill-rule="evenodd" clip-rule="evenodd" d="M131.617 27.2762C131.575 26.7868 131.248 26.3056 130.773 26.183C130.169 26.0273 129.583 26.4526 129.104 26.8515C128.962 26.9695 128.814 27.0964 128.754 27.2709C128.652 27.5669 128.835 27.8788 129.016 28.1346C129.223 28.4275 129.444 28.7219 129.745 28.9154C130.047 29.109 130.45 29.1842 130.766 29.0159C130.927 28.9302 131.053 28.7902 131.162 28.6436C131.455 28.2496 131.658 27.7655 131.617 27.2762ZM130.277 28.5306C130.073 28.5613 129.86 28.4786 129.71 28.3367C129.484 28.1241 129.394 27.7824 129.473 27.4825C129.556 27.1668 129.821 26.906 130.138 26.8281C130.455 26.7502 130.811 26.8585 131.031 27.0998C131.023 27.1656 131.016 27.2318 131.009 27.298C130.985 27.523 130.962 27.7484 130.884 27.9598C130.783 28.2334 130.565 28.4874 130.277 28.5306Z" fill="#25282B"/>
<path fill-rule="evenodd" clip-rule="evenodd" d="M130.864 24.6196C129.828 24.5943 128.653 24.7111 128.009 25.5228C127.755 25.8427 127.615 26.2382 127.515 26.6342C127.358 27.2538 127.286 27.895 127.303 28.5339C127.31 28.811 127.541 29.0255 127.765 29.1894C128.222 29.5247 128.726 29.7964 129.258 29.9943C129.657 30.1428 130.087 30.2507 130.507 30.1804C130.778 30.1349 131.035 30.0153 131.256 29.8513C131.749 29.4865 132.057 28.9137 132.205 28.3191C132.354 27.7245 132.358 27.1039 132.339 26.4913C132.318 25.818 132.188 25.0171 131.575 24.7377C131.355 24.6373 131.106 24.6256 130.864 24.6196ZM131.701 28.3607C131.387 29.1624 130.507 29.8026 129.68 29.565C129.156 29.4146 128.644 29.1688 128.278 28.7647C127.912 28.3606 127.714 27.7785 127.864 27.2542C127.914 27.079 128 26.9164 128.085 26.7553L128.569 25.8391C128.634 25.7166 128.7 25.5925 128.796 25.4919C128.97 25.3075 129.225 25.2221 129.474 25.1722C129.976 25.0719 130.501 25.0897 130.995 25.2237C131.314 25.3103 131.66 25.4911 131.726 25.815C131.898 26.6584 132.014 27.5589 131.701 28.3607Z" fill="#25282B"/>
<path fill-rule="evenodd" clip-rule="evenodd" d="M119.709 41.0276C119.901 41.3202 119.841 41.7111 119.714 42.037C119.546 42.4665 119.263 42.8645 118.862 43.093C118.462 43.3215 117.936 43.3549 117.545 43.1093C117.155 42.8637 116.959 42.3176 117.168 41.9066C117.217 41.8116 117.283 41.7274 117.349 41.6432C117.412 41.5626 117.475 41.482 117.523 41.3918C117.554 41.3324 117.579 41.2695 117.603 41.2066C117.638 41.1159 117.674 41.0254 117.729 40.9463C117.928 40.665 118.319 40.6097 118.664 40.6146C119.054 40.6201 119.495 40.7009 119.709 41.0276ZM118.838 41.2134C118.303 41.2067 117.802 41.6548 117.749 42.1866C117.728 42.4039 117.82 42.6741 118.036 42.704C118.198 42.7265 118.34 42.6012 118.449 42.4791C118.68 42.2208 118.878 41.9335 119.037 41.6261C119.091 41.523 119.138 41.3906 119.067 41.2981C119.016 41.2307 118.922 41.2145 118.838 41.2134Z" fill="#25282B"/>
<path fill-rule="evenodd" clip-rule="evenodd" d="M120.58 40.1655C120.052 39.5592 119.365 39.0935 118.606 38.8287C118.192 38.6843 117.728 38.601 117.321 38.7633C117.072 38.8625 116.866 39.0449 116.672 39.23C116.19 39.6903 115.735 40.206 115.503 40.8307C115.319 41.3245 115.285 41.8602 115.277 42.387C115.275 42.6 115.277 42.8187 115.354 43.0173C115.466 43.3055 115.719 43.5126 115.974 43.6872C116.455 44.0163 116.981 44.2796 117.532 44.4672C118.009 44.6295 118.52 44.7358 119.016 44.6471C119.962 44.478 120.65 43.6414 121.05 42.7683C121.156 42.5378 121.248 42.2983 121.283 42.0471C121.379 41.363 121.033 40.6866 120.58 40.1655ZM120.162 41.3246C120.249 42.0912 119.93 42.8778 119.382 43.4204C119.045 43.7538 118.613 44.0063 118.143 44.0658C117.673 44.1252 117.165 43.9718 116.854 43.614C116.369 43.0554 116.141 42.2809 116.248 41.5484C116.354 40.8158 116.793 40.1381 117.417 39.7409C117.563 39.6481 117.72 39.5696 117.886 39.5234C118.195 39.438 118.53 39.4683 118.831 39.5771C119.557 39.8388 120.075 40.5581 120.162 41.3246Z" fill="#25282B"/>
<path fill-rule="evenodd" clip-rule="evenodd" d="M143.82 61.7112C143.633 61.781 143.424 61.7333 143.233 61.6734C141.942 61.2674 140.893 60.3596 139.863 59.4673L139.861 59.4664L139.86 59.4655C139.722 59.3453 139.583 59.2253 139.444 59.107C137.737 57.6503 135.884 56.3643 133.921 55.2744C133.722 55.1635 133.512 55.0468 133.39 54.8539C133.268 54.6611 133.272 54.3674 133.46 54.2387C134.34 53.6379 134.911 52.6069 134.952 51.5422C134.964 51.2585 135.284 51.0693 135.567 51.0921C135.85 51.1148 136.097 51.2849 136.328 51.4492L145.294 57.8144C145.469 57.9383 145.657 58.0819 145.699 58.2916C145.734 58.4628 145.663 58.636 145.59 58.7951C145.204 59.6485 144.759 60.4755 144.26 61.2686C144.148 61.4482 144.019 61.6371 143.82 61.7112ZM134.85 54.1603C134.745 54.3462 134.653 54.6151 134.824 54.7437L142.14 60.2531C142.541 60.5549 143.164 60.8376 143.479 60.4477C143.842 59.9999 144.18 59.5328 144.493 59.049C144.578 58.9166 144.665 58.7654 144.634 58.6108C144.606 58.4697 144.488 58.3673 144.376 58.2767C141.691 56.0993 138.848 54.1166 135.877 52.3494L134.85 54.1603Z" fill="#25282B"/>
<path fill-rule="evenodd" clip-rule="evenodd" d="M131.209 57.5295C131.327 57.3268 131.471 57.105 131.7 57.0553C131.875 57.0172 132.054 57.0923 132.215 57.1708C133.096 57.5987 133.903 58.1786 134.589 58.8773C134.755 59.0454 134.775 59.316 134.701 59.5399C134.628 59.7638 134.476 59.9522 134.328 60.1352C134.089 60.4293 133.835 60.7352 133.483 60.8748C133.103 61.0254 132.66 60.9528 132.3 60.7589C131.941 60.5651 131.652 60.2618 131.397 59.9419C131.065 59.5247 130.768 59.0243 130.819 58.4934C130.853 58.1456 131.033 57.8314 131.209 57.5295ZM132.75 59.8656C133.304 60.0811 133.658 59.9103 133.673 59.5469C133.682 59.3176 133.482 59.141 133.3 59.0011L132.75 58.5777C132.568 58.4378 132.367 58.2913 132.138 58.2927C131.908 58.2942 131.675 58.5308 131.769 58.7402C131.755 58.8413 132.196 59.6501 132.75 59.8656Z" fill="#25282B"/>
<path fill-rule="evenodd" clip-rule="evenodd" d="M130.563 64.3391C130.698 64.4131 130.841 64.4855 130.995 64.4887C131.149 64.492 131.316 64.4047 131.354 64.2554C131.443 63.9048 131.675 63.6142 131.902 63.3297C131.927 63.2986 131.951 63.2677 131.976 63.2367C132.225 62.9219 132.464 62.5654 132.471 62.1643C132.478 61.7633 132.146 61.3358 131.748 61.3906C131.435 61.4337 131.144 61.2285 130.917 61.009C130.904 60.997 130.892 60.9849 130.88 60.9727C130.856 60.9493 130.832 60.9257 130.809 60.9021C130.618 60.7123 130.425 60.5194 130.172 60.437C129.872 60.3391 129.463 60.4949 129.439 60.81C129.391 61.4447 128.863 61.9226 128.374 62.3297C128.228 62.4515 128.36 62.6853 128.497 62.8177C129.114 63.4139 129.811 63.9271 130.563 64.3391ZM130.661 63.1297L129.697 62.4778C129.452 62.312 129.472 61.9059 129.69 61.7064C129.909 61.5069 130.248 61.4916 130.527 61.5915C130.805 61.6914 131.037 61.8873 131.262 62.0793C131.411 62.2065 131.431 62.4379 131.363 62.6215C131.295 62.8051 131.156 62.9522 131.021 63.0938C130.975 63.1423 130.923 63.1937 130.857 63.2023C130.786 63.2114 130.72 63.1696 130.661 63.1297Z" fill="#25282B"/>
<path fill-rule="evenodd" clip-rule="evenodd" d="M138.3 63.1726L138.771 62.1714C138.916 61.8648 139.055 61.4854 138.861 61.2082C138.793 61.1119 138.693 61.044 138.596 60.9783L136.881 59.8229C136.697 59.6983 136.496 59.5688 136.273 59.5723C136.009 59.5765 135.788 59.7651 135.6 59.9511C135.319 60.2297 135.056 60.5267 134.814 60.8396C134.63 61.0779 134.479 61.4698 134.73 61.6351L137.354 63.3564C137.561 63.4922 137.823 63.6318 138.041 63.5135C138.169 63.4441 138.238 63.3041 138.3 63.1726ZM137.719 62.4638C137.609 62.4892 137.494 62.4612 137.385 62.4286C136.723 62.229 136.117 61.8468 135.651 61.3352C135.497 61.165 135.584 60.8646 135.781 60.7453C135.978 60.6261 136.233 60.6535 136.446 60.7425C136.583 60.8001 136.708 60.8802 136.833 60.9605C136.902 61.0044 136.971 61.0485 137.042 61.0888C137.118 61.1321 137.197 61.172 137.277 61.2118C137.502 61.3248 137.728 61.4379 137.882 61.6335C138.09 61.8979 138.047 62.3885 137.719 62.4638Z" fill="#25282B"/>
<path fill-rule="evenodd" clip-rule="evenodd" d="M138.605 63.5822C138.907 63.5103 139 63.2021 139.096 62.8816C139.175 62.6168 139.257 62.3437 139.462 62.1888C139.814 61.9222 140.314 62.145 140.694 62.3711L141.902 63.0901C142.095 63.2047 142.292 63.3232 142.43 63.4997C142.568 63.6761 142.636 63.9261 142.539 64.1283C142.475 64.2633 142.353 64.3528 142.23 64.4429C142.129 64.5168 142.028 64.5912 141.957 64.6914C141.867 64.8202 141.833 64.9815 141.799 65.1409C141.758 65.341 141.716 65.5381 141.564 65.6639C141.285 65.8931 140.872 65.7094 140.564 65.5215L138.862 64.481C138.69 64.376 138.509 64.2608 138.425 64.0781C138.34 63.8953 138.409 63.6288 138.605 63.5822ZM140.837 64.6154C141.081 64.5321 141.276 64.3513 141.465 64.1753C141.601 64.0478 141.419 63.8378 141.256 63.7462L140.213 63.1588C140.104 63.0975 139.953 63.0417 139.868 63.1337C139.597 63.4302 139.557 63.9141 139.777 64.2507C139.997 64.5874 140.456 64.7453 140.837 64.6154Z" fill="#25282B"/>
<path fill-rule="evenodd" clip-rule="evenodd" d="M128.869 64.5789C128.636 64.5131 128.398 64.4461 128.207 64.316C127.911 64.114 127.499 64.1629 127.188 64.3415C126.877 64.52 126.646 64.8062 126.421 65.0858C126.297 65.241 126.169 65.4029 126.121 65.596C126.074 65.7892 126.131 66.0233 126.304 66.1202L128.123 67.1341C128.261 67.2109 128.415 67.2903 128.569 67.2561C128.722 67.2222 128.828 67.086 128.92 66.9589L129.388 66.3149C129.649 65.9564 129.921 65.4995 129.73 65.0994C129.578 64.7787 129.228 64.6802 128.869 64.5789ZM128.294 66.2471C128.199 66.2723 128.101 66.2264 128.013 66.1818L126.774 65.5511C127.012 65.2139 127.465 65.0845 127.876 65.1253C128.287 65.1661 128.668 65.3488 129.04 65.5286L128.471 66.1201C128.42 66.1731 128.365 66.2283 128.294 66.2471Z" fill="#25282B"/>
<path fill-rule="evenodd" clip-rule="evenodd" d="M114.021 104.856C115.135 100.916 117.237 97.3405 119.318 93.8147C119.669 93.2187 120.105 92.5623 120.788 92.4493C121.057 92.4047 121.199 92.1122 121.291 91.8552C122.419 88.6895 122.528 85.1689 121.597 81.9395C121.331 81.0177 121.658 80.0405 121.982 79.1374L124.488 72.1458C124.227 71.695 123.735 71.497 123.235 71.2963C122.818 71.1284 122.396 70.9587 122.101 70.6378C121.269 69.731 121.897 68.2893 122.548 67.2455L133.971 48.9506C134.437 48.2034 135.461 47.9693 136.319 48.1683C137.177 48.3674 137.909 48.9074 138.615 49.4346L146.946 55.6576C148.436 56.7709 150.081 58.193 149.996 60.0514C149.948 61.0798 149.36 61.994 148.79 62.8518L142.188 72.8016C141.335 74.0882 141.231 75.6523 141.127 77.2237C141.08 77.9343 141.033 78.6464 140.916 79.335C140.347 82.6943 138.11 85.4763 135.967 88.1418C135.881 88.2481 135.796 88.3544 135.711 88.4604C133.493 91.2233 131.273 94.3084 131.149 97.8495C131 102.07 128.995 106.192 125.767 108.914L128.576 102.099C129.244 100.478 129.863 98.4612 128.745 97.1108C128.239 96.4998 127.474 96.1766 126.741 95.8755L122.378 94.0853C122.077 93.9618 121.767 93.8365 121.442 93.8345C120.428 93.8283 119.825 94.9277 119.414 95.8543C117.993 99.0598 116.177 102.09 114.021 104.856ZM128.367 95.5998C129.115 95.8768 130.168 96.045 130.522 95.3304C132.238 91.8716 134.001 88.3463 136.732 85.6171C138.306 84.0441 139.271 81.9452 139.816 79.7878C140.362 77.6304 140.517 75.3961 140.669 73.1759C140.006 73.4172 139.949 74.3116 139.952 75.0169C139.958 76.5718 139.686 78.1274 139.153 79.588C139.041 79.8937 138.892 80.2241 138.593 80.353C138.294 80.482 137.854 80.2229 137.954 79.9134C138.725 77.5375 139.012 75.0059 138.793 72.5177C138.726 71.7462 138.582 70.921 138.033 70.3743C138.093 71.5923 138.152 72.8159 138.029 74.0292C137.815 76.1284 137.063 78.1298 136.317 80.1035C136.22 80.3598 136.103 80.6391 135.857 80.7595C135.611 80.88 135.229 80.6891 135.293 80.4228L136.41 75.8047C137.025 73.2655 137.629 70.5341 136.678 68.1009C136.199 68.0688 136.086 68.7535 136.129 69.2316C136.422 72.5062 135.517 75.7564 134.621 78.9195C134.516 79.2888 134.146 79.7506 133.858 79.4966C133.734 79.3871 133.728 79.1983 133.738 79.0331C133.795 78.1029 134.05 77.2024 134.304 76.3029C134.383 76.0237 134.462 75.7446 134.535 75.4647C135.209 72.885 135.381 70.1753 135.038 67.5313C134.448 68.2877 134.198 69.247 133.962 70.1768L132.56 75.6963C131.926 78.1913 131.116 80.9343 128.918 82.2747C128.743 82.3815 128.54 82.4807 128.341 82.4334C128.093 82.3746 127.952 82.1184 127.849 81.8855C126.446 78.7259 126.271 75.0397 127.368 71.7613C127.434 71.5623 127.232 71.3544 127.023 71.3379C126.814 71.3215 126.618 71.4354 126.447 71.5564C124.647 72.8262 123.958 75.1264 123.386 77.2532L122.624 80.0812C122.513 80.4943 122.402 80.9111 122.378 81.3382C122.343 81.9873 122.513 82.6225 122.681 83.2543C122.72 83.4007 122.759 83.547 122.796 83.6932C123.528 86.6313 123.197 89.8223 121.878 92.5478C121.684 92.9496 122.197 93.3151 122.616 93.4701L128.367 95.5998ZM131.209 68.6104C130.909 68.4037 130.588 68.1677 130.495 67.8154C130.353 67.275 130.867 66.7322 131.421 66.6595C131.975 66.5868 132.517 66.8543 132.976 67.1727C133.623 67.6213 134.441 66.9373 134.926 66.3167C134.272 65.9259 133.649 65.3194 133.624 64.5586C133.598 63.7979 134.523 63.0732 135.138 63.521C135.377 63.6947 135.666 63.801 135.952 63.9062C136.38 64.0637 136.801 64.2186 137.036 64.5935C137.303 65.0199 137.208 65.5965 136.936 66.0199C136.664 66.4434 136.245 66.7473 135.837 67.0409C136.423 67.0991 136.994 67.3082 137.48 67.6426L138.008 66.1014C138.049 65.9819 138.094 65.8569 138.188 65.7725C138.369 65.6098 138.651 65.6601 138.883 65.7338C139.492 65.927 140.09 66.2288 140.491 66.7255C140.893 67.2221 141.061 67.9436 140.78 68.5175C140.499 69.0914 139.707 69.3975 139.169 69.0514C139.058 68.9796 138.946 68.8837 138.834 68.7877C138.535 68.5312 138.235 68.2747 137.946 68.48C138.829 69.1672 139.435 70.1996 139.605 71.3051C142.383 67.0732 145.131 62.8218 147.849 58.5512C148.108 58.1435 148.318 57.5009 147.895 57.2665C146.09 56.2651 144.495 54.9238 142.903 53.5858C140.894 51.8968 138.891 50.2129 136.48 49.2241C136.327 49.1613 136.16 49.1006 136 49.1428C135.832 49.187 135.715 49.3328 135.609 49.4704C131.12 55.3304 127.091 61.543 123.572 68.0321C123.081 68.9374 123.738 70.0165 124.366 70.8322C124.681 71.2398 125.287 71.6703 125.629 71.2864C126.061 70.8024 126.769 70.5258 127.38 70.7419C127.992 70.958 128.372 71.7532 128.04 72.31C127.799 72.7127 128.27 73.1604 128.681 73.3857C129.503 73.836 130.346 74.2476 131.207 74.6186C131.326 74.6702 131.466 74.7208 131.582 74.6624C131.693 74.6068 131.738 74.4747 131.773 74.3556L132.726 71.075C132.883 70.5355 132.988 69.8353 132.525 69.5166L131.209 68.6104ZM148.263 59.4141C148.137 59.3707 148.021 59.4974 147.947 59.6087L140.809 70.2949C140.617 70.5823 140.42 70.8813 140.364 71.2224C140.308 71.5635 140.433 71.9602 140.744 72.1121C141.258 72.3636 141.795 71.8351 142.125 71.3675L148.757 61.9668C149.25 61.2688 148.833 60.3146 148.412 59.5716C148.375 59.5073 148.333 59.4381 148.263 59.4141ZM128.166 73.6839C128.04 73.5924 127.852 73.647 127.747 73.7614C127.642 73.8759 127.599 74.0326 127.559 74.1829C127.462 74.553 127.364 74.9267 127.349 75.3091C127.335 75.6915 127.404 76.0715 127.474 76.4479L128.157 80.1639C128.186 80.3197 128.219 80.4852 128.33 80.5988C128.44 80.7123 128.656 80.7369 128.745 80.6062C129.757 79.1264 130.783 77.6177 131.312 75.9049C131.378 75.692 131.397 75.3926 131.188 75.3141C130.114 74.9098 129.094 74.3598 128.166 73.6839ZM136.06 64.5153C135.717 64.1889 135.264 63.9804 134.794 63.9324C134.364 63.8886 134.117 64.4915 134.313 64.8758C134.509 65.2602 134.941 65.4506 135.342 65.6111C135.624 65.7244 135.967 65.8312 136.214 65.6523C136.568 65.3952 136.377 64.8171 136.06 64.5153ZM133.242 68.8214C133.382 68.722 133.4 68.5188 133.361 68.3519C133.213 67.7229 132.524 67.4016 131.905 67.2173C131.665 67.1461 131.367 67.0964 131.198 67.2807C131.057 67.4345 131.087 67.6893 131.209 67.8588C131.33 68.0284 131.521 68.1329 131.704 68.2319L132.661 68.747C132.842 68.8449 133.074 68.9411 133.242 68.8214ZM138.683 66.5544C138.481 66.8255 138.501 67.2197 138.67 67.513C138.839 67.8062 139.132 68.0098 139.44 68.1484C139.546 68.196 139.662 68.2378 139.776 68.2151C139.874 68.1956 139.958 68.1296 140.017 68.0498C140.238 67.7545 140.131 67.3098 139.878 67.0417C139.625 66.7735 139.265 66.6392 138.918 66.5135C138.858 66.4918 138.789 66.4708 138.734 66.5036C138.713 66.516 138.698 66.535 138.683 66.5544Z" fill="#25282B"/>
<path d="M49.266 33.8644C49.6281 33.8537 50.1113 33.9485 50.1368 34.3099L44.3964 35.1275C44.0871 35.1716 43.7403 35.2067 43.4914 35.0178C43.2425 34.8288 43.2676 34.3287 43.5778 34.2912C45.4661 34.0627 47.3648 33.9203 49.266 33.8644Z" fill="#25282B"/>
<path d="M44.4949 36.4795C44.3093 36.5005 44.0754 36.5678 44.059 36.754C44.0381 36.9924 44.377 37.0609 44.6151 37.0378L56.0688 35.9262C56.2184 35.9117 56.3866 35.8869 56.4744 35.7649C56.5934 35.5994 56.4759 35.3499 56.2937 35.2587C56.1114 35.1674 55.8957 35.1882 55.6931 35.2111L44.4949 36.4795Z" fill="#25282B"/>
<path fill-rule="evenodd" clip-rule="evenodd" d="M42.7743 91.1319C42.9067 90.1533 43.0923 89.0763 43.8611 88.4565C44.4741 87.9623 45.3157 87.8835 46.1029 87.8683C48.6819 87.8188 51.2691 88.2376 53.7007 89.0984C54.47 89.3707 55.275 89.7293 55.6956 90.4286C56.1509 91.1857 56.04 92.1406 55.9141 93.0151L53.961 106.584C55.3077 102.655 56.2745 98.5948 56.8436 94.48C57.1091 92.5603 57.2017 90.3575 55.8621 88.9572C53.7708 86.7714 53.8278 83.6579 53.8858 80.4921C53.9359 77.76 53.9867 74.9888 52.6578 72.7415C52.2242 72.0082 53.1909 71.2512 53.9949 70.9697C57.5386 69.7287 61.3162 69.1593 65.0682 69.3006C65.7561 74.7351 65.9422 80.233 65.6233 85.7016C65.5518 86.928 67.291 87.2445 68.5119 87.1091L110.867 82.412C111.078 82.3885 111.308 82.3569 111.458 82.2057C111.633 82.0292 111.642 81.7516 111.64 81.5027C111.54 71.5779 111.254 61.6549 110.783 51.7407C110.765 51.3538 110.716 50.9095 110.395 50.6916C110.155 50.5283 109.839 50.5499 109.55 50.578L79.3188 53.5089C81.3048 44.1411 83.3022 34.5974 82.3963 25.0642C75.7876 29.471 67.26 29.4379 59.3308 28.9713C59.0012 28.9519 58.671 28.9321 58.3401 28.9124C50.7094 28.4563 42.7519 27.9806 35.892 31.2819C39.4838 40.8065 43.1169 51.203 40.1312 60.9347C39.867 61.7957 39.5527 62.6414 39.2386 63.4868C38.7542 64.7902 38.2702 66.0926 37.9708 67.4485C37.4774 69.6837 37.5516 72.1865 38.8742 74.0546C40.7896 76.7599 42.3116 79.8359 42.6588 83.1324C42.9882 86.2607 42.2521 89.3632 41.5168 92.4622C40.7486 95.7002 39.9813 98.9343 40.4312 102.19C40.5073 102.741 40.6448 103.333 41.076 103.684L42.7743 91.1319ZM49.1559 65.6237L48.9621 61.3085C48.9271 60.5282 48.0167 60.0561 47.8043 59.946C46.2209 59.125 43.9927 60.5181 44.0382 62.3013C42.7039 59.7257 42.5012 56.774 42.3006 53.8521C42.2569 53.2164 42.2134 52.5822 42.1583 51.9535C41.5692 45.2312 39.5435 38.729 37.5303 32.2883C37.2432 31.3699 38.4832 30.7743 39.4351 30.6347C45.682 29.7187 52.0044 29.8452 58.3298 29.9717C61.1969 30.0291 64.0646 30.0865 66.9262 30.0468C72.0108 29.9762 77.3909 29.4949 81.5153 26.5202C82.4424 32.7009 81.1824 38.9369 79.9383 45.0943C79.77 45.9272 79.602 46.7587 79.4398 47.5884C78.078 54.5518 77.1511 61.9743 79.7566 68.5738C79.8664 68.8519 79.4921 69.0616 79.1994 69.1227C77.0565 69.5697 74.8409 69.666 72.6673 69.4065C71.7349 69.2952 70.8123 69.1193 69.8896 68.9434C69.1947 68.8109 68.4997 68.6784 67.8004 68.5734C62.5355 67.7834 57.0401 68.6034 52.2351 70.8962C52.0425 70.9881 51.8135 70.9451 51.6118 70.8753C50.6387 70.5383 49.9445 69.6392 49.5981 68.6693C49.2517 67.6994 49.2021 66.6525 49.1559 65.6237ZM69.8716 69.8664C70.3201 69.9559 70.8712 70.1558 70.899 70.6123C71.1634 74.9658 74.6228 78.8779 78.876 79.8414C83.1292 80.805 87.8428 78.8565 90.3227 75.2689C92.8027 71.6813 92.9968 66.6975 90.9633 62.8393C88.7825 58.7015 83.4827 56.5042 79.0143 57.8851C78.8069 56.9707 78.8303 56.005 79.0816 55.1017C79.1282 54.934 79.1891 54.7586 79.3244 54.6491C79.4567 54.5422 79.6354 54.5178 79.8042 54.4975L92.3915 52.9812C93.4981 52.8479 94.6075 52.7144 95.7221 52.7052C100.515 52.6657 105.304 52.1878 110.011 51.2792C110.742 61.1001 111.086 70.9498 111.042 80.7977C111.04 81.2649 110.898 81.8857 110.431 81.8993C102.509 82.1301 94.6496 83.1723 86.7871 84.2149C81.5046 84.9153 76.2208 85.616 70.9157 86.0709C69.7332 86.1722 68.5426 86.2614 67.3612 86.1488C67.1471 86.1284 66.9055 86.0847 66.7892 85.9037C66.7189 85.7946 66.711 85.6581 66.7052 85.5284L65.9989 69.7768C65.9897 69.5733 66.002 69.3279 66.1783 69.2257C66.2951 69.158 66.4412 69.1823 66.5736 69.2087L69.8716 69.8664ZM48.1984 66.2196C48.0732 67.0377 47.9323 67.9582 48.4682 68.5771C50.4672 70.886 52.5438 73.3527 53.0751 76.3601C53.3232 77.7645 53.2166 79.2099 53.1105 80.6495C52.9767 82.4627 52.8437 84.2667 53.4211 85.9678C53.4362 86.0121 53.4517 86.0566 53.4673 86.1012C53.5734 86.4044 53.6816 86.7135 53.6472 87.0301C53.6077 87.3933 53.2925 87.7586 52.9326 87.6965L48.7537 86.9757C47.3699 86.737 45.9079 86.5048 44.5933 86.9988C44.3392 87.0944 44.0466 86.9267 43.9105 86.6918C43.7743 86.4569 43.7564 86.1741 43.7445 85.9029C43.7303 85.5754 43.7196 85.2456 43.7088 84.9147C43.6413 82.8341 43.5726 80.7146 42.6097 78.8916L39.5374 73.0753C39.0839 72.2166 38.6198 71.3197 38.5885 70.3491C38.5676 69.701 38.7425 69.0643 38.916 68.4394L40.4486 62.918C40.7713 61.7556 41.1127 60.5562 41.8768 59.6228C43.7332 62.7725 43.9164 66.8475 42.3501 70.1512C42.2052 70.4568 42.6478 70.7715 42.9633 70.6497C43.2789 70.5279 43.439 70.1822 43.5503 69.8628C43.9958 68.5834 44.152 67.2345 44.3085 65.8838C44.4351 64.7909 44.5618 63.6967 44.842 62.637C45.0137 61.9878 45.2613 61.3251 45.7626 60.8783C46.2638 60.4315 47.0813 60.2785 47.6065 60.6968C48.0085 61.017 48.1392 61.564 48.2156 62.0722C48.4173 63.413 48.4164 64.7841 48.2129 66.1245C48.2081 66.1561 48.2032 66.1878 48.1984 66.2196ZM81.0351 75.0349C78.985 74.9927 77.2086 73.3198 76.5999 71.3614C76.4756 70.9616 76.7341 70.5229 77.0906 70.3034C77.4472 70.0838 77.8785 70.032 78.2946 69.9852L81.2985 69.6477C80.385 67.8719 79.7344 65.9611 79.3743 63.9967C79.3417 63.8185 79.3119 63.6314 79.3682 63.4592C79.4671 63.1569 79.7928 62.9978 80.0943 62.8964C82.535 62.0761 85.4656 63.072 86.9008 65.21C88.336 67.3479 88.1479 70.4383 86.4634 72.3858C85.7341 73.2291 84.7784 73.8514 83.7717 74.3303C82.9133 74.7386 81.9856 75.0545 81.0351 75.0349ZM90.7639 64.4798C91.1286 65.6845 91.234 66.9518 91.2842 68.2096C90.4649 68.0855 89.6376 68.0151 88.8092 67.9989C88.6472 65.8833 87.2393 63.9718 85.3883 62.9349C83.5374 61.8981 81.3032 61.674 79.2116 62.029C79.1939 61.7308 79.1396 61.4196 79.0852 61.1084C78.9417 60.2872 78.7983 59.466 79.3292 58.8831C79.6499 58.531 80.1384 58.3902 80.6065 58.3029C82.739 57.9056 85.0127 58.3219 86.8661 59.449C88.7195 60.5761 90.1353 62.4035 90.7639 64.4798ZM75.7277 71.1479C75.7243 71.187 75.721 71.2254 75.7192 71.2621C75.7054 71.5544 75.8416 71.8226 75.9765 72.088C76.0126 72.1591 76.0487 72.2301 76.0817 72.3012C76.238 72.6379 76.3137 73.0814 76.0525 73.3451C75.4205 73.983 74.8621 74.6938 74.3917 75.4587C74.2753 75.6479 73.9891 75.6634 73.7978 75.5506C73.6064 75.4377 73.4878 75.2366 73.3773 75.0439C72.6781 73.8246 71.9614 72.5492 71.8742 71.1464C71.8633 70.9719 71.8825 70.7608 72.0372 70.6795C72.1053 70.6436 72.1858 70.6426 72.2627 70.6423L75.3899 70.6328C75.4646 70.6326 75.5432 70.6334 75.6082 70.6703C75.7616 70.7575 75.744 70.96 75.7277 71.1479Z" fill="#25282B"/>
<path d="M46.5413 47.6794C46.3557 47.7004 46.1218 47.7678 46.1054 47.9539C46.0845 48.1923 46.4234 48.2608 46.6615 48.2377L58.1153 47.1261C58.2648 47.1116 58.4331 47.0868 58.5208 46.9649C58.6398 46.7994 58.5223 46.5498 58.3401 46.4586C58.1578 46.3674 57.9421 46.3882 57.7396 46.4111L46.5413 47.6794Z" fill="#25282B"/>
<path fill-rule="evenodd" clip-rule="evenodd" d="M51.1054 44.0006C51.4774 43.9924 51.9738 44.0653 52 44.3436C50.0343 44.5535 48.0686 44.7633 46.1029 44.9732C45.7851 45.0071 45.4289 45.0341 45.1732 44.8887C44.9175 44.7432 44.9432 44.3581 45.2619 44.3292C47.2017 44.1533 49.1523 44.0436 51.1054 44.0006Z" fill="#00160A"/>
<path fill-rule="evenodd" clip-rule="evenodd" d="M46.0009 46.6887C46.0166 46.4875 46.2418 46.4147 46.4205 46.392C50.0142 45.9351 53.6079 45.4782 57.2016 45.0213C57.3965 44.9965 57.6042 44.974 57.7797 45.0726C57.9552 45.1712 58.0682 45.4409 57.9537 45.6197C57.8692 45.7516 57.7072 45.7784 57.5632 45.794C53.8876 46.1945 50.2119 46.595 46.5363 46.9954C46.307 47.0204 45.9807 46.9464 46.0009 46.6887H46.0009Z" fill="#00160A"/>
<path fill-rule="evenodd" clip-rule="evenodd" d="M68.1255 48.1856C68.7051 48.4023 69.3255 48.6204 69.9299 48.4876C71.2785 48.1912 71.6813 46.4644 72.706 45.5388C72.954 45.3148 73.3098 45.1308 73.6119 45.2735C73.9109 45.4149 73.9949 45.793 74.043 46.1202C74.3584 48.2666 74.6739 50.4129 74.9894 52.5593C75.0013 52.6406 75.0119 52.7294 74.9696 52.7998C74.9135 52.8931 74.7904 52.9153 74.6824 52.9281C72.4482 53.1912 70.2009 53.3428 67.9516 53.382C66.6565 53.4046 65.3607 53.3899 64.0662 53.4347C58.3005 53.6342 52.6446 55.0072 46.9139 55.6715C46.5001 55.7195 46.0118 55.7358 45.7459 55.4152C45.3428 54.9293 45.8195 54.225 46.2724 53.7852C47.3949 52.6951 48.5173 51.6049 49.6398 50.5148C50.162 50.0077 50.7959 49.4615 51.5166 49.5637C52.1111 49.648 52.542 50.1472 53.0074 50.5267C53.4727 50.9062 54.1827 51.1757 54.6441 50.7915C56.4404 49.2957 58.3214 47.9016 60.2751 46.6182C60.9502 46.1747 61.7739 45.7279 62.5245 46.0262C64.384 46.7653 66.2511 47.4851 68.1255 48.1856ZM60.8726 47.3487C58.6902 48.7922 56.5828 50.349 54.5616 52.0109C54.1498 52.3495 53.519 52.1103 53.1116 51.7664C52.7043 51.4225 52.3446 50.968 51.8252 50.848C51.0967 50.6797 50.4184 51.2345 49.8758 51.7489C48.8877 52.6857 47.8925 53.6304 47.1072 54.7428C48.9446 54.7366 50.7562 54.3504 52.5628 54.015C59.2616 52.7716 66.0868 52.2099 72.8988 52.3414C73.3154 52.3494 73.6654 51.9868 73.7846 51.5877C73.9037 51.1885 73.8452 50.7606 73.7858 50.3483C73.6566 49.4532 73.5275 48.5581 73.3984 47.6631C73.3678 47.451 73.3302 47.224 73.1815 47.0698C73.0328 46.9155 72.7325 46.894 72.6292 47.0817C72.0984 48.0469 71.4684 49.0957 70.4143 49.4155C69.5076 49.6907 68.5416 49.343 67.6584 48.9998C65.8944 48.3144 64.1303 47.6289 62.3663 46.9434C61.8655 46.7488 61.3208 47.0523 60.8726 47.3487Z" fill="#00160A"/>
</svg>
