<svg width="20" height="20" viewBox="0 0 20 20" fill="none" xmlns="http://www.w3.org/2000/svg">
<path d="M15.7259 10.6648L10.5759 15.8231C9.90074 16.4231 9.02185 16.7425 8.119 16.7159C7.21615 16.6894 6.35757 16.3188 5.71888 15.6801C5.08019 15.0415 4.70966 14.1829 4.68308 13.28C4.6565 12.3772 4.97588 11.4983 5.5759 10.8231L12.2426 4.15646C12.6406 3.77837 13.1686 3.56757 13.7176 3.56757C14.2665 3.56757 14.7945 3.77837 15.1926 4.15646C15.5804 4.54945 15.7978 5.07935 15.7978 5.63146C15.7978 6.18357 15.5804 6.71347 15.1926 7.10646L9.44256 12.8481C9.38566 12.9094 9.31724 12.9589 9.24121 12.9937C9.16519 13.0286 9.08304 13.0481 8.99947 13.0512C8.9159 13.0543 8.83253 13.0409 8.75414 13.0118C8.67574 12.9826 8.60385 12.9384 8.54256 12.8815C8.48128 12.8246 8.43181 12.7561 8.39697 12.6801C8.36212 12.6041 8.3426 12.5219 8.3395 12.4384C8.33641 12.3548 8.3498 12.2714 8.37892 12.193C8.40805 12.1146 8.45233 12.0427 8.50923 11.9815L12.7842 7.71479C12.9412 7.55787 13.0293 7.34504 13.0293 7.12313C13.0293 6.90121 12.9412 6.68838 12.7842 6.53146C12.6273 6.37454 12.4145 6.28638 12.1926 6.28638C11.9706 6.28638 11.7578 6.37454 11.6009 6.53146L7.3259 10.8148C7.11199 11.027 6.9422 11.2795 6.82634 11.5577C6.71048 11.8359 6.65083 12.1343 6.65083 12.4356C6.65083 12.737 6.71048 13.0353 6.82634 13.3135C6.9422 13.5917 7.11199 13.8442 7.3259 14.0565C7.76288 14.4727 8.34324 14.7049 8.94673 14.7049C9.55023 14.7049 10.1306 14.4727 10.5676 14.0565L16.3092 8.30646C16.9716 7.59558 17.3322 6.65535 17.3151 5.68385C17.298 4.71234 16.9044 3.78542 16.2173 3.09835C15.5303 2.41129 14.6033 2.01773 13.6318 2.00058C12.6603 1.98344 11.7201 2.34406 11.0092 3.00646L4.34256 9.67313C3.44356 10.6688 2.96342 11.973 3.00218 13.3139C3.04093 14.6549 3.59559 15.9291 4.5506 16.8713C5.5056 17.8134 6.7873 18.3507 8.12864 18.3712C9.46998 18.3917 10.7675 17.8939 11.7509 16.9815L16.9092 11.8315C16.9869 11.7538 17.0486 11.6615 17.0906 11.56C17.1327 11.4585 17.1543 11.3497 17.1543 11.2398C17.1543 11.1299 17.1327 11.0211 17.0906 10.9196C17.0486 10.8181 16.9869 10.7258 16.9092 10.6481C16.8315 10.5704 16.7393 10.5088 16.6378 10.4667C16.5363 10.4247 16.4274 10.403 16.3176 10.403C16.2077 10.403 16.0989 10.4247 15.9974 10.4667C15.8958 10.5088 15.8036 10.5704 15.7259 10.6481V10.6648Z" fill="#737578"/>
</svg>
