<svg width="20" height="20" viewBox="0 0 20 20" fill="none" xmlns="http://www.w3.org/2000/svg">
<path d="M5.90858 9.72736C5.90858 9.891 5.85949 10.0465 5.76949 10.1855C5.67949 10.3165 5.55676 10.4228 5.40131 10.4801C5.25404 10.5455 5.0904 10.5619 4.92676 10.5292C4.77131 10.4965 4.62403 10.4228 4.50949 10.3083C4.39494 10.1937 4.32131 10.0465 4.28858 9.891C4.25585 9.72736 4.27222 9.56373 4.33767 9.41645C4.39494 9.261 4.50131 9.13827 4.63222 9.04827C4.77131 8.95827 4.92676 8.90918 5.0904 8.90918C5.31131 8.90918 5.51585 8.99918 5.67131 9.14645C5.81858 9.30191 5.90858 9.50645 5.90858 9.72736Z" fill="#25282B"/>
<path d="M15.7274 9.72736C15.7274 9.891 15.6783 10.0465 15.5883 10.1855C15.4983 10.3165 15.3756 10.4228 15.2202 10.4801C15.0729 10.5455 14.9092 10.5619 14.7456 10.5292C14.5902 10.4965 14.4429 10.4228 14.3283 10.3083C14.2138 10.1937 14.1402 10.0465 14.1074 9.891C14.0747 9.72736 14.0911 9.56373 14.1565 9.41645C14.2138 9.261 14.3202 9.13827 14.4511 9.04827C14.5902 8.95827 14.7456 8.90918 14.9092 8.90918C15.1302 8.90918 15.3347 8.99918 15.4902 9.14645C15.6374 9.30191 15.7274 9.50645 15.7274 9.72736Z" fill="#25282B"/>
<path d="M18.28 4.72C17.8218 4.26182 17.2 4 16.5455 4H3.45455C2.8 4 2.17818 4.26182 1.72 4.72C1.26182 5.17818 1 5.8 1 6.45455V13C1 13.6545 1.26182 14.2764 1.72 14.7345C2.17818 15.1927 2.8 15.4545 3.45455 15.4545H16.5455C17.2 15.4545 17.8218 15.1927 18.28 14.7345C18.7382 14.2764 19 13.6545 19 13V6.45455C19 5.8 18.7382 5.17818 18.28 4.72ZM17.3636 13C17.3636 13.2209 17.2736 13.4255 17.1264 13.5809C16.9709 13.7282 16.7664 13.8182 16.5455 13.8182H3.45455C3.23364 13.8182 3.02909 13.7282 2.87364 13.5809C2.72636 13.4255 2.63636 13.2209 2.63636 13V6.45455C2.63636 6.23364 2.72636 6.02909 2.87364 5.87364C3.02909 5.72636 3.23364 5.63636 3.45455 5.63636H16.5455C16.7664 5.63636 16.9709 5.72636 17.1264 5.87364C17.2736 6.02909 17.3636 6.23364 17.3636 6.45455V13Z" fill="#25282B"/>
<path d="M9.67299 8.43458H11.293C11.4648 8.43458 11.6284 8.36912 11.7512 8.24639C11.8739 8.12367 11.9394 7.96003 11.9394 7.78821C11.9394 7.61639 11.8739 7.45276 11.7512 7.33003C11.6284 7.2073 11.4648 7.14185 11.293 7.14185H10.6466V6.81458C10.6466 6.64276 10.5812 6.47912 10.4584 6.35639C10.3357 6.24185 10.1721 6.16821 10.0003 6.16821C9.82845 6.16821 9.66481 6.23367 9.54208 6.35639C9.41936 6.47912 9.3539 6.64276 9.3539 6.81458V7.16639C8.96118 7.24821 8.60936 7.46912 8.37209 7.78821C8.13481 8.12367 8.02845 8.52458 8.06936 8.9173C8.11027 9.31821 8.29027 9.68639 8.59299 9.95639C8.88754 10.2264 9.28027 10.3737 9.68118 10.3737H10.3275C10.4094 10.3737 10.4994 10.4064 10.5566 10.4718C10.6139 10.5291 10.6548 10.6109 10.6548 10.7009C10.6548 10.7828 10.6221 10.8728 10.5566 10.93C10.4912 10.9873 10.4094 11.02 10.3275 11.02H8.70754C8.53572 11.02 8.37208 11.0855 8.24936 11.2082C8.12663 11.3309 8.06118 11.4946 8.06118 11.6664C8.06118 11.8382 8.12663 12.0018 8.24936 12.1246C8.37208 12.2473 8.53572 12.3128 8.70754 12.3128H9.3539V12.64C9.3539 12.8118 9.41936 12.9755 9.54208 13.0982C9.66481 13.2209 9.82845 13.2864 10.0003 13.2864C10.1721 13.2864 10.3357 13.2209 10.4584 13.0982C10.5812 12.9755 10.6466 12.8118 10.6466 12.64V12.2882C11.0394 12.2064 11.3912 11.9855 11.6284 11.6664C11.8657 11.3473 11.9721 10.9464 11.9394 10.5455C11.8984 10.1446 11.7103 9.77639 11.4157 9.50639C11.1212 9.23639 10.7284 9.08912 10.3275 9.08912H9.67299C9.59118 9.08912 9.50118 9.05639 9.4439 8.99094C9.38663 8.93367 9.34572 8.85185 9.34572 8.76185C9.34572 8.68003 9.37845 8.59003 9.4439 8.53276C9.50936 8.4673 9.59118 8.43458 9.67299 8.43458Z" fill="#25282B"/>
</svg>
