<svg width="37" height="50" viewBox="0 0 37 50" fill="none" xmlns="http://www.w3.org/2000/svg">
<path d="M25.9 0C26.15 0 26.4 0.1 26.6 0.3L36.71 10.4C36.91 10.6 37 10.85 37 11.11V45C37 47.75 34.75 50 32 50H5C2.25 50 0 47.75 0 45V5C0 2.25 2.25 0 5 0H25.9Z" fill="white"/>
<path d="M36.71 10.4L36.36 10.05L35.07 8.76L28.3 2L26.6 0.3C26.4 0.1 26.15 0 25.9 0H5C2.25 0 0 2.25 0 5V45C0 47.75 2.25 50 5 50H32C34.75 50 37 47.75 37 45V11.11C37 10.85 36.91 10.6 36.71 10.4ZM33.53 10.05H29.5C28.09 10.05 26.95 8.91 26.95 7.5V3.47L33.53 10.05ZM35 45C35 46.66 33.65 48 32 48H5C3.34 48 2 46.66 2 45V5C2 3.35 3.34 2 5 2H24.5V7.5C24.5 10.25 26.75 12.5 29.5 12.5H35V45Z" fill="#E73C44"/>
<path d="M11.99 23.27C11.49 22.99 10.91 22.84 10.28 22.84H7.88C7.64 22.84 7.43 22.92 7.26 23.08C7.09 23.24 7 23.46 7 23.71V31.83C7 32.07 7.08 32.28 7.25 32.45C7.42 32.62 7.63 32.7 7.87 32.7C8.12 32.7 8.34 32.61 8.5 32.44C8.66 32.27 8.74 32.06 8.74 31.82V29.44H10.27C10.9 29.44 11.48 29.3 11.98 29.03C12.49 28.75 12.89 28.36 13.17 27.87C13.45 27.38 13.59 26.81 13.59 26.19C13.59 25.55 13.45 24.97 13.17 24.46C12.9 23.96 12.5 23.56 11.99 23.27ZM11.9 26.2C11.9 26.68 11.75 27.06 11.45 27.36C11.14 27.66 10.76 27.81 10.28 27.81H8.75V24.5H10.28C10.76 24.5 11.14 24.66 11.44 24.97C11.75 25.3 11.9 25.7 11.9 26.2Z" fill="#E73C44"/>
<path d="M20.38 23.4801C19.64 23.0601 18.79 22.8501 17.84 22.8501H15.67C15.43 22.8501 15.22 22.9301 15.05 23.0901C14.88 23.2501 14.79 23.4701 14.79 23.7201V31.8401C14.79 32.0801 14.87 32.2901 15.04 32.4601C15.21 32.6301 15.42 32.7101 15.66 32.7101H17.83C18.77 32.7101 19.63 32.5001 20.37 32.0801C21.11 31.6601 21.7 31.0601 22.11 30.3101C22.52 29.5601 22.73 28.7101 22.73 27.7701C22.73 26.8301 22.52 25.9701 22.11 25.2301C21.71 24.4901 21.12 23.9001 20.38 23.4801ZM17.84 31.1101H16.54V24.4501H17.84C18.46 24.4501 19.01 24.5901 19.5 24.8701C19.98 25.1501 20.36 25.5401 20.63 26.0401C20.9 26.5401 21.04 27.1301 21.04 27.7701C21.04 28.4101 20.9 29.0001 20.63 29.5101C20.36 30.0101 19.98 30.4101 19.5 30.6901C19.02 30.9701 18.46 31.1101 17.84 31.1101Z" fill="#E73C44"/>
<path d="M29.52 23.0801C29.36 22.9301 29.15 22.8501 28.9 22.8501H24.67C24.43 22.8501 24.22 22.9301 24.05 23.0901C23.88 23.2501 23.79 23.4701 23.79 23.7201V31.8401C23.79 32.0801 23.88 32.3001 24.04 32.4601C24.21 32.6301 24.42 32.7101 24.66 32.7101C24.9 32.7101 25.11 32.6301 25.28 32.4601C25.45 32.2901 25.53 32.0801 25.53 31.8401V28.5601H28.72C28.96 28.5601 29.17 28.4801 29.33 28.3301C29.5 28.1801 29.58 27.9701 29.58 27.7301C29.58 27.4901 29.49 27.2901 29.33 27.1301C29.17 26.9801 28.96 26.9001 28.72 26.9001H25.53V24.5001H28.88C29.13 24.5001 29.34 24.4201 29.49 24.2801C29.65 24.1301 29.74 23.9201 29.74 23.6901C29.76 23.4401 29.68 23.2301 29.52 23.0801Z" fill="#E73C44"/>
</svg>
