<svg width="150" height="110" viewBox="0 0 150 110" fill="none" xmlns="http://www.w3.org/2000/svg">
<path fill-rule="evenodd" clip-rule="evenodd" d="M16.3208 98.0285C27.642 110.354 71.4219 103.274 100.249 103.274C112.685 103.274 154.419 109.507 137.185 66.6969C80.6788 -73.6716 -19.5507 58.9766 16.3208 98.0285Z" fill="#D7373F"/>
<path fill-rule="evenodd" clip-rule="evenodd" d="M64.7922 97.693C64.8298 97.6646 64.8692 97.634 64.8856 97.5903C64.9381 97.4504 64.7322 97.3575 64.5803 97.3608C64.3598 97.3657 64.0772 97.5114 64.1446 97.7174C64.1837 97.8366 64.3333 97.8918 64.4589 97.8698C64.5845 97.8479 64.691 97.7692 64.7922 97.693ZM68.158 95.3611C68.4624 95.4549 68.763 95.5706 69.0281 95.7448C69.5258 96.0718 69.8646 96.5796 70.1896 97.0733C70.4226 97.4273 70.6588 97.7882 70.7751 98.1939C70.901 98.6333 70.8786 99.1022 70.7942 99.551C70.5314 100.949 69.6521 102.225 68.4274 102.985C67.2028 103.745 65.6511 103.977 64.2512 103.61C63.9786 103.539 63.7042 103.442 63.4946 103.257C63.3185 103.101 63.1998 102.894 63.0912 102.687C62.5209 101.602 62.1365 100.397 62.1804 99.1774C62.2243 97.9575 62.7354 96.7232 63.7034 95.9565C64.9181 94.9944 66.6685 94.9025 68.158 95.3611Z" fill="white"/>
<path fill-rule="evenodd" clip-rule="evenodd" d="M117.279 40.2348C116.969 40.2311 116.678 40.4737 116.647 40.7615C116.634 40.8791 116.688 41.0253 116.814 41.0416C116.908 41.0537 116.991 40.9859 117.054 40.9198C117.188 40.78 117.303 40.6245 117.395 40.4581C117.426 40.4023 117.454 40.3307 117.413 40.2806C117.383 40.2441 117.329 40.2354 117.279 40.2348ZM118.748 39.0133C119.555 39.2753 120.286 39.7363 120.846 40.3364C121.328 40.8521 121.695 41.5216 121.594 42.1988C121.557 42.4474 121.458 42.6845 121.346 42.9126C120.921 43.7767 120.189 44.6049 119.184 44.7722C118.657 44.86 118.114 44.7548 117.607 44.5942C117.021 44.4084 116.462 44.1479 115.951 43.8221C115.68 43.6493 115.411 43.4443 115.292 43.1591C115.21 42.9625 115.208 42.746 115.211 42.5352C115.219 42.0138 115.256 41.4836 115.451 40.9948C115.698 40.3765 116.181 39.866 116.693 39.4104C116.899 39.2272 117.118 39.0467 117.382 38.9485C117.815 38.7879 118.308 38.8703 118.748 39.0133Z" fill="white"/>
<path fill-rule="evenodd" clip-rule="evenodd" d="M118.839 0.822246C121.978 4.06035 124.456 7.93237 126.078 12.1344C126.19 12.423 126.298 12.7436 126.192 13.0342C125.373 15.271 123.794 17.1359 122.245 18.9492C121.256 20.1079 120.266 21.2666 119.277 22.4253C118.332 23.5314 117.388 24.6377 116.411 25.7161C111.439 31.2064 105.564 36.0072 98.7599 38.9611C98.5031 39.0726 98.2277 39.1838 97.9512 39.1392C97.6746 39.0947 97.4155 38.8272 97.4879 38.5576C98.3291 35.4245 99.1757 32.1489 98.5007 28.9761C98.3379 28.2108 98.1563 27.2473 98.7911 26.7868C103.93 23.0584 107.63 17.7292 111.176 12.4724C112.067 11.1506 112.956 9.82509 113.745 8.44004C115.146 5.98091 116.225 3.33997 116.946 0.605156C117.045 0.229869 117.52 0.0608773 117.897 0.159227C118.274 0.257576 118.568 0.543171 118.839 0.822246" fill="white"/>
<path fill-rule="evenodd" clip-rule="evenodd" d="M20.9301 13.4019C21.4405 18.0169 22.8612 22.5294 25.0865 26.6043C26.4644 29.1274 28.1403 31.4733 29.8118 33.8122C30.9749 35.4397 32.2187 37.1358 34.0335 37.9769C34.5161 38.2006 34.4487 38.8964 34.3192 39.4122C33.7594 41.6422 33.4983 43.9468 33.5448 46.2455C33.5492 46.4627 33.5549 46.6878 33.4696 46.8875C33.18 47.5656 32.1877 47.4526 31.5046 47.1753C27.2778 45.4593 24.0328 42.0083 21.0014 38.5991C17.0655 34.1727 13.1883 29.552 10.8632 24.1041C10.7051 23.7337 10.5517 23.3439 10.5782 22.9421C10.6051 22.5327 10.8155 22.1605 11.0288 21.8101C13.1365 18.3477 16.0688 15.3912 19.5135 13.2553C19.7561 13.1048 20.0152 12.954 20.3005 12.9442C20.5858 12.9343 20.8987 13.1181 20.9301 13.4019Z" fill="white"/>
<path fill-rule="evenodd" clip-rule="evenodd" d="M118.223 94.3612C118.587 93.7439 119.038 93.0642 119.746 92.9471C120.024 92.9009 120.171 92.598 120.266 92.3318C121.435 89.053 121.548 85.4068 120.583 82.062C120.308 81.1073 120.647 80.0952 120.982 79.1599C121.847 76.7462 122.713 74.3324 123.578 71.9187C123.082 71.0612 121.775 71.0866 121.106 70.3568C120.244 69.4176 120.894 67.9244 121.569 66.8433C125.512 60.5273 129.456 54.2112 133.399 47.8952C133.882 47.1214 134.942 46.8788 135.831 47.085C136.72 47.2912 137.478 47.8505 138.209 48.3964C141.085 50.5448 143.961 52.6932 146.837 54.8416C148.381 55.9947 150.085 57.4676 149.996 59.3924C149.947 60.4575 149.337 61.4043 148.748 62.2927C146.469 65.7278 144.189 69.1628 141.91 72.5978C140.626 74.533 140.98 77.0746 140.592 79.3645C139.979 82.9827 137.498 85.9542 135.201 88.8157C132.904 91.6773 130.605 94.8726 130.476 98.5401C130.322 102.911 128.246 107.18 124.902 110C125.872 107.647 119.746 108.585 112.737 105.797C113.89 101.716 116.068 98.013 118.223 94.3612Z" fill="white"/>
<path fill-rule="evenodd" clip-rule="evenodd" d="M41.2661 104.595C40.829 104.237 40.6897 103.634 40.6125 103.073C39.72 96.5822 43.5531 90.1761 42.8703 83.6601C42.5184 80.3022 40.9758 77.169 39.0344 74.4134C37.6938 72.5105 37.6186 69.9612 38.1188 67.6843C38.619 65.4074 39.6279 63.2784 40.3084 61.0493C43.3346 51.1364 39.6523 40.5464 36.0117 30.8445C43.2662 27.336 51.7317 28.0155 59.7684 28.4909C67.8051 28.9662 76.4484 28.9999 83.1467 24.5111C84.0649 34.2217 82.0405 43.943 80.0275 53.4853C90.2413 52.4901 100.455 51.4949 110.669 50.4997C110.962 50.4712 111.282 50.4492 111.525 50.6155C111.85 50.8374 111.9 51.29 111.918 51.6842C112.396 61.7829 112.685 71.8905 112.787 82.0001C112.789 82.2537 112.78 82.5364 112.603 82.7162C112.45 82.8702 112.218 82.9024 112.003 82.9263C97.6935 84.5212 83.3837 86.116 69.074 87.7109C67.8366 87.8488 66.0738 87.5265 66.1463 86.2772C66.4694 80.7068 66.2808 75.1066 65.5836 69.5709C61.7807 69.427 57.9519 70.007 54.3601 71.271C53.5452 71.5578 52.5654 72.3289 53.0049 73.0758C55.9125 78.0175 52.3037 85.4453 56.2526 89.5934C57.6105 91.0197 57.5166 93.2635 57.2475 95.219C56.6707 99.4104 55.6908 103.546 54.3258 107.549C54.9857 102.941 41.6693 107.065 41.2661 104.595Z" fill="white"/>
<path fill-rule="evenodd" clip-rule="evenodd" d="M0.336188 0.00668329C0.348409 0.105018 0.295201 0.208274 0.208028 0.255391C0.138604 0.185933 0.06918 0.116476 -0.000244141 0.0470182C0.103831 0.001498 0.221865 -0.0114856 0.333346 0.0103235L0.336188 0.00668329Z" fill="#25282B"/>
<path fill-rule="evenodd" clip-rule="evenodd" d="M67.121 95.3601C67.3647 95.4366 67.6052 95.531 67.8175 95.6732C68.2159 95.94 68.4871 96.3543 68.7473 96.7572C68.9338 97.046 69.1229 97.3405 69.216 97.6715C69.3168 98.03 69.2988 98.4126 69.2313 98.7789C69.0209 99.9197 68.317 100.961 67.3366 101.581C66.3563 102.201 65.1141 102.39 63.9934 102.091C63.7753 102.033 63.5556 101.954 63.3878 101.802C63.2468 101.676 63.1518 101.506 63.0648 101.338C62.6083 100.453 62.3006 99.4693 62.3357 98.474C62.3709 97.4787 62.78 96.4715 63.5549 95.8459C64.5273 95.0609 65.9286 94.9859 67.121 95.3601M65.7543 101.286C66.3639 101.194 66.9004 100.795 67.2508 100.288C67.6011 99.7805 67.7809 99.172 67.8672 98.5614C67.9164 98.2128 67.921 97.8132 67.6748 97.5614C67.5275 97.4107 67.3171 97.3434 67.1152 97.283C66.3574 97.0562 65.4922 96.8634 64.8134 97.2696C64.319 97.5654 64.0434 98.1136 63.7936 98.6327C63.501 99.2407 63.5733 100.008 63.9742 100.551C64.3752 101.093 65.0874 101.387 65.7543 101.286V101.286Z" fill="#25282B"/>
<path fill-rule="evenodd" clip-rule="evenodd" d="M94.9661 67.9776C94.9767 67.8483 94.9922 67.7095 95.0778 67.612C95.1615 67.5166 95.2932 67.4823 95.4168 67.4535C98.6013 66.712 101.891 66.4219 105.156 66.5946C105.572 66.6166 106.106 66.7574 106.134 67.1729C106.292 69.5554 106.449 71.9379 106.607 74.3204C106.615 74.441 106.619 74.5747 106.542 74.6677C106.479 74.7435 106.378 74.7728 106.282 74.7976C102.886 75.6831 99.3067 75.8576 95.8406 75.3068C95.7513 75.2926 95.6574 75.2759 95.5881 75.2179C95.5044 75.1477 95.4751 75.0335 95.4511 74.9269C94.9401 72.6527 94.7759 70.3008 94.9661 67.9776ZM95.7169 71.9299C95.7795 72.8296 95.9682 73.7205 96.2758 74.5683C96.5826 74.6125 96.8862 74.6762 97.1918 74.7279C99.8259 75.174 102.52 74.7252 105.153 74.277C105.34 74.2452 105.545 74.2029 105.661 74.0525C105.778 73.8988 105.763 73.6848 105.741 73.4923C105.651 72.6713 105.56 71.8504 105.469 71.0294C105.462 70.9632 105.453 70.8922 105.408 70.8429C105.353 70.7831 105.265 70.7735 105.184 70.7682C103.312 70.6449 101.435 70.7846 99.5642 70.9242C98.5303 71.0014 97.4965 71.0785 96.4626 71.1557C96.2196 71.1738 95.9437 71.2098 95.8039 71.4095C95.701 71.5565 95.7045 71.7508 95.7169 71.9299ZM95.7464 68.4961C95.5828 69.0209 95.5535 69.5868 95.6618 70.1257C95.6813 70.2225 95.7087 70.3247 95.7822 70.3906C95.8911 70.4884 96.0572 70.4722 96.202 70.451C97.9634 70.193 99.7438 70.0648 101.524 70.0678C101.775 70.0682 101.852 69.7301 101.849 69.479C101.845 69.111 101.841 68.743 101.837 68.375C101.835 68.1621 101.824 67.9275 101.679 67.7723C101.503 67.5857 101.211 67.5916 100.956 67.6111C100.366 67.6561 99.7761 67.7012 99.1864 67.7462C98.9043 67.7678 98.156 67.9594 97.8121 67.9821C97.2134 68.0776 96.6146 68.1732 96.0159 68.2687C95.952 68.2789 95.8847 68.2907 95.8355 68.3326C95.7876 68.3735 95.7652 68.4361 95.7464 68.4961ZM103.643 70.0969C104.111 70.103 104.58 70.0561 105.037 69.9576C105.146 69.9342 105.261 69.9044 105.338 69.8245C105.453 69.7072 105.452 69.5233 105.443 69.3599C105.419 68.8855 105.395 68.411 105.371 67.9365C105.362 67.7673 105.343 67.5767 105.211 67.4708C105.094 67.3776 104.93 67.3832 104.781 67.3933C104.261 67.4287 103.74 67.4641 103.22 67.4995C103.138 67.5052 103.051 67.5121 102.982 67.5577C102.856 67.641 102.837 67.8155 102.834 67.9665C102.822 68.4694 102.843 68.9731 102.895 69.4734C102.91 69.6182 102.931 69.7707 103.021 69.8855C103.161 70.0644 103.416 70.094 103.643 70.0969Z" fill="#FEBE3F"/>
<path fill-rule="evenodd" clip-rule="evenodd" d="M103.116 57.5658C103.812 57.2647 104.666 57.3656 105.272 57.8206C105.878 58.2755 106.214 59.0669 106.12 59.8191C106.546 59.5887 107.086 59.3617 107.484 59.6385C107.933 59.951 107.831 60.624 107.763 61.1671C107.645 62.116 107.798 63.0969 108.199 63.9649C108.365 64.3234 108.507 64.8674 108.14 65.012C108.078 65.0364 108.01 65.042 107.944 65.0474C103.635 65.3947 99.326 65.742 95.0172 66.0893C94.899 66.0988 94.7666 66.1039 94.6773 66.0261C94.5861 65.9466 94.5746 65.8114 94.5697 65.6905C94.5284 64.6769 94.4871 63.6632 94.4458 62.6496C94.4347 62.3777 94.4294 62.0845 94.5829 61.8599C94.8371 61.4881 95.3694 61.4892 95.814 61.418C96.2586 61.3468 96.7759 60.9716 96.6048 60.555C96.414 60.0906 97.0642 59.7513 97.5605 59.6757C98.0568 59.6002 98.7152 59.3043 98.5648 58.8253C98.4005 58.302 99.1206 57.9772 99.6642 57.905C100.048 57.8541 100.449 57.8048 100.813 57.9364C101.177 58.0681 101.484 58.4427 101.402 58.8209C101.308 59.2539 101.836 59.6573 102.251 59.5044C102.667 59.3514 102.836 58.7831 102.625 58.3933C102.453 58.0749 102.784 57.7096 103.116 57.5658ZM105.341 64.2455C105.18 63.9467 105.179 63.5909 105.178 63.2514C105.171 61.6571 105.073 60.0632 104.885 58.4801C104.875 58.4002 104.86 58.3109 104.795 58.2641C104.738 58.2237 104.662 58.2285 104.593 58.2349C104.257 58.2664 103.858 58.3408 103.725 58.6517C103.668 58.7843 103.675 58.9342 103.682 59.0782C103.768 60.6761 103.853 62.274 103.938 63.8718C103.946 64.0207 103.966 64.1915 104.09 64.2747C104.157 64.32 104.242 64.3284 104.323 64.3329C104.664 64.3515 105.008 64.322 105.341 64.2455ZM99.546 61.7888C99.5043 62.0549 99.4456 62.3193 99.4299 62.5882C99.4038 63.0378 99.4985 63.4847 99.5927 63.925C99.653 64.2074 100.018 64.3464 100.285 64.2375C100.553 64.1286 100.714 63.8433 100.759 63.558C100.803 63.2727 100.751 62.9824 100.706 62.6972C100.527 61.577 100.45 60.4407 100.475 59.3066C100.481 59.0196 100.201 58.7605 99.9158 58.7888C99.6302 58.8171 99.4068 59.1262 99.4694 59.4064C99.6437 60.1863 99.6698 60.9992 99.546 61.7888ZM102.38 60.2585C102.212 60.0384 101.827 60.1556 101.696 60.3995C101.565 60.6433 101.605 60.9391 101.637 61.214C101.722 61.9321 101.73 62.6592 101.661 63.3789C101.641 63.5911 101.619 63.8228 101.736 64.0008C101.916 64.2748 102.311 64.2723 102.637 64.2392C102.74 64.2288 102.857 64.209 102.909 64.12C102.945 64.058 102.936 63.9811 102.927 63.9102C102.776 62.7935 102.626 61.6768 102.475 60.56C102.461 60.4543 102.445 60.3433 102.38 60.2585ZM106.112 60.7383C105.985 60.9109 105.959 61.1356 105.948 61.3494C105.91 62.0824 106.007 62.8149 106.104 63.5424C106.142 63.8291 106.273 64.1975 106.562 64.1779C106.854 64.1581 106.93 63.767 106.924 63.474C106.906 62.698 106.888 61.922 106.87 61.146C106.865 60.9419 106.843 60.7056 106.674 60.5916C106.497 60.4722 106.239 60.5657 106.112 60.7383ZM97.2801 60.555C97.2801 60.555 97.4085 61.5677 97.4533 62.0838C97.5095 62.7316 97.5811 63.3781 97.6681 64.0225C97.6807 64.1161 97.6976 64.2174 97.7666 64.2818C97.8863 64.3935 98.348 64.3193 98.433 64.1794C98.5181 64.0395 98.5133 63.8649 98.5059 63.7014C98.4825 63.1841 98.4591 62.6669 98.4356 62.1496C98.4105 61.5951 98.2787 60.3995 98.2787 60.3995M95.6055 64.2221C95.6424 64.3382 95.686 64.4596 95.7798 64.5372C95.9628 64.6887 96.2597 64.5949 96.404 64.4062C96.5483 64.2174 96.5808 63.9688 96.6083 63.7328C96.6422 63.4432 96.6749 63.1423 96.5812 62.8662C96.4874 62.5902 96.2279 62.3473 95.9375 62.3729C95.6704 62.3965 95.4636 62.6406 95.4013 62.9014C95.339 63.1622 95.3915 63.4357 95.4563 63.6959C95.5004 63.8728 95.5502 64.0484 95.6055 64.2221Z" fill="#E7EAF0"/>
<path fill-rule="evenodd" clip-rule="evenodd" d="M114.416 24.3174C113.78 25.2725 113.09 26.24 112.106 26.8297C111.121 27.4194 109.762 27.5343 108.878 26.8032C107.902 25.9966 107.842 24.5426 107.919 23.2788C107.949 22.7923 107.988 22.3018 108.127 21.8347C108.369 21.0246 108.897 20.3332 109.448 19.6921C110.116 18.9144 110.857 18.1642 111.785 17.7265C112.712 17.2888 113.864 17.212 114.734 17.7565C115.774 18.4084 116.159 19.7949 115.962 21.0067C115.765 22.2184 115.097 23.2957 114.416 24.3174ZM112.396 25.3279C113.198 24.4733 113.886 23.5117 114.436 22.4765C114.798 21.7953 115.106 21.0548 115.091 20.2836C115.077 19.5124 114.67 18.7062 113.954 18.42C113.021 18.0473 111.997 18.6436 111.217 19.2771C110.662 19.7282 110.125 20.223 109.769 20.8433C109.544 21.2355 109.397 21.6671 109.252 22.0955C108.978 22.906 108.7 23.7505 108.805 24.5997C108.909 25.4489 109.517 26.3015 110.368 26.3895C111.155 26.4709 111.854 25.9052 112.396 25.3279Z" fill="#FEBE3F"/>
<path fill-rule="evenodd" clip-rule="evenodd" d="M26.6301 29.5401C27.6267 30.5498 28.4494 31.7307 29.0512 33.0155C29.656 34.3067 29.0462 35.9661 27.8593 36.7561C26.6723 37.546 25.0675 37.5356 23.766 36.9535C22.4645 36.3713 21.4418 35.2849 20.6885 34.0742C20.1206 33.1615 19.6803 32.1386 19.633 31.0647C19.5858 29.9907 19.9812 28.8605 20.8307 28.2019C21.6899 27.5358 22.898 27.4406 23.9371 27.7602C24.9762 28.0799 25.8663 28.7664 26.6301 29.5401ZM22.7415 28.9262C21.8792 28.8374 21.1131 29.6289 20.9652 30.4832C20.8173 31.3375 21.1429 32.2043 21.5642 32.962C22.4779 34.6051 24.1082 36.0646 25.9858 35.9737C26.9511 35.927 28.009 35.2583 27.9919 34.292C27.9845 33.8741 27.7784 33.4886 27.5725 33.1249C27.0256 32.1587 26.4349 31.2024 25.646 30.4212C24.8572 29.6401 23.8458 29.0399 22.7415 28.9262Z" fill="#FEBE3F"/>
<path fill-rule="evenodd" clip-rule="evenodd" d="M64.6646 98.1576C65.0431 97.8699 65.514 97.6837 65.9884 97.7144C66.4628 97.745 66.9324 98.0172 67.1309 98.4492C67.3439 98.913 67.2111 99.4891 66.8788 99.8763C66.5465 100.264 66.0458 100.477 65.5405 100.548C65.1956 100.596 64.7844 100.553 64.5956 100.26C64.5045 100.119 64.4838 99.9452 64.4655 99.7782C64.4326 99.4783 64.3997 99.1784 64.3668 98.8786C64.3529 98.7515 64.3394 98.6197 64.3803 98.4986C64.4284 98.3562 64.5449 98.2485 64.6646 98.1576M66.1622 99.0201C66.2172 98.9778 66.2749 98.932 66.2988 98.8669C66.3757 98.6581 66.0743 98.5194 65.8519 98.5244C65.5292 98.5317 65.1154 98.7491 65.2142 99.0565C65.2713 99.2344 65.4903 99.3167 65.6742 99.284C65.8581 99.2512 66.014 99.1339 66.1622 99.0201H66.1622Z" fill="#25282B"/>
<path fill-rule="evenodd" clip-rule="evenodd" d="M118.286 2.28362C121.236 5.33734 123.564 8.98886 125.088 12.9516C125.192 13.2238 125.294 13.5261 125.194 13.8001C124.425 15.9096 122.942 17.6683 121.487 19.3784L118.698 22.6565C117.81 23.6996 116.923 24.743 116.005 25.7599C111.334 30.9376 105.815 35.465 99.4224 38.2507C99.1811 38.3558 98.9224 38.4607 98.6626 38.4187C98.4028 38.3766 98.1593 38.1244 98.2273 37.8701C99.0177 34.9155 99.813 31.8264 99.1789 28.8343C99.0259 28.1126 98.8553 27.2039 99.4517 26.7696C104.28 23.2536 107.756 18.2278 111.087 13.2703C111.924 12.0238 112.76 10.7738 113.501 9.46763C114.817 7.14853 115.831 4.65798 116.508 2.0789C116.601 1.72498 117.048 1.56561 117.402 1.65836C117.756 1.75111 118.032 2.02044 118.286 2.28362ZM116.222 6.07581C115.922 5.95184 115.646 6.28714 115.493 6.57333C115.353 6.83633 115.213 7.09967 115.072 7.36323L114.997 7.50402C111.941 13.2449 108.839 19.0739 104.182 23.5956C103.742 24.0228 103.25 24.539 103.331 25.1469C103.591 27.0957 102.551 29.1536 100.827 30.0997C100.045 30.5293 100.054 31.6376 100.169 32.5228C100.215 32.8772 100.349 33.3214 100.705 33.3514C101.749 33.4394 102.751 33.9536 103.432 34.7505C103.647 35.0019 104.054 34.8448 104.334 34.6688C111.379 30.2392 116.792 23.6964 122.077 17.2679C122.26 17.0461 122.454 16.7667 122.359 16.4957C121.559 14.2171 121.687 11.6276 122.708 9.43918C122.106 8.24038 121.388 7.09968 120.567 6.03803C119.202 6.63066 117.597 6.64462 116.222 6.07581ZM99.5117 37.0805C99.7895 37.2261 100.126 37.0877 100.404 36.9425C101.135 36.5611 101.838 36.1281 102.508 35.6479C102.685 35.521 102.738 35.2675 102.676 35.0589C102.613 34.8502 102.456 34.682 102.283 34.5503C101.741 34.1391 100.984 34.0309 100.349 34.2741C100.231 34.319 100.115 34.3776 100.034 34.4737C99.9393 34.5863 99.9047 34.7363 99.8743 34.8802C99.7208 35.6078 99.5998 36.3422 99.5117 37.0805ZM119.296 4.55855C118.817 3.62243 118.079 2.82078 117.186 2.2668C116.875 2.54083 116.814 2.95724 116.753 3.38175C116.711 3.67304 116.668 3.96815 116.543 4.2237C116.502 4.30692 116.453 4.38654 116.403 4.46597C116.309 4.6172 116.215 4.76778 116.185 4.94145C116.139 5.20635 116.363 5.53867 116.617 5.45102C116.824 5.37976 117.04 5.42553 117.259 5.4717C117.374 5.49606 117.49 5.52054 117.605 5.52797C118.276 5.57129 118.833 5.04558 119.296 4.55855ZM123.09 10.1693C122.577 11.1894 122.659 12.3943 122.752 13.5323L122.886 15.1643C122.9 15.3438 122.998 15.586 123.171 15.5363C123.278 15.2357 123.483 14.9877 123.688 14.739C123.867 14.5215 124.047 14.3035 124.163 14.0493C124.554 13.1886 124.12 12.1966 123.692 11.3535L123.09 10.1693ZM100.135 28.2832C100.156 28.6024 100.488 28.8414 100.808 28.8324C101.127 28.8234 101.415 28.6165 101.602 28.3568C101.789 28.0971 101.891 27.7877 101.991 27.4838L102.321 26.48C102.413 26.2002 102.419 25.7723 102.126 25.7394C102.02 25.7275 101.919 25.7834 101.833 25.845C101.505 26.0782 101.266 26.4133 101.033 26.7418L100.4 27.6367C100.263 27.8308 100.119 28.0459 100.135 28.2832Z" fill="#25282B"/>
<path fill-rule="evenodd" clip-rule="evenodd" d="M24.5863 25.6039C22.3609 21.5289 20.9403 17.0164 20.4299 12.4014C20.3985 12.1177 20.0856 11.9338 19.8003 11.9437C19.515 11.9536 19.2559 12.1043 19.0133 12.2548C15.5686 14.3908 12.6363 17.3473 10.5286 20.8096C10.3152 21.1601 10.1049 21.5322 10.0779 21.9416C10.0515 22.3435 10.2049 22.7332 10.363 23.1036C12.688 28.5515 16.5653 33.1723 20.5011 37.5986C23.5325 41.0078 26.7776 44.4588 31.0043 46.1748C31.6875 46.4522 32.6798 46.5652 32.9694 45.8871C33.0536 45.6898 33.0491 45.4678 33.0448 45.2532L33.0446 45.245C32.998 42.9464 33.2592 40.6417 33.819 38.4118C33.9485 37.8959 34.0158 37.2001 33.5333 36.9765C31.7185 36.1353 30.4747 34.4392 29.3116 32.8117C27.6401 30.4729 25.9641 28.1269 24.5863 25.6039ZM28.5149 43.4163C28.2649 43.483 28.0152 43.3253 27.8065 43.1724C23.9596 40.3535 20.9784 36.5383 18.0494 32.7743L12.8804 26.132C13.7529 25.5763 13.8637 24.3688 13.8827 23.3344C13.9074 21.9899 13.9254 20.6056 13.4398 19.3516C13.3319 19.0729 13.4724 18.764 13.6229 18.5057C14.2683 17.3982 15.1633 16.4371 16.2222 15.7147C16.3247 15.6447 16.4332 15.5753 16.556 15.5579C16.8803 15.5121 17.1291 15.8275 17.3023 16.1054C17.9867 17.2029 18.9272 18.4442 20.2174 18.3538C20.7087 18.3194 20.9811 18.8981 21.1244 19.3693C22.9066 25.2289 26.2526 30.5141 30.1766 35.2163C30.6865 35.8273 30.8145 36.652 30.9412 37.4692C31.0826 38.3805 31.2225 39.2825 31.8891 39.8684C32.4582 40.3687 32.3526 41.2671 32.199 42.0092C32.1676 42.161 32.1302 42.3237 32.0148 42.4273C31.9292 42.5043 31.8134 42.5364 31.7022 42.5661L28.5149 43.4163ZM19.395 16.9965C18.6893 16.5033 18.0797 15.8732 17.6102 15.1515C17.5087 14.9953 17.41 14.8204 17.4279 14.635C17.4473 14.4334 17.5989 14.2721 17.7498 14.1371C18.1224 13.8036 18.5435 13.5244 18.9957 13.311C19.1613 13.2329 19.3751 13.1694 19.5127 13.2903C19.5937 13.3614 19.6193 13.4751 19.6404 13.5808L20.2922 16.8411C20.3307 17.0338 20.1286 17.2074 19.9321 17.213C19.7357 17.2186 19.5561 17.1091 19.395 16.9965ZM12.9448 23.3023C12.9309 23.9156 12.8841 24.6038 12.4246 25.01C12.3284 25.0215 12.2645 24.9159 12.2269 24.8267C11.8958 24.0429 11.5601 23.2401 11.508 22.3908C11.4558 21.5415 11.7404 20.6218 12.4344 20.1295C12.5283 20.0629 12.666 20.0079 12.7489 20.0878C12.7822 20.1199 12.7965 20.1665 12.8086 20.2112C12.9972 20.9044 12.9823 21.6345 12.9662 22.3527L12.9448 23.3023ZM31.6711 43.7004C31.7826 43.7916 31.7944 43.9547 31.7975 44.0987L31.8306 45.675C31.1841 45.3165 30.5647 44.9091 29.9794 44.4575C29.8685 44.3718 29.7465 44.2331 29.8145 44.1105C29.8482 44.0497 29.9183 44.0204 29.9835 43.9964C30.4018 43.8421 30.8344 43.7264 31.2739 43.6511C31.4097 43.6279 31.5645 43.6131 31.6711 43.7004ZM31.7083 37.4915C31.7024 37.4203 31.7024 37.3427 31.7447 37.2852C31.8563 37.1334 32.0985 37.2708 32.2009 37.429C32.4475 37.8099 32.502 38.3089 32.3433 38.7341C31.9812 38.4235 31.7479 37.967 31.7083 37.4915Z" fill="#25282B"/>
<path fill-rule="evenodd" clip-rule="evenodd" d="M131.617 27.2762C131.576 26.7868 131.249 26.3056 130.773 26.183C130.169 26.0273 129.584 26.4526 129.105 26.8515C128.963 26.9695 128.815 27.0964 128.755 27.2709C128.653 27.5669 128.836 27.8788 129.017 28.1346C129.223 28.4275 129.444 28.7219 129.746 28.9154C130.048 29.109 130.45 29.1842 130.767 29.0159C130.928 28.9302 131.054 28.7902 131.163 28.6436C131.456 28.2496 131.658 27.7655 131.617 27.2762ZM130.278 28.5306C130.073 28.5613 129.861 28.4786 129.71 28.3367C129.485 28.1241 129.395 27.7824 129.474 27.4825C129.557 27.1668 129.822 26.906 130.139 26.8281C130.456 26.7502 130.812 26.8585 131.032 27.0998C131.023 27.1656 131.016 27.2318 131.01 27.298C130.986 27.523 130.963 27.7484 130.885 27.9598C130.784 28.2334 130.566 28.4874 130.278 28.5306Z" fill="#25282B"/>
<path fill-rule="evenodd" clip-rule="evenodd" d="M130.865 24.6196C129.829 24.5943 128.654 24.7111 128.01 25.5228C127.756 25.8427 127.616 26.2382 127.516 26.6342C127.359 27.2538 127.287 27.895 127.304 28.5339C127.311 28.811 127.542 29.0255 127.765 29.1894C128.223 29.5247 128.727 29.7964 129.259 29.9943C129.658 30.1428 130.087 30.2507 130.507 30.1804C130.779 30.1349 131.036 30.0153 131.257 29.8513C131.749 29.4865 132.057 28.9137 132.206 28.3191C132.355 27.7245 132.359 27.1039 132.34 26.4913C132.319 25.818 132.189 25.0171 131.576 24.7377C131.356 24.6373 131.107 24.6256 130.865 24.6196ZM131.701 28.3607C131.388 29.1624 130.508 29.8026 129.681 29.565C129.157 29.4146 128.645 29.1688 128.279 28.7647C127.913 28.3606 127.714 27.7785 127.864 27.2542C127.914 27.079 128 26.9164 128.086 26.7553L128.57 25.8391C128.635 25.7166 128.701 25.5925 128.796 25.4919C128.971 25.3075 129.226 25.2221 129.475 25.1722C129.977 25.0719 130.502 25.0897 130.996 25.2237C131.314 25.3103 131.66 25.4911 131.727 25.815C131.899 26.6584 132.015 27.5589 131.701 28.3607Z" fill="#25282B"/>
<path fill-rule="evenodd" clip-rule="evenodd" d="M119.71 41.0276C119.902 41.3202 119.842 41.7111 119.715 42.037C119.547 42.4665 119.263 42.8645 118.863 43.093C118.462 43.3215 117.936 43.3549 117.546 43.1093C117.156 42.8637 116.96 42.3176 117.169 41.9066C117.217 41.8116 117.283 41.7274 117.349 41.6432C117.413 41.5626 117.476 41.482 117.523 41.3918C117.555 41.3324 117.579 41.2695 117.604 41.2066C117.639 41.1159 117.674 41.0254 117.73 40.9463C117.929 40.665 118.32 40.6097 118.664 40.6146C119.055 40.6201 119.496 40.7009 119.71 41.0276ZM118.838 41.2134C118.304 41.2067 117.803 41.6548 117.75 42.1866C117.728 42.4039 117.821 42.6741 118.037 42.704C118.199 42.7265 118.341 42.6012 118.45 42.4791C118.681 42.2208 118.879 41.9335 119.038 41.6261C119.091 41.523 119.138 41.3906 119.068 41.2981C119.017 41.2307 118.923 41.2145 118.838 41.2134Z" fill="#25282B"/>
<path fill-rule="evenodd" clip-rule="evenodd" d="M120.581 40.1655C120.053 39.5592 119.366 39.0935 118.607 38.8287C118.193 38.6843 117.729 38.601 117.321 38.7633C117.072 38.8625 116.867 39.0449 116.673 39.23C116.191 39.6903 115.736 40.206 115.504 40.8307C115.32 41.3245 115.285 41.8602 115.278 42.387C115.275 42.6 115.278 42.8187 115.355 43.0173C115.466 43.3055 115.72 43.5126 115.975 43.6872C116.456 44.0163 116.981 44.2796 117.533 44.4672C118.01 44.6295 118.521 44.7358 119.017 44.6471C119.962 44.478 120.651 43.6414 121.051 42.7683C121.157 42.5378 121.249 42.2983 121.284 42.0471C121.38 41.363 121.034 40.6866 120.581 40.1655ZM120.163 41.3246C120.25 42.0912 119.931 42.8778 119.382 43.4204C119.046 43.7538 118.614 44.0063 118.144 44.0658C117.674 44.1252 117.166 43.9718 116.855 43.614C116.37 43.0554 116.142 42.2809 116.249 41.5484C116.355 40.8158 116.794 40.1381 117.418 39.7409C117.564 39.6481 117.72 39.5696 117.887 39.5234C118.196 39.438 118.53 39.4683 118.832 39.5771C119.557 39.8388 120.076 40.5581 120.163 41.3246Z" fill="#25282B"/>
<path fill-rule="evenodd" clip-rule="evenodd" d="M143.821 61.7112C143.633 61.781 143.424 61.7333 143.234 61.6734C141.942 61.2674 140.894 60.3596 139.863 59.4673L139.862 59.4664L139.861 59.4655C139.722 59.3453 139.584 59.2253 139.445 59.107C137.737 57.6503 135.884 56.3643 133.922 55.2744C133.723 55.1635 133.513 55.0468 133.391 54.8539C133.269 54.6611 133.272 54.3674 133.461 54.2387C134.341 53.6379 134.911 52.6069 134.953 51.5422C134.964 51.2585 135.285 51.0693 135.568 51.0921C135.851 51.1148 136.098 51.2849 136.329 51.4492L145.295 57.8144C145.469 57.9383 145.657 58.0819 145.7 58.2916C145.735 58.4628 145.663 58.636 145.591 58.7951C145.205 59.6485 144.76 60.4755 144.261 61.2686C144.148 61.4482 144.019 61.6371 143.821 61.7112ZM134.851 54.1603C134.745 54.3462 134.654 54.6151 134.825 54.7437L142.141 60.2531C142.542 60.5549 143.165 60.8376 143.48 60.4477C143.842 59.9999 144.181 59.5328 144.493 59.049C144.579 58.9166 144.666 58.7654 144.635 58.6108C144.607 58.4697 144.488 58.3673 144.377 58.2767C141.692 56.0993 138.849 54.1166 135.878 52.3494L134.851 54.1603Z" fill="#25282B"/>
<path fill-rule="evenodd" clip-rule="evenodd" d="M131.21 57.5295C131.328 57.3268 131.471 57.105 131.701 57.0553C131.876 57.0172 132.054 57.0923 132.216 57.1708C133.097 57.5987 133.904 58.1786 134.59 58.8773C134.755 59.0454 134.776 59.316 134.702 59.5399C134.629 59.7638 134.477 59.9522 134.329 60.1352C134.09 60.4293 133.836 60.7352 133.483 60.8748C133.103 61.0254 132.661 60.9528 132.301 60.7589C131.941 60.5651 131.652 60.2618 131.398 59.9419C131.066 59.5247 130.768 59.0243 130.82 58.4934C130.854 58.1456 131.034 57.8314 131.21 57.5295ZM132.751 59.8656C133.305 60.0811 133.659 59.9103 133.674 59.5469C133.683 59.3176 133.483 59.141 133.301 59.0011L132.751 58.5777C132.569 58.4378 132.368 58.2913 132.139 58.2927C131.909 58.2942 131.676 58.5308 131.77 58.7402C131.755 58.8413 132.197 59.6501 132.751 59.8656Z" fill="#25282B"/>
<path fill-rule="evenodd" clip-rule="evenodd" d="M130.564 64.3391C130.699 64.4131 130.842 64.4855 130.996 64.4887C131.15 64.492 131.317 64.4047 131.355 64.2554C131.444 63.9048 131.676 63.6142 131.903 63.3297C131.927 63.2986 131.952 63.2677 131.977 63.2367C132.225 62.9219 132.465 62.5654 132.472 62.1643C132.479 61.7633 132.146 61.3358 131.749 61.3906C131.436 61.4337 131.145 61.2285 130.918 61.009C130.905 60.997 130.893 60.9849 130.88 60.9727C130.857 60.9493 130.833 60.9257 130.809 60.9021C130.619 60.7123 130.426 60.5194 130.173 60.437C129.873 60.3391 129.463 60.4949 129.44 60.81C129.392 61.4447 128.864 61.9226 128.375 62.3297C128.228 62.4515 128.361 62.6853 128.498 62.8177C129.114 63.4139 129.811 63.9271 130.564 64.3391ZM130.661 63.1297L129.698 62.4778C129.453 62.312 129.473 61.9059 129.691 61.7064C129.909 61.5069 130.249 61.4916 130.527 61.5915C130.806 61.6914 131.038 61.8873 131.263 62.0793C131.411 62.2065 131.432 62.4379 131.364 62.6215C131.296 62.8051 131.157 62.9522 131.022 63.0938C130.976 63.1423 130.924 63.1937 130.857 63.2023C130.787 63.2114 130.72 63.1696 130.661 63.1297Z" fill="#25282B"/>
<path fill-rule="evenodd" clip-rule="evenodd" d="M138.301 63.1726L138.772 62.1714C138.916 61.8648 139.056 61.4854 138.861 61.2082C138.794 61.1119 138.694 61.044 138.596 60.9783L136.882 59.8229C136.697 59.6983 136.497 59.5688 136.274 59.5723C136.01 59.5765 135.788 59.7651 135.601 59.9511C135.32 60.2297 135.057 60.5267 134.815 60.8396C134.631 61.0779 134.479 61.4698 134.731 61.6351L137.354 63.3564C137.561 63.4922 137.824 63.6318 138.042 63.5135C138.169 63.4441 138.239 63.3041 138.301 63.1726ZM137.72 62.4638C137.609 62.4892 137.494 62.4612 137.386 62.4286C136.724 62.229 136.118 61.8467 135.652 61.3352C135.497 61.165 135.585 60.8646 135.782 60.7453C135.978 60.6261 136.234 60.6535 136.446 60.7425C136.583 60.8001 136.709 60.8802 136.834 60.9605C136.903 61.0044 136.972 61.0485 137.043 61.0888C137.119 61.1321 137.198 61.172 137.278 61.2118C137.503 61.3248 137.729 61.4379 137.883 61.6334C138.09 61.8979 138.047 62.3885 137.72 62.4638Z" fill="#25282B"/>
<path fill-rule="evenodd" clip-rule="evenodd" d="M138.606 63.5822C138.908 63.5103 139 63.2021 139.096 62.8816C139.176 62.6168 139.257 62.3437 139.462 62.1888C139.815 61.9222 140.315 62.145 140.695 62.3711L141.903 63.0901C142.095 63.2047 142.293 63.3232 142.431 63.4997C142.569 63.6761 142.637 63.9261 142.54 64.1283C142.476 64.2633 142.354 64.3528 142.231 64.4429C142.13 64.5168 142.029 64.5912 141.958 64.6914C141.867 64.8202 141.834 64.9815 141.8 65.1409C141.758 65.341 141.717 65.5381 141.564 65.6639C141.286 65.8931 140.873 65.7094 140.565 65.5215L138.863 64.481C138.691 64.376 138.51 64.2608 138.425 64.0781C138.341 63.8953 138.41 63.6288 138.606 63.5822ZM140.838 64.6154C141.081 64.5321 141.277 64.3513 141.465 64.1753C141.602 64.0478 141.419 63.8378 141.257 63.7462L140.214 63.1588C140.105 63.0975 139.953 63.0417 139.869 63.1337C139.597 63.4302 139.558 63.9141 139.778 64.2507C139.998 64.5874 140.457 64.7453 140.838 64.6154Z" fill="#25282B"/>
<path fill-rule="evenodd" clip-rule="evenodd" d="M128.87 64.5789C128.637 64.5131 128.399 64.4461 128.208 64.316C127.912 64.114 127.5 64.1629 127.189 64.3415C126.878 64.52 126.646 64.8062 126.422 65.0858C126.298 65.241 126.17 65.4029 126.122 65.596C126.075 65.7892 126.131 66.0233 126.305 66.1202L128.124 67.1341C128.262 67.2109 128.416 67.2903 128.569 67.2561C128.723 67.2222 128.828 67.086 128.921 66.9589L129.389 66.3149C129.649 65.9564 129.921 65.4995 129.731 65.0994C129.578 64.7787 129.229 64.6802 128.87 64.5789ZM128.294 66.2471C128.199 66.2723 128.101 66.2264 128.014 66.1818L126.775 65.5511C127.013 65.2139 127.466 65.0845 127.877 65.1253C128.288 65.1661 128.669 65.3488 129.041 65.5286L128.471 66.1201C128.42 66.1731 128.366 66.2283 128.294 66.2471Z" fill="#25282B"/>
<path fill-rule="evenodd" clip-rule="evenodd" d="M114.022 104.856C115.135 100.916 117.238 97.3405 119.318 93.8147C119.67 93.2187 120.106 92.5623 120.789 92.4493C121.058 92.4047 121.2 92.1122 121.291 91.8552C122.42 88.6895 122.529 85.1689 121.598 81.9395C121.332 81.0177 121.659 80.0405 121.983 79.1374L124.489 72.1458C124.228 71.695 123.735 71.497 123.236 71.2963C122.818 71.1284 122.396 70.9587 122.102 70.6378C121.27 69.731 121.897 68.2893 122.549 67.2455L133.971 48.9506C134.438 48.2034 135.462 47.9693 136.32 48.1683C137.177 48.3674 137.91 48.9074 138.616 49.4346L146.946 55.6576C148.437 56.7709 150.082 58.193 149.996 60.0514C149.949 61.0798 149.36 61.994 148.791 62.8518L142.189 72.8016C141.335 74.0882 141.232 75.6523 141.128 77.2237C141.081 77.9343 141.033 78.6464 140.917 79.335C140.347 82.6943 138.111 85.4763 135.967 88.1418C135.882 88.2481 135.797 88.3544 135.711 88.4604C133.493 91.2233 131.274 94.3084 131.149 97.8495C131.001 102.07 128.996 106.192 125.768 108.914L128.577 102.099C129.245 100.478 129.864 98.4612 128.746 97.1108C128.24 96.4998 127.475 96.1766 126.741 95.8755L122.379 94.0853C122.078 93.9618 121.768 93.8365 121.442 93.8345C120.429 93.8283 119.826 94.9277 119.415 95.8543C117.993 99.0598 116.178 102.09 114.022 104.856ZM128.367 95.5998C129.115 95.8768 130.169 96.045 130.523 95.3304C132.239 91.8716 134.001 88.3463 136.732 85.6171C138.306 84.0441 139.271 81.9452 139.817 79.7878C140.363 77.6304 140.518 75.3961 140.67 73.1759C140.007 73.4172 139.95 74.3116 139.952 75.0169C139.959 76.5718 139.687 78.1274 139.154 79.588C139.042 79.8937 138.892 80.2241 138.594 80.353C138.295 80.482 137.855 80.2229 137.955 79.9134C138.726 77.5375 139.013 75.0059 138.794 72.5177C138.726 71.7462 138.583 70.921 138.034 70.3743C138.094 71.5923 138.153 72.8159 138.03 74.0292C137.816 76.1284 137.064 78.1298 136.318 80.1035C136.221 80.3598 136.104 80.6391 135.858 80.7595C135.612 80.88 135.23 80.6891 135.294 80.4228L136.411 75.8047C137.025 73.2655 137.629 70.5341 136.679 68.1009C136.2 68.0688 136.087 68.7535 136.13 69.2316C136.423 72.5062 135.517 75.7564 134.621 78.9195C134.517 79.2888 134.146 79.7506 133.859 79.4966C133.735 79.3871 133.729 79.1983 133.739 79.0331C133.795 78.1029 134.05 77.2024 134.305 76.3029C134.384 76.0237 134.463 75.7446 134.536 75.4647C135.21 72.885 135.381 70.1753 135.039 67.5313C134.449 68.2877 134.199 69.247 133.962 70.1768L132.56 75.6963C131.927 78.1913 131.117 80.9343 128.919 82.2747C128.744 82.3815 128.541 82.4807 128.342 82.4334C128.094 82.3746 127.953 82.1184 127.85 81.8855C126.447 78.7259 126.272 75.0397 127.369 71.7613C127.435 71.5623 127.233 71.3544 127.024 71.3379C126.814 71.3215 126.619 71.4354 126.447 71.5564C124.648 72.8262 123.959 75.1264 123.386 77.2532L122.625 80.0812C122.514 80.4943 122.402 80.9111 122.379 81.3382C122.344 81.9873 122.513 82.6225 122.682 83.2543C122.721 83.4007 122.76 83.547 122.796 83.6932C123.528 86.6313 123.198 89.8223 121.879 92.5478C121.684 92.9496 122.198 93.3151 122.616 93.4701L128.367 95.5998ZM131.21 68.6104C130.91 68.4037 130.589 68.1677 130.496 67.8154C130.354 67.275 130.868 66.7322 131.422 66.6595C131.976 66.5868 132.518 66.8543 132.977 67.1727C133.624 67.6213 134.442 66.9373 134.926 66.3167C134.273 65.9259 133.65 65.3194 133.624 64.5586C133.599 63.7979 134.523 63.0732 135.139 63.521C135.378 63.6947 135.667 63.801 135.952 63.9062C136.381 64.0637 136.801 64.2186 137.036 64.5935C137.303 65.0199 137.208 65.5965 136.937 66.0199C136.665 66.4434 136.246 66.7473 135.838 67.0409C136.424 67.0991 136.995 67.3082 137.48 67.6426L138.009 66.1014C138.05 65.9819 138.095 65.8569 138.189 65.7725C138.37 65.6098 138.652 65.6601 138.884 65.7338C139.493 65.927 140.09 66.2288 140.492 66.7255C140.894 67.2221 141.062 67.9436 140.781 68.5175C140.5 69.0914 139.707 69.3975 139.17 69.0514C139.059 68.9796 138.947 68.8837 138.835 68.7877C138.535 68.5312 138.236 68.2747 137.947 68.48C138.83 69.1672 139.436 70.1996 139.606 71.3051C142.384 67.0732 145.132 62.8218 147.85 58.5512C148.109 58.1435 148.318 57.5009 147.896 57.2665C146.091 56.2651 144.495 54.9238 142.904 53.5858C140.895 51.8968 138.892 50.2129 136.481 49.2241C136.328 49.1613 136.161 49.1006 136.001 49.1428C135.833 49.187 135.715 49.3328 135.61 49.4704C131.121 55.3304 127.092 61.543 123.572 68.0321C123.081 68.9374 123.738 70.0165 124.367 70.8322C124.681 71.2398 125.288 71.6703 125.63 71.2864C126.062 70.8024 126.77 70.5258 127.381 70.7419C127.992 70.958 128.373 71.7532 128.04 72.31C127.8 72.7127 128.271 73.1604 128.682 73.3857C129.504 73.836 130.347 74.2476 131.208 74.6186C131.327 74.6702 131.466 74.7208 131.583 74.6624C131.694 74.6068 131.739 74.4747 131.773 74.3556L132.727 71.075C132.884 70.5355 132.988 69.8353 132.526 69.5166L131.21 68.6104ZM148.264 59.4141C148.137 59.3707 148.022 59.4974 147.947 59.6087L140.809 70.2949C140.617 70.5823 140.421 70.8813 140.365 71.2224C140.309 71.5635 140.434 71.9602 140.744 72.1121C141.258 72.3636 141.796 71.8351 142.126 71.3675L148.758 61.9668C149.251 61.2688 148.834 60.3146 148.412 59.5716C148.376 59.5073 148.334 59.4381 148.264 59.4141ZM128.167 73.6839C128.041 73.5924 127.853 73.647 127.748 73.7614C127.643 73.8759 127.6 74.0326 127.56 74.1829C127.463 74.553 127.365 74.9267 127.35 75.3091C127.336 75.6915 127.405 76.0715 127.474 76.4479L128.158 80.1639C128.187 80.3197 128.22 80.4852 128.331 80.5988C128.441 80.7123 128.656 80.7369 128.746 80.6062C129.757 79.1264 130.783 77.6177 131.313 75.9049C131.378 75.692 131.397 75.3926 131.189 75.3141C130.114 74.9098 129.095 74.3598 128.167 73.6839ZM136.06 64.5153C135.718 64.1889 135.265 63.9804 134.794 63.9324C134.365 63.8886 134.118 64.4915 134.313 64.8758C134.509 65.2602 134.942 65.4506 135.342 65.6111C135.625 65.7244 135.968 65.8312 136.214 65.6523C136.568 65.3952 136.377 64.8171 136.06 64.5153ZM133.243 68.8214C133.382 68.722 133.4 68.5188 133.361 68.3519C133.214 67.7229 132.524 67.4016 131.905 67.2173C131.666 67.1461 131.368 67.0964 131.199 67.2807C131.058 67.4345 131.088 67.6893 131.21 67.8588C131.331 68.0284 131.521 68.1329 131.705 68.2319L132.661 68.747C132.843 68.8449 133.074 68.9411 133.243 68.8214ZM138.684 66.5544C138.481 66.8255 138.502 67.2197 138.671 67.513C138.84 67.8062 139.132 68.0098 139.441 68.1484C139.547 68.196 139.663 68.2378 139.777 68.2151C139.875 68.1956 139.958 68.1296 140.018 68.0498C140.239 67.7545 140.132 67.3098 139.879 67.0417C139.626 66.7735 139.266 66.6392 138.919 66.5135C138.859 66.4918 138.789 66.4708 138.735 66.5036C138.714 66.516 138.698 66.535 138.684 66.5544Z" fill="#25282B"/>
<path d="M49.2667 33.8644C49.6289 33.8537 50.112 33.9485 50.1375 34.3099L44.3972 35.1275C44.0878 35.1716 43.7411 35.2067 43.4922 35.0178C43.2433 34.8288 43.2683 34.3287 43.5785 34.2912C45.4668 34.0627 47.3655 33.9203 49.2667 33.8644Z" fill="#25282B"/>
<path d="M44.4956 36.4795C44.31 36.5005 44.0761 36.5678 44.0597 36.754C44.0388 36.9924 44.3777 37.0609 44.6159 37.0378L56.0696 35.9262C56.2191 35.9117 56.3874 35.8869 56.4751 35.7649C56.5941 35.5994 56.4767 35.3499 56.2944 35.2587C56.1122 35.1674 55.8964 35.1882 55.6939 35.2111L44.4956 36.4795Z" fill="#25282B"/>
<path fill-rule="evenodd" clip-rule="evenodd" d="M42.775 91.1319C42.9074 90.1533 43.093 89.0763 43.8618 88.4565C44.4748 87.9623 45.3164 87.8835 46.1037 87.8683C48.6826 87.8188 51.2698 88.2376 53.7015 89.0984C54.4707 89.3707 55.2758 89.7293 55.6964 90.4286C56.1517 91.1857 56.0407 92.1406 55.9148 93.0151L53.9618 106.584C55.3084 102.655 56.2753 98.5948 56.8444 94.48C57.1099 92.5603 57.2025 90.3574 55.8628 88.9572C53.7715 86.7714 53.8286 83.6579 53.8866 80.4921C53.9366 77.76 53.9874 74.9888 52.6585 72.7415C52.2249 72.0082 53.1916 71.2512 53.9956 70.9697C57.5393 69.7287 61.3169 69.1593 65.0689 69.3006C65.7568 74.7351 65.9429 80.233 65.6241 85.7016C65.5526 86.928 67.2917 87.2445 68.5126 87.1091L110.867 82.412C111.079 82.3885 111.309 82.3569 111.459 82.2057C111.634 82.0292 111.643 81.7516 111.64 81.5027C111.54 71.5779 111.255 61.6549 110.784 51.7407C110.765 51.3538 110.716 50.9095 110.396 50.6916C110.156 50.5283 109.84 50.5499 109.551 50.578L79.3196 53.5089C81.3056 44.1411 83.3029 34.5974 82.3971 25.0642C75.7884 29.471 67.2607 29.4379 59.3315 28.9713C59.002 28.9519 58.6717 28.9321 58.3408 28.9124C50.7101 28.4563 42.7526 27.9806 35.8927 31.2819C39.4846 40.8065 43.1176 51.203 40.1319 60.9347C39.8678 61.7957 39.5534 62.6414 39.2393 63.4868C38.7549 64.7902 38.2709 66.0926 37.9716 67.4485C37.4781 69.6837 37.5523 72.1865 38.875 74.0546C40.7903 76.7599 42.3124 79.8359 42.6595 83.1324C42.989 86.2607 42.2528 89.3632 41.5176 92.4622C40.7493 95.7002 39.982 98.9343 40.4319 102.19C40.5081 102.741 40.6456 103.333 41.0767 103.684L42.775 91.1319ZM49.1567 65.6237L48.9629 61.3085C48.9278 60.5282 48.0174 60.0561 47.805 59.946L47.8043 59.9456C46.2209 59.1246 43.9934 60.5181 44.0389 62.3013C42.7047 59.7257 42.502 56.774 42.3013 53.8521C42.2576 53.2164 42.2141 52.5822 42.159 51.9535C41.5699 45.2312 39.5442 38.729 37.531 32.2883C37.2439 31.3699 38.4839 30.7743 39.4358 30.6347C45.6828 29.7187 52.0052 29.8452 58.3305 29.9717C61.1976 30.0291 64.0654 30.0865 66.9269 30.0468C72.0115 29.9762 77.3916 29.4949 81.5161 26.5202C82.4432 32.7009 81.1832 38.9369 79.9391 45.0943C79.7708 45.9272 79.6028 46.7587 79.4405 47.5884C78.0787 54.5518 77.1519 61.9743 79.7573 68.5738C79.8671 68.8519 79.4928 69.0616 79.2002 69.1227C77.0573 69.5697 74.8416 69.666 72.668 69.4065C71.7356 69.2952 70.8131 69.1193 69.8903 68.9434C69.1954 68.8109 68.5004 68.6784 67.8011 68.5734C62.5362 67.7834 57.0408 68.6034 52.2358 70.8962C52.0432 70.9881 51.8142 70.9451 51.6126 70.8753C50.6394 70.5383 49.9452 69.6392 49.5989 68.6693C49.2525 67.6994 49.2029 66.6525 49.1567 65.6237ZM69.8724 69.8664C70.3208 69.9559 70.872 70.1558 70.8997 70.6123C71.1641 74.9658 74.6235 78.8779 78.8767 79.8414C83.1299 80.805 87.8435 78.8565 90.3234 75.2689C92.8034 71.6813 92.9976 66.6975 90.964 62.8393C88.7832 58.7015 83.4834 56.5042 79.015 57.8851C78.8077 56.9707 78.831 56.005 79.0823 55.1017C79.129 54.934 79.1898 54.7586 79.3251 54.6491C79.4574 54.5422 79.6361 54.5178 79.805 54.4975L92.3922 52.9812C93.4989 52.8479 94.6083 52.7144 95.7228 52.7052C100.516 52.6657 105.305 52.1878 110.012 51.2792C110.743 61.1001 111.087 70.9498 111.043 80.7977C111.041 81.2649 110.898 81.8857 110.432 81.8993C102.51 82.1301 94.6504 83.1723 86.7879 84.2149C81.5054 84.9153 76.2215 85.616 70.9164 86.0709C69.7339 86.1722 68.5434 86.2614 67.3619 86.1488C67.1478 86.1284 66.9063 86.0847 66.7899 85.9037C66.7197 85.7946 66.7118 85.6581 66.706 85.5284L65.9996 69.7768C65.9905 69.5733 66.0028 69.3279 66.179 69.2257C66.2958 69.158 66.442 69.1823 66.5744 69.2087L69.8724 69.8664ZM48.1991 66.2196C48.0739 67.0377 47.9331 67.9582 48.469 68.5771C50.4679 70.886 52.5445 73.3527 53.0758 76.3601C53.3239 77.7645 53.2173 79.2099 53.1112 80.6495C52.9775 82.4627 52.8444 84.2667 53.4219 85.9678C53.4369 86.0121 53.4525 86.0566 53.4681 86.1012C53.5742 86.4044 53.6823 86.7135 53.6479 87.0301C53.6084 87.3933 53.2933 87.7586 52.9333 87.6965L48.7545 86.9757C47.3706 86.737 45.9086 86.5048 44.5941 86.9988C44.3399 87.0944 44.0474 86.9267 43.9112 86.6918C43.775 86.4569 43.7571 86.1741 43.7453 85.9029C43.731 85.5754 43.7203 85.2456 43.7096 84.9147C43.6421 82.8341 43.5733 80.7146 42.6104 78.8916L39.5382 73.0753C39.0846 72.2166 38.6205 71.3197 38.5892 70.3491C38.5683 69.701 38.7433 69.0643 38.9167 68.4394L40.4494 62.918C40.772 61.7556 41.1134 60.5562 41.8775 59.6228C43.7339 62.7725 43.9171 66.8475 42.3508 70.1512C42.2059 70.4568 42.6485 70.7715 42.9641 70.6497C43.2796 70.5279 43.4398 70.1822 43.551 69.8628C43.9965 68.5834 44.1528 67.2345 44.3092 65.8838C44.4358 64.7909 44.5625 63.6967 44.8427 62.637C45.0144 61.9878 45.2621 61.3251 45.7633 60.8783C46.2645 60.4315 47.082 60.2785 47.6073 60.6968C48.0092 61.017 48.1399 61.564 48.2163 62.0722C48.4181 63.413 48.4171 64.7841 48.2136 66.1245C48.2088 66.1561 48.204 66.1878 48.1991 66.2196ZM81.0359 75.0349C78.9857 74.9927 77.2094 73.3198 76.6007 71.3614C76.4764 70.9616 76.7349 70.5229 77.0914 70.3034C77.4479 70.0838 77.8792 70.032 78.2953 69.9852L81.2993 69.6477C80.3857 67.8719 79.7351 65.9611 79.3751 63.9967C79.3424 63.8185 79.3126 63.6314 79.369 63.4592C79.4678 63.1569 79.7936 62.9978 80.095 62.8964C82.5357 62.0761 85.4664 63.072 86.9016 65.21C88.3368 67.3479 88.1486 70.4383 86.4641 72.3858C85.7348 73.2291 84.7792 73.8514 83.7725 74.3303C82.914 74.7386 81.9863 75.0545 81.0359 75.0349ZM90.7646 64.4798C91.1293 65.6845 91.2347 66.9518 91.2849 68.2096C90.4657 68.0855 89.6383 68.0151 88.81 67.9989C88.6479 65.8833 87.24 63.9718 85.3891 62.9349C83.5381 61.8981 81.304 61.674 79.2123 62.029C79.1947 61.7308 79.1403 61.4196 79.0859 61.1084C78.9425 60.2872 78.799 59.466 79.3299 58.8831C79.6506 58.531 80.1391 58.3902 80.6073 58.3029C82.7397 57.9056 85.0135 58.3219 86.8668 59.449C88.7202 60.5761 90.1361 62.4035 90.7646 64.4798ZM75.7284 71.1479C75.7251 71.187 75.7217 71.2254 75.72 71.2621C75.7061 71.5544 75.8423 71.8226 75.9772 72.088C76.0134 72.1591 76.0494 72.2301 76.0824 72.3012C76.2387 72.6379 76.3144 73.0814 76.0532 73.3451C75.4213 73.983 74.8628 74.6938 74.3924 75.4587C74.2761 75.6479 73.9898 75.6634 73.7985 75.5506C73.6072 75.4377 73.4885 75.2366 73.378 75.0439C72.6788 73.8246 71.9621 72.5492 71.8749 71.1464C71.8641 70.9719 71.8832 70.7608 72.0379 70.6795C72.1061 70.6436 72.1865 70.6426 72.2635 70.6423L75.3906 70.6328C75.4653 70.6326 75.544 70.6334 75.6089 70.6703C75.7623 70.7575 75.7448 70.96 75.7284 71.1479Z" fill="#25282B"/>
<path d="M54.292 44.4755C53.7574 44.1604 53.1463 44 52.4752 44H49.9273C49.6708 44 49.4526 44.0917 49.2726 44.275C49.0925 44.4583 48.9998 44.699 48.9998 44.974V54.026C48.9998 54.2953 49.0925 54.5302 49.2671 54.7193C49.4471 54.9083 49.6654 55 49.9273 55C50.1946 55 50.4183 54.9026 50.5984 54.7135C50.7675 54.5245 50.8548 54.2953 50.8548 54.026V51.3792H52.4752C53.1463 51.3792 53.7574 51.2245 54.292 50.9151C54.8322 50.6057 55.2523 50.1703 55.5524 49.6203C55.8524 49.0703 55.9998 48.4401 55.9998 47.7411C55.9998 47.0307 55.847 46.3833 55.5524 45.8161C55.2523 45.249 54.8267 44.7964 54.292 44.4755ZM54.1938 47.7411C54.1938 48.274 54.0356 48.6979 53.7137 49.0359C53.3863 49.374 52.9826 49.5344 52.4752 49.5344H50.8548V45.8391H52.4752C52.9826 45.8391 53.3863 46.0109 53.7082 46.3661C54.0356 46.7271 54.1938 47.1797 54.1938 47.7411Z" fill="#D7373F"/>
<path d="M64.3776 46.6641C63.9628 45.8333 63.3718 45.1745 62.6252 44.7047C61.8786 44.2349 61.0179 44 60.0691 44H57.8812C57.6375 44 57.4301 44.0917 57.259 44.275C57.0879 44.4583 56.9998 44.699 56.9998 44.974V54.026C56.9998 54.2953 57.0879 54.5302 57.2538 54.7193C57.4249 54.9083 57.6323 55 57.8812 55H60.0691C61.0231 55 61.8786 54.7651 62.6252 54.2953C63.3718 53.8255 63.9628 53.1667 64.3776 52.3302C64.7924 51.4995 64.9998 50.5427 64.9998 49.4943C64.9998 48.4458 64.7924 47.4891 64.3776 46.6641ZM60.0691 53.2125H58.7626V45.7875H60.0691C60.6913 45.7875 61.2512 45.9479 61.7386 46.2573C62.2259 46.5667 62.6044 47.0078 62.8792 47.5635C63.154 48.125 63.2888 48.7724 63.2888 49.4885C63.2888 50.2047 63.1488 50.8578 62.8792 51.425C62.6096 51.9865 62.2259 52.4276 61.7386 52.737C61.2512 53.0521 60.6861 53.2125 60.0691 53.2125Z" fill="#D7373F"/>
<path d="M67.859 55C68.0952 55 68.3013 54.9026 68.4671 54.7193C68.6329 54.5302 68.7133 54.301 68.7133 54.026V50.3766H71.8339C72.0701 50.3766 72.2711 50.2906 72.4269 50.1187C72.5877 49.9469 72.6731 49.7177 72.6731 49.4542C72.6731 49.1906 72.5877 48.9615 72.4269 48.7896C72.2661 48.6177 72.0701 48.5318 71.8339 48.5318H68.7133V45.8391H73.1606C73.4018 45.8391 73.6028 45.7531 73.7586 45.5927C73.9194 45.4266 73.9998 45.1974 73.9998 44.9339C73.9998 44.6646 73.9194 44.4297 73.7586 44.2578C73.6028 44.0859 73.4018 44 73.1555 44H67.854C67.6178 44 67.4168 44.0917 67.251 44.275C67.0852 44.4583 66.9998 44.699 66.9998 44.974V54.026C66.9998 54.2953 67.0852 54.5302 67.246 54.7193C67.4168 54.9026 67.6178 55 67.859 55Z" fill="#D7373F"/>
</svg>
