<svg width="38" height="50" viewBox="0 0 38 50" fill="none" xmlns="http://www.w3.org/2000/svg">
<path d="M25.9 0C26.15 0 26.4 0.1 26.6 0.3L36.71 10.4C36.91 10.6 37 10.85 37 11.11V45C37 47.75 34.75 50 32 50H5C2.25 50 0 47.75 0 45V5C0 2.25 2.25 0 5 0H25.9Z" fill="white"/>
<path d="M37.21 10.4L36.86 10.05L35.57 8.76L28.8 2L27.1 0.3C26.9 0.1 26.65 0 26.4 0H5C2.25 0 0 2.25 0 5V45C0 47.75 2.25 50 5 50H32.5C35.25 50 37.5 47.75 37.5 45V11.11C37.5 10.85 37.41 10.6 37.21 10.4ZM34.03 10.05H30C28.59 10.05 27.45 8.91 27.45 7.5V3.47L34.03 10.05ZM35.5 45C35.5 46.66 34.15 48 32.5 48H5C3.34 48 2 46.66 2 45V5C2 3.35 3.34 2 5 2H25V7.5C25 10.25 27.25 12.5 30 12.5H35.5V45Z" fill="#25282B"/>
<path d="M10.82 23.27C10.32 22.99 9.73996 22.84 9.10996 22.84H6.70996C6.46996 22.84 6.25996 22.92 6.08996 23.08C5.91996 23.24 5.82996 23.46 5.82996 23.71V31.83C5.82996 32.07 5.90996 32.28 6.07996 32.45C6.24996 32.62 6.45996 32.7 6.69996 32.7C6.94996 32.7 7.16996 32.61 7.32996 32.44C7.48996 32.27 7.56996 32.06 7.56996 31.82V29.44H9.09996C9.72996 29.44 10.31 29.3 10.81 29.03C11.32 28.75 11.72 28.36 12 27.87C12.28 27.38 12.42 26.81 12.42 26.19C12.42 25.55 12.28 24.97 12 24.46C11.73 23.96 11.33 23.56 10.82 23.27ZM10.73 26.2C10.73 26.68 10.58 27.06 10.28 27.36C9.96996 27.66 9.58996 27.81 9.10996 27.81H7.57996V24.5H9.10996C9.58996 24.5 9.96996 24.66 10.27 24.97C10.58 25.3 10.73 25.7 10.73 26.2Z" fill="#25282B"/>
<path d="M20.45 23.09C20.28 23.25 20.19 23.47 20.19 23.72V29.54L15.4 23.16C15.32 23.07 15.22 23 15.11 22.94C14.75 22.76 14.37 22.85 14.12 23.09C13.96 23.25 13.87 23.47 13.87 23.72V31.84C13.87 32.09 13.95 32.3 14.12 32.47C14.45 32.8 15.04 32.8 15.37 32.46C15.53 32.29 15.61 32.08 15.61 31.84V26.04L20.38 32.39C20.46 32.51 20.57 32.59 20.71 32.65C20.83 32.7 20.95 32.72 21.07 32.72C21.31 32.72 21.52 32.64 21.69 32.47C21.85 32.3 21.94 32.09 21.94 31.84V23.72C21.94 23.47 21.86 23.26 21.69 23.09C21.35 22.77 20.78 22.77 20.45 23.09Z" fill="#25282B"/>
<path d="M30.77 27.36H28.53C28.28 27.36 28.08 27.43 27.91 27.58C27.74 27.73 27.65 27.93 27.65 28.16C27.65 28.39 27.74 28.59 27.91 28.74C28.07 28.89 28.28 28.96 28.53 28.96H29.94V30.71C28.87 31.36 27.63 31.35 26.67 30.75C26.18 30.45 25.79 30.03 25.51 29.51C25.22 28.99 25.08 28.41 25.08 27.78C25.08 27.16 25.23 26.58 25.51 26.06C25.8 25.54 26.19 25.12 26.67 24.81C27.15 24.51 27.69 24.36 28.26 24.36C28.72 24.36 29.1 24.42 29.38 24.53C29.66 24.64 29.96 24.83 30.27 25.1C30.63 25.4 31.11 25.37 31.42 25.09C31.59 24.94 31.68 24.74 31.68 24.51C31.68 24.37 31.66 24.25 31.61 24.14C31.56 24.02 31.47 23.92 31.35 23.82C30.87 23.44 30.4 23.16 29.93 22.99C29.46 22.82 28.9 22.74 28.27 22.74C27.37 22.74 26.54 22.97 25.79 23.42C25.05 23.87 24.45 24.48 24.03 25.25C23.6 26.02 23.39 26.87 23.39 27.79C23.39 28.72 23.61 29.58 24.03 30.35C24.46 31.12 25.05 31.74 25.79 32.18C26.53 32.63 27.37 32.85 28.26 32.85C29.44 32.85 30.48 32.48 31.36 31.75C31.55 31.6 31.64 31.38 31.64 31.11V28.24C31.64 27.99 31.55 27.78 31.39 27.61C31.22 27.44 31.01 27.36 30.77 27.36Z" fill="#25282B"/>
</svg>
