<?xml version="1.0" encoding="UTF-8" ?>
<!DOCTYPE svg PUBLIC "-//W3C//DTD SVG 1.1//EN" "http://www.w3.org/Graphics/SVG/1.1/DTD/svg11.dtd">
<svg width="200pt" height="100pt" viewBox="0 0 200 100" version="1.1" xmlns="http://www.w3.org/2000/svg">
<g id="#ffffffff">
</g>
<g id="#000000ff">
<path fill="#000000" opacity="1.00" d=" M 50.00 0.00 L 100.00 0.00 C 100.00 16.67 100.00 33.33 100.00 50.00 C 83.33 50.00 66.67 50.00 50.00 50.00 C 50.00 33.33 50.00 16.67 50.00 0.00 Z" />
<path fill="#000000" opacity="1.00" d=" M 150.00 0.00 L 192.70 0.00 C 195.83 1.59 198.42 4.11 200.00 7.26 L 200.00 50.00 C 183.33 50.00 166.67 50.00 150.00 50.00 C 150.00 33.33 150.00 16.67 150.00 0.00 Z" />
<path fill="#000000" opacity="1.00" d=" M 0.00 50.00 C 16.67 50.00 33.33 50.00 50.00 50.00 C 50.00 66.67 50.00 83.33 50.00 100.00 L 7.31 100.00 C 4.15 98.43 1.54 95.91 0.00 92.73 L 0.00 50.00 Z" />
<path fill="#000000" opacity="1.00" d=" M 100.00 50.00 C 116.67 50.00 133.33 50.00 150.00 50.00 C 150.00 66.67 150.00 83.33 150.00 100.00 L 100.00 100.00 C 100.00 83.33 100.00 66.67 100.00 50.00 Z" />
</g>
</svg>
