<svg width="800" height="400" viewBox="0 0 800 400" fill="none" xmlns="http://www.w3.org/2000/svg">
<path opacity="0.46" d="M456.18 30.8901C465.37 29.9701 474.63 29.2701 483.87 29.6201C489.98 30.5201 496.2 30.4601 502.27 31.7601C508.77 32.6801 514.93 35.0301 521.25 36.7401C523.01 37.2901 525.01 37.6401 526.21 39.2101C515.7 37.1601 505.74 32.7101 495 31.7901C488.67 31.5001 482.37 30.2201 476.02 30.8001C468.34 31.3701 460.6 31.1401 453.02 32.6501C439.66 34.8901 426.2 36.4601 412.84 38.6501C407.59 39.4301 402.52 41.0901 397.26 41.8101C400.71 39.5101 405.01 39.2401 408.96 38.2901C424.67 35.6801 440.5 33.7701 456.18 30.8901Z" fill="#111314"/>
<path d="M453.02 32.6499C460.6 31.1399 468.34 31.3699 476.02 30.7999C482.37 30.2199 488.67 31.4999 495 31.7899C505.74 32.7099 515.7 37.1599 526.21 39.2099C535.84 42.0099 543.51 48.7399 551.03 55.0399C562.14 61.9399 570.79 71.8499 579.8 81.1499C583.84 84.4699 587.24 88.4899 591.3 91.7899C597.18 97.6999 601.81 104.94 604.33 112.91C605.35 119.52 604.57 126.29 602.69 132.67C598.45 144.13 592.37 154.81 587.9 166.17C584.9 175.32 578.45 182.67 572.3 189.86C575.35 194.06 578.57 198.19 580.81 202.91C583.93 209.25 588.08 215.03 592.59 220.45C599.06 220.84 604.47 225.05 609.01 229.34C617.51 228.09 624.63 233.34 631.4 237.62C634.71 240.28 637.41 243.63 640.83 246.18C647.71 252.91 653.46 260.82 661.17 266.7C666.26 270.53 671.16 275.06 677.43 276.83C683.15 278.81 687.93 283.34 690.23 288.95C690.84 293.69 688.73 298.28 688.57 302.98C689.7 308.16 691.04 314.67 686.7 318.8C683.71 322.6 677.43 320.86 675.02 325.3C669.17 333.12 661.17 339.01 652.47 343.31C646.93 347.33 640.41 349.44 634.23 352.22C630.58 353.62 626.61 353.61 622.87 354.65C612.45 356.68 600.83 356.56 591.73 350.43C588.67 347.46 586.71 343.38 586.21 339.15C584.42 332.25 586.59 325.08 585.01 318.16C583.65 312.37 582.54 306.41 579.9 301.03C578.42 297.79 577.46 294.34 576.2 291.02C574.18 284.64 570.72 278.73 569.66 272.06C569.2 267.41 568.9 262.69 569.65 258.06C570.17 254.54 572.11 251.18 571.28 247.54C570.92 243.6 570.53 239.64 570.76 235.68C571.06 234.05 571.97 232.2 570.65 230.78C567.78 227.04 566.23 222.25 562.71 219.06C560.51 222.57 557.55 225.85 553.44 227.06C547.93 228.37 543.4 232.1 537.93 233.53C531.98 235.07 526.07 236.75 520.04 237.93C507.94 240.93 495.47 241.46 483.06 241.74C477 241.18 470.81 242.58 464.87 240.91C451.13 236.66 436.76 234.43 423.45 228.81C412.84 224.99 403.39 217.61 391.93 216.47C388.5 217.98 386.11 221 383.45 223.53L382.63 223.75C381.06 223.9 380.28 225.37 379.89 226.71C378.83 229.46 375.92 230.82 374.01 232.93C367.1 240.04 359.76 246.74 353.59 254.52C348.51 261.08 342.07 266.37 336.78 272.75C321.74 288.69 310.16 307.44 296.55 324.56C289.04 334.55 281.64 344.67 275.54 355.6C272.36 360.82 268.99 366.32 263.62 369.55C263.58 369.33 263.51 368.89 263.47 368.67C263.55 368.4 263.71 367.85 263.78 367.58L264.93 368.51C268.97 358.57 274.57 349.37 280.45 340.42C287.59 330.27 294.57 319.98 302.57 310.47C311.27 298.94 319.98 287.41 329.35 276.4C333.86 269.99 338.72 263.81 344.44 258.41C353.13 248.49 361.72 238.44 371.41 229.46C376.73 224.15 382.59 219.43 387.97 214.2C396.89 212.21 405.45 216.85 413.27 220.57C423.38 224.91 433.56 229.39 444.4 231.59C452.04 233.59 459.88 234.71 467.5 236.79C473.21 238.35 479.13 237.34 484.94 237.36C490.73 237.81 496.5 237 502.24 236.3C510.09 234.94 518.12 234.8 525.88 232.84C535.22 230.57 544.53 227.67 552.99 223.02C555.13 221.69 557.77 220.45 558.64 217.89C560.28 214.37 558.59 210.44 556.81 207.34L556.1 206.29C549.28 198.56 538.26 196.76 528.48 196.23C518.21 194.34 507.3 195.03 497.66 190.48C492.86 188.81 488.07 187.06 483.98 183.97C479.64 180.99 476 177.14 473.42 172.54C470.55 167.28 466.53 162.2 466.29 155.96C465.59 149.46 468.49 143.27 471.88 137.91C474.68 133.82 476.12 128.98 478.93 124.88C482.25 120.04 486.09 115.57 489.32 110.66C493.52 108.57 497.26 105.42 501.92 104.35C506.85 103.19 511.89 101.82 517.01 102.52C522.26 102.71 526.88 105.39 531.48 107.63C537.88 110.97 544.87 113.6 550.06 118.83C554.08 122.44 559.08 126.15 559.62 131.98C558.9 135.48 556.51 138.39 555.53 141.83C551.63 151.85 550.21 163.95 555.5 173.72C556.68 179.77 561.33 183.84 565.77 187.66C568.52 187.47 571.81 187.15 573.37 184.49C576.97 179.01 579.68 173 583.16 167.44C587.72 158.69 591.33 149.47 595.73 140.64C598.31 133.68 601.56 126.62 601.47 119.05C600.58 107.71 592.75 98.6499 585.34 90.6799C575.03 80.9199 565.3 70.4499 553.76 62.0899C548.97 58.6099 544.14 55.1999 539.48 51.5699C531.07 45.2699 520.83 42.5299 511.03 39.2399C501.66 34.7899 491.19 34.6599 481.07 33.8199C473.91 33.6099 466.78 34.4399 459.7 35.3299C456.39 35.4799 453.15 36.2099 449.99 37.1699C437.03 39.3099 423.75 38.8299 410.92 41.8299C409.31 42.2999 407.69 42.7199 406.08 43.1699C399.69 44.0899 393.81 46.9299 387.66 48.7599C377.9 52.4799 367.96 55.7199 358.33 59.7799C347.16 63.1799 337.2 69.3999 326.91 74.7399C314.98 80.2099 303.94 87.5099 293.96 96.0099C284.53 105.3 273.94 113.28 264.26 122.29C259.53 126.57 255.76 131.83 250.67 135.73C241.56 142.89 234.88 152.49 226.52 160.43C218.69 168.65 210.8 176.83 203.12 185.2C195.61 191.62 188.79 198.81 182.46 206.4C175.75 214.4 168.68 222.11 162.16 230.28C146.95 248.5 132.54 267.41 116.68 285.07C116.5 285.66 116.32 286.25 116.15 286.84L115.76 288.03C114.9 284.29 117.15 280.92 119.16 278C122.87 272.82 127.01 267.97 130.83 262.89C142.65 249.31 153.46 234.88 165.28 221.3C177.97 206.68 189.97 191.39 204 177.98C211.77 170.12 219.82 162.53 227.1 154.21C235.65 146.38 243.15 137.5 251.55 129.51C259.93 119.88 269.96 111.94 279.43 103.44C288.18 95.3099 297.71 88.0899 307.25 80.9299C312.92 76.7599 319.26 73.6399 325.76 70.9999C343.3 62.7899 360.57 53.7699 379.09 47.9099C385.04 45.5899 391.11 43.5399 397.26 41.8099C402.52 41.0899 407.59 39.4299 412.84 38.6499C426.2 36.4599 439.66 34.8899 453.02 32.6499ZM503.09 107.01C496.5 109.15 492.7 115.33 487.89 119.88C485.05 124 481.7 127.8 479.13 132.09C476.31 137.46 473.52 142.89 471.76 148.73C471.26 152.53 471.44 156.39 471.79 160.2C472.53 165.53 476.92 169.08 479.34 173.6C480.38 175.54 481.79 177.34 483.76 178.39C488.81 179.28 493.96 178.48 499.04 178.25C502.61 177.24 506.36 177.02 509.91 175.88C514.61 175.03 519.38 174.44 523.94 172.93C526.04 172.27 528.14 171.61 530.28 171.05C530.28 170.8 530.28 170.3 530.27 170.05C529.07 169.04 528 167.89 527.16 166.57C525.82 164.87 524.66 163.04 523.67 161.12C522.83 158.41 522.03 155.68 520.77 153.13C520.53 148.87 519.34 144.04 522.26 140.39C524.19 136.86 528.28 135.23 532.17 135.62C536.52 137.2 540 140.45 544.34 141.97C544.42 139.65 544.57 137.32 545.12 135.07C544.99 130.7 547.89 126.27 545.93 122.08C542.51 117.92 537.85 115.03 532.95 112.91C528.91 111.27 525.6 107.88 521.12 107.38C515.2 106.37 509.01 105.69 503.09 107.01ZM548.55 140.97C548.07 143.73 545.42 148.49 549.18 149.83C550.24 143.62 552.98 137.9 555.48 132.17C554.6 129.37 552.83 127.02 550.82 124.93C548.29 129.82 550.56 135.8 548.55 140.97ZM524.8 145.02C523.62 150.02 525.79 154.93 527.84 159.37C530.84 164.49 533.83 169.62 537.54 174.26C541.89 181.75 547.07 188.68 552.13 195.7C555.12 199.73 559.68 202.45 561.93 207.06C562.23 208.07 562.52 209.07 562.81 210.08C564.47 215.05 567.89 219.1 570.66 223.47C572.53 226.11 573.59 229.24 575.57 231.81C575.53 233.22 575.45 234.64 575.35 236.05C573.67 238.82 574.6 242.15 574.64 245.19C575.48 247.08 576.5 248.88 577.66 250.61C582.78 250.57 588.13 251.43 593.07 249.68C599.8 247.01 603.73 240.51 606.31 234.09C606.31 233.31 606.33 232.53 606.36 231.76C602.98 228.29 599.17 224.73 594.1 224.2C590.45 222.69 587.57 219.77 585.45 216.51C580.71 208.67 576.12 200.72 570.92 193.17C570.55 193.41 569.81 193.89 569.45 194.14L569.84 192.93C567.04 192.65 564.32 191.7 562.16 189.88C557.04 185.55 552.96 180.04 550.19 173.94C549.68 172.66 549.21 171.37 548.75 170.08C547.4 165.16 548.1 159.93 546.84 155.06C543.3 148 538.17 138.96 529.03 139.42C527.37 141.07 525.25 142.55 524.8 145.02ZM507.77 180.72C507.66 180.88 507.44 181.19 507.33 181.35C502.64 182.61 497.74 182.38 493.02 183.39C493.17 183.86 493.48 184.8 493.63 185.27C496.04 186.15 498.58 186.45 501.1 186.88C504.07 187.89 506.98 189.1 510.05 189.83C515.06 192.35 520.97 191.11 526.39 191.63C526.67 193.71 530.48 193.82 531.73 192.39C533.8 192.71 535.92 192.67 538.02 192.75C540.93 193.57 543.85 194.36 546.85 194.84C541.26 188.76 538.05 180.88 532.08 175.1C524.04 177.23 515.88 178.93 507.77 180.72ZM609.67 233.25C608.65 237.33 608.21 241.88 605.05 245C602.64 248.5 598.84 250.42 595.12 252.21C591.9 253.6 588.66 255.42 585.04 255.29C581.65 255.34 578.27 255.33 574.89 255.38C574.67 256.96 574.34 258.54 573.82 260.05C573.1 266.42 573.65 272.97 576.05 278.95C578.22 284.26 579.31 289.95 581.79 295.15C582.57 297.05 583.38 298.95 584.25 300.83C584.85 302.55 585.41 304.28 585.92 306.04C587.19 310.69 587.83 315.48 588.88 320.19C589.99 325.05 589.35 330.08 589.84 335.01C590.54 337.75 590.29 340.59 590.69 343.37C592.73 348.18 598.1 350.13 602.87 351.08C609.98 352.36 617.44 352.43 624.39 350.21L624.92 350.37C628.45 348.86 632.32 348.44 635.87 346.99C643.73 343.83 651.5 340.34 658.63 335.72C665.39 331.14 670.06 324.33 675.31 318.23C679.45 313.18 681.23 306.79 684.21 301.07C685.13 297.75 686.27 294.44 686.35 290.96C685.57 288.82 685.5 286.1 683.32 284.82C679.26 282.11 674.99 279.64 670.47 277.78C670.43 276.68 669.73 276.33 668.38 276.72L668.58 276.05C665.62 275.06 663.49 272.69 661.01 270.94C655.6 267.13 650.38 262.93 646.26 257.73C642.47 252.86 637.75 248.85 633.39 244.52C628.49 239.95 623.45 234.42 616.18 234.44C616.31 234.23 616.56 233.82 616.69 233.61C614.35 233.41 612.01 233.27 609.67 233.25ZM477.28 238.76C482.57 239.42 487.91 238.91 493.21 238.6C488.04 237.32 482.41 237.51 477.28 238.76ZM686.13 305.95C685.86 307.45 685.63 308.96 685.43 310.48C685.24 310.51 684.85 310.59 684.65 310.62C683.97 313.65 681.7 315.9 680.06 318.43C680.6 318.43 681.69 318.43 682.23 318.43C683.24 317.36 684.2 316.24 685 315C685.26 313.95 685.55 312.91 685.87 311.88C686.94 310.05 686.34 307.92 686.13 305.95Z" fill="#25282B"/>
<path d="M686.42 261.26C689.92 261.54 692.19 264.42 694.49 266.72C694.5 267.18 694.52 268.08 694.52 268.54C694.11 268.49 693.28 268.38 692.87 268.33C690.67 266.8 688.49 265.27 686.34 263.69C686.36 263.08 686.4 261.87 686.42 261.26Z" fill="#25282B"/>
<path d="M678.46 268.15C678.5 267.23 678.54 266.3 678.59 265.38C683.55 266.69 688.11 269.6 691.39 273.55C691.35 274 691.26 274.89 691.21 275.33C690.46 275.33 689.72 275.33 688.99 275.34C686.03 272.21 682.35 269.93 678.46 268.15Z" fill="#25282B"/>
<path d="M459.7 35.33C466.78 34.44 473.91 33.61 481.07 33.82C491.19 34.66 501.66 34.79 511.03 39.24C507.9 38.76 504.8 38.1 501.76 37.24C494.54 35.23 486.99 35.58 479.59 34.98C472.95 34.34 466.34 35.68 459.7 35.33Z" fill="#A4A6A7"/>
<path d="M449.99 37.17C453.15 36.21 456.39 35.48 459.7 35.33C466.34 35.68 472.95 34.34 479.59 34.98C486.99 35.58 494.54 35.23 501.76 37.24C504.8 38.1 507.9 38.76 511.03 39.24C520.83 42.53 531.07 45.27 539.48 51.57C544.14 55.2 548.97 58.61 553.76 62.09C565.3 70.45 575.03 80.92 585.34 90.68C592.75 98.65 600.58 107.71 601.47 119.05C601.56 126.62 598.31 133.68 595.73 140.64C591.33 149.47 587.72 158.69 583.16 167.44C579.68 173 576.97 179.01 573.37 184.49C571.81 187.15 568.52 187.47 565.77 187.66C561.33 183.84 556.68 179.77 555.5 173.72C555.54 168 554.76 162.17 556.52 156.6C557.65 149.94 560.55 143.82 562.55 137.42C563.63 133.55 563.78 129.07 561.31 125.68C557.64 120.32 551.9 117 546.91 113.05C538.97 106.8 529.39 103.19 519.91 100.01C512.24 97.18 503.84 99.5 496.67 102.69C493.18 104.17 490.68 107.18 489.32 110.66C486.09 115.57 482.25 120.04 478.93 124.88C476.12 128.98 474.68 133.82 471.88 137.91C468.49 143.27 465.59 149.46 466.29 155.96C466.53 162.2 470.55 167.28 473.42 172.54C476 177.14 479.64 180.99 483.98 183.97C485.71 189.84 491.99 191.8 497.08 193.81C503.36 195.94 509.51 198.86 516.2 199.4C529.98 200.19 544.28 200.92 556.81 207.34C558.59 210.44 560.28 214.37 558.64 217.89C557.77 220.45 555.13 221.69 552.99 223.02C544.53 227.67 535.22 230.57 525.88 232.84C518.12 234.8 510.09 234.94 502.24 236.3C496.5 237 490.73 237.81 484.94 237.36C479.13 237.34 473.21 238.35 467.5 236.79C459.88 234.71 452.04 233.59 444.4 231.59C433.56 229.39 423.38 224.91 413.27 220.57C405.45 216.85 396.89 212.21 387.97 214.2C384.83 214.2 382.22 215.93 379.95 217.93C374.37 222.71 367.86 226.42 362.99 232C358.47 237.19 352.63 241.05 348.4 246.52C342.34 254.07 334.39 259.9 328.86 267.9C320.43 279.37 310.13 289.35 302.06 301.1C291.01 317.35 277.53 331.97 268.44 349.51C264.18 355.3 262.13 362.19 259.52 368.79C258 368.62 256.51 368.33 255.05 367.93C252.35 367.38 249.64 366.87 247 366.06C245.97 365.71 244.92 365.41 243.86 365.15C242.3 364.7 240.73 364.33 239.2 363.79C238.16 363.54 237.12 363.28 236.09 363.02C234.35 362.36 232.6 361.72 230.86 361.09C229.88 360.75 228.9 360.41 227.92 360.09C226.66 359.61 225.38 359.17 224.11 358.72C222.4 358.19 220.75 357.48 219.11 356.78C213.93 354.35 208.58 352.33 203.1 350.68C201.03 349.96 199.03 349.05 196.94 348.36C191.17 346.22 185.63 343.51 180.21 340.61C179.12 340.11 178.03 339.59 176.93 339.12C176 338.62 175.08 338.11 174.16 337.61C173.66 337.38 172.65 336.9 172.15 336.66C167.5 334.58 163.14 331.94 159.16 328.76C157.76 327.89 156.34 327.05 154.89 326.28C148.6 323.07 143.66 318.02 138.82 313.01C133.29 308.61 128.12 303.82 123.34 298.63C122.18 297.5 121.17 296.25 120.29 294.9C119.59 293.86 118.9 292.83 118.2 291.79C117.66 290.95 117.12 290.12 116.57 289.3C116.46 288.69 116.26 287.46 116.15 286.84C116.32 286.25 116.5 285.66 116.68 285.07C132.54 267.41 146.95 248.5 162.16 230.28C168.68 222.11 175.75 214.4 182.46 206.4C188.79 198.81 195.61 191.62 203.12 185.2C210.8 176.83 218.69 168.65 226.52 160.43C234.88 152.49 241.56 142.89 250.67 135.73C255.76 131.83 259.53 126.57 264.26 122.29C273.94 113.28 284.53 105.3 293.96 96.01C303.94 87.51 314.98 80.21 326.91 74.74C337.2 69.4 347.16 63.18 358.33 59.78C367.96 55.72 377.9 52.48 387.66 48.76C393.81 46.93 399.69 44.09 406.08 43.17C407.69 42.72 409.31 42.3 410.92 41.83C423.75 38.83 437.03 39.31 449.99 37.17Z" fill="white"/>
<path d="M496.669 102.69C503.839 99.5 512.239 97.18 519.909 100.01C529.389 103.19 538.969 106.8 546.909 113.05C551.899 117 557.639 120.32 561.309 125.68C563.779 129.07 563.629 133.55 562.549 137.42C560.549 143.82 557.649 149.94 556.519 156.6C554.759 162.17 555.539 168 555.499 173.72C550.209 163.95 551.629 151.85 555.529 141.83C556.509 138.39 558.899 135.48 559.619 131.98C559.079 126.15 554.079 122.44 550.059 118.83C544.869 113.6 537.879 110.97 531.479 107.63C526.879 105.39 522.259 102.71 517.009 102.52C511.889 101.82 506.849 103.19 501.919 104.35C497.259 105.42 493.519 108.57 489.319 110.66C490.679 107.18 493.179 104.17 496.669 102.69Z" fill="#E7EAF0"/>
<path d="M503.09 107.01C509.01 105.69 515.2 106.37 521.12 107.38C525.6 107.88 528.91 111.27 532.95 112.91C537.85 115.03 542.51 117.92 545.93 122.08C547.89 126.27 544.99 130.7 545.12 135.07C544.57 137.32 544.42 139.65 544.34 141.97C540 140.45 536.52 137.2 532.17 135.62C528.28 135.23 524.19 136.86 522.26 140.39C519.34 144.04 520.53 148.87 520.77 153.13C522.03 155.68 522.83 158.41 523.67 161.12C524.66 163.04 525.82 164.87 527.16 166.57C528 167.89 529.07 169.04 530.27 170.05C530.28 170.3 530.28 170.8 530.28 171.05C528.14 171.61 526.04 172.27 523.94 172.93C519.38 174.44 514.61 175.03 509.91 175.88C506.36 177.02 502.61 177.24 499.04 178.25C493.96 178.48 488.81 179.28 483.76 178.39C481.79 177.34 480.38 175.54 479.34 173.6C476.92 169.08 472.53 165.53 471.79 160.2C471.44 156.39 471.26 152.53 471.76 148.73C473.52 142.89 476.31 137.46 479.13 132.09C481.7 127.8 485.05 124 487.89 119.88C492.7 115.33 496.5 109.15 503.09 107.01Z" fill="#E7EAF0"/>
<path d="M483.979 183.97C488.069 187.06 492.859 188.81 497.659 190.48C507.299 195.03 518.209 194.34 528.479 196.23C538.259 196.76 549.279 198.56 556.099 206.29L556.809 207.34C544.279 200.92 529.979 200.19 516.199 199.4C509.509 198.86 503.359 195.94 497.079 193.81C491.989 191.8 485.709 189.84 483.979 183.97Z" fill="#E7EAF0"/>
<path d="M379.95 217.93C382.22 215.93 384.83 214.2 387.97 214.2C382.59 219.43 376.73 224.15 371.41 229.46C361.72 238.44 353.13 248.49 344.44 258.41C338.72 263.81 333.86 269.99 329.35 276.4C319.98 287.41 311.27 298.94 302.57 310.47C294.57 319.98 287.59 330.27 280.45 340.42C274.57 349.37 268.97 358.57 264.93 368.51L263.78 367.58C263.71 367.85 263.55 368.4 263.47 368.67C262.42 368.86 260.32 369.23 259.27 369.41C259.33 369.25 259.46 368.94 259.52 368.79C262.13 362.19 264.18 355.3 268.44 349.51C277.53 331.97 291.01 317.35 302.06 301.1C310.13 289.35 320.43 279.37 328.86 267.9C334.39 259.9 342.34 254.07 348.4 246.52C352.63 241.05 358.47 237.19 362.99 232C367.86 226.42 374.37 222.71 379.95 217.93Z" fill="#E7EAF0"/>
<path d="M524.8 145.02C525.25 142.55 527.37 141.07 529.03 139.42C538.17 138.96 543.3 148 546.84 155.06C548.1 159.93 547.4 165.16 548.75 170.08C549.21 171.37 549.68 172.66 550.19 173.94C552.96 180.04 557.04 185.55 562.16 189.88C564.32 191.7 567.04 192.65 569.84 192.93L569.45 194.14C567.95 196.42 566.15 198.58 565.26 201.19C564.55 204.11 566.49 206.68 567.97 208.99C571.66 214.27 574.94 219.9 579.4 224.59C580.97 226.13 582.71 227.8 584.97 228.19C587.78 227.76 590.44 226.71 593.16 225.91C592.68 230.93 586.99 231.18 583.78 233.76C581.83 238.11 582.77 243.53 586.03 247.01C587.74 249.08 590.66 249.09 593.07 249.68C588.13 251.43 582.78 250.57 577.66 250.61C576.5 248.88 575.48 247.08 574.64 245.19C574.6 242.15 573.67 238.82 575.35 236.05C575.45 234.64 575.53 233.22 575.57 231.81C573.59 229.24 572.53 226.11 570.66 223.47C567.89 219.1 564.47 215.05 562.81 210.08C562.52 209.07 562.23 208.07 561.93 207.06C559.68 202.45 555.12 199.73 552.13 195.7C547.07 188.68 541.89 181.75 537.54 174.26C533.83 169.62 530.84 164.49 527.84 159.37C525.79 154.93 523.62 150.02 524.8 145.02Z" fill="#FFCF81"/>
<path d="M609.669 233.25C612.009 233.27 614.349 233.41 616.689 233.61C616.559 233.82 616.309 234.23 616.179 234.44C613.629 238.18 614.209 243.06 612.069 247C609.339 252.95 604.319 257.3 599.649 261.7C596.309 264.88 593.459 269.17 593.779 273.98C594.359 283.11 596.339 292.14 599.289 300.79C602.109 307.01 605.569 313.9 612.059 316.92C618.909 318.9 626.879 320.01 633.329 316.18C640.509 312.8 646.919 308.1 652.719 302.71C661.059 296.45 665.859 286.63 668.379 276.72C669.729 276.33 670.429 276.68 670.469 277.78C668.579 283.51 668.079 289.73 665.049 295.05C661.909 300.66 658.729 306.48 653.779 310.73C647.899 315.88 640.929 319.61 633.839 322.8C627.319 325.34 620.469 327.58 613.399 327.43C607.749 327.18 602.249 329.54 597.709 332.72C592.889 336.8 594.929 345.05 600.439 347.43C605.709 349.41 611.489 349.89 617.059 349.2C619.559 348.8 622.029 349.42 624.389 350.21C617.439 352.43 609.979 352.36 602.869 351.08C598.099 350.13 592.729 348.18 590.689 343.37C590.289 340.59 590.539 337.75 589.839 335.01C589.349 330.08 589.989 325.05 588.879 320.19C587.829 315.48 587.189 310.69 585.919 306.04C585.409 304.28 584.849 302.55 584.249 300.83C583.379 298.95 582.569 297.05 581.789 295.15C579.309 289.95 578.219 284.26 576.049 278.95C573.649 272.97 573.099 266.42 573.819 260.05C574.339 258.54 574.669 256.96 574.889 255.38C578.269 255.33 581.649 255.34 585.039 255.29C588.659 255.42 591.899 253.6 595.119 252.21C598.839 250.42 602.639 248.5 605.049 245C608.209 241.88 608.649 237.33 609.669 233.25Z" fill="#FFCF81"/>
<path d="M686.13 305.95C686.34 307.92 686.94 310.05 685.87 311.88C685.55 312.91 685.26 313.95 685 315C684.2 316.24 683.24 317.36 682.23 318.43C681.69 318.43 680.6 318.43 680.06 318.43C681.7 315.9 683.97 313.65 684.65 310.62C684.85 310.59 685.24 310.51 685.43 310.48C685.63 308.96 685.86 307.45 686.13 305.95Z" fill="#FFCF81"/>
<path opacity="0.74" d="M526.39 191.63C528.2 191.51 529.97 191.96 531.73 192.39C530.48 193.82 526.67 193.71 526.39 191.63Z" fill="#3F4144"/>
<path d="M569.45 194.14C569.81 193.89 570.55 193.41 570.92 193.17C576.12 200.72 580.71 208.67 585.45 216.51C587.57 219.77 590.45 222.69 594.1 224.2C599.17 224.73 602.98 228.29 606.36 231.76C606.33 232.53 606.31 233.31 606.31 234.09C603.73 240.51 599.8 247.01 593.07 249.68C590.66 249.09 587.74 249.08 586.03 247.01C582.77 243.53 581.83 238.11 583.78 233.76C586.99 231.18 592.68 230.93 593.16 225.91C590.44 226.71 587.78 227.76 584.97 228.19C582.71 227.8 580.97 226.13 579.4 224.59C574.94 219.9 571.66 214.27 567.97 208.99C566.49 206.68 564.55 204.11 565.26 201.19C566.15 198.58 567.95 196.42 569.45 194.14Z" fill="#FFDCA3"/>
<path d="M612.069 247C614.209 243.06 613.629 238.18 616.179 234.44C623.449 234.42 628.489 239.95 633.389 244.52C637.749 248.85 642.469 252.86 646.259 257.73C650.379 262.93 655.599 267.13 661.009 270.94C663.489 272.69 665.619 275.06 668.579 276.05L668.379 276.72C665.859 286.63 661.059 296.45 652.719 302.71C646.919 308.1 640.509 312.8 633.329 316.18C626.879 320.01 618.909 318.9 612.059 316.92C605.569 313.9 602.109 307.01 599.289 300.79C596.339 292.14 594.359 283.11 593.779 273.98C593.459 269.17 596.309 264.88 599.649 261.7C604.319 257.3 609.339 252.95 612.069 247Z" fill="#FFDCA3"/>
<path d="M670.469 277.78C674.989 279.64 679.259 282.11 683.319 284.82C685.499 286.1 685.569 288.82 686.349 290.96C686.269 294.44 685.129 297.75 684.209 301.07C681.229 306.79 679.449 313.18 675.309 318.23C670.059 324.33 665.389 331.14 658.629 335.72C651.499 340.34 643.729 343.83 635.869 346.99C632.319 348.44 628.449 348.86 624.919 350.37L624.389 350.21C622.029 349.42 619.559 348.8 617.059 349.2C611.489 349.89 605.709 349.41 600.439 347.43C594.929 345.05 592.889 336.8 597.709 332.72C602.249 329.54 607.749 327.18 613.399 327.43C620.469 327.58 627.319 325.34 633.839 322.8C640.929 319.61 647.899 315.88 653.779 310.73C658.729 306.48 661.909 300.66 665.049 295.05C668.079 289.73 668.579 283.51 670.469 277.78Z" fill="#FFDCA3"/>
<path opacity="0.75" d="M379.89 226.71C380.28 225.37 381.06 223.9 382.63 223.75C383.39 225.13 381.33 227.4 379.89 226.71Z" fill="#333538"/>
<path opacity="0.65" d="M571.28 247.54C569.37 243.95 569.25 239.42 570.76 235.68C570.53 239.64 570.92 243.6 571.28 247.54Z" fill="#373228"/>
<path opacity="0.84" d="M477.28 238.76C482.41 237.51 488.04 237.32 493.21 238.6C487.91 238.91 482.57 239.42 477.28 238.76Z" fill="#25272A"/>
<path d="M571.42 327.24C572.48 327.22 573.54 327.21 574.61 327.2C574.16 332.08 575.82 337.01 574.52 341.81C574.05 341.75 573.11 341.62 572.64 341.55C570.98 336.96 571.29 332.03 571.42 327.24Z" fill="#24272A"/>
<path opacity="0.96" d="M562.71 331.52C563.61 331.56 564.52 331.59 565.44 331.63C565.52 335.02 565.54 338.42 565.44 341.81C561.03 341 561.15 334.82 562.71 331.52Z" fill="#232629"/>
</svg>
