<svg width="200" height="200" viewBox="0 0 200 200" fill="none" xmlns="http://www.w3.org/2000/svg">
<path d="M175.317 148.299C174.129 172.436 155.552 194.308 132.78 199.013C110.009 203.718 85.087 191.204 73.9913 169.975C72.7668 167.632 71.6764 165.175 70.5861 162.718C67.7713 156.375 64.9574 150.034 59.8405 145.671C53.9981 140.689 46.4843 139.357 38.8947 138.011C34.0753 137.156 29.2254 136.296 24.7536 134.493C13.9736 130.146 5.60343 119.847 3.27015 108.06C-0.510955 88.9589 11.4657 69.4569 27.4371 59.2634C43.4085 49.0699 62.6002 46.231 81.216 44.0434C88.3372 43.2066 94.1218 37.6199 98.2532 31.524C99.8526 29.164 101.292 26.6842 102.73 24.2062C105.006 20.2834 107.28 16.3651 110.183 12.9342C122.476 -1.5936 145.369 -4.0451 161.027 6.40124C176.686 16.8476 184.18 38.3283 180.016 57.1976C179.299 60.4476 178.281 63.6121 177.263 66.7769L177.263 66.7773C176.288 69.8068 175.314 72.8365 174.603 75.9416C173.083 82.5784 172.793 89.4464 172.62 96.2667C172.414 104.399 172.366 112.552 173.097 120.65C173.352 123.468 173.7 126.282 174.049 129.095C174.842 135.487 175.634 141.877 175.317 148.299Z" fill="#0050C5"/>
<path d="M81.1901 38.2786C89.7045 33.869 96.4812 26.2109 100.749 17.3636C101.308 16.2036 101.838 14.971 101.819 13.6731C101.799 12.3752 101.074 11.0005 99.8678 10.6708C98.1395 10.1985 96.6531 11.9236 95.5754 13.4073C88.1715 23.6001 77.3952 31.6019 65.235 33.347C60.5647 34.0172 55.823 33.7655 51.1148 33.5124L43.7608 33.1172C37.8377 32.7988 31.8324 32.4868 26.0347 33.788C20.2369 35.0891 14.5718 38.2183 11.3875 43.4273C10.3739 45.0853 9.61472 47.0391 9.89516 48.9826C10.1826 50.9742 11.5424 52.6646 13.1805 53.7361C14.8185 54.8076 16.7216 55.3436 18.6076 55.7921C19.9884 56.1205 21.3988 56.4114 22.8117 56.3078C25.1216 56.1385 27.2179 54.9427 29.2576 53.7792C29.3935 53.7017 29.5291 53.6243 29.6645 53.5474C33.2294 51.5228 36.9234 49.7247 40.7762 48.3887C46.3946 46.4405 52.3024 45.4871 58.1955 44.536C66.1346 43.2548 74.0473 41.9778 81.1901 38.2786Z" fill="#0050C5"/>
<path d="M36.9123 155.753L36.9173 155.753C37.2643 155.767 37.6111 155.782 37.957 155.801C43.4283 156.097 48.8426 157.493 53.8139 159.89C55.7094 160.804 57.6291 161.948 58.6936 163.819C60.0108 166.134 61.592 168.286 63.3934 170.216C64.0923 170.964 64.849 171.696 65.782 172.079C66.715 172.461 67.8671 172.426 68.624 171.742C69.5437 170.91 69.6034 169.433 69.3199 168.2C68.8555 166.179 67.6973 164.418 66.5509 162.716C62.789 157.134 58.8285 151.552 53.5935 147.453C48.3585 143.353 41.6024 140.871 35.1946 142.287C32.9821 142.776 30.7893 143.773 29.3224 145.565C27.8555 147.357 27.2759 150.055 28.3323 152.137C29.1704 153.788 30.8696 154.805 32.6091 155.263C34.0112 155.632 35.4632 155.692 36.912 155.753H36.9123Z" fill="#0050C5"/>
<path d="M184.903 71.7841C183.441 71.21 181.784 71.9033 180.546 72.8969C178.101 74.8591 176.655 77.9287 175.996 81.0688C175.338 84.2089 175.391 87.4571 175.448 90.6706L175.931 118.281C175.967 120.299 176.053 122.473 177.244 124.064C177.617 124.562 178.128 124.999 178.731 125.063C179.462 125.14 180.139 124.66 180.667 124.127C183.555 121.217 183.934 116.631 184.279 112.452L184.292 112.3C184.8 106.165 185.68 100.064 186.924 94.0437C187.274 92.3507 187.658 90.6471 188.39 89.092C190.684 84.2172 190.136 78.0289 187.023 73.6737C186.46 72.886 185.786 72.1305 184.903 71.7841Z" fill="#0050C5"/>
<path d="M132.512 109.157C134.055 109.6 135.438 110.938 135.589 112.597C135.882 111.937 136.525 111.46 137.22 111.387L136.211 112.503L137.487 112.53L135.731 113.55C136.82 115.647 136.644 118.232 135.946 120.501C135.519 121.89 134.901 123.282 135.021 124.735C135.14 126.164 136.359 127.624 137.692 127.331L137.758 127.315C139.36 126.894 141.114 127.138 142.553 127.982C144.621 129.195 145.876 131.447 147.297 133.426C148.552 135.173 150.037 136.798 151.893 137.81C153.749 138.822 156.025 139.156 157.959 138.316C158.918 137.899 159.777 137.209 160.796 136.989C161.814 136.769 162.857 137.359 163.231 138.363C163.396 138.807 163.041 140.454 162.134 142.376C162.282 142.332 162.436 142.304 162.597 142.293C167.36 141.971 172.166 140.893 176.264 138.348C177.567 137.539 178.784 136.591 179.992 135.635L180.696 135.076L181.122 134.735C183.773 132.597 186.39 130.213 187.48 126.961L187.537 126.786L187.658 126.402C187.891 125.674 188.187 124.922 188.862 124.696C189.796 124.384 190.646 125.325 191.214 126.158L195.304 132.161C195.409 132.315 195.517 132.475 195.557 132.659C195.734 133.475 194.564 133.887 193.81 133.597C192.44 133.071 191.34 131.501 189.901 131.771C188.89 131.96 188.286 132.979 187.787 133.939L187.66 134.184C184.634 140.083 179.54 144.803 173.56 147.25C172.019 147.88 170.426 148.363 168.836 148.845L165.623 149.82L166.189 149.925C170.983 150.8 176.096 151.334 180.45 149.122C183.348 147.65 185.58 145.116 187.686 142.554L188.45 141.619L188.766 141.229C190.058 139.615 191.286 137.887 191.664 135.841C191.808 135.055 192.761 134.681 193.502 134.893C194.242 135.106 194.806 135.716 195.331 136.301L199.307 140.732C199.621 141.081 199.95 141.466 199.996 141.941C200.042 142.416 199.633 142.954 199.192 142.821L194.88 141.517C194.476 141.395 194.028 141.276 193.647 141.463C193.355 141.606 193.167 141.901 193 142.191L188.364 150.341C187.059 152.636 184.64 153.967 182.262 154.962C176.562 157.348 170.377 158.469 164.238 158.229C163.571 158.203 162.903 158.161 162.244 158.053C159.767 157.646 157.531 156.336 155.365 155.009C155.745 156.455 155.407 157.675 153.151 157.767C151.154 157.849 146.261 149.287 144.739 148.843C136.433 146.418 135.07 141.632 132.401 138.363C132.401 138.363 127.009 139.089 123.449 138.316C115.104 136.505 109.496 130.933 107.474 130.578C105.452 130.223 104.118 131.572 103.494 130.754L103.494 130.161C103.591 129.998 104.557 129.058 107.313 129.669C111.162 130.521 117.314 133.739 122.013 134.34C126.945 134.971 131.123 134.136 131.1 133.996C131.053 133.71 132.293 132.495 131.302 131.882C130.312 131.268 115.932 125.26 112.806 120.253L112.768 120.19C112.231 119.261 111.823 116.954 112.904 118.01L113.207 117.451C114.371 118.594 118.194 121.207 122.165 123.783C126.364 126.507 132.293 128.251 132.401 128.174C134.818 126.473 132.675 125.241 132.275 124.88C131.339 124.033 130.096 123.572 129.289 122.591C127.354 120.24 128.736 116.034 126.525 113.963C126.19 113.65 125.784 113.404 125.542 113.009C125.126 112.333 125.33 111.392 125.834 110.783C126.337 110.175 127.073 109.835 127.801 109.571C129.312 109.021 130.969 108.715 132.512 109.157Z" fill="white"/>
<path d="M134.379 121.182C134.379 121.51 134.124 121.776 133.808 121.776C133.493 121.776 133.238 121.51 133.238 121.182C133.238 120.854 133.493 120.588 133.808 120.588C134.124 120.588 134.379 120.854 134.379 121.182Z" fill="#FEBE3F"/>
<path d="M130.753 121.182C130.753 121.51 130.563 121.776 130.329 121.776C130.096 121.776 129.906 121.51 129.906 121.182C129.906 120.854 130.096 120.588 130.329 120.588C130.563 120.588 130.753 120.854 130.753 121.182Z" fill="#FEBE3F"/>
<path d="M109.651 124.06C104.346 122.632 98.7697 122.303 93.3434 123.097C93.7538 120.985 94.2677 118.896 94.8826 116.839C93.1169 117.432 91.0324 115.748 91.1466 113.82C91.2607 111.892 93.5282 110.487 95.2105 111.301C95.7884 109.913 95.8251 108.29 95.3105 106.875C95.0636 106.197 96.0476 105.805 96.7448 105.805L100.597 105.804C101.136 105.804 101.886 105.544 101.753 105.001C101.435 103.713 102.286 102.242 103.527 101.931C104.746 101.625 106.118 102.494 106.433 103.753L106.45 103.823C106.742 105.176 108.388 105.605 109.719 105.579L110.382 105.562C111.533 105.537 112.733 105.576 113.504 106.414C114.425 107.417 114.219 109.014 113.916 110.375L113.895 110.466C113.465 112.355 113.006 114.238 112.519 116.113C113.465 124.041 111.121 124.456 109.651 124.06Z" fill="white"/>
<path d="M65.4022 117.441C64.8398 113.631 64.8405 109.731 65.4045 105.92L65.433 105.736C65.573 104.871 65.8187 103.958 66.5127 103.482C67.0324 103.125 67.6886 103.099 68.3145 103.098L73.1062 103.112C73.3243 103.113 73.5633 103.121 73.7273 103.271C73.8913 103.421 73.8868 103.764 73.6766 103.825C73.1747 103.97 72.8862 104.572 72.9471 105.111C73.0081 105.649 73.3444 106.115 73.7393 106.469C74.6812 107.312 76.1452 107.611 77.1878 106.908C78.2304 106.206 78.4756 104.395 77.4877 103.611C79.7259 103.564 81.9653 103.571 84.2032 103.633L85.0423 103.659C85.3136 103.668 85.6135 103.691 85.803 103.893C85.9452 104.045 85.992 104.266 86.0242 104.475C86.272 106.088 86.001 107.782 85.2646 109.225C85.1473 109.454 84.8757 109.708 84.6907 109.533C83.9043 108.79 82.5818 108.891 81.7772 109.612C80.9726 110.334 80.6616 111.533 80.8038 112.628C80.9406 113.683 81.679 114.809 82.6999 114.756C83.504 114.714 84.398 113.982 85.0056 114.532L83.982 119.293C83.8001 120.139 83.4737 121.142 82.6595 121.324C77.9593 122.37 73.0311 122.291 68.3641 121.094L68.1377 121.035C67.5714 120.88 67.0071 120.681 66.5652 120.287C65.7961 119.601 65.556 118.483 65.4022 117.441Z" fill="white"/>
<path d="M102.278 80.0772L113.636 80.3149L113.822 80.3196C114.163 80.3308 114.507 80.362 114.814 80.5112C115.508 80.8485 115.826 81.6801 116.038 82.4469C117.165 86.5398 117.025 90.9997 115.646 95.0079L115.588 95.1721C115.408 95.6652 115.173 96.1568 114.749 96.4343C114.4 96.6627 113.975 96.7104 113.561 96.7334L113.472 96.7381C111.783 96.8215 110.089 96.7765 108.406 96.6036C109.282 96.042 109.503 94.6747 108.947 93.7735C108.391 92.8723 107.215 92.496 106.225 92.7887C105.622 92.9672 105.06 93.3964 104.841 94.0086C104.623 94.6208 104.834 95.407 105.392 95.7059C105.777 95.9127 105.711 96.5637 105.373 96.8472C105.035 97.1308 104.566 97.1509 104.132 97.1582L98.4336 97.2544C98.0052 97.2616 97.5549 97.2635 97.1788 97.0499C96.6455 96.747 96.4003 96.0945 96.2501 95.4817C95.8875 94.0031 95.8385 92.4422 96.1075 90.9422C96.4315 92.1268 97.8339 92.8462 98.9336 92.392C100.033 91.9378 100.58 90.4131 100.036 89.3195C99.4918 88.2259 97.9798 87.812 96.9891 88.4854L96.9479 88.1032C96.8057 86.7635 96.6953 85.4062 96.9425 84.0867C97.2131 82.6415 97.9853 81.2221 99.2512 80.5654C100.174 80.0864 101.241 80.06 102.278 80.0772Z" fill="white"/>
<path d="M67.8287 93.3782C66.2293 93.3848 64.6295 93.3163 63.036 93.1731L62.8812 93.1582C62.3106 93.0989 61.7122 92.9801 61.3383 92.5383C60.8336 91.942 60.9568 91.043 61.1084 90.2564L61.1236 90.1782C61.8009 86.7269 62.0669 83.1884 61.9141 79.6695L61.8857 79.0629C61.8432 77.9719 61.9102 76.7348 62.7808 76.1736C63.0456 76.0029 63.3531 75.9237 63.6596 75.8594L63.7617 75.8384C69.3355 74.7081 75.1391 74.8227 80.6678 76.1721C81.3958 76.3498 81.5983 77.3765 81.3569 78.1132C81.1155 78.8499 80.5971 79.4692 80.4031 80.221C80.2091 80.9728 80.5646 81.9904 81.312 82.0148C82.8674 82.0655 84.1858 83.7106 83.9768 85.3159C83.7677 86.9213 82.101 88.1388 80.5752 87.82C80.2172 87.7452 80.0905 88.2962 80.1298 88.6741L80.5652 92.8648C80.6363 93.5488 79.7039 93.7648 79.045 93.7114L75.2011 93.3999C74.5971 93.351 73.7873 93.4594 73.6942 94.0825C73.4625 95.634 71.9345 96.8454 70.4362 96.6655C68.938 96.4856 67.715 94.9438 67.8287 93.3782Z" fill="white"/>
<path fill-rule="evenodd" clip-rule="evenodd" d="M57.4826 119.169C57.9091 119.277 58.5196 119.469 58.4858 119.888C57.8032 128.351 54.8652 126.793 52.2453 129.22C51.553 129.861 51.1393 131.377 50.8419 131.412C51.9445 131.942 53.5446 134.069 56.2984 134.166C63.9709 134.437 66.7635 128.609 66.7635 128.609C66.944 126.74 66.0336 123.374 67.17 124.317C67.9543 124.967 67.7993 121.798 68.8708 122.114C69.1928 122.209 68.6304 124.316 68.8708 124.442C69.0037 124.511 69.2001 123.937 69.5428 123.48C69.8286 123.099 70.2694 122.816 70.3606 122.9C70.4225 122.956 70.3632 123.501 70.1058 123.962C69.7442 124.609 69.1394 125.233 69.224 125.336C69.3171 125.451 70.912 123.906 71.0093 124.041C71.6545 124.937 67.5671 135.252 60.6696 137.199L60.1235 137.352C56.1027 138.464 54.4142 138.616 50.6889 137.199C48.9226 136.528 47.824 142.801 46.8421 144.889C46.2222 146.208 43.211 149.439 41.836 148.462C40.0219 147.172 38.5427 144.773 36.9989 143.559L36.8997 143.483C35.8476 142.698 33.468 141.506 29.7608 139.908L29.9278 139.828C30.7013 139.462 32.6935 138.567 34.2232 137.199C36.3968 135.257 37.574 131.084 39.0892 128.833C40.5852 126.611 42.5928 126.939 41.3812 126.545C41.3812 126.545 38.311 124.852 36.8997 124.697C32.1862 124.179 26.0417 126.498 24.076 127.993C21.3789 130.043 24.0586 133.061 20.3319 131.582C19.0899 131.089 22.4189 124.703 27.0108 122.114C33.3935 118.515 39.4286 117.525 45.4793 123.254C47.9418 125.585 48.1855 127.661 48.8458 129.244L48.7107 128.856C56.01 128.355 45.0733 120.747 54.2038 118.843C55.1627 118.643 56.1691 118.851 57.1302 119.083L57.4826 119.169Z" fill="white"/>
<path d="M53.3517 124.449C53.3517 124.777 53.0962 125.043 52.7811 125.043C52.4659 125.043 52.2104 124.777 52.2104 124.449C52.2104 124.121 52.4659 123.855 52.7811 123.855C53.0962 123.855 53.3517 124.121 53.3517 124.449Z" fill="#FEBE3F"/>
<path d="M56.4903 125.637C56.4903 125.965 56.2349 126.231 55.9197 126.231C55.6046 126.231 55.3491 125.965 55.3491 125.637C55.3491 125.309 55.6046 125.043 55.9197 125.043C56.2349 125.043 56.4903 125.309 56.4903 125.637Z" fill="#FEBE3F"/>
<path fill-rule="evenodd" clip-rule="evenodd" d="M22.7939 147.486C28.979 151.945 21.0654 145.786 27.8233 153.125C29.188 154.607 36.0975 146.143 36.8103 151.159C37.0703 152.989 36.5034 154.894 36.849 156.708C37.1715 158.401 44.2445 157.385 44.7908 156.644C46.7713 153.96 40.6079 147.065 39.3155 145.963C32.1038 139.813 29.7241 140.24 22.9857 146.603L22.7939 147.486Z" fill="white"/>
<path fill-rule="evenodd" clip-rule="evenodd" d="M183.691 36.044C184.904 36.195 186.032 36.3353 186.032 34.8634C186.032 34.5132 181.949 31.4367 180.739 32.6214C179.183 34.145 177.948 35.8921 176.751 37.5844C174.238 41.1371 171.897 44.4481 167.123 44.9414L167.065 44.948C165.214 45.1807 168.662 46.8907 172.534 44.9414C175.197 43.6012 178.739 39.3611 180.421 37.3471C180.862 36.8201 181.175 36.4455 181.311 36.3152L181.346 36.284C181.92 35.8236 182.827 35.9365 183.691 36.044ZM189.45 40.0278L193.49 43.3659C194.277 44.0163 193.355 45.4178 192.353 45.4849C191.771 45.5239 191.213 45.3375 190.652 45.1502C190.246 45.0146 189.839 44.8786 189.42 44.827C187.048 44.535 185.239 46.8609 183.767 48.8199C182.423 50.6101 180.95 52.2963 179.366 53.86L179.152 54.0696L178.928 54.2835C177.654 55.4895 176.225 56.582 174.544 56.8967C172.068 57.3602 169.609 56.0407 167.587 54.4836C167.094 54.1035 166.609 53.7049 166.125 53.306C164.623 52.0706 163.119 50.833 161.338 50.1395C159.795 51.0161 158.351 52.0755 157.032 53.2839L157.09 53.2357C159.305 55.5462 160.853 58.5397 161.487 61.7361L161.064 61.6586L160.784 61.609C158.167 61.1522 155.365 60.8819 153.154 62.3396C152.375 62.8533 151.68 63.5707 150.993 64.2799L150.993 64.28C150.514 64.7738 150.039 65.2637 149.543 65.6783C149.669 65.7563 149.798 65.8374 149.93 65.9216C152.377 66.9635 154.971 67.6309 157.602 67.8955C158.004 67.936 158.411 67.9681 158.818 68.0004C160.706 68.1496 162.617 68.3007 164.23 69.2872L164.796 69.6393C165.704 70.1988 166.715 70.7312 167.475 70.0835C167.694 69.8971 167.837 69.6417 167.981 69.3851C168.068 69.229 168.156 69.0725 168.261 68.9308C168.539 68.5562 169.09 68.2926 169.436 68.6003L169.576 69.7448C169.678 69.0085 170.36 68.41 171.074 68.4306C171.789 68.4513 172.438 69.0884 172.5 69.8294C172.613 71.1745 171.148 71.9795 169.905 72.4078L163.46 74.57C161.157 75.3425 158.604 74.9423 156.384 73.9408C154.318 73.0084 152.494 71.5894 150.752 70.0979L150.366 69.7654C149.05 68.6255 147.271 67.3871 145.778 68.259C148.372 68.4232 150.264 70.7506 151.812 72.9518L151.96 73.1643C152.211 73.5238 152.469 73.9022 152.53 74.3416C152.704 75.5717 151.362 76.3882 150.228 76.7792C151.183 77.3119 150.71 78.8587 149.969 79.6827C148.893 80.8814 147.482 81.7441 145.961 82.1714L145.822 82.6717C145.813 82.7053 145.809 82.723 145.81 82.7234C146.528 82.6715 146.97 83.675 146.678 84.3592C146.385 85.0433 145.664 85.4076 144.972 85.6113C142.691 86.2827 140.115 85.7531 138.251 84.2295L137.888 84.4262C136.313 85.2749 134.684 86.0641 132.933 86.3316C131.048 86.6198 128.972 86.2153 127.61 84.8289L127.699 85.0331C127.892 85.478 128.065 85.9385 128.071 86.4233C128.078 86.9827 127.801 87.5868 127.292 87.7663C126.452 88.0625 125.718 87.1279 125.282 86.3238C125.043 86.9429 125.289 87.6395 125.529 88.3167C125.802 89.0893 126.066 89.8368 125.591 90.4154C125.097 91.018 124.159 90.8637 123.478 90.5083C120.929 89.1772 119.732 85.8269 120.284 82.9143C120.836 80.0017 122.848 77.5627 125.243 75.9519C123.617 74.7109 122.427 72.8632 121.942 70.8256C122.072 70.999 122.648 70.4411 123.467 69.6485C124.966 68.1987 127.275 65.9637 129.142 65.9846C129.499 65.9886 130.076 66.2765 130.642 66.5586C131.051 66.7629 131.455 66.964 131.764 67.052C131.79 67.0177 131.821 66.9865 131.856 66.9593L131.503 66.6953C130.793 66.17 130.051 65.676 129.21 65.4583C128.229 65.2044 127.067 65.4133 126.442 66.2406C124.914 68.2635 122.977 69.9505 120.795 71.1602L122.088 73.6464C121.554 73.9122 120.888 73.8636 120.392 73.5282L120.331 73.485L120.369 73.5347C121.114 74.5464 120.459 76.3103 119.24 76.5103C118.002 77.051 116.754 75.4361 116.875 74.0444C116.961 73.069 117.425 72.2048 117.89 71.3389C118.088 70.9693 118.287 70.5993 118.456 70.2203C119.029 68.9402 119.28 67.5181 119.53 66.105C119.873 64.1682 120.213 62.2484 121.371 60.7346C122.182 59.6743 123.318 58.937 124.484 58.3323C129.109 55.9326 134.582 55.3588 139.574 56.7503C140.424 53.5792 142.109 50.6556 144.397 48.3829L144.534 48.2498C145.409 47.4102 146.498 46.6601 147.659 46.7978L147.751 46.8105C148.904 46.9936 149.906 46.0674 150.744 45.2102L151.002 44.9462L151.204 44.7432C152.867 43.0898 154.798 41.5639 157.07 41.3993C159.091 41.2528 161.025 42.2189 162.77 43.2914C164.744 44.5048 166.621 45.8879 168.377 47.422L168.686 47.6942L168.768 47.7678L168.909 47.8936L168.93 47.9125L168.933 47.9156L168.934 47.9161C170.59 49.3967 172.401 51.0169 174.557 50.8826C176.767 50.745 178.381 48.8353 179.869 47.0755C179.989 46.9331 180.109 46.7917 180.228 46.6523C182.063 44.5019 184.152 42.6086 186.267 40.7541L187.175 39.961C187.449 39.7214 187.745 39.472 188.1 39.424C188.6 39.3564 189.055 39.7015 189.45 40.0278ZM149.509 76.4807C149.06 76.3876 148.447 76.4282 147.671 76.6027C148.182 76.6047 148.612 76.5952 148.962 76.5742C149.131 76.5524 149.299 76.525 149.465 76.4904L149.509 76.4807ZM132.874 66.1838C133.038 66.0088 133.211 65.8242 133.403 65.6664C133.76 65.4706 134.161 65.3712 134.566 65.4112C135.934 65.5466 136.971 67.0618 136.792 68.4807C136.069 70.3443 134.281 71.4077 132.513 72.4595C131.424 73.1074 130.342 73.7508 129.521 74.5742C129.727 74.2206 129.953 73.9384 130.181 73.7651C130.895 73.2242 131.641 72.7556 132.345 72.3139C132.936 71.9426 133.497 71.5903 133.982 71.2303C134.747 70.6637 135.26 70.1253 135.658 69.7081C135.962 69.3891 136.199 69.1409 136.428 69.0051C136.447 68.994 137.309 67.1741 135.225 65.9846C133.65 65.0865 132.949 66.2227 132.572 66.8333C132.45 67.0314 132.362 67.1741 132.289 67.1741C132.27 67.1741 132.244 67.1711 132.211 67.1651C132.263 66.9713 132.342 66.7843 132.443 66.6092C132.585 66.4933 132.726 66.3425 132.874 66.1838ZM133.32 65.7144C132.962 65.9304 132.654 66.244 132.443 66.6092L132.392 66.6501C132.288 66.7285 132.184 66.7864 132.076 66.8127C131.859 66.8659 131.344 66.4538 130.907 66.1048C130.645 65.8961 130.412 65.7099 130.288 65.6593C129.471 65.3257 129.375 65.321 128.808 65.293L128.808 65.293C128.713 65.2882 128.603 65.2829 128.475 65.2751L128.24 65.2598C128.189 65.2567 128.132 65.2542 128.071 65.2516C127.602 65.231 126.926 65.2015 127.061 64.8213C129.475 58.0189 139.79 56.5386 138.085 64.2281C137.944 64.8639 137.573 65.4204 137.203 65.9769C137.018 66.2552 136.833 66.5334 136.676 66.8216C136.01 65.8355 135.283 65.3157 134.498 65.2622C134.059 65.2324 133.708 65.4156 133.403 65.6664L133.32 65.7144ZM152.031 59.6119L152.033 59.608C151.465 60.7314 150.855 62.0836 150.204 63.6645C150.694 62.2599 151.307 60.9029 152.031 59.6119ZM156.63 60.648L156.551 60.6511C155.921 60.6786 155.357 60.7766 154.857 60.9452C154.302 61.1322 153.712 61.445 153.086 61.8835C154.181 61.2523 155.391 60.83 156.63 60.648Z" fill="white"/>
<path fill-rule="evenodd" clip-rule="evenodd" d="M124.444 89.1377C123.949 89.7402 123.232 89.5459 122.576 88.8794C121.201 87.4847 120.649 84.7936 121.201 81.881C121.754 78.9685 123.906 77.7684 126.301 76.1577C125.226 75.6968 123.279 72.7745 123.084 69.9346C123.746 70.8246 123.781 72.422 124.444 73.312C125.073 74.1566 126.329 75.1849 126.958 76.0294C127.038 76.1373 127.107 76.3185 126.993 76.3859C124.697 77.7437 123.209 78.1931 121.854 81.8808C120.5 85.5686 123.25 88.9798 123.615 88.8794C124.065 88.7556 123.906 88.1338 123.647 87.7308C122.918 86.5937 123.612 85.0775 124.206 83.8584C124.524 84.2294 123.76 85.2935 123.921 86.3999C124.078 87.4803 124.884 88.6012 124.444 89.1377Z" fill="#F5F7FA"/>
<path d="M134.379 76.9267C134.379 77.2547 134.124 77.5207 133.808 77.5207C133.493 77.5207 133.238 77.2547 133.238 76.9267C133.238 76.5986 133.493 76.3326 133.808 76.3326C134.124 76.3326 134.379 76.5986 134.379 76.9267Z" fill="#FEBE3F"/>
<path d="M132.382 74.5505C132.382 74.8786 132.127 75.1445 131.812 75.1445C131.497 75.1445 131.241 74.8786 131.241 74.5505C131.241 74.2224 131.497 73.9565 131.812 73.9565C132.127 73.9565 132.382 74.2224 132.382 74.5505Z" fill="#FEBE3F"/>
<path d="M46.4793 80.3845C46.8092 81.0254 46.2906 81.9419 45.5922 81.9523C44.994 78.4519 44.349 74.8299 42.4027 71.9084C38.6759 66.3145 30.9961 64.4772 27.8054 58.5349C25.6328 60.1447 22.3108 59.7343 20.5605 57.64C19.4719 56.3375 17.5744 56.1776 15.9396 56.4682C14.3049 56.7588 12.7078 57.4012 11.0502 57.3466C10.3309 57.3229 9.54726 57.1215 9.12865 56.5122C8.71005 55.9028 8.95189 54.8304 9.66424 54.7243C12.7677 54.2618 15.8711 53.7994 18.9745 53.3369C19.2182 53.3006 19.4768 53.2574 19.6618 53.0883C19.8712 52.8971 19.9369 52.5912 19.9912 52.3068C20.4405 49.9529 20.7642 47.1468 19.0992 45.4869C17.7193 44.1112 15.5414 44.1586 13.6667 44.5424C11.792 44.9262 9.85997 45.5577 8.01242 45.0509C6.16488 44.5441 4.61981 42.2594 5.6158 40.562C6.28289 39.4252 5.53069 37.909 4.5017 37.1171C3.4727 36.3251 2.19213 35.935 1.19476 35.1004C0.19738 34.2657 -0.435596 32.6553 0.358837 31.6109C0.708229 31.1516 1.2553 30.9096 1.79203 30.7333C3.56839 30.15 5.54911 30.1055 7.26141 30.8687C8.9737 31.632 10.3642 33.2679 10.6429 35.1851C10.8699 36.7471 10.4385 38.5643 11.4304 39.7598C12.7272 41.3229 15.124 40.4462 17.1079 40.4274C19.137 40.4081 21.1434 41.5281 22.251 43.2981C23.3585 45.0682 23.5315 47.4314 22.6945 49.3558C25.0514 46.8593 28.2258 44.9442 31.5859 45.0746C34.6894 45.195 37.541 47.0534 39.6166 49.4584C41.6923 51.8633 43.1083 54.7923 44.4968 57.6843C45.014 58.7617 46.3261 59.3457 47.4317 58.9905C48.5373 58.6353 49.3051 57.3832 49.1492 56.1897C50.1128 56.4083 50.2131 57.7643 50.2428 58.7904C50.3052 60.9464 51.0551 63.0749 52.3467 64.7615C52.7788 63.9318 53.1084 63.0444 53.325 62.1279C54.2677 63.2562 54.6195 64.8893 54.2298 66.3286C53.8401 67.7679 52.7209 68.9694 51.351 69.4191C50.622 69.6585 49.7306 69.7735 49.3688 70.4745C50.7358 72.9665 51.9117 75.5721 52.8814 78.2584C53.4014 79.6989 53.7765 81.5524 52.682 82.5867C51.4166 81.6141 50.6975 80.0714 50.0261 78.5905C48.9789 76.2806 47.9316 73.9707 46.8843 71.6608" fill="white"/>
<path fill-rule="evenodd" clip-rule="evenodd" d="M49.9336 57.2624C49.6586 60.0594 50.6643 62.9637 52.5903 64.9348C53.2771 64.5034 53.7163 63.6754 53.7011 62.8404C54.4229 64.0759 54.0185 65.7513 53.121 66.8549C52.2235 67.9585 50.9358 68.6202 49.6863 69.2516C48.9703 69.6135 48.227 69.9826 47.4315 70.0073C46.2178 70.0451 45.1305 69.2853 44.1381 68.5569L41.2266 66.4198C42.7308 69.342 46.1548 71.0436 49.2832 70.4237C51.4588 73.601 52.7909 77.3975 53.0947 81.2866L52.5099 80.1617C52.5045 80.148 52.4975 80.1343 52.4886 80.1208L52.5099 80.1617C52.5939 80.3774 52.2653 80.616 52.044 80.5045C51.8086 80.3858 51.7198 80.0908 51.6502 79.8283C50.7937 76.595 49.2588 73.5585 47.1838 70.9927L50.3257 77.9225C50.9971 79.4033 51.7161 80.946 52.9815 81.9186C54.0761 80.8843 53.7009 79.0308 53.1809 77.5903C52.2112 74.904 51.0354 72.2984 49.6683 69.8064C49.9622 69.2371 50.6052 69.0543 51.2269 68.8775L51.227 68.8775C51.3708 68.8366 51.5135 68.796 51.6505 68.751C53.0205 68.3013 54.1396 67.0998 54.5293 65.6605C54.919 64.2212 54.5672 62.5881 53.6245 61.4598C53.4079 62.3763 53.0783 63.2637 52.6462 64.0934C51.3547 62.4068 50.6047 60.2783 50.5423 58.1223C50.5126 57.0962 50.4123 55.7402 49.4488 55.5216C49.6047 56.7151 48.8368 57.9672 47.7313 58.3224C46.6257 58.6776 45.3136 58.0936 44.7963 57.0162C43.4078 54.1242 41.9919 51.1952 39.9162 48.7903C37.8405 46.3853 34.9889 44.5269 31.8854 44.4065C28.5254 44.2762 25.3509 46.1912 22.994 48.6877C23.8311 46.7633 23.658 44.4001 22.5505 42.63C21.443 40.86 19.4365 39.7401 17.4074 39.7593C16.8927 39.7642 16.3502 39.8268 15.8064 39.8896C14.2539 40.0688 12.6903 40.2493 11.7299 39.0917C11.0516 38.2742 11.0389 37.1659 11.0261 36.0473C11.0201 35.5302 11.0142 35.0109 10.9424 34.5171C10.6638 32.5998 9.27324 30.9639 7.56095 30.2006C5.84866 29.4374 3.86793 29.4819 2.09157 30.0652C1.55484 30.2415 1.00777 30.4835 0.658377 30.9428C-0.136055 31.9872 0.49692 33.5976 1.4943 34.4323C2.01922 34.8716 2.62258 35.1877 3.22642 35.5041L3.22643 35.5041L3.22644 35.5041C3.76993 35.7888 4.31381 36.0738 4.80124 36.449C5.83024 37.2409 6.58243 38.7571 5.91534 39.8939C4.91935 41.5913 6.46442 43.876 8.31196 44.3828C9.83922 44.8017 11.4242 44.4428 12.9869 44.089L12.9869 44.089C13.3146 44.0148 13.6413 43.9409 13.9663 43.8743C15.841 43.4906 18.0189 43.4431 19.3988 44.8188C21.0637 46.4787 20.74 49.2848 20.2907 51.6387C20.2364 51.9231 20.1707 52.229 19.9614 52.4203C19.7764 52.5893 19.5177 52.6325 19.274 52.6688L9.96378 54.0562C9.25143 54.1623 9.00959 55.2347 9.4282 55.8441C9.8468 56.4534 10.6304 56.6548 11.3497 56.6785C12.4494 56.7147 13.5226 56.4441 14.5977 56.1731L14.5978 56.1731L14.5978 56.173L14.5978 56.173L14.5978 56.173L14.5979 56.173L14.5979 56.173C15.1432 56.0355 15.6891 55.8979 16.2392 55.8001C17.8739 55.5095 19.7714 55.6694 20.86 56.9719C22.6103 59.0662 25.9324 59.4766 28.1049 57.8668C29.7839 60.9937 32.7059 62.9839 35.6408 64.983C38.2834 66.7829 40.9365 68.59 42.7022 71.2403C44.6485 74.1618 45.2935 77.7838 45.8917 81.2842C46.5901 81.2738 47.1087 80.3573 46.7788 79.7164L46.1226 80.6175C45.8802 75.1006 43.1735 69.7539 38.939 66.4271C37.8903 65.6033 36.7404 64.8811 35.5929 64.1604C33.0714 62.5769 30.5619 61.0009 29.1657 58.3706C29.04 58.1337 28.9229 57.8828 28.9025 57.613C28.8768 57.2716 29.0075 56.9425 29.1337 56.6248L29.1516 56.5795C29.6549 55.3085 30.0065 53.9138 29.7593 52.5634C29.5121 51.2129 28.5355 49.9359 27.2294 49.7327C29.4401 51.2048 29.8933 54.8581 28.1143 56.8666C26.3354 58.875 22.8008 58.7005 21.2125 56.5257C19.9395 54.7828 17.3941 54.9962 15.3452 55.4905C13.2963 55.9848 10.8835 56.5021 9.30073 55.0603C12.687 54.091 16.1714 53.4942 19.6775 53.283C20.5127 53.2327 20.8403 52.1481 20.9528 51.285C21.1257 49.9583 21.2987 48.6103 21.1092 47.286C20.9197 45.9618 20.3151 44.6408 19.2357 43.9129C17.9395 43.0389 16.2661 43.1743 14.7301 43.3416L10.6482 43.7862C9.76862 43.882 8.86472 43.976 8.01196 43.7322C7.1592 43.4884 6.35684 42.8265 6.19334 41.9217C6.09007 41.3503 6.24721 40.7876 6.40564 40.2203L6.40564 40.2203C6.51969 39.8119 6.6344 39.4011 6.65311 38.983C6.70637 37.7924 5.96754 36.7014 5.06978 35.9618C4.51974 35.5086 3.90684 35.152 3.29336 34.795L3.29335 34.795C2.90554 34.5694 2.5175 34.3436 2.14497 34.0932C1.44375 33.6219 0.724266 32.8604 0.919239 32.0155C1.04393 31.4752 1.5136 31.1006 1.98579 30.8415C3.58005 29.9666 5.57279 29.9273 7.19776 30.7387C8.82273 31.55 10.0407 33.1924 10.3833 35.0343C10.4678 35.4887 10.5062 35.9633 10.5446 36.4369L10.5446 36.4369C10.6332 37.5325 10.7215 38.6229 11.379 39.446C12.1644 40.4292 13.5219 40.6769 14.7489 40.6161C15.1696 40.5952 15.5902 40.5461 16.0105 40.4971L16.0105 40.4971C16.8161 40.4032 17.6204 40.3094 18.4213 40.4144C21.1144 40.7675 23.2362 43.6846 22.8325 46.4789C22.8102 46.6334 22.7815 46.7893 22.7526 46.9457C22.6499 47.5031 22.5461 48.0659 22.729 48.5895C22.9632 49.2599 23.9876 49.6169 24.3121 48.9886C25.7665 46.1734 29.102 44.755 32.1517 45.1268C35.2014 45.4986 37.9306 47.4103 39.9328 49.8338C41.9351 52.2572 43.2971 55.1736 44.5393 58.0968C44.9768 59.1265 46.2795 59.4994 47.3202 59.193C48.361 58.8867 49.1868 58.0768 49.9336 57.2624ZM44.6701 62.5151L44.6701 62.5152C44.9247 63.0339 45.3902 63.9826 46.004 64.2711C45.9767 64.5399 45.5706 64.396 45.4018 64.1906C44.9218 63.6068 44.4125 62.9351 44.4685 62.1689C44.4981 62.1646 44.5667 62.3043 44.67 62.515L44.6701 62.5151ZM45.9174 66.7769C46.2342 67.2602 44.3368 67.5007 43.7061 67.079C43.8172 67.0568 43.9635 67.0686 44.1256 67.0818C44.3178 67.0973 44.5321 67.1147 44.7357 67.079C45.034 67.0268 45.3219 66.9315 45.5392 66.8596C45.7501 66.7897 45.8945 66.7419 45.9174 66.7769ZM45.4619 64.9807C44.7066 65.1155 43.7787 64.0683 43.7787 63.0833C43.9964 63.8115 44.7698 64.3892 45.1971 64.7084C45.4146 64.8708 45.5424 64.9663 45.4619 64.9807ZM48.168 69.0993C47.162 69.0993 46.706 67.3335 47.162 67.22C47.2711 67.1685 47.2763 67.3266 47.2839 67.5602C47.2918 67.8058 47.3025 68.1347 47.4396 68.3909C47.592 68.6755 47.9146 68.8657 48.1029 68.9767C48.2453 69.0607 48.3109 69.0993 48.168 69.0993ZM49.2887 66.6948C49.5095 66.8214 49.7111 67.0178 49.7682 67.2735C49.8254 67.5291 49.6881 67.839 49.4412 67.8923C49.3639 67.774 49.4058 67.6988 49.45 67.6195C49.5149 67.503 49.5848 67.3776 49.2887 67.0936C49.164 66.9741 49.0189 66.9221 48.9171 66.8856C48.8387 66.8575 48.786 66.8386 48.788 66.8052C48.8008 66.5928 49.1096 66.5921 49.2887 66.6948ZM47.4058 64.3936C47.356 64.4296 47.3217 64.4544 47.3511 64.4828C47.442 64.5708 47.5489 64.6129 47.6558 64.549C47.7374 64.5002 47.7787 64.4014 47.7979 64.3056C47.9052 63.7705 47.3625 63.218 46.8511 63.3417C46.8964 63.4662 46.9833 63.506 47.0888 63.5544C47.2105 63.6102 47.357 63.6774 47.493 63.899C47.6763 64.1978 47.5081 64.3195 47.4058 64.3936ZM47.2338 69.4371C46.6414 69.2576 46.0557 67.8013 46.371 67.691C46.5677 67.6222 46.5666 67.6332 46.5552 67.7485C46.5447 67.854 46.5255 68.0468 46.6414 68.3457C46.7853 68.7168 46.9869 69.018 47.1153 69.2098C47.2033 69.3412 47.2568 69.4212 47.2338 69.4371ZM182.903 36.3747C181.632 36.5373 180.629 37.605 179.997 38.7653C179.692 39.3263 179.447 39.92 179.203 40.5136C178.941 41.1476 178.68 41.7815 178.345 42.3753C176.745 45.2083 173.705 46.7569 170.791 48.0224C170.289 48.2406 169.408 48.138 169.565 47.5953C174.335 46.653 178.442 42.7213 179.742 37.8514C179.895 37.2778 179.179 36.7936 178.626 36.9453C178.125 37.0825 177.769 37.5171 177.447 37.9482L177.347 38.0839C174.69 41.6816 170.875 44.7232 166.52 44.9196C166.212 44.9335 165.771 44.7377 165.907 44.4492C169.132 44.3366 172.173 42.6792 174.568 40.4271C176.963 38.1751 178.79 35.3524 180.499 32.502C180.763 32.0611 181.397 32.1553 181.87 32.323C183.32 32.8377 184.711 33.532 186.004 34.3866C186.699 34.8453 186.148 36.0694 185.359 36.3094C184.905 36.4473 184.432 36.4138 183.956 36.3802C183.604 36.3553 183.25 36.3304 182.903 36.3747ZM181.665 33.5673L181.553 33.5322C181.214 33.4309 180.835 33.3747 180.562 33.5939C180.456 33.6789 180.38 33.7962 180.311 33.916L179.403 35.5095C179.879 35.6242 180.336 35.8275 180.745 36.1067C181.079 36.3349 181.539 36.3437 181.881 36.1284C182.223 35.9131 182.429 35.4845 182.39 35.0706C182.376 34.9161 182.619 34.8741 182.721 34.9877C182.796 35.0726 182.819 35.189 182.842 35.305C182.849 35.3443 182.857 35.3835 182.867 35.4214C182.905 35.5714 183.022 35.7329 183.168 35.7021C183.317 35.5555 183.398 35.3385 183.383 35.1263C183.436 34.9073 183.765 35.1025 183.815 35.3221C183.866 35.5416 183.961 35.8538 184.171 35.7951C184.479 35.7159 184.575 35.2695 184.425 34.9786C184.275 34.6877 183.974 34.5232 183.686 34.3844C183.03 34.0679 182.354 33.7948 181.665 33.5673ZM178.905 36.1579C179.379 36.6544 180.069 36.9186 180.739 36.8603C180.328 36.3219 179.63 36.0407 178.978 36.1447L178.905 36.1579ZM144.972 85.6114C142.691 86.2828 140.115 85.7531 138.251 84.2295C136.563 85.1504 134.818 86.0435 132.933 86.3317C131.048 86.6198 128.972 86.2153 127.609 84.829C127.835 85.3369 128.064 85.8639 128.071 86.4234C128.078 86.9828 127.8 87.5868 127.291 87.7663C126.451 88.0625 125.718 87.1279 125.282 86.3239C125.043 86.9429 125.289 87.6395 125.529 88.3168C125.802 89.0894 126.066 89.8369 125.591 90.4155C125.097 91.0181 124.159 90.8637 123.478 90.5084C120.929 89.1773 119.732 85.8269 120.284 82.9144C120.836 80.0018 122.848 77.5627 125.243 75.952C123.617 74.711 122.427 72.8633 121.942 70.8256C122.274 71.2706 122.519 71.7875 122.765 72.3045L122.765 72.3046C123.011 72.8216 123.256 73.3386 123.588 73.7836C123.902 74.2059 124.302 74.5562 124.702 74.9065C125.102 75.2569 125.502 75.6072 125.816 76.0295C125.897 76.1373 125.966 76.3185 125.852 76.3859C123.555 77.7438 121.591 79.9075 120.939 82.5719C120.288 85.2363 121.194 88.3814 123.443 89.8229C123.84 90.077 124.312 90.2809 124.762 90.1572C125.213 90.0335 125.55 89.4452 125.292 89.0422C124.562 87.9051 124.474 86.3554 125.068 85.1362L126.953 87.336C127.386 87.22 127.493 86.6133 127.378 86.1632C127.341 86.0205 127.291 85.8796 127.241 85.739C127.134 85.4363 127.026 85.1347 127.055 84.8181C127.097 84.3544 127.679 83.9396 127.986 84.2784C129.211 85.6306 131.18 86.0141 132.943 85.7164C134.706 85.4188 136.321 84.538 137.9 83.6698L139.763 82.6453C139.629 83.2049 139.193 83.6748 138.661 83.8343C140.46 85.1798 142.865 85.6026 144.989 84.9466C145.355 84.8336 145.731 84.6772 145.968 84.366C146.205 84.0548 146.243 83.5487 145.957 83.2865C145.922 83.2544 145.883 83.2263 145.844 83.1983C145.767 83.1432 145.691 83.0884 145.647 83.0046C145.581 82.8782 145.683 82.6656 145.81 82.7235C146.528 82.6716 146.97 83.6751 146.678 84.3592C146.385 85.0434 145.664 85.4076 144.972 85.6114ZM132.239 75.6809C131.829 75.5438 131.369 75.838 131.191 76.2459C131.013 76.6538 131.063 77.1332 131.198 77.5587C131.241 77.0787 131.3 76.7168 131.474 76.4013C131.549 76.2652 131.782 76.1369 131.987 76.0241C132.252 75.8782 132.47 75.7582 132.239 75.6809ZM131.891 74.4748C132.489 74.3197 133.164 74.5592 133.546 75.0621C133.929 75.5649 133.998 76.304 133.716 76.8741C133.648 76.7889 133.632 76.6344 133.612 76.4408C133.553 75.8687 133.458 74.9545 131.891 74.4748ZM131.373 78.8948C131.183 79.1406 131.842 79.7901 132.873 79.3422C133.063 79.2592 132.908 79.2497 132.662 79.2347C132.438 79.2211 132.14 79.2029 131.962 79.1202C131.811 79.0503 131.734 78.9382 131.676 78.8543C131.591 78.7302 131.548 78.6677 131.373 78.8948ZM133.46 79.717C134.12 79.3745 133.706 80.3785 132.325 80.2554C132.2 80.2443 132.038 80.1943 132.039 80.0636C132.039 80.0177 132.156 80.0071 132.338 79.9907C132.62 79.9651 133.059 79.9253 133.46 79.717ZM129.387 77.8114C129.635 78.064 129.997 78.0707 130.238 78.0222C130.385 77.9926 130.457 77.8557 130.323 77.8114C130.291 77.801 130.239 77.7924 130.176 77.7821L130.176 77.7821C130.033 77.7586 129.834 77.726 129.701 77.6426C129.616 77.589 129.567 77.4061 129.526 77.2492C129.483 77.088 129.447 76.9543 129.387 77.017C129.267 77.1407 129.138 77.5587 129.387 77.8114ZM129.607 78.666C129.727 78.8566 129.269 78.791 129.171 78.666C129.072 78.541 128.975 78.0707 129.14 78.0707C129.188 78.0707 129.204 78.1448 129.224 78.2336C129.242 78.3155 129.263 78.4099 129.314 78.47C129.413 78.5868 129.479 78.6041 129.528 78.6168C129.561 78.6254 129.586 78.6319 129.607 78.666ZM150.212 77.7199C150.459 78.2335 150.026 78.8095 149.61 79.186C147.916 80.7169 145.892 81.8491 143.731 82.4747C146.06 82.4911 148.379 81.4536 149.969 79.6828C150.71 78.8588 151.183 77.312 150.228 76.7793C151.361 76.3883 152.704 75.5718 152.53 74.3417C152.469 73.9023 152.211 73.5239 151.96 73.1644L151.811 72.9518C150.264 70.7507 148.372 68.4233 145.778 68.259C147.271 67.3871 149.049 68.6255 150.366 69.7655L150.752 70.098C152.494 71.5894 154.318 73.0085 156.384 73.9409C158.604 74.9424 161.157 75.3425 163.46 74.57L169.905 72.4078C171.148 71.9796 172.613 71.1746 172.5 69.8295C172.438 69.0885 171.788 68.4514 171.074 68.4307C170.36 68.41 169.678 69.0086 169.576 69.7449L169.436 68.6003C169.09 68.2927 168.539 68.5563 168.261 68.9308C168.156 69.0725 168.068 69.2291 167.981 69.3852C167.837 69.6418 167.694 69.8972 167.475 70.0835C166.715 70.7312 165.704 70.1988 164.796 69.6393L164.23 69.2873C162.617 68.3008 160.706 68.1496 158.818 68.0004C158.41 67.9682 158.004 67.936 157.602 67.8956C154.97 67.631 152.377 66.9636 149.93 65.9217C152.174 67.8372 155.106 68.1588 158.063 68.4831C159.553 68.6466 161.05 68.8107 162.469 69.1799C163.594 69.4728 164.838 70.0698 165.114 71.2426C165.515 72.9454 163.572 74.2644 161.895 74.4237C159.152 74.6842 156.479 73.4698 154.15 71.92L153.888 71.7432C153.045 71.1672 152.228 70.5474 151.411 69.928C149.913 68.7916 148.417 67.6561 146.763 66.793C148.471 66.8825 149.718 65.5951 150.992 64.28L150.992 64.2799C151.68 63.5707 152.375 62.8534 153.154 62.3397C155.444 60.8299 158.368 61.1738 161.063 61.6586L161.487 61.7361C160.853 58.5398 159.305 55.5462 157.09 53.2358L160.895 61.0233C156.889 59.6339 152.085 61.3701 149.767 65.0449C151.556 58.7607 155.811 53.279 161.338 50.1395C163.119 50.8331 164.623 52.0707 166.125 53.3061C166.609 53.705 167.094 54.1036 167.587 54.4836C169.609 56.0408 172.068 57.3603 174.543 56.8968C176.323 56.5635 177.821 55.3584 179.151 54.0697L179.366 53.8601C180.95 52.2964 182.422 50.6102 183.767 48.82C185.239 46.861 187.048 44.5351 189.42 44.8271C189.839 44.8786 190.246 45.0147 190.652 45.1502C191.213 45.3376 191.771 45.5239 192.353 45.485C193.355 45.4178 194.277 44.0163 193.49 43.366L189.45 40.0278C189.055 39.7016 188.6 39.3565 188.1 39.424C187.745 39.472 187.449 39.7215 187.175 39.9611L186.267 40.7541C184.152 42.6087 182.063 44.5019 180.228 46.6524C180.112 46.7883 179.995 46.926 179.878 47.0647L179.869 47.0755C178.381 48.8353 176.767 50.745 174.557 50.8827C172.401 51.0169 170.59 49.3968 168.934 47.9162L168.929 47.9118C168.847 47.8389 168.766 47.7663 168.685 47.6943L168.377 47.422C166.621 45.888 164.744 44.5049 162.77 43.2915C161.025 42.2189 159.091 41.2529 157.07 41.3993C154.705 41.5707 152.71 43.2167 151.002 44.9463L150.744 45.2103C149.906 46.0675 148.903 46.9937 147.751 46.8106L147.659 46.7979C146.498 46.6602 145.409 47.4102 144.534 48.2498L144.397 48.383C142.109 50.6556 140.424 53.5793 139.573 56.7503C134.582 55.3589 129.109 55.9327 124.484 58.3324C123.318 58.9371 122.182 59.6743 121.371 60.7346C120.213 62.2485 119.873 64.1683 119.53 66.1051L119.53 66.1052V66.1053C119.28 67.5182 119.029 68.9403 118.456 70.2204C118.287 70.5994 118.088 70.9693 117.89 71.3389C117.425 72.2049 116.961 73.0691 116.875 74.0444C116.753 75.4361 118.002 77.051 119.239 76.5103C120.479 76.307 121.135 74.4872 120.33 73.4848C120.832 73.859 121.531 73.9233 122.088 73.6464L120.795 71.1602C122.977 69.9506 124.914 68.2635 126.442 66.2406C127.067 65.4134 128.229 65.2045 129.21 65.4584C130.051 65.676 130.793 66.1701 131.503 66.6953L131.856 66.9594C131.445 67.2709 131.682 68.0991 132.19 68.1254C131.862 66.7356 133.197 65.276 134.566 65.4113C135.934 65.5466 136.971 67.0618 136.792 68.4807C136.069 70.3445 134.281 71.4079 132.513 72.4596C130.594 73.6008 128.699 74.7282 128.212 76.8492C127.722 78.9861 129.305 81.3792 131.398 81.6649C133.49 81.9506 135.612 80.0634 135.668 77.8673C135.668 77.8673 135.978 77.9005 136.087 77.5587C136.26 77.0203 136.424 76.424 136.586 75.833L136.586 75.8321C136.891 74.7203 137.19 73.6274 137.536 72.9745C138.506 71.1439 140.312 69.6944 142.319 69.6439C142.957 69.6279 143.591 69.5294 144.223 69.4311C145.032 69.3054 145.839 69.1799 146.653 69.2266C148.103 69.3099 149.693 70.194 149.903 71.6906C148.294 71.3654 146.616 71.4203 145.03 71.8499L150.644 72.5451C151.877 72.6977 152.108 74.6849 151.229 75.598C150.4 76.459 149.138 76.6005 147.957 76.6553L147.743 76.6645C147.949 77.1029 148.463 77.1483 148.977 77.1937C149.489 77.239 150.002 77.2843 150.212 77.7199ZM180.076 52.1803C178.335 54.1919 176.301 56.354 173.702 56.4549C171.429 56.5432 169.441 55.0185 167.603 53.6083L167.467 53.5042L167.028 53.1702C164.974 51.619 162.846 50.1731 160.655 48.8395C158.959 47.8068 157.007 46.8093 155.105 47.3215L158.117 48.3084C157.609 48.592 157.428 49.3637 157.753 49.859C157.823 49.1174 158.647 48.6458 159.354 48.7618C160.061 48.8777 160.636 49.4181 161.074 50.0075C157.277 51.5234 154.046 54.5244 152.169 58.2799C151.82 58.9784 151.516 59.7008 151.212 60.423C150.801 61.4018 150.389 62.3801 149.865 63.2974C148.955 64.8915 147.607 66.3418 145.872 66.7641C145.629 66.8233 145.38 66.8621 145.131 66.9009C144.632 66.9786 144.135 67.0561 143.692 67.2966C143.642 67.3236 143.59 67.3523 143.537 67.3817C143.016 67.6713 142.374 68.0282 142.053 67.5574C141.528 66.7862 140.689 66.2542 139.79 66.1208C141.277 60.92 145.102 56.5003 149.917 54.4211C150.19 54.3035 150.085 53.879 149.936 53.6139L147.746 49.7128C147.544 49.3525 147.781 48.8625 148.137 48.6713C148.494 48.4802 148.919 48.5089 149.316 48.5605C151.849 48.8889 154.288 49.971 156.27 51.6458C156.587 51.9137 157.107 52.1768 157.339 51.8269C155.078 49.4531 151.844 48.3525 148.661 47.9089C151.412 47.629 154.257 48.5309 156.391 50.3597L156.495 50.4482C157.005 50.8792 157.622 51.3372 158.21 51.073C155.827 48.6928 152.567 47.2881 149.265 47.2178C149.945 46.6917 150.579 46.107 151.214 45.5222L151.214 45.5222L151.214 45.522C151.859 44.9279 152.503 44.3338 153.195 43.8013C154.568 42.7446 156.209 41.9196 157.913 42.0232C159.15 42.0984 160.311 42.6543 161.405 43.2594C163.719 44.5385 165.898 46.0824 167.89 47.8544C168.031 47.9799 168.173 48.1072 168.316 48.2354C170.209 49.9337 172.274 51.7864 174.721 51.5471C176.213 51.4012 177.535 50.4628 178.585 49.3498C179.166 48.734 179.684 48.0596 180.202 47.385C180.621 46.8403 181.039 46.2954 181.491 45.7811C182.143 45.0394 182.898 44.3419 183.824 44.0587C184.751 43.7755 185.88 44.0099 186.43 44.836L180.076 52.1803ZM120.113 65.9581C120.449 64.0465 120.78 62.1562 122.021 60.7646C122.629 60.0831 123.406 59.5923 124.198 59.1614C128.247 56.9568 132.969 56.1175 137.491 56.7989C138.597 56.9656 139.969 57.612 139.951 58.7058C139.944 58.7726 139.938 58.8395 139.932 58.9065C139.944 58.838 139.95 58.7711 139.951 58.7058C140.402 54.1322 142.961 49.8294 146.699 47.3791C147.031 49.7859 148.043 52.0866 149.578 53.9192C145.51 55.7029 142.133 59.1325 140.319 63.3215L140.29 63.3877C139.774 64.5621 138.957 66.0041 137.764 65.7116L138.354 61.911C138.409 61.5626 138.459 61.1851 138.3 60.8732C138.123 60.5249 137.744 60.3644 137.375 60.2485L137.245 60.2092C135.106 59.5788 132.706 58.9736 130.753 60.0782C129.719 60.6626 128.978 61.6419 128.284 62.6474L127.769 63.4006C126.546 65.1774 125.178 66.8453 123.683 68.3799C123.081 68.9979 122.43 69.6121 121.624 69.8782C120.817 70.1442 119.816 69.9652 119.337 69.2393C119.719 68.202 119.917 67.0764 120.113 65.9581ZM133.296 80.7677C132.026 81.2581 130.992 81.0164 130.001 80.4155C129.577 80.1583 129.177 79.8273 128.938 79.3808C128.58 78.7114 128.634 77.8803 128.84 77.1447C129.149 76.0452 129.781 75.0464 130.63 74.317C131.217 73.8127 131.892 73.4425 132.568 73.0724L132.568 73.0722C132.801 72.9445 133.034 72.8169 133.263 72.6837C135.504 71.3828 137.436 69.5123 138.845 67.2808C139.126 66.8353 139.719 66.6909 140.215 66.8225C140.711 66.954 141.125 67.3078 141.483 67.6891C141.739 67.962 141.929 68.5046 141.587 68.6424C139.195 69.6063 137.269 71.7457 136.499 74.2929C136.478 74.3624 136.458 74.4326 136.437 74.5029C136.32 74.9058 136.202 75.3136 135.951 75.6396C135.656 76.0224 135.065 77.3707 135.366 78.0099C135.366 78.0099 134.566 80.2774 133.296 80.7677ZM136.614 60.5899C137.002 60.6804 137.424 60.8104 137.636 61.1597C137.81 61.4456 137.799 61.8091 137.772 62.1464C137.664 63.4807 137.395 64.8008 136.972 66.0655C136.901 66.2793 136.68 66.5363 136.519 66.384C136.337 65.4266 135.497 64.6482 134.562 64.5709C133.628 64.4936 132.68 65.1243 132.355 66.0397C132.29 66.2204 132.065 66.2877 131.886 66.2378C131.752 66.2004 131.638 66.116 131.528 66.0249L131.42 65.933C130.306 64.9915 128.799 64.5734 127.384 64.8133C128.138 63.4918 129.095 62.296 130.207 61.2848C130.662 60.871 131.156 60.4807 131.731 60.2867C132.272 60.1041 132.853 60.1058 133.421 60.1359C134.495 60.1928 135.565 60.3448 136.614 60.5899ZM187.384 43.772C186.842 43.1713 186.101 42.7694 185.317 42.6552L186.206 41.4795C186.488 41.111 186.818 40.7328 187.262 40.6747C187.583 40.6327 187.898 40.7697 188.19 40.9145C189.167 41.399 190.088 42.0059 190.926 42.7178C191.206 42.9554 191.487 43.2206 191.609 43.5745C191.73 43.9284 191.632 44.3916 191.306 44.5535C190.981 44.7153 190.511 44.3608 190.645 44.0116L190.658 43.9725C190.713 43.7739 190.626 43.5394 190.454 43.4349L190.139 44.0633C190.11 44.1182 190.076 44.1713 190.024 44.2012C189.814 44.3221 189.643 43.9821 189.63 43.7326L189.627 43.698C189.605 43.4523 189.481 43.1389 189.264 43.2155C189.235 43.6363 188.946 44.0251 188.562 44.16C188.178 44.2949 187.721 44.1679 187.453 43.8514L187.384 43.772ZM119.589 74.7868L119.209 73.2859C119.028 73.2333 118.852 73.4217 118.826 73.6152C118.809 73.7441 118.837 73.8717 118.874 73.9975L118.932 74.1849C119.128 74.8219 119.123 75.5236 118.919 76.1577C118.542 75.355 118.345 74.4613 118.349 73.5679C118.103 73.4275 117.936 73.8558 117.954 74.1469L118.06 75.8843C117.545 75.4011 117.363 74.617 117.451 73.9011C117.539 73.1852 117.862 72.5241 118.225 71.9092C118.415 71.5882 118.625 71.2665 118.926 71.058C119.228 70.8495 119.643 70.778 119.951 70.9761C120.207 71.1406 120.325 71.4327 120.446 71.7289C120.537 71.9529 120.629 72.1792 120.782 72.3543C120.835 72.4161 120.898 72.4792 120.962 72.5434L120.963 72.5442L120.963 72.5444L120.963 72.5445C121.212 72.7944 121.478 73.0613 121.304 73.3304C120.768 72.9879 120.278 72.568 119.852 72.0864C119.698 73.081 119.839 74.1231 120.252 75.0345C120.336 75.2209 120.057 75.3986 119.882 75.3031C119.706 75.2076 119.639 74.9861 119.589 74.7868ZM171.054 69.8767C171.328 69.6239 171.579 69.3927 171.7 69.4557C172.054 69.6393 171.093 70.4464 170.585 70.6744C170.621 70.9302 170.978 70.8155 171.186 70.6744C171.394 70.5333 171.977 70.3815 171.863 70.535C171.152 71.4925 169.779 72.2535 168.51 72.4023C167.995 72.4627 167.359 72.3196 167.195 71.8083C167.046 71.3419 167.379 70.8817 167.731 70.535L167.815 70.4541C167.963 70.3163 168.201 70.1818 168.338 70.332C168.7 70.7315 169.334 70.4047 169.752 70.0685C169.752 70.0685 170.838 68.9781 171.02 69.0479C171.201 69.1173 170.478 70.3468 170.478 70.3468C170.657 70.2421 170.861 70.0541 171.054 69.8767ZM165.857 70.8889C165.986 70.8581 166.122 70.9127 166.234 70.9876C166.642 71.2604 166.837 71.8351 166.684 72.314C166.53 72.7929 166.043 73.1312 165.56 73.0946C165.491 73.0894 165.419 73.0759 165.365 73.0311C165.253 72.9369 165.267 72.7571 165.292 72.6088L165.474 71.5242C165.518 71.2623 165.608 70.9478 165.857 70.8889ZM142.859 68.4261C143.558 68.3031 144.282 68.3332 144.97 68.5138C144.931 68.8092 144.599 68.9434 144.319 69.0037C143.453 69.19 142.559 69.2301 141.681 69.1222C141.901 68.6919 142.397 68.5073 142.859 68.4261ZM186.711 44.3754L184.875 43.2469C185.78 43.1062 186.744 43.6008 187.188 44.4329C187.061 44.5538 186.859 44.4666 186.711 44.3754ZM146.485 67.0092C145.707 67.2237 144.938 67.473 144.18 67.7564C144.967 68.2093 146.084 67.8471 146.485 67.0092ZM138.878 65.9847C139.092 66.0306 138.995 66.3816 138.824 66.5237C138.304 66.9562 137.514 66.9935 136.958 66.6118L138.878 65.9847ZM187.729 39.8069C187.855 39.7758 187.985 39.8289 188.103 39.8843C188.869 40.2447 189.572 40.7531 190.163 41.3758L187.525 39.9736C187.565 39.8909 187.642 39.8283 187.729 39.8069ZM147.538 47.3826L147.564 47.4015C147.802 47.3659 148.048 47.3868 148.277 47.4624C148.077 47.8561 147.799 48.2065 147.465 48.4848C147.297 48.1396 147.327 47.7003 147.538 47.3826ZM192.68 43.5294L192.685 43.5467C192.977 43.67 193.175 43.9992 193.155 44.326C192.554 44.0018 192.069 43.4535 191.807 42.8044C192.165 42.9337 192.479 43.1941 192.68 43.5294ZM138.06 67.4992L138.016 67.5612C137.864 67.7764 137.683 68.0099 137.428 68.0408C137.173 68.0716 136.912 67.7285 137.092 67.5378C137.394 67.3968 137.748 67.3827 138.06 67.4992ZM120.005 70.164C120.233 70.2193 120.49 70.3918 120.454 70.6321C119.933 70.5613 119.419 70.436 118.922 70.2585C119.262 70.1104 119.647 70.0769 120.005 70.164ZM168.387 70.1178C168.269 70.1713 168.162 69.9465 168.275 69.8808C168.275 69.8808 169.051 68.4625 169.085 69.4557C169.102 69.7029 168.599 70.0052 168.387 70.1178ZM135.564 77.3997C135.621 76.9692 135.73 76.1577 135.951 76.1577C136.264 76.1232 136.144 76.6782 136.059 77.0692C136.035 77.177 136.015 77.2724 136.007 77.3395C135.978 77.5743 135.767 77.7589 135.526 77.6458C135.535 77.6114 135.548 77.5206 135.564 77.3997ZM62.7509 92.2821C64.3445 92.4253 65.9442 92.4938 67.5436 92.4872C67.43 94.0528 68.6529 95.5946 70.1512 95.7745C71.6494 95.9545 73.1775 94.743 73.4092 93.1916C73.5022 92.5684 74.3121 92.46 74.916 92.5089L78.76 92.8204C79.4189 92.8738 80.3512 92.6578 80.2802 91.9738L79.8447 87.7831C79.8055 87.4052 79.9321 86.8542 80.2902 86.929C81.8159 87.2478 83.4827 86.0303 83.6917 84.425C83.9007 82.8196 82.5823 81.1746 81.0269 81.1238C80.2796 81.0995 79.9241 80.0818 80.118 79.33C80.2223 78.9257 80.4205 78.5598 80.6189 78.1933C80.7894 77.8783 80.9602 77.5628 81.0718 77.2222C81.3132 76.4855 81.1107 75.4588 80.3827 75.2811C74.8541 73.9317 69.0504 73.8171 63.4766 74.9474L63.3745 74.9684C63.068 75.0327 62.7606 75.1119 62.4957 75.2826C61.6252 75.8438 61.5582 77.081 61.6007 78.1719L61.6291 78.7785C61.7819 82.2975 61.5158 85.8359 60.8386 89.2872L60.8233 89.3654C60.6718 90.152 60.5486 91.051 61.0532 91.6473C61.4271 92.0891 62.0255 92.2079 62.5962 92.2672L62.7509 92.2821ZM72.5567 93.126C72.6013 93.3526 72.5455 93.5887 72.458 93.8013L72.43 93.8659C71.9157 94.9965 70.3844 95.4813 69.3583 94.82C68.3128 94.1463 68.0565 92.4534 68.8522 91.4774C66.8303 91.7294 64.7815 91.746 62.7561 91.5267C62.1293 91.4588 61.3099 91.1065 61.4381 90.4642C62.3195 86.0469 62.5949 81.4991 62.2532 77.0016C62.1912 76.1866 63.155 75.7635 63.9274 75.6159C68.9115 74.6633 74.0689 74.7027 79.039 75.7314C79.6749 75.863 80.4933 76.3661 80.2115 76.9739C79.5481 78.4048 79.2829 80.0329 79.4563 81.6114C79.5005 82.014 79.8033 82.5409 80.1408 82.3391C81.0498 81.7955 82.3655 82.2313 82.8057 83.2218C83.2459 84.2123 82.7132 85.5383 81.7268 85.9077C80.7404 86.2772 79.5183 85.6082 79.2515 84.5528C79.0132 86.7265 79.0981 88.9384 79.5025 91.0853C79.6426 91.8295 78.6018 92.1103 77.8753 92.054L72.0764 91.6041C71.8987 91.8956 72.0809 92.1969 72.2724 92.5136C72.3919 92.7113 72.5151 92.915 72.5567 93.126ZM102.563 79.4832L113.921 79.721L114.107 79.7256C114.448 79.7368 114.792 79.768 115.099 79.9172C115.793 80.2545 116.112 81.0861 116.323 81.8529C117.45 85.9459 117.311 90.4057 115.931 94.4139L115.873 94.5781C115.693 95.0712 115.459 95.5629 115.034 95.8403C114.685 96.0687 114.26 96.1164 113.846 96.1395L113.758 96.1441C112.069 96.2275 110.374 96.1825 108.691 96.0097C109.567 95.448 109.789 94.0807 109.232 93.1796C108.676 92.2784 107.5 91.9021 106.51 92.1948C105.907 92.3732 105.345 92.8025 105.126 93.4147C104.908 94.0268 105.119 94.813 105.677 95.112C106.062 95.3187 105.996 95.9697 105.658 96.2533C105.321 96.5368 104.851 96.5569 104.417 96.5642L98.7188 96.6605C98.2904 96.6677 97.8401 96.6696 97.464 96.456C96.9307 96.153 96.6855 95.5005 96.5352 94.8877C96.1727 93.4092 96.1237 91.8482 96.3927 90.3482C96.7167 91.5328 98.119 92.2523 99.2188 91.798C100.319 91.3438 100.866 89.8191 100.321 88.7255C99.777 87.6319 98.265 87.218 97.2743 87.8914L97.2331 87.5092C97.0909 86.1695 96.9805 84.8123 97.2276 83.4927C97.4983 82.0476 98.2705 80.6282 99.5364 79.9714C100.46 79.4925 101.526 79.466 102.563 79.4832ZM114.962 80.7201C114.678 80.542 114.335 80.5114 114.001 80.4967L113.918 80.4933C110.385 80.3559 106.849 80.2864 103.313 80.2847L102.135 80.2867C101.389 80.2895 100.619 80.3005 99.9371 80.6133C98.9189 81.0801 98.2591 82.1627 97.99 83.2865C97.7208 84.4104 97.7853 85.5879 97.8515 86.7441C99.6419 86.2306 101.568 88.1246 101.355 90.0451C101.143 91.9656 99.0977 93.3527 97.2751 92.9823C97.1923 93.589 97.1111 94.2189 97.2822 94.8053C97.4534 95.3917 97.9533 95.9219 98.5417 95.9022L103.825 95.7252C104.152 95.7143 104.604 95.5382 104.509 95.2121C103.969 93.3608 105.527 91.1996 107.385 91.2214C109.244 91.2432 110.754 93.4405 110.174 95.2787C111.336 95.5508 112.543 95.6081 113.723 95.4469C114.107 95.3945 114.507 95.31 114.8 95.0482C115.089 94.7908 115.231 94.4016 115.351 94.0263C116.577 90.2015 116.711 86.0051 115.732 82.1038C115.606 81.5994 115.43 81.0566 115.025 80.7623L114.962 80.7201ZM64.8318 117.144C64.2694 113.334 64.2701 109.434 64.8341 105.623L64.8626 105.439C65.0026 104.574 65.2483 103.661 65.9423 103.185C66.4619 102.828 67.1182 102.802 67.744 102.801L72.5358 102.815C72.7539 102.816 72.9929 102.824 73.1569 102.974C73.3209 103.124 73.3164 103.467 73.1062 103.528C72.6043 103.673 72.3158 104.275 72.3767 104.814C72.4377 105.352 72.774 105.818 73.1689 106.172C74.1108 107.015 75.5748 107.314 76.6174 106.611C77.66 105.909 77.9052 104.098 76.9173 103.315C79.1555 103.267 81.3949 103.274 83.6328 103.336L84.4719 103.362C84.7432 103.371 85.0431 103.394 85.2326 103.596C85.3748 103.748 85.4216 103.969 85.4538 104.178C85.7016 105.791 85.4305 107.485 84.6942 108.928C84.5769 109.157 84.3053 109.411 84.1202 109.236C83.3339 108.493 82.0114 108.594 81.2068 109.315C80.4022 110.037 80.0912 111.236 80.2334 112.331C80.3702 113.386 81.1086 114.512 82.1295 114.459C82.4172 114.444 82.7164 114.341 83.0099 114.239C83.5367 114.057 84.045 113.882 84.4352 114.235L83.4116 118.996C83.2297 119.842 82.9033 120.845 82.0891 121.027C77.3888 122.073 72.4607 121.994 67.7937 120.797L67.5673 120.738C67.0009 120.583 66.4367 120.384 65.9948 119.99C65.2257 119.304 64.9856 118.186 64.8318 117.144ZM83.5279 115.086C82.1983 115.737 80.4659 115.179 79.6338 113.918C78.8016 112.657 78.8831 110.855 79.737 109.611C80.5909 108.366 82.1256 107.704 83.5896 107.834L83.7118 107.845C83.9171 107.863 84.1275 107.871 84.3018 107.764C84.5222 107.629 84.6162 107.352 84.6775 107.093C84.922 106.062 84.9085 104.965 84.6387 103.941L78.444 103.988C78.5569 105.778 77.1414 107.525 75.4273 107.711C73.7133 107.897 71.9823 106.491 71.7383 104.715L71.7042 104.451C71.6675 104.185 71.61 103.922 71.419 103.753C71.2848 103.634 71.1085 103.587 70.9343 103.551L70.8692 103.538C69.0668 103.183 66.7819 103.036 65.836 104.672C65.5139 105.229 65.4274 105.896 65.3618 106.542C64.9854 110.255 65.0749 114.018 65.6273 117.707L65.6543 117.879C65.7441 118.428 65.8848 118.992 66.2771 119.36C66.5469 119.613 66.9011 119.739 67.2525 119.842L67.3402 119.867C71.8348 121.154 76.6199 121.326 81.1893 120.367L81.4429 120.313C81.6676 120.263 81.9011 120.207 82.0777 120.054C82.3076 119.855 82.3961 119.534 82.4727 119.233L83.5279 115.086ZM116.958 124.52C116.958 124.52 116.983 123.778 117.073 123.534C117.236 123.094 117.715 122.468 117.715 122.468C117.681 122.638 117.635 122.819 117.587 123.006C117.422 123.647 117.24 124.356 117.517 124.88C117.73 125.284 120.851 127.413 121.924 127.912C126.511 130.046 131.12 131.977 135.752 133.917L135.752 133.918L135.752 133.918L135.753 133.918L135.753 133.918L135.753 133.918L135.754 133.918L135.754 133.918C137.648 134.712 139.545 135.506 141.446 136.317C138.181 135.903 135.174 134.32 132.245 132.763C131.613 136.415 133.567 140.096 136.204 142.592C138.125 144.41 140.385 145.758 142.645 147.105C143.489 147.608 144.333 148.111 145.158 148.638L145.462 148.834C148.392 150.744 151.194 153.154 152.488 156.479C152.725 157.088 153.454 157.436 154.052 157.224C154.651 157.013 155.026 156.275 154.857 155.641C155.484 156.176 155.122 157.372 154.363 157.668C153.604 157.964 152.734 157.563 152.174 156.953C151.752 156.494 151.458 155.933 151.164 155.372C151.067 155.189 150.971 155.006 150.87 154.826C149.062 151.598 145.866 149.593 142.697 147.758L141.209 146.9C137.769 144.901 134.244 142.499 132.771 138.714C127.423 139.597 121.855 138.998 116.793 136.994C115.71 136.565 114.65 136.074 113.59 135.583C111.902 134.8 110.215 134.018 108.441 133.492C107.452 133.198 106.089 133.167 105.719 134.165C105.719 134.165 105.719 134.165 105.719 134.166L105.718 134.168C105.707 134.187 105.637 134.316 105.321 134.344C105.173 134.357 105.037 134.087 104.995 133.908C104.959 133.858 104.947 133.717 104.947 133.426C104.947 133.27 105.253 132.586 105.829 132.163C106.23 131.869 106.681 131.762 106.918 131.706C107.024 131.681 107.087 131.666 107.082 131.649C107.07 131.61 106.66 131.499 106.288 131.687C106 131.832 105.728 132.024 105.478 132.2C105.091 132.473 104.756 132.709 104.499 132.677C104.151 132.635 103.903 132.466 103.9 132.101C103.896 131.736 103.989 131.292 104.259 131.063C104.837 130.573 105.584 130.303 106.329 130.314C106.49 130.317 106.668 130.341 106.773 130.468C106.878 130.595 106.826 130.848 106.666 130.856C105.7 130.901 104.583 131.069 104.207 132.101C104.097 132.402 104.788 132.45 105.056 132.29C105.211 132.197 105.344 132.072 105.478 131.947C105.574 131.856 105.671 131.766 105.776 131.687C106.09 131.452 106.48 131.329 106.867 131.343C107.023 131.349 107.194 131.386 107.286 131.517C107.378 131.649 107.313 131.887 107.157 131.89C106.156 131.907 105.242 132.81 105.173 133.851C105.177 133.888 105.204 134.06 105.321 134.101C105.457 134.149 105.608 134.033 105.614 134.021C106.136 133.052 107.088 132.404 108.111 132.729C108.498 132.851 108.87 133.038 109.241 133.224C109.889 133.549 110.533 133.872 111.24 133.844L110.815 131.502C109.095 129.86 106.503 129.282 104.287 130.045C104.05 130.126 103.794 130.245 103.697 130.484C103.601 130.724 103.813 131.072 104.046 130.979C103.679 131.333 103.059 130.733 103.199 130.234C103.338 129.734 103.865 129.478 104.348 129.347C107.062 128.613 109.766 129.892 112.38 131.129L112.381 131.129C112.865 131.359 113.347 131.587 113.825 131.8C119.147 134.175 125.16 134.839 130.842 133.68C130.596 134.382 129.755 134.594 129.042 134.678C123.981 135.27 118.782 134.545 114.049 132.587C113.471 133.351 113.747 134.539 114.405 135.23C115.062 135.921 115.993 136.235 116.888 136.514C121.906 138.075 127.227 139.269 132.354 138.159L131.523 133.097L131.506 133.005C131.465 132.803 131.39 132.594 131.208 132.53L131.163 132.514C124.59 130.19 119.581 128.42 113.078 121.966C113.065 121.953 113.052 121.939 113.04 121.926C112.992 123.865 112.401 124.292 109.937 123.764C104.56 122.61 99.0556 122.006 93.6292 122.8C94.0396 120.688 94.5536 118.599 95.1684 116.542C93.4027 117.135 91.3182 115.451 91.4324 113.523C91.5466 111.595 93.8141 110.19 95.4964 111.004C96.0742 109.616 96.1109 107.993 95.5963 106.579C95.3494 105.9 96.3334 105.508 97.0306 105.508L100.883 105.507C101.421 105.507 102.172 105.247 102.038 104.704C101.721 103.416 102.572 101.945 103.813 101.634C105.032 101.328 106.404 102.197 106.719 103.456L106.735 103.526C107.028 104.879 108.673 105.308 110.005 105.282L110.667 105.265C111.819 105.24 113.019 105.279 113.79 106.117C114.711 107.12 114.505 108.717 114.201 110.078L114.181 110.169C114.033 110.819 113.817 111.348 113.6 111.88C113.186 112.892 112.767 113.916 112.804 115.816C112.82 116.59 112.846 117.301 112.877 117.952C112.984 117.495 113.078 117.193 113.078 117.193C113.078 117.193 125.634 126.925 133.388 128.246C134.318 127.392 133.781 125.726 132.845 124.88C132.451 124.523 132.002 124.235 131.554 123.947L131.554 123.947C130.939 123.552 130.326 123.159 129.86 122.592C128.933 121.465 128.767 119.913 128.603 118.373C128.424 116.7 128.247 115.042 127.095 113.963C126.992 113.867 126.883 113.777 126.773 113.687C126.527 113.485 126.28 113.282 126.112 113.009C125.697 112.333 125.901 111.392 126.404 110.783C126.907 110.175 127.643 109.835 128.371 109.571C129.882 109.021 131.539 108.715 133.083 109.157C134.626 109.6 136.008 110.938 136.16 112.597C136.453 111.937 137.096 111.46 137.79 111.387L136.782 112.503L138.058 112.53L136.302 113.551C137.391 115.647 137.214 118.232 136.516 120.501C136.431 120.779 136.338 121.057 136.245 121.335L136.245 121.335L136.245 121.335L136.245 121.335L136.245 121.336L136.245 121.336C135.872 122.45 135.496 123.572 135.592 124.735C135.711 126.164 136.93 127.624 138.262 127.332L138.329 127.315C139.931 126.894 141.685 127.138 143.124 127.982C144.802 128.966 145.945 130.636 147.076 132.288L147.076 132.288L147.076 132.288L147.076 132.288L147.076 132.288L147.076 132.288L147.076 132.288L147.076 132.288L147.076 132.288L147.076 132.289L147.077 132.289C147.339 132.672 147.6 133.054 147.868 133.426C149.122 135.173 150.607 136.798 152.464 137.81C154.32 138.822 156.596 139.156 158.53 138.316C158.885 138.161 159.227 137.969 159.568 137.778L159.568 137.778C160.148 137.452 160.725 137.127 161.366 136.989C162.384 136.769 163.68 137.288 163.801 138.363C163.275 137.447 162.027 137.285 161.045 137.594C160.491 137.768 159.98 138.053 159.469 138.338L159.469 138.338C159.074 138.558 158.678 138.779 158.263 138.949C156.18 139.8 153.755 139.284 151.838 138.084C149.981 136.921 148.526 135.185 147.214 133.386L147.087 133.211C146.953 133.026 146.82 132.84 146.687 132.653C145.764 131.362 144.834 130.062 143.616 129.08C142.25 127.978 140.415 127.327 138.77 127.856L138.67 127.89C137.096 128.445 135.43 126.878 135.147 125.173C134.864 123.469 135.531 121.767 136.184 120.176C136.858 118.536 135.621 116.622 134.061 115.883C132.614 115.197 130.876 115.212 129.441 115.924C128.976 116.155 128.891 116.79 128.907 117.333L128.909 117.393C128.99 119.311 129.482 121.326 130.826 122.64C131.226 123.03 131.688 123.345 132.149 123.66L132.149 123.66C132.726 124.054 133.302 124.447 133.753 124.985C134.564 125.954 134.689 127.767 133.562 128.291C135.496 128.654 137.409 129.136 139.289 129.732C129.175 128.654 119.875 123.688 113.199 117.689C113.062 117.967 112.966 118.261 112.907 118.562C112.923 118.863 112.938 119.149 112.954 119.422C112.975 119.807 112.995 120.164 113.01 120.495C113.331 121.596 114.083 122.567 115.114 122.994C115.033 122.22 115.283 121.415 115.785 120.838C115.459 121.596 114.943 123.049 116.958 124.52ZM132.493 109.698C131.593 109.523 130.678 109.43 129.763 109.42C129.701 109.54 129.677 109.682 129.697 109.816C130.718 109.905 131.723 110.185 132.65 110.639C132.262 111.042 131.622 110.8 131.103 110.604L131.072 110.593C130.184 110.258 129.208 110.177 128.28 110.361C127.807 110.455 127.334 110.623 126.969 110.951C126.605 111.279 126.366 111.79 126.447 112.284C126.551 112.916 127.122 113.347 127.691 113.59C129.103 114.192 130.795 114.022 132.07 113.151C132.174 113.08 132.32 113.198 132.326 113.327C132.332 113.455 132.248 113.569 132.161 113.66C131.652 114.186 130.896 114.354 130.18 114.398C129.971 114.41 129.761 114.415 129.55 114.419C129.041 114.429 128.532 114.439 128.039 114.569C128.106 114.992 128.613 115.137 129.023 115.168C130.591 115.287 132.182 115.067 133.666 114.527C134.038 114.392 134.379 114.78 134.598 115.12L136.197 117.604C136.722 117.089 136.691 116.2 136.443 115.495C136.346 115.219 136.223 114.953 136.1 114.688C135.908 114.274 135.717 113.861 135.627 113.414C135.577 113.167 135.559 112.914 135.541 112.661C135.516 112.306 135.491 111.952 135.379 111.618C134.981 110.442 133.671 109.926 132.493 109.698ZM113.182 132.368L111.731 131.5C111.57 131.404 111.273 131.388 111.289 131.58C111.24 132.36 111.301 133.315 111.782 133.965C112.086 134.375 112.305 134.584 113.377 134.861L113.298 132.677C113.294 132.562 113.278 132.426 113.182 132.368ZM135.278 120.488C135.454 120.382 135.567 120.192 135.672 120.01C135.86 119.685 136.053 119.34 136.062 118.96C136.07 118.581 135.818 118.166 135.453 118.151C135.272 118.144 135.1 118.234 134.951 118.343C134.623 118.585 134.369 118.936 134.236 119.332C134.404 119.584 134.784 119.359 134.953 119.108C135.122 118.857 135.372 118.54 135.64 118.665C135.463 119.305 135.15 119.904 134.729 120.406C134.841 120.583 135.102 120.595 135.278 120.488ZM138.181 138.934C137.777 138.267 137.342 137.546 136.623 137.329C138.218 140.455 140.69 143.088 143.655 144.82C144.69 145.425 145.782 145.921 146.873 146.417C148.394 147.109 149.914 147.8 151.274 148.782C152.979 150.012 154.389 151.682 155.343 153.599C154.968 150.865 152.772 148.772 150.428 147.479C149.366 146.894 148.251 146.422 147.136 145.951C145.789 145.381 144.442 144.811 143.192 144.042C141.2 142.815 139.493 141.091 138.255 139.055L138.227 139.01L138.182 138.935L138.181 138.934ZM143.192 139.858L143.236 139.961C143.432 140.434 143.568 141.028 143.2 141.349C142.906 141.604 142.461 141.507 142.114 141.337C141.365 140.971 140.746 140.325 140.397 139.544C140.834 139.454 141.244 139.225 141.558 138.895C141.819 138.622 142.28 138.677 142.574 138.911C142.868 139.146 143.035 139.509 143.192 139.858ZM142.954 140.977C143.331 140.272 142.561 139.232 142.185 139.164C142.022 139.135 141.853 139.304 141.672 139.485C141.485 139.671 141.286 139.87 141.066 139.881C141.066 139.881 142.576 141.683 142.954 140.977ZM161.986 143.005C171.149 142.692 180.095 138.045 185.845 130.611C186.142 130.226 186.732 130.22 187.146 130.462C187.559 130.703 187.839 131.128 188.103 131.538C188.392 131.495 188.4 131.029 188.202 130.807C188.104 130.697 187.981 130.618 187.858 130.538C187.731 130.457 187.605 130.375 187.506 130.261C187.105 129.799 187.319 129.073 187.554 128.502L188.599 125.953C188.739 125.612 188.958 125.213 189.315 125.219C189.576 125.222 189.777 125.449 189.942 125.659C191.746 127.947 193.42 130.347 194.951 132.841C194.007 132.993 193.099 132.509 192.204 132.032C191.204 131.498 190.219 130.973 189.217 131.351C188.343 131.681 187.828 132.597 187.365 133.436C185.852 136.182 184.118 138.826 181.922 141.015C176.821 146.098 169.704 148.298 162.771 149.689C167.059 151.379 171.784 151.853 176.304 151.047C178.89 150.586 181.469 149.677 183.485 147.928C184.302 147.22 185.01 146.388 185.714 145.56L190.907 139.459C191.211 139.102 191.772 139.445 192.055 139.82C192.338 140.195 192.722 140.663 193.154 140.503C192.845 139.782 192.308 139.17 191.647 138.783C191.608 137.922 191.583 137.001 192.023 136.27C192.463 135.54 193.558 135.185 194.128 135.809C195.998 137.857 197.79 139.982 199.497 142.177C198.495 142.341 197.543 141.892 196.598 141.447C196.306 141.309 196.015 141.171 195.723 141.052C194.486 140.549 192.752 140.56 192.188 141.811C190.646 145.234 189.043 148.745 186.396 151.333C181.974 155.655 175.513 156.631 169.486 157.342C166.813 157.658 164.067 157.957 161.465 157.249C159.571 156.733 157.847 155.707 156.149 154.692L154.802 153.887C154.405 153.99 154.723 154.616 155.076 154.832C157.332 156.217 159.657 157.628 162.244 158.053C162.903 158.161 163.571 158.203 164.237 158.229C170.377 158.469 176.562 157.348 182.262 154.962C184.639 153.967 187.059 152.636 188.364 150.341L192.964 142.254C193.14 141.944 193.334 141.617 193.647 141.463C194.028 141.276 194.476 141.395 194.88 141.517L199.192 142.821C199.633 142.954 200.042 142.417 199.996 141.941C199.95 141.466 199.621 141.081 199.307 140.732L195.331 136.301C194.806 135.716 194.242 135.106 193.502 134.893C192.761 134.681 191.808 135.055 191.664 135.841C191.236 138.16 189.714 140.072 188.245 141.871C185.972 144.657 183.605 147.519 180.45 149.122C175.925 151.421 170.578 150.753 165.623 149.82L168.836 148.845C170.426 148.363 172.019 147.88 173.56 147.25C179.54 144.803 184.634 140.083 187.66 134.184C188.186 133.16 188.804 131.976 189.901 131.771C190.803 131.602 191.572 132.156 192.359 132.723C192.826 133.06 193.299 133.401 193.81 133.598C194.564 133.887 195.734 133.475 195.557 132.659C195.517 132.475 195.409 132.315 195.304 132.161L191.214 126.158C190.646 125.325 189.796 124.384 188.862 124.696C188.111 124.948 187.83 125.849 187.582 126.644C187.567 126.692 187.552 126.74 187.537 126.786C186.373 130.48 183.242 133.06 180.271 135.414C178.971 136.444 177.667 137.477 176.264 138.348C172.166 140.894 167.36 141.971 162.597 142.293C161.252 142.384 160.406 143.698 159.632 144.901L159.632 144.901L159.63 144.904C159.539 145.046 159.448 145.186 159.358 145.323C158.033 147.334 156.145 148.938 153.988 149.887C154.349 150.302 155.006 150.053 155.462 149.756C157.627 148.348 159.464 146.396 160.772 144.114C161.061 143.61 161.423 143.025 161.986 143.005ZM133.236 121.456C133.025 121.936 132.556 122.282 132.051 122.329C131.545 122.376 131.024 122.122 130.736 121.688C130.629 121.528 130.63 121.216 130.816 121.233C131.202 121.768 132.008 121.906 132.539 121.529C132.769 121.365 133.167 121.176 133.236 121.456ZM129.175 117.965C129.22 117.563 129.546 117.213 129.931 117.153C130.316 117.094 130.726 117.329 130.882 117.7C130.601 117.7 130.412 117.647 130.255 117.603C129.936 117.513 129.747 117.46 129.175 117.965ZM132.158 120.207L131.72 120.402L131.695 120.387C131.581 120.612 131.247 120.357 131.221 120.104C131.216 120.052 131.213 119.997 131.211 119.941C131.201 119.726 131.191 119.504 131.02 119.407C130.808 119.726 130.711 120.146 130.834 120.512C130.958 120.878 131.334 121.156 131.701 121.087C132.068 121.018 132.332 120.55 132.158 120.207ZM132.684 117.098C133.238 117.144 133.385 117.175 133.538 117.555C133.568 117.629 133.332 117.559 133.106 117.492L133.106 117.492C132.94 117.443 132.78 117.395 132.737 117.409C130.882 117.981 132.13 117.051 132.684 117.098ZM132.527 118.095C132.833 118.347 132.745 119.354 132.293 119.164C132.104 119.085 131.877 117.558 132.527 118.095ZM147.184 145.044C147.038 144.855 147.203 144.517 147.437 144.529C147.54 144.598 147.61 144.718 147.621 144.845C147.533 144.995 147.35 145.076 147.185 145.04L147.184 145.044ZM143.02 143.083L143.338 143.032L143.364 143.023C143.475 142.808 143.113 142.562 142.969 142.754C142.937 142.864 142.957 142.989 143.02 143.083ZM145.287 144.39C145.102 144.442 145.077 144.112 145.181 143.945L145.622 144.154C145.554 144.278 145.428 144.365 145.292 144.383L145.287 144.39ZM139.783 139.581C139.734 139.455 139.559 139.407 139.457 139.491L139.485 139.52C139.397 139.641 139.467 139.846 139.608 139.881C139.738 139.868 139.832 139.707 139.783 139.581ZM130.101 119.188C129.924 119.188 129.738 119.007 129.747 118.693C129.756 118.38 129.838 118.09 130.101 118.244C130.364 118.398 130.284 119.188 130.101 119.188ZM47.4677 81.057C47.5745 81.2032 47.8187 81.139 47.9127 80.9835C48.0067 80.828 47.9949 80.6299 47.9779 80.4471C47.732 77.8026 47.0727 75.2002 46.0339 72.7735C45.738 72.0823 45.4269 71.2204 45.8799 70.6286C46.9272 73.3535 47.9832 76.1123 48.3647 79.0202C48.4688 79.8139 48.5062 80.683 48.0811 81.3508C47.6561 82.0185 46.597 82.2745 46.1247 81.6421C46.8511 81.4841 47.4068 80.7184 47.3544 79.9479C47.6899 80.186 47.7476 80.7507 47.4677 81.057ZM55.9331 133.566C59.7332 133.348 64.1356 132.777 66.1289 129.402C66.6458 128.527 66.5355 127.151 66.4447 126.017C66.3717 125.106 66.3112 124.352 66.5985 124.138C67.2434 123.66 67.7594 124.894 67.7594 124.894C67.7781 124.813 67.7995 124.714 67.8236 124.601L67.8243 124.598L67.8244 124.597C68.0045 123.756 68.3362 122.207 68.8573 122.498C69.0717 122.618 68.9979 123.371 68.9472 123.888C68.9353 124.01 68.9247 124.118 68.9193 124.203C68.9072 124.283 68.9055 124.349 68.9146 124.397C68.9218 124.394 68.9294 124.389 68.9373 124.384C68.9428 124.383 68.9494 124.378 68.9573 124.368C69.0416 124.294 69.1571 124.111 69.2855 123.907C69.5516 123.485 69.8733 122.975 70.089 123.163C70.4277 123.457 69.2236 125.336 69.2236 125.336C69.2236 125.336 70.6537 123.701 70.7743 124.397C70.8949 125.093 67.6382 131.381 64.6984 133.848C61.7586 136.314 57.6163 137.695 53.8707 137.2C53.9543 135.654 54.4475 133.65 55.9331 133.566ZM68.9573 124.368C68.9504 124.374 68.9438 124.379 68.9373 124.384C68.9147 124.387 68.9121 124.318 68.9193 124.203C68.9469 124.021 69.0286 123.771 69.1593 123.533C69.1345 123.615 69.1097 123.694 69.0864 123.768C68.9821 124.102 68.9065 124.343 68.9849 124.324C68.9744 124.344 68.9652 124.358 68.9573 124.368ZM69.6651 122.949C69.4545 123.087 69.2844 123.305 69.1593 123.533C69.3544 122.89 69.5519 122.078 69.0716 122.014C68.2572 121.903 67.461 123.284 67.6024 124.017C67.3764 123.433 66.4358 123.685 66.208 124.269C66.0332 124.716 66.1076 125.207 66.1814 125.693C66.2038 125.841 66.2261 125.988 66.2414 126.134C66.4861 128.46 64.8109 130.634 62.7801 131.637C60.8654 132.583 58.6924 132.716 56.5671 132.785L56.0712 132.8C54.8578 132.833 53.5438 132.804 52.6178 131.997C51.6636 131.166 51.6647 129.195 52.8628 128.847C55.9041 127.963 58.224 124.878 58.3185 121.592C58.3464 120.621 58.9514 119.813 59.5361 119.032C59.5658 118.992 59.5954 118.952 59.6249 118.913C59.6476 118.882 59.6702 118.852 59.6927 118.822L59.8212 118.647C60.4757 117.743 61.0137 116.498 60.4641 115.521C59.6127 116.658 58.0177 117.117 56.7263 116.596C56.1875 116.378 55.7102 116.015 55.2358 115.654C54.6005 115.17 53.9705 114.691 53.2055 114.571C51.7093 114.336 50.2252 115.914 50.4813 117.466C50.0763 117.112 49.4476 117.648 49.4038 118.196C49.3781 118.519 49.4595 118.832 49.5413 119.148C49.5986 119.369 49.6562 119.59 49.6771 119.816C49.7013 120.079 49.6755 120.342 49.6496 120.606L49.6495 120.606C49.632 120.784 49.6145 120.962 49.6124 121.141C49.6016 122.065 49.9971 122.92 50.3866 123.762C50.4259 123.847 50.4652 123.932 50.5039 124.017L50.6081 124.248C51.0516 125.249 51.3805 126.44 50.9079 127.427C50.4353 128.413 48.8266 128.722 48.3709 127.727C46.1372 122.851 41.0743 119.531 35.8849 119.539C29.8764 119.548 24.4703 123.67 20.9294 128.724C20.4878 129.354 20.0555 130.033 19.9593 130.807C19.863 131.58 20.2079 132.468 20.9148 132.727C21.6218 132.986 22.5385 132.262 22.3081 131.52C22.6668 131.955 23.4004 131.543 23.5693 130.997C23.6642 130.69 23.6631 130.366 23.6619 130.041C23.661 129.788 23.6601 129.534 23.7048 129.287C23.9238 128.075 25.1212 127.375 26.1989 126.863L26.4162 126.761C28.9548 125.565 31.5997 124.497 34.3764 124.294C37.2324 124.085 40.2802 124.912 42.2429 127.081C39.5648 127.743 38.0095 130.541 36.7697 133.124L36.5978 133.485C35.3461 136.101 33.7066 138.956 30.9617 139.511C31.0661 140.075 31.5442 140.541 32.0914 140.613L22.0286 146.841L22.8005 147.838C20.3505 151.747 17.5794 155.438 14.5276 158.857C12.8683 160.717 10.7137 162.643 8.31162 162.21C7.87726 162.132 7.45613 161.977 7.03646 161.822C6.42192 161.596 5.81051 161.37 5.16528 161.389C4.07941 161.422 2.98969 162.797 3.72677 163.628C5.35914 165.467 7.22222 167.085 9.25378 168.427L9.3064 168.461C9.55371 168.621 9.82573 168.771 10.1125 168.737C10.4024 168.702 10.6384 168.488 10.854 168.283L24.4824 155.347C25.5986 154.296 26.8269 153.244 28.3138 153.09L28.4393 153.074C29.539 152.915 30.4449 152.191 31.3534 151.465L31.3536 151.465L31.3537 151.465C31.7492 151.149 32.1452 150.833 32.5579 150.562C33.9545 149.647 36.2712 149.553 36.8144 151.176C37.1031 152.038 36.7253 152.915 36.3529 153.779C36.2419 154.036 36.1314 154.293 36.0392 154.547C35.6375 155.656 35.9666 157.362 37.1047 157.341L43.4739 157.223C43.7028 157.221 43.9439 157.234 44.1219 157.38C44.3081 157.533 44.3734 157.786 44.4093 158.035L44.424 158.149C44.6639 160.18 44.6308 162.246 44.3261 164.267C43.9958 166.458 43.117 168.867 41.1316 169.67C39.8793 170.177 38.4845 169.914 37.1655 169.599L29.1512 167.651C29.1378 166.64 30.0158 165.818 30.9518 165.55C31.7453 165.323 32.5788 165.392 33.4042 165.461H33.4043H33.4045L33.5318 165.471L33.5565 165.473L33.8476 165.496C35.8759 165.641 37.9264 165.445 39.8953 164.917L37.0543 157.516C37.3439 159.973 37.9823 162.385 38.9424 164.65L29.603 164.966C28.7898 164.989 27.8869 164.952 27.3402 164.334C27.1999 164.175 27.0829 163.98 26.967 163.787L26.967 163.787C26.729 163.39 26.4954 163 26.0728 162.949C25.7076 162.905 25.3768 163.159 25.0971 163.407C23.2712 165.029 21.7552 167.027 20.6628 169.251C21.0566 170.266 22.3614 170.55 23.3751 170.259C23.968 170.089 24.5092 169.782 25.0514 169.474L25.0515 169.474C25.4362 169.256 25.8214 169.037 26.226 168.867C28.4836 167.917 30.9655 168.561 33.3497 169.308L34.7658 169.757C37.5644 170.632 40.9767 171.081 43.0739 168.963C44.3114 167.713 44.7623 165.853 45.0073 164.076C45.7144 158.948 45.1412 153.635 43.3591 148.799C45.3461 148.001 46.2837 145.687 47.0126 143.604L48.4401 139.525C48.9171 138.161 50.0006 136.489 51.2904 137.038C54.9774 138.608 59.3324 137.944 62.765 135.84C66.1976 133.736 68.7673 130.328 70.498 126.593L70.5444 126.492C70.8831 125.75 71.3148 124.018 70.9292 123.826C70.7854 123.708 70.5294 123.904 70.3549 124.036C70.2605 124.108 70.19 124.162 70.174 124.138C70.1642 124.124 70.1958 124.028 70.2406 123.892C70.4169 123.357 70.7974 122.203 69.6651 122.949ZM45.2662 145.849C44.8202 146.893 44.0821 148.122 42.9926 147.984C42.4093 147.909 41.9686 147.451 41.5722 146.98L41.3598 146.724C39.0573 143.941 35.9294 142.092 32.7856 140.39L31.7382 139.826C34.299 139.302 35.8788 136.665 37.0068 134.215L37.3663 133.435C38.3978 131.208 39.5715 128.918 41.699 127.916C41.993 127.777 42.3303 127.667 42.6336 127.782C42.6574 127.791 42.6821 127.801 42.7075 127.811C42.7313 127.82 42.7558 127.83 42.7808 127.84C43.1552 127.99 43.6375 128.183 43.6298 127.813C42.9471 127.527 42.8349 126.49 43.2286 125.843C43.5882 125.252 44.2109 124.911 44.8275 124.617L45.0033 124.534C44.6099 123.97 43.7575 124.444 43.3121 124.965L43.2754 125.008C42.8285 125.518 42.1424 126.077 41.6265 125.662C39.4948 123.948 36.6539 123.397 33.9724 123.666C31.291 123.936 28.7327 124.956 26.283 126.123C25.3852 126.551 24.4733 127.017 23.807 127.775C23.2916 128.362 23.2382 129.143 23.1845 129.928L23.1845 129.929C23.1687 130.158 23.153 130.388 23.1257 130.614C23.0595 131.16 22.7711 131.181 22.5171 131.199C22.3809 131.209 22.2546 131.218 22.1777 131.307C22.1715 131.314 22.1516 131.346 22.1217 131.394L22.1216 131.394C21.9691 131.638 21.5564 132.297 21.37 132.232C21.0962 132.135 21.2358 131.52 21.2358 131.52C21.2358 131.52 20.4233 131.761 20.3628 131.52C20.1513 130.674 21.37 128.943 21.37 128.943C23.4191 125.805 26.4578 123.201 29.7986 121.687C33.2012 120.146 37.1718 119.848 40.6503 121.194C44.5719 122.711 47.6772 126.336 48.6783 130.565C48.9279 131.619 50.1059 132.085 51.1353 132.26C51.186 132.268 51.237 132.277 51.2883 132.285C51.335 132.293 51.3818 132.301 51.4288 132.308H51.4289C52.3788 132.463 53.389 132.627 53.9944 133.382C54.1729 133.605 54.1235 133.934 54.0622 134.217L54.0443 134.298C53.8185 135.307 53.4245 136.436 52.4833 136.742C51.6278 137.02 50.6142 136.302 50.5488 135.371C50.543 135.289 50.5413 135.203 50.5395 135.115C50.5323 134.753 50.5248 134.372 50.233 134.223L45.2662 145.849ZM37.1762 151.365C36.8563 149.653 35.884 148.114 34.6084 146.984C34.6581 147.657 34.9315 148.31 35.3711 148.805C33.2094 149.521 31.1708 150.637 29.3801 152.087C28.9009 152.475 28.0867 152.829 27.806 152.269C26.7017 150.064 24.9437 148.22 22.8341 147.053L31.5069 141.865C31.8989 141.63 32.3135 141.389 32.7655 141.385C33.116 141.381 33.4489 141.521 33.7658 141.683L33.9229 141.766C37.1683 143.506 40.0735 145.931 42.4112 148.85C42.99 149.573 43.2593 150.498 43.4886 151.414L44.5202 155.609C44.5885 155.887 44.6386 156.231 44.4295 156.418C44.3118 156.523 44.1461 156.541 43.9915 156.554L43.8106 156.568C41.2425 156.774 39.1706 156.94 36.5978 156.554C36.2139 155.787 36.504 154.838 36.8035 153.857C37.0602 153.017 37.3238 152.154 37.1762 151.365ZM24.2741 148.785C25.2364 149.667 26.1039 150.661 26.8553 151.743C26.9357 151.858 27.0184 151.988 27.0099 152.13C26.9999 152.296 26.8704 152.424 26.75 152.534L15.5407 162.747C15.0733 163.173 14.3277 163.099 13.8041 162.751C13.346 162.446 13.0185 161.979 12.718 161.504L12.5905 161.3C15.5119 159.701 17.3858 156.838 19.2764 153.95C20.4623 152.138 21.6548 150.316 23.1163 148.79C23.2584 148.642 23.4187 148.488 23.6186 148.465C23.8659 148.436 24.0873 148.613 24.2741 148.785ZM56.9171 120.296L57.2032 120.388C57.7605 120.567 57.8531 121.344 57.7822 121.947C57.4885 124.443 55.9982 126.914 53.7004 127.689L53.6183 127.718C52.1209 128.268 51.0505 129.899 51.1144 131.553C50.1094 131.749 49.0318 130.912 48.9262 129.853C48.9051 129.642 48.9651 129.368 49.1666 129.336C50.0798 129.19 50.9197 128.606 51.3997 127.785C51.8798 126.963 51.9911 125.918 51.6957 125.007C51.6353 124.821 51.5586 124.635 51.4818 124.448C51.2634 123.917 51.0442 123.385 51.1977 122.85C51.5476 122.883 51.614 123.383 51.5771 123.747L51.5731 123.791C51.5447 124.15 51.6055 124.61 51.9398 124.658C52.1602 124.131 52.206 123.541 52.2514 122.956C52.3088 122.217 52.3657 121.486 52.7727 120.897C53.238 120.224 54.0728 119.915 54.8693 119.905C55.5663 119.896 56.2478 120.085 56.9171 120.296ZM6.55214 162.379L6.62402 162.292C7.02519 162.201 7.40828 162.736 7.2096 163.11C7.08213 163.35 7.47414 163.588 7.69301 163.435C7.91188 163.282 7.95604 162.972 7.98011 162.699C8.20032 162.627 8.39081 162.89 8.43238 163.126C8.44336 163.188 8.45018 163.253 8.457 163.318C8.47599 163.498 8.49502 163.678 8.6041 163.813C8.75238 163.998 9.1452 163.902 9.08077 163.672C8.98465 163.328 9.37513 163.047 9.71591 162.996C9.79777 162.984 9.8823 162.976 9.96706 162.969H9.96715H9.96725C10.2352 162.946 10.5054 162.923 10.7005 162.742L10.7299 162.718C10.9775 162.535 11.284 162.873 11.4708 163.173L11.5578 163.319C11.9686 163.984 12.667 164.449 13.4199 164.556C13.5675 164.577 13.4924 164.816 13.384 164.922L10.8429 167.414C10.7198 167.534 10.5201 167.449 10.3758 167.357C8.86748 166.395 7.47503 165.237 6.24143 163.917C5.85279 163.502 6.18238 162.839 6.55214 162.379ZM28.7744 167.016C28.7012 167.33 28.4928 167.681 28.1831 167.658C27.4367 167.6 26.6798 167.694 25.9672 167.932C26.0325 167.615 25.8996 167.264 25.6444 167.08C25.4582 167.357 25.5343 167.787 25.8033 167.977L25.0928 168.707L24.7527 167.894C24.585 167.94 24.5801 168.154 24.5917 168.351L24.5999 168.473C24.634 168.988 24.2143 169.489 23.7194 169.523C23.2246 169.558 22.7441 169.121 22.7114 168.605C22.6757 168.044 23.0886 167.573 23.4725 167.178L26.1982 164.368C26.2562 164.311 26.3226 164.257 26.4008 164.258C26.4873 164.26 26.5574 164.328 26.6183 164.392L27.6819 165.51C27.8882 165.726 27.7578 166.058 27.6308 166.381C27.5 166.714 27.3728 167.037 27.6197 167.218C27.8601 167.232 28.0603 167.015 28.1528 166.783C28.1999 166.665 28.2286 166.541 28.2572 166.416C28.2847 166.296 28.3123 166.176 28.3562 166.062C28.4458 165.83 28.6393 165.608 28.8801 165.614C29.1209 165.619 29.3067 165.977 29.1205 166.136C28.9219 166.306 28.8652 166.581 28.8101 166.849C28.7986 166.905 28.7871 166.961 28.7744 167.016ZM10.1381 168.258C7.68814 166.894 5.52251 164.979 3.83215 162.684C4.0538 162.465 4.38714 162.697 4.60153 162.945L4.6546 163.01C6.2607 165.079 8.27777 166.801 10.5414 168.035C10.5231 168.221 10.2965 168.346 10.1381 168.258ZM21.8878 167.736C22.9491 166.291 24.1249 164.937 25.3995 163.693C25.5971 163.5 26.0075 163.37 26.0575 163.647C24.5736 165.122 23.1544 166.667 21.8057 168.276C21.6592 168.143 21.7699 167.896 21.8878 167.736ZM13.7373 164.123C12.9967 163.849 12.3365 163.344 11.8635 162.69C11.6855 162.444 11.5732 162.017 11.8429 161.891C12.056 161.791 12.2608 162.001 12.4095 162.204L12.5209 162.362C13 163.02 13.6832 163.515 14.4431 163.752C14.4445 163.963 14.2766 164.16 14.0753 164.185C13.9606 164.199 13.8461 164.163 13.7373 164.123ZM50.0787 121.364C50.4269 121.373 50.7217 121.75 50.6584 122.107L50.6666 122.112C50.7148 122.37 50.6831 122.644 50.5773 122.883C50.1966 122.495 50.006 121.914 50.0787 121.364ZM56.7113 121.373C56.7553 121.369 56.8015 121.365 56.8484 121.364C56.9071 121.363 56.9749 121.374 57.0388 121.384C57.2111 121.412 57.3553 121.435 57.2191 121.213C57.0323 120.909 56.4859 120.875 56.3963 121.224C56.4214 121.399 56.5516 121.387 56.7113 121.373ZM57.1511 122.878L57.159 122.846C57.2919 122.322 57.215 121.909 56.8484 121.909C56.7069 121.92 56.4909 122.67 56.5115 122.897C56.5321 123.125 56.7783 123.335 56.969 123.222C57.0821 123.155 57.1183 123.01 57.1511 122.878ZM54.7326 122.719C54.477 122.349 54.4502 121.823 54.6668 121.427C54.6991 121.368 54.7382 121.31 54.7949 121.276C54.9383 121.191 55.1301 121.307 55.1933 121.466C55.2565 121.625 55.2289 121.805 55.2004 121.974C55.2004 121.974 54.9882 123.088 54.7326 122.719ZM108.88 122.729C104.21 121.537 99.332 121.235 94.5599 121.845C95.3882 119.836 95.7518 117.622 95.6114 115.441C94.3679 116.348 92.3263 115.283 92.2792 113.703C92.232 112.123 94.2063 110.929 95.5015 111.754C95.8449 111.973 96.2222 111.52 96.3595 111.126C96.8271 109.784 96.8317 108.273 96.3722 106.928C96.1932 106.404 96.9525 106.12 97.4865 106.131L102.018 106.224C102.322 106.231 102.645 106.232 102.905 106.067C103.165 105.902 103.313 105.505 103.122 105.259C102.338 104.246 103.239 102.433 104.486 102.514C105.733 102.596 106.41 104.512 105.51 105.415C105.342 105.583 105.668 105.8 105.901 105.805L111.826 105.947C113.005 105.976 113.838 107.283 113.886 108.509C113.926 109.546 113.572 110.54 113.223 111.521C113.192 111.607 113.162 111.693 113.132 111.778L113.035 112.056C111.986 115.121 111.648 118.448 112.058 121.674C112.139 122.303 111.582 122.863 110.986 123C110.461 123.12 109.919 123.001 109.393 122.864L108.88 122.729Z" fill="#25282B"/>
<path fill-rule="evenodd" clip-rule="evenodd" d="M45.7234 66.2707C45.7665 65.9797 46.1387 65.8116 46.4077 65.9115C46.6767 66.0114 46.9168 66.4134 46.7197 66.6408C46.4077 67.0008 45.6396 66.8356 45.7234 66.2707Z" fill="#FEBE3F"/>
<path fill-rule="evenodd" clip-rule="evenodd" d="M162.816 141.56C162.64 141.713 162.287 141.769 162.254 141.532C162.941 140.805 163.413 139.862 163.592 138.86C163.816 138.798 163.881 139.169 163.825 139.403C163.635 140.193 163.414 141.036 162.816 141.56Z" fill="#25282B"/>
<path d="M11.3052 54.9549C11.2982 55.1894 10.9568 55.1758 10.7503 55.0821C10.8246 54.8728 11.1259 54.8028 11.2786 54.9593L11.3052 54.9549Z" fill="#25282B"/>
<path fill-rule="evenodd" clip-rule="evenodd" d="M108.74 119.331C108.502 119.551 108.102 119.214 108.137 118.885C108.173 118.555 108.453 118.32 108.722 118.142C109.686 117.506 110.802 117.123 111.941 117.038C111.971 117.49 111.409 117.676 110.982 117.763C110.075 117.947 109.212 118.356 108.483 118.946C108.615 119.03 108.711 119.173 108.74 119.331V119.331Z" fill="#25282B"/>
<path fill-rule="evenodd" clip-rule="evenodd" d="M111.973 119.907C111.439 120.175 110.895 120.423 110.344 120.65C110.407 120.893 110.741 120.885 110.968 120.799C111.194 120.714 111.493 120.625 111.64 120.824C111.267 121.416 110.343 121.508 109.868 121.001C109.662 120.78 109.288 120.925 109.022 120.791C108.641 120.6 108.712 120 108.936 119.627C109.405 118.846 110.298 118.365 111.181 118.418C111.517 118.438 111.918 118.611 111.941 118.96C110.887 118.891 109.812 119.344 109.101 120.156C109.505 120.482 110.085 120.239 110.541 119.998C110.997 119.758 111.599 119.545 111.973 119.907Z" fill="#25282B"/>
<path fill-rule="evenodd" clip-rule="evenodd" d="M55.8703 123.019C56.1728 123.334 56.2983 123.479 56.2983 123.942C56.2983 124.406 56.0568 124.703 55.6494 124.839C55.4614 124.902 55.2014 124.854 55.1526 124.655C56.5105 124.366 56.0114 123.75 55.8703 123.019Z" fill="#25282B"/>
<path fill-rule="evenodd" clip-rule="evenodd" d="M54.0581 121.048C54.2029 120.547 54.8331 120.277 55.2743 120.526C55.4488 120.624 55.594 120.804 55.603 121.01C55.088 121.023 54.664 120.676 54.0581 121.048Z" fill="#25282B"/>
<path fill-rule="evenodd" clip-rule="evenodd" d="M55.2915 125.515C52.4189 123.853 54.6678 125.983 55.2915 125.515V125.515Z" fill="#25282B"/>
</svg>
