<svg width="37" height="50" viewBox="0 0 37 50" fill="none" xmlns="http://www.w3.org/2000/svg">
<path d="M25.9 0C26.15 0 26.4 0.1 26.6 0.3L36.71 10.4C36.91 10.6 37 10.85 37 11.11V45C37 47.75 34.75 50 32 50H5C2.25 50 0 47.75 0 45V5C0 2.25 2.25 0 5 0H25.9Z" fill="white"/>
<path d="M36.71 10.4L36.36 10.05L35.07 8.76L28.3 2L26.6 0.3C26.4 0.1 26.15 0 25.9 0H5C2.25 0 0 2.25 0 5V45C0 47.75 2.25 50 5 50H32C34.75 50 37 47.75 37 45V11.11C37 10.85 36.91 10.6 36.71 10.4ZM33.53 10.05H29.5C28.09 10.05 26.95 8.91 26.95 7.5V3.47L33.53 10.05ZM35 45C35 46.66 33.65 48 32 48H5C3.34 48 2 46.66 2 45V5C2 3.35 3.34 2 5 2H24.5V7.5C24.5 10.25 26.75 12.5 29.5 12.5H35V45Z" fill="#E73C44"/>
<path d="M11.49 23.2701C10.99 22.9901 10.41 22.8401 9.78 22.8401H7.38C7.14 22.8401 6.93 22.9201 6.76 23.0801C6.59 23.2401 6.5 23.4601 6.5 23.7101V31.8301C6.5 32.0701 6.58 32.2801 6.75 32.4501C6.92 32.6201 7.13 32.7001 7.37 32.7001C7.62 32.7001 7.84 32.6101 8 32.4401C8.16 32.2701 8.24 32.0601 8.24 31.8201V29.4401H9.77C10.4 29.4401 10.98 29.3001 11.48 29.0301C11.99 28.7501 12.39 28.3601 12.67 27.8701C12.95 27.3801 13.09 26.8101 13.09 26.1901C13.09 25.5501 12.95 24.9701 12.67 24.4601C12.4 23.9601 12 23.5601 11.49 23.2701ZM11.4 26.2001C11.4 26.6801 11.25 27.0601 10.95 27.3601C10.64 27.6601 10.26 27.8101 9.78 27.8101H8.25V24.5001H9.78C10.26 24.5001 10.64 24.6601 10.94 24.9701C11.25 25.3001 11.4 25.7001 11.4 26.2001Z" fill="#E73C44"/>
<path d="M19.87 23.2701C19.37 22.9901 18.79 22.8401 18.16 22.8401H15.76C15.52 22.8401 15.31 22.9201 15.14 23.0801C14.97 23.2401 14.88 23.4601 14.88 23.7101V31.8301C14.88 32.0701 14.96 32.2801 15.13 32.4501C15.3 32.6201 15.51 32.7001 15.75 32.7001C16 32.7001 16.22 32.6101 16.38 32.4401C16.54 32.2701 16.62 32.0601 16.62 31.8201V29.4401H18.15C18.78 29.4401 19.36 29.3001 19.86 29.0301C20.37 28.7501 20.77 28.3601 21.05 27.8701C21.33 27.3801 21.47 26.8101 21.47 26.1901C21.47 25.5501 21.33 24.9701 21.05 24.4601C20.77 23.9601 20.37 23.5601 19.87 23.2701ZM19.78 26.2001C19.78 26.6801 19.63 27.0601 19.33 27.3601C19.02 27.6601 18.64 27.8101 18.16 27.8101H16.63V24.5001H18.16C18.64 24.5001 19.02 24.6601 19.32 24.9701C19.63 25.3001 19.78 25.7001 19.78 26.2001Z" fill="#E73C44"/>
<path d="M29.7802 23.0801C29.6202 22.9201 29.4302 22.8401 29.1902 22.8401H22.7702C22.5302 22.8401 22.3402 22.9201 22.1802 23.0801C22.0202 23.2401 21.9502 23.4401 21.9502 23.6701C21.9502 23.9001 22.0302 24.1001 22.1902 24.2601C22.3502 24.4201 22.5502 24.4901 22.7802 24.4901H25.1202V31.8401C25.1202 32.0801 25.2102 32.3001 25.3702 32.4601C25.5402 32.6301 25.7502 32.7101 25.9902 32.7101C26.2302 32.7101 26.4402 32.6301 26.6102 32.4601C26.7802 32.2901 26.8602 32.0801 26.8602 31.8401V24.5001H29.1902C29.4302 24.5001 29.6202 24.4201 29.7802 24.2601C29.9402 24.1001 30.0202 23.9101 30.0202 23.6701C30.0202 23.4401 29.9402 23.2401 29.7802 23.0801Z" fill="#E73C44"/>
</svg>
