<svg width="150" height="110" viewBox="0 0 150 110" fill="none" xmlns="http://www.w3.org/2000/svg">
<path fill-rule="evenodd" clip-rule="evenodd" d="M16.3203 98.0285C27.6415 110.354 71.4215 103.274 100.248 103.274C112.685 103.274 154.418 109.507 137.185 66.6969C80.6783 -73.6716 -19.5512 58.9766 16.3203 98.0285Z" fill="#FEBE3F"/>
<path fill-rule="evenodd" clip-rule="evenodd" d="M64.7917 97.693C64.8293 97.6646 64.8687 97.634 64.8851 97.5903C64.9376 97.4504 64.7317 97.3575 64.5798 97.3608C64.3593 97.3657 64.0767 97.5114 64.1442 97.7174C64.1832 97.8366 64.3328 97.8918 64.4584 97.8698C64.584 97.8479 64.6905 97.7692 64.7917 97.693ZM68.1575 95.3611C68.462 95.4549 68.7625 95.5706 69.0276 95.7448C69.5253 96.0718 69.8641 96.5796 70.1891 97.0733C70.4221 97.4273 70.6583 97.7882 70.7746 98.1939C70.9005 98.6333 70.8781 99.1022 70.7937 99.551C70.5309 100.949 69.6516 102.225 68.4269 102.985C67.2023 103.745 65.6506 103.977 64.2507 103.61C63.9782 103.539 63.7037 103.442 63.4941 103.257C63.318 103.101 63.1993 102.894 63.0907 102.687C62.5204 101.602 62.136 100.397 62.1799 99.1774C62.2238 97.9575 62.7349 96.7232 63.7029 95.9565C64.9176 94.9944 66.668 94.9025 68.1575 95.3611Z" fill="white"/>
<path fill-rule="evenodd" clip-rule="evenodd" d="M117.279 40.2348C116.968 40.2311 116.677 40.4737 116.647 40.7615C116.634 40.8791 116.688 41.0253 116.813 41.0416C116.907 41.0537 116.99 40.9859 117.053 40.9198C117.187 40.78 117.302 40.6245 117.395 40.4581C117.426 40.4023 117.453 40.3307 117.413 40.2806C117.383 40.2441 117.328 40.2354 117.279 40.2348ZM118.748 39.0133C119.554 39.2753 120.285 39.7363 120.846 40.3364C121.328 40.8521 121.695 41.5216 121.593 42.1988C121.556 42.4474 121.458 42.6845 121.345 42.9126C120.92 43.7767 120.189 44.6049 119.184 44.7722C118.657 44.86 118.114 44.7548 117.607 44.5942C117.021 44.4084 116.462 44.1479 115.951 43.8221C115.68 43.6493 115.411 43.4443 115.292 43.1591C115.21 42.9625 115.207 42.746 115.21 42.5352C115.218 42.0138 115.255 41.4836 115.45 40.9948C115.697 40.3765 116.18 39.866 116.693 39.4104C116.899 39.2272 117.117 39.0467 117.382 38.9485C117.815 38.7879 118.308 38.8703 118.748 39.0133Z" fill="white"/>
<path fill-rule="evenodd" clip-rule="evenodd" d="M118.838 0.822246C121.978 4.06035 124.456 7.93237 126.078 12.1344C126.189 12.423 126.297 12.7436 126.191 13.0342C125.373 15.271 123.793 17.1359 122.245 18.9492C121.255 20.1079 120.266 21.2666 119.276 22.4253C118.332 23.5314 117.387 24.6377 116.411 25.7161C111.439 31.2064 105.564 36.0072 98.7594 38.9611C98.5026 39.0726 98.2272 39.1838 97.9507 39.1392C97.6742 39.0947 97.415 38.8272 97.4874 38.5576C98.3286 35.4245 99.1752 32.1489 98.5002 28.9761C98.3374 28.2108 98.1559 27.2473 98.7906 26.7868C103.929 23.0584 107.629 17.7292 111.175 12.4724C112.067 11.1506 112.956 9.82509 113.745 8.44004C115.146 5.98091 116.225 3.33997 116.946 0.605156C117.044 0.229869 117.52 0.0608773 117.897 0.159227C118.273 0.257576 118.568 0.543171 118.838 0.822246" fill="white"/>
<path fill-rule="evenodd" clip-rule="evenodd" d="M20.9296 13.4019C21.44 18.0169 22.8607 22.5294 25.086 26.6043C26.4639 29.1274 28.1398 31.4733 29.8113 33.8122C30.9744 35.4397 32.2182 37.1358 34.033 37.9769C34.5156 38.2006 34.4483 38.8964 34.3188 39.4122C33.759 41.6422 33.4978 43.9468 33.5443 46.2455C33.5487 46.4627 33.5544 46.6878 33.4691 46.8875C33.1795 47.5656 32.1872 47.4526 31.5041 47.1753C27.2774 45.4593 24.0323 42.0083 21.0009 38.5991C17.065 34.1727 13.1878 29.552 10.8627 24.1041C10.7047 23.7337 10.5513 23.3439 10.5777 22.9421C10.6046 22.5327 10.815 22.1605 11.0283 21.8101C13.1361 18.3477 16.0683 15.3912 19.513 13.2553C19.7557 13.1048 20.0147 12.954 20.3 12.9442C20.5853 12.9343 20.8982 13.1181 20.9296 13.4019Z" fill="white"/>
<path fill-rule="evenodd" clip-rule="evenodd" d="M118.222 94.3612C118.587 93.7439 119.038 93.0642 119.745 92.9471C120.024 92.9009 120.171 92.598 120.266 92.3318C121.434 89.053 121.547 85.4068 120.583 82.062C120.308 81.1073 120.647 80.0952 120.982 79.1599C121.847 76.7462 122.712 74.3324 123.577 71.9187C123.082 71.0612 121.775 71.0866 121.105 70.3568C120.243 69.4176 120.893 67.9244 121.568 66.8433C125.512 60.5273 129.455 54.2112 133.399 47.8952C133.882 47.1214 134.942 46.8788 135.83 47.085C136.719 47.2912 137.478 47.8505 138.209 48.3964C141.085 50.5448 143.961 52.6932 146.837 54.8416C148.38 55.9947 150.084 57.4676 149.996 59.3924C149.946 60.4575 149.337 61.4043 148.747 62.2927C146.468 65.7278 144.189 69.1628 141.91 72.5978C140.625 74.533 140.98 77.0746 140.592 79.3645C139.979 82.9827 137.498 85.9542 135.201 88.8157C132.903 91.6773 130.605 94.8726 130.476 98.5401C130.322 102.911 128.245 107.18 124.902 110C125.872 107.647 119.745 108.585 112.737 105.797C113.89 101.716 116.067 98.013 118.222 94.3612Z" fill="white"/>
<path fill-rule="evenodd" clip-rule="evenodd" d="M41.2656 104.595C40.8286 104.237 40.6892 103.634 40.612 103.073C39.7195 96.5822 43.5526 90.1761 42.8698 83.6601C42.518 80.3022 40.9753 77.169 39.034 74.4134C37.6933 72.5105 37.6182 69.9612 38.1183 67.6843C38.6185 65.4074 39.6274 63.2784 40.3079 61.0493C43.3341 51.1364 39.6518 40.5464 36.0112 30.8445C43.2657 27.336 51.7312 28.0155 59.7679 28.4909C67.8046 28.9662 76.4479 28.9999 83.1462 24.5111C84.0644 34.2217 82.04 43.943 80.027 53.4853C90.2408 52.4901 100.454 51.4949 110.668 50.4997C110.961 50.4712 111.281 50.4492 111.525 50.6155C111.849 50.8374 111.899 51.29 111.918 51.6842C112.395 61.7829 112.685 71.8905 112.786 82.0001C112.789 82.2537 112.78 82.5364 112.602 82.7162C112.45 82.8702 112.217 82.9024 112.003 82.9263C97.693 84.5212 83.3833 86.116 69.0735 87.7109C67.8361 87.8488 66.0733 87.5265 66.1458 86.2772C66.469 80.7068 66.2803 75.1066 65.5831 69.5709C61.7802 69.427 57.9514 70.007 54.3596 71.271C53.5447 71.5578 52.5649 72.3289 53.0044 73.0758C55.912 78.0175 52.3032 85.4453 56.2522 89.5934C57.61 91.0197 57.5162 93.2635 57.247 95.219C56.6702 99.4104 55.6903 103.546 54.3254 107.549C54.9852 102.941 41.6688 107.065 41.2656 104.595Z" fill="white"/>
<path fill-rule="evenodd" clip-rule="evenodd" d="M0.3357 0.00668329C0.347921 0.105018 0.294713 0.208274 0.20754 0.255391C0.138116 0.185933 0.0686917 0.116476 -0.000732422 0.0470182C0.103343 0.001498 0.221376 -0.0114856 0.332858 0.0103235L0.3357 0.00668329Z" fill="#25282B"/>
<path fill-rule="evenodd" clip-rule="evenodd" d="M67.1205 95.3601C67.3642 95.4366 67.6048 95.531 67.817 95.6732C68.2154 95.94 68.4866 96.3543 68.7468 96.7572C68.9333 97.046 69.1224 97.3405 69.2155 97.6715C69.3163 98.03 69.2983 98.4126 69.2308 98.7789C69.0204 99.9197 68.3165 100.961 67.3361 101.581C66.3558 102.201 65.1136 102.39 63.9929 102.091C63.7748 102.033 63.5551 101.954 63.3873 101.802C63.2463 101.676 63.1513 101.506 63.0643 101.338C62.6078 100.453 62.3001 99.4693 62.3352 98.474C62.3704 97.4787 62.7795 96.4715 63.5544 95.8459C64.5268 95.0609 65.9281 94.9859 67.1205 95.3601M65.7539 101.286C66.3634 101.194 66.8999 100.795 67.2503 100.288C67.6006 99.7805 67.7804 99.172 67.8667 98.5614C67.916 98.2128 67.9205 97.8132 67.6743 97.5614C67.527 97.4107 67.3166 97.3434 67.1147 97.283C66.3569 97.0562 65.4917 96.8634 64.8129 97.2696C64.3185 97.5654 64.0429 98.1136 63.7931 98.6327C63.5005 99.2407 63.5728 100.008 63.9737 100.551C64.3747 101.093 65.0869 101.387 65.7539 101.286V101.286Z" fill="#25282B"/>
<path fill-rule="evenodd" clip-rule="evenodd" d="M94.9656 67.9776C94.9762 67.8483 94.9917 67.7095 95.0773 67.612C95.161 67.5166 95.2927 67.4823 95.4163 67.4535C98.6008 66.712 101.89 66.4219 105.155 66.5946C105.571 66.6166 106.106 66.7574 106.133 67.1729C106.291 69.5554 106.449 71.9379 106.607 74.3204C106.615 74.441 106.619 74.5747 106.541 74.6677C106.479 74.7435 106.377 74.7728 106.282 74.7976C102.886 75.6831 99.3062 75.8576 95.8401 75.3068C95.7508 75.2926 95.657 75.2759 95.5877 75.2179C95.5039 75.1477 95.4746 75.0335 95.4506 74.9269C94.9396 72.6527 94.7755 70.3008 94.9656 67.9776ZM95.7164 71.9299C95.779 72.8296 95.9677 73.7205 96.2753 74.5683C96.5821 74.6125 96.8857 74.6762 97.1913 74.7279C99.8254 75.174 102.519 74.7252 105.153 74.277C105.34 74.2452 105.545 74.2029 105.66 74.0525C105.778 73.8988 105.762 73.6848 105.741 73.4923C105.65 72.6713 105.56 71.8504 105.469 71.0294C105.462 70.9632 105.452 70.8922 105.407 70.8429C105.353 70.7831 105.264 70.7735 105.183 70.7682C103.312 70.6449 101.434 70.7846 99.5637 70.9242C98.5298 71.0014 97.496 71.0785 96.4622 71.1557C96.2192 71.1738 95.9432 71.2098 95.8035 71.4095C95.7005 71.5565 95.704 71.7508 95.7164 71.9299ZM95.7459 68.4961C95.5824 69.0209 95.553 69.5868 95.6614 70.1257C95.6808 70.2225 95.7082 70.3247 95.7817 70.3906C95.8906 70.4884 96.0568 70.4722 96.2015 70.451C97.9629 70.193 99.7433 70.0648 101.524 70.0678C101.775 70.0682 101.852 69.7301 101.849 69.479C101.845 69.111 101.841 68.743 101.837 68.375C101.835 68.1621 101.824 67.9275 101.678 67.7723C101.503 67.5857 101.21 67.5916 100.955 67.6111C100.365 67.6561 99.7757 67.7012 99.1859 67.7462C98.9038 67.7678 98.1555 67.9594 97.8116 67.9821C97.2129 68.0776 96.6141 68.1732 96.0154 68.2687C95.9516 68.2789 95.8842 68.2907 95.835 68.3326C95.7871 68.3735 95.7647 68.4361 95.7459 68.4961ZM103.643 70.0969C104.111 70.103 104.579 70.0561 105.037 69.9576C105.146 69.9342 105.26 69.9044 105.338 69.8245C105.452 69.7072 105.451 69.5233 105.443 69.3599C105.418 68.8855 105.394 68.411 105.37 67.9365C105.361 67.7673 105.342 67.5767 105.21 67.4708C105.094 67.3776 104.93 67.3832 104.781 67.3933C104.26 67.4287 103.74 67.4641 103.219 67.4995C103.137 67.5052 103.051 67.5121 102.982 67.5577C102.856 67.641 102.837 67.8155 102.833 67.9665C102.822 68.4694 102.842 68.9731 102.895 69.4734C102.91 69.6182 102.931 69.7707 103.021 69.8855C103.16 70.0644 103.416 70.094 103.643 70.0969Z" fill="#FEBE3F"/>
<path fill-rule="evenodd" clip-rule="evenodd" d="M103.116 57.5658C103.812 57.2647 104.665 57.3656 105.272 57.8206C105.878 58.2755 106.213 59.0669 106.119 59.8191C106.545 59.5887 107.086 59.3617 107.484 59.6385C107.933 59.951 107.83 60.624 107.763 61.1671C107.645 62.116 107.798 63.0969 108.199 63.9649C108.365 64.3234 108.507 64.8674 108.139 65.012C108.077 65.0364 108.01 65.042 107.943 65.0474C103.634 65.3947 99.3255 65.742 95.0167 66.0893C94.8985 66.0988 94.7662 66.1039 94.6768 66.0261C94.5856 65.9466 94.5741 65.8114 94.5692 65.6905C94.5279 64.6769 94.4866 63.6632 94.4453 62.6496C94.4342 62.3777 94.4289 62.0845 94.5824 61.8599C94.8366 61.4881 95.3689 61.4892 95.8135 61.418C96.2582 61.3468 96.7754 60.9716 96.6043 60.555C96.4135 60.0906 97.0638 59.7513 97.56 59.6757C98.0563 59.6002 98.7147 59.3043 98.5643 58.8253C98.4001 58.302 99.1201 57.9772 99.6637 57.905C100.047 57.8541 100.448 57.8048 100.812 57.9364C101.176 58.0681 101.484 58.4427 101.402 58.8209C101.308 59.2539 101.835 59.6573 102.251 59.5044C102.667 59.3514 102.835 58.7831 102.625 58.3933C102.453 58.0749 102.784 57.7096 103.116 57.5658ZM105.341 64.2455C105.18 63.9467 105.179 63.5909 105.177 63.2514C105.17 61.6571 105.072 60.0632 104.884 58.4801C104.875 58.4002 104.859 58.3109 104.794 58.2641C104.738 58.2237 104.662 58.2285 104.593 58.2349C104.256 58.2664 103.857 58.3408 103.724 58.6517C103.667 58.7843 103.674 58.9342 103.682 59.0782C103.767 60.6761 103.853 62.274 103.938 63.8718C103.946 64.0207 103.966 64.1915 104.089 64.2747C104.157 64.32 104.242 64.3284 104.323 64.3329C104.664 64.3515 105.008 64.322 105.341 64.2455ZM99.5455 61.7887C99.5038 62.0549 99.4451 62.3192 99.4295 62.5882C99.4033 63.0377 99.498 63.4846 99.5922 63.925C99.6525 64.2073 100.017 64.3463 100.285 64.2374C100.552 64.1286 100.714 63.8432 100.758 63.5579C100.803 63.2726 100.751 62.9823 100.705 62.6972C100.527 61.577 100.449 60.4406 100.474 59.3066C100.481 59.0196 100.201 58.7604 99.9154 58.7887C99.6297 58.817 99.4063 59.1261 99.4689 59.4063C99.6432 60.1863 99.6693 60.9991 99.5455 61.7887ZM102.379 60.2585C102.212 60.0384 101.826 60.1556 101.695 60.3995C101.564 60.6433 101.604 60.9391 101.637 61.214C101.722 61.9321 101.73 62.6592 101.661 63.3789C101.641 63.5911 101.618 63.8228 101.735 64.0008C101.916 64.2748 102.311 64.2723 102.637 64.2392C102.739 64.2288 102.857 64.209 102.908 64.12C102.944 64.058 102.936 63.9811 102.926 63.9102C102.776 62.7935 102.625 61.6768 102.475 60.56C102.461 60.4543 102.444 60.3433 102.379 60.2585ZM106.112 60.7383C105.985 60.9109 105.958 61.1356 105.947 61.3494C105.91 62.0824 106.007 62.8149 106.104 63.5424C106.142 63.8291 106.273 64.1975 106.561 64.1779C106.854 64.1581 106.93 63.767 106.923 63.474C106.905 62.698 106.887 61.922 106.869 61.146C106.864 60.9419 106.843 60.7056 106.674 60.5916C106.496 60.4722 106.238 60.5657 106.112 60.7383ZM97.2796 60.555C97.2796 60.555 97.408 61.5677 97.4528 62.0838C97.509 62.7316 97.5806 63.3781 97.6676 64.0225C97.6802 64.1161 97.6971 64.2174 97.7661 64.2818C97.8858 64.3935 98.3475 64.3193 98.4325 64.1794C98.5176 64.0395 98.5128 63.8649 98.5054 63.7014C98.482 63.1841 98.4586 62.6669 98.4351 62.1496C98.41 61.5951 98.2782 60.3995 98.2782 60.3995M95.605 64.2221C95.6419 64.3382 95.6855 64.4596 95.7793 64.5372C95.9623 64.6887 96.2592 64.5949 96.4035 64.4062C96.5478 64.2174 96.5803 63.9688 96.6079 63.7328C96.6417 63.4432 96.6744 63.1423 96.5807 62.8662C96.4869 62.5902 96.2274 62.3473 95.937 62.3729C95.67 62.3965 95.4631 62.6406 95.4008 62.9014C95.3385 63.1622 95.391 63.4357 95.4558 63.6959C95.4999 63.8728 95.5497 64.0484 95.605 64.2221Z" fill="#E7EAF0"/>
<path fill-rule="evenodd" clip-rule="evenodd" d="M114.416 24.3174C113.779 25.2725 113.09 26.24 112.105 26.8297C111.121 27.4194 109.762 27.5343 108.877 26.8032C107.901 25.9966 107.841 24.5426 107.918 23.2788C107.948 22.7923 107.987 22.3018 108.126 21.8347C108.368 21.0246 108.896 20.3332 109.447 19.6921C110.116 18.9144 110.857 18.1642 111.784 17.7265C112.711 17.2888 113.864 17.212 114.733 17.7565C115.773 18.4084 116.158 19.7949 115.961 21.0067C115.764 22.2184 115.096 23.2957 114.416 24.3174ZM112.395 25.3279C113.198 24.4733 113.886 23.5117 114.435 22.4765C114.797 21.7953 115.105 21.0548 115.091 20.2836C115.076 19.5124 114.67 18.7062 113.953 18.42C113.02 18.0473 111.996 18.6436 111.217 19.2771C110.662 19.7282 110.124 20.223 109.768 20.8433C109.543 21.2355 109.397 21.6671 109.252 22.0955C108.978 22.906 108.7 23.7505 108.804 24.5997C108.908 25.4489 109.516 26.3015 110.367 26.3895C111.155 26.4709 111.853 25.9052 112.395 25.3279Z" fill="#FEBE3F"/>
<path fill-rule="evenodd" clip-rule="evenodd" d="M26.6296 29.5401C27.6262 30.5498 28.4489 31.7307 29.0507 33.0155C29.6556 34.3067 29.0458 35.9661 27.8588 36.7561C26.6718 37.546 25.067 37.5356 23.7655 36.9535C22.464 36.3713 21.4413 35.2849 20.688 34.0742C20.1201 33.1615 19.6798 32.1386 19.6326 31.0647C19.5854 29.9907 19.9807 28.8605 20.8302 28.2019C21.6894 27.5358 22.8975 27.4406 23.9366 27.7602C24.9757 28.0799 25.8658 28.7664 26.6296 29.5401ZM22.741 28.9262C21.8787 28.8374 21.1126 29.6289 20.9647 30.4832C20.8168 31.3375 21.1424 32.2043 21.5638 32.962C22.4774 34.6051 24.1077 36.0646 25.9854 35.9737C26.9506 35.927 28.0085 35.2583 27.9914 34.292C27.984 33.8741 27.7779 33.4886 27.572 33.1249C27.0251 32.1587 26.4344 31.2024 25.6456 30.4212C24.8567 29.6401 23.8453 29.0399 22.741 28.9262Z" fill="#FEBE3F"/>
<path fill-rule="evenodd" clip-rule="evenodd" d="M64.6641 98.1576C65.0426 97.8699 65.5135 97.6837 65.9879 97.7144C66.4624 97.745 66.9319 98.0172 67.1304 98.4492C67.3434 98.913 67.2106 99.4891 66.8783 99.8763C66.546 100.264 66.0453 100.477 65.54 100.548C65.1951 100.596 64.7839 100.553 64.5951 100.26C64.504 100.119 64.4834 99.9452 64.465 99.7782C64.4321 99.4783 64.3992 99.1784 64.3664 98.8786C64.3524 98.7515 64.339 98.6197 64.3798 98.4986C64.4279 98.3562 64.5444 98.2485 64.6641 98.1576M66.1617 99.0201C66.2167 98.9778 66.2744 98.932 66.2984 98.8669C66.3752 98.6581 66.0738 98.5194 65.8514 98.5244C65.5287 98.5317 65.1149 98.7491 65.2137 99.0565C65.2708 99.2344 65.4898 99.3167 65.6737 99.284C65.8576 99.2512 66.0135 99.1339 66.1617 99.0201H66.1617Z" fill="#25282B"/>
<path fill-rule="evenodd" clip-rule="evenodd" d="M118.286 2.28362C121.235 5.33734 123.563 8.98886 125.087 12.9516C125.192 13.2238 125.293 13.5261 125.194 13.8001C124.425 15.9096 122.941 17.6683 121.486 19.3784L118.697 22.6565C117.81 23.6996 116.922 24.743 116.005 25.7599C111.334 30.9376 105.814 35.465 99.4219 38.2507C99.1806 38.3558 98.9219 38.4607 98.6621 38.4187C98.4023 38.3766 98.1588 38.1244 98.2268 37.8701C99.0172 34.9155 99.8125 31.8264 99.1784 28.8343C99.0254 28.1126 98.8549 27.2039 99.4512 26.7696C104.279 23.2536 107.755 18.2278 111.086 13.2703C111.924 12.0238 112.759 10.7738 113.501 9.46763C114.817 7.14853 115.83 4.65798 116.507 2.0789C116.6 1.72498 117.047 1.56561 117.401 1.65836C117.755 1.75111 118.032 2.02044 118.286 2.28362ZM116.221 6.07581C115.922 5.95184 115.645 6.28714 115.493 6.57333C115.352 6.83633 115.212 7.09967 115.072 7.36323L114.997 7.50402C111.941 13.2449 108.838 19.0739 104.181 23.5956C103.741 24.0228 103.249 24.539 103.33 25.1469C103.59 27.0957 102.55 29.1536 100.827 30.0997C100.044 30.5293 100.054 31.6376 100.168 32.5228C100.214 32.8772 100.348 33.3214 100.704 33.3514C101.748 33.4394 102.751 33.9536 103.431 34.7505C103.646 35.0019 104.053 34.8448 104.333 34.6688C111.378 30.2392 116.791 23.6964 122.077 17.2679C122.259 17.0461 122.453 16.7667 122.358 16.4957C121.558 14.2171 121.686 11.6276 122.707 9.43918C122.105 8.24038 121.387 7.09968 120.567 6.03803C119.202 6.63066 117.597 6.64462 116.221 6.07581ZM99.5112 37.0805C99.789 37.2261 100.125 37.0877 100.403 36.9425C101.134 36.5611 101.838 36.1281 102.508 35.6479C102.685 35.521 102.738 35.2675 102.675 35.0589C102.613 34.8502 102.456 34.682 102.282 34.5503C101.741 34.1391 100.983 34.0309 100.348 34.2741C100.231 34.319 100.114 34.3776 100.033 34.4737C99.9388 34.5863 99.9042 34.7363 99.8738 34.8802C99.7203 35.6078 99.5993 36.3422 99.5112 37.0805ZM119.296 4.55855C118.817 3.62243 118.079 2.82078 117.185 2.2668C116.874 2.54083 116.814 2.95724 116.752 3.38175C116.71 3.67304 116.667 3.96815 116.543 4.2237C116.502 4.30692 116.452 4.38654 116.403 4.46597C116.308 4.6172 116.215 4.76778 116.184 4.94145C116.138 5.20635 116.362 5.53867 116.616 5.45102C116.823 5.37976 117.04 5.42553 117.258 5.4717C117.373 5.49606 117.489 5.52054 117.604 5.52797C118.275 5.57129 118.832 5.04558 119.296 4.55855ZM123.09 10.1693C122.577 11.1894 122.658 12.3943 122.751 13.5323L122.885 15.1643C122.9 15.3438 122.997 15.586 123.17 15.5363C123.278 15.2357 123.482 14.9877 123.687 14.739C123.867 14.5215 124.047 14.3035 124.162 14.0493C124.554 13.1886 124.119 12.1966 123.691 11.3535L123.09 10.1693ZM100.134 28.2832C100.156 28.6024 100.487 28.8414 100.807 28.8324C101.127 28.8234 101.415 28.6165 101.602 28.3568C101.788 28.0971 101.891 27.7877 101.991 27.4838L102.32 26.48C102.412 26.2002 102.418 25.7723 102.125 25.7394C102.02 25.7275 101.919 25.7834 101.832 25.845C101.504 26.0782 101.265 26.4133 101.033 26.7418L100.399 27.6367C100.262 27.8308 100.118 28.0459 100.134 28.2832Z" fill="#25282B"/>
<path fill-rule="evenodd" clip-rule="evenodd" d="M24.5858 25.6039C22.3604 21.5289 20.9398 17.0164 20.4294 12.4014C20.398 12.1177 20.0851 11.9338 19.7998 11.9437C19.5145 11.9536 19.2554 12.1043 19.0128 12.2548C15.5681 14.3908 12.6358 17.3473 10.5281 20.8096C10.3147 21.1601 10.1044 21.5322 10.0775 21.9416C10.051 22.3435 10.2044 22.7332 10.3625 23.1036C12.6875 28.5515 16.5648 33.1723 20.5006 37.5986C23.532 41.0078 26.7771 44.4588 31.0038 46.1748C31.687 46.4522 32.6793 46.5652 32.9689 45.8871C33.0531 45.6898 33.0486 45.4678 33.0443 45.2532L33.0441 45.245C32.9975 42.9464 33.2587 40.6417 33.8185 38.4118C33.948 37.8959 34.0153 37.2001 33.5328 36.9765C31.718 36.1353 30.4742 34.4392 29.3111 32.8117C27.6396 30.4729 25.9636 28.1269 24.5858 25.6039ZM28.5144 43.4163C28.2644 43.483 28.0147 43.3253 27.806 43.1724C23.9591 40.3535 20.9779 36.5383 18.0489 32.7743L12.8799 26.132C13.7524 25.5763 13.8632 24.3688 13.8822 23.3344C13.9069 21.9899 13.925 20.6056 13.4393 19.3516C13.3314 19.0729 13.4719 18.764 13.6224 18.5057C14.2678 17.3982 15.1628 16.4371 16.2217 15.7147C16.3242 15.6447 16.4327 15.5753 16.5556 15.5579C16.8798 15.5121 17.1286 15.8275 17.3018 16.1054C17.9862 17.2029 18.9268 18.4442 20.2169 18.3538C20.7082 18.3194 20.9806 18.8981 21.1239 19.3693C22.9061 25.2289 26.2521 30.5141 30.1761 35.2163C30.686 35.8273 30.814 36.652 30.9407 37.4692C31.0821 38.3805 31.222 39.2825 31.8886 39.8684C32.4577 40.3687 32.3521 41.2671 32.1985 42.0092C32.1671 42.161 32.1297 42.3237 32.0143 42.4273C31.9287 42.5043 31.8129 42.5364 31.7017 42.5661L28.5144 43.4163ZM19.3945 16.9965C18.6888 16.5033 18.0792 15.8732 17.6097 15.1515C17.5082 14.9953 17.4096 14.8204 17.4274 14.635C17.4468 14.4334 17.5984 14.2721 17.7493 14.1371C18.1219 13.8036 18.543 13.5244 18.9952 13.311C19.1608 13.2329 19.3746 13.1694 19.5122 13.2903C19.5932 13.3614 19.6188 13.4751 19.6399 13.5808L20.2917 16.8411C20.3302 17.0338 20.1281 17.2074 19.9316 17.213C19.7352 17.2186 19.5556 17.1091 19.3945 16.9965ZM12.9443 23.3023C12.9305 23.9156 12.8836 24.6038 12.4241 25.01C12.3279 25.0215 12.2641 24.9159 12.2264 24.8267C11.8953 24.0429 11.5596 23.2401 11.5075 22.3908C11.4553 21.5415 11.7399 20.6218 12.4339 20.1295C12.5278 20.0629 12.6655 20.0079 12.7484 20.0878C12.7817 20.1199 12.796 20.1665 12.8081 20.2112C12.9967 20.9044 12.9818 21.6345 12.9657 22.3527L12.9443 23.3023ZM31.6706 43.7004C31.7821 43.7916 31.7939 43.9547 31.797 44.0987L31.8301 45.675C31.1836 45.3165 30.5642 44.9091 29.979 44.4575C29.868 44.3718 29.7461 44.2331 29.814 44.1105C29.8477 44.0497 29.9178 44.0204 29.983 43.9964C30.4013 43.8421 30.8339 43.7264 31.2734 43.6511C31.4092 43.6279 31.564 43.6131 31.6706 43.7004ZM31.7079 37.4915C31.7019 37.4203 31.7019 37.3427 31.7442 37.2852C31.8558 37.1334 32.0981 37.2708 32.2004 37.429C32.447 37.8099 32.5015 38.3089 32.3428 38.7341C31.9807 38.4235 31.7474 37.967 31.7079 37.4915Z" fill="#25282B"/>
<path fill-rule="evenodd" clip-rule="evenodd" d="M131.617 27.2762C131.576 26.7868 131.248 26.3056 130.773 26.183C130.169 26.0273 129.584 26.4526 129.104 26.8515C128.962 26.9695 128.814 27.0964 128.754 27.2709C128.652 27.5669 128.836 27.8788 129.016 28.1346C129.223 28.4275 129.444 28.7219 129.746 28.9154C130.047 29.109 130.45 29.1842 130.766 29.0159C130.928 28.9302 131.053 28.7902 131.162 28.6436C131.456 28.2496 131.658 27.7655 131.617 27.2762ZM130.277 28.5306C130.073 28.5613 129.86 28.4786 129.71 28.3367C129.484 28.1241 129.395 27.7824 129.473 27.4825C129.556 27.1668 129.821 26.906 130.138 26.8281C130.455 26.7502 130.811 26.8585 131.031 27.0998C131.023 27.1656 131.016 27.2318 131.009 27.298C130.986 27.523 130.962 27.7484 130.884 27.9598C130.784 28.2334 130.566 28.4874 130.277 28.5306Z" fill="#25282B"/>
<path fill-rule="evenodd" clip-rule="evenodd" d="M130.864 24.6196C129.828 24.5943 128.653 24.7111 128.009 25.5228C127.755 25.8427 127.616 26.2382 127.515 26.6342C127.358 27.2538 127.287 27.895 127.303 28.5339C127.31 28.811 127.541 29.0255 127.765 29.1894C128.222 29.5247 128.727 29.7964 129.258 29.9943C129.657 30.1428 130.087 30.2507 130.507 30.1804C130.778 30.1349 131.035 30.0153 131.257 29.8513C131.749 29.4865 132.057 28.9137 132.206 28.3191C132.355 27.7245 132.358 27.1039 132.339 26.4913C132.318 25.818 132.188 25.0171 131.576 24.7377C131.355 24.6373 131.106 24.6256 130.864 24.6196ZM131.701 28.3607C131.387 29.1624 130.507 29.8026 129.68 29.565C129.156 29.4146 128.644 29.1688 128.278 28.7647C127.912 28.3606 127.714 27.7785 127.864 27.2542C127.914 27.079 128 26.9164 128.085 26.7553L128.57 25.8391C128.634 25.7166 128.7 25.5925 128.796 25.4919C128.971 25.3075 129.225 25.2221 129.475 25.1722C129.976 25.0719 130.501 25.0897 130.995 25.2237C131.314 25.3103 131.66 25.4911 131.726 25.815C131.898 26.6584 132.014 27.5589 131.701 28.3607Z" fill="#25282B"/>
<path fill-rule="evenodd" clip-rule="evenodd" d="M119.71 41.0276C119.901 41.3202 119.841 41.7111 119.714 42.037C119.546 42.4665 119.263 42.8645 118.862 43.093C118.462 43.3215 117.936 43.3549 117.546 43.1093C117.155 42.8637 116.959 42.3176 117.169 41.9066C117.217 41.8116 117.283 41.7274 117.349 41.6432C117.412 41.5626 117.475 41.482 117.523 41.3918C117.554 41.3324 117.579 41.2695 117.603 41.2066C117.639 41.1159 117.674 41.0254 117.73 40.9463C117.928 40.665 118.32 40.6097 118.664 40.6146C119.055 40.6201 119.495 40.7009 119.71 41.0276ZM118.838 41.2134C118.304 41.2067 117.802 41.6548 117.749 42.1866C117.728 42.4039 117.82 42.6741 118.036 42.704C118.198 42.7265 118.341 42.6012 118.45 42.4791C118.68 42.2208 118.878 41.9335 119.037 41.6261C119.091 41.523 119.138 41.3906 119.068 41.2981C119.016 41.2307 118.922 41.2145 118.838 41.2134Z" fill="#25282B"/>
<path fill-rule="evenodd" clip-rule="evenodd" d="M120.58 40.1655C120.053 39.5592 119.365 39.0935 118.606 38.8287C118.192 38.6843 117.728 38.601 117.321 38.7633C117.072 38.8625 116.866 39.0449 116.672 39.23C116.19 39.6903 115.736 40.206 115.503 40.8307C115.32 41.3245 115.285 41.8602 115.278 42.387C115.275 42.6 115.277 42.8187 115.354 43.0173C115.466 43.3055 115.719 43.5126 115.974 43.6872C116.455 44.0163 116.981 44.2796 117.533 44.4672C118.009 44.6295 118.521 44.7358 119.017 44.6471C119.962 44.478 120.65 43.6414 121.05 42.7683C121.156 42.5378 121.249 42.2983 121.284 42.0471C121.379 41.363 121.034 40.6866 120.58 40.1655ZM120.162 41.3246C120.249 42.0912 119.93 42.8778 119.382 43.4204C119.045 43.7538 118.614 44.0063 118.143 44.0658C117.673 44.1252 117.166 43.9718 116.855 43.614C116.369 43.0554 116.142 42.2809 116.248 41.5484C116.355 40.8158 116.793 40.1381 117.418 39.7409C117.563 39.6481 117.72 39.5696 117.886 39.5234C118.195 39.438 118.53 39.4683 118.831 39.5771C119.557 39.8388 120.076 40.5581 120.162 41.3246Z" fill="#25282B"/>
<path fill-rule="evenodd" clip-rule="evenodd" d="M143.82 61.7112C143.633 61.781 143.424 61.7333 143.233 61.6734C141.942 61.2674 140.893 60.3596 139.863 59.4673L139.862 59.4664L139.861 59.4655C139.722 59.3453 139.583 59.2253 139.445 59.107C137.737 57.6503 135.884 56.3643 133.922 55.2744C133.722 55.1635 133.513 55.0468 133.39 54.8539C133.268 54.6611 133.272 54.3674 133.46 54.2387C134.34 53.6379 134.911 52.6069 134.953 51.5422C134.964 51.2585 135.284 51.0693 135.567 51.0921C135.85 51.1148 136.097 51.2849 136.329 51.4492L145.294 57.8144C145.469 57.9383 145.657 58.0819 145.7 58.2916C145.735 58.4628 145.663 58.636 145.591 58.7951C145.204 59.6485 144.759 60.4755 144.261 61.2686C144.148 61.4482 144.019 61.6371 143.82 61.7112ZM134.85 54.1603C134.745 54.3462 134.654 54.6151 134.824 54.7437L142.141 60.2531C142.541 60.5549 143.164 60.8376 143.48 60.4477C143.842 59.9999 144.18 59.5328 144.493 59.049C144.578 58.9166 144.666 58.7654 144.635 58.6108C144.607 58.4697 144.488 58.3673 144.376 58.2767C141.691 56.0993 138.848 54.1166 135.877 52.3494L134.85 54.1603Z" fill="#25282B"/>
<path fill-rule="evenodd" clip-rule="evenodd" d="M131.209 57.5295C131.327 57.3268 131.471 57.105 131.7 57.0553C131.875 57.0172 132.054 57.0923 132.215 57.1708C133.096 57.5987 133.903 58.1786 134.59 58.8773C134.755 59.0454 134.775 59.316 134.702 59.5399C134.628 59.7638 134.477 59.9522 134.328 60.1352C134.089 60.4293 133.835 60.7352 133.483 60.8748C133.103 61.0254 132.661 60.9528 132.301 60.7589C131.941 60.5651 131.652 60.2618 131.397 59.9419C131.065 59.5247 130.768 59.0243 130.819 58.4934C130.853 58.1456 131.033 57.8314 131.209 57.5295ZM132.75 59.8656C133.304 60.0811 133.659 59.9103 133.673 59.5469C133.682 59.3176 133.482 59.141 133.3 59.0011L132.75 58.5777C132.568 58.4378 132.368 58.2913 132.138 58.2927C131.909 58.2942 131.675 58.5308 131.769 58.7402C131.755 58.8413 132.196 59.6501 132.75 59.8656Z" fill="#25282B"/>
<path fill-rule="evenodd" clip-rule="evenodd" d="M130.563 64.3391C130.698 64.4131 130.842 64.4855 130.996 64.4887C131.15 64.492 131.317 64.4047 131.354 64.2554C131.443 63.9048 131.675 63.6142 131.902 63.3297C131.927 63.2986 131.952 63.2677 131.976 63.2367C132.225 62.9219 132.465 62.5654 132.471 62.1643C132.478 61.7633 132.146 61.3358 131.749 61.3906C131.436 61.4337 131.144 61.2285 130.917 61.009C130.905 60.997 130.892 60.9849 130.88 60.9727C130.856 60.9493 130.832 60.9257 130.809 60.9021C130.618 60.7123 130.425 60.5194 130.173 60.437C129.872 60.3391 129.463 60.4949 129.439 60.81C129.391 61.4447 128.864 61.9226 128.374 62.3297C128.228 62.4515 128.36 62.6853 128.497 62.8177C129.114 63.4139 129.811 63.9271 130.563 64.3391ZM130.661 63.1297L129.697 62.4778C129.452 62.312 129.472 61.9059 129.69 61.7064C129.909 61.5069 130.248 61.4916 130.527 61.5915C130.805 61.6914 131.037 61.8873 131.262 62.0793C131.411 62.2065 131.432 62.4379 131.363 62.6215C131.295 62.8051 131.157 62.9522 131.021 63.0938C130.975 63.1423 130.923 63.1937 130.857 63.2023C130.786 63.2114 130.72 63.1696 130.661 63.1297Z" fill="#25282B"/>
<path fill-rule="evenodd" clip-rule="evenodd" d="M138.3 63.1726L138.772 62.1714C138.916 61.8648 139.056 61.4854 138.861 61.2082C138.793 61.1119 138.693 61.044 138.596 60.9783L136.882 59.8229C136.697 59.6983 136.496 59.5688 136.273 59.5723C136.009 59.5765 135.788 59.7651 135.6 59.9511C135.319 60.2297 135.057 60.5267 134.815 60.8396C134.63 61.0779 134.479 61.4698 134.731 61.6351L137.354 63.3564C137.561 63.4922 137.824 63.6318 138.041 63.5135C138.169 63.4441 138.239 63.3041 138.3 63.1726ZM137.719 62.4638C137.609 62.4892 137.494 62.4612 137.386 62.4286C136.723 62.229 136.117 61.8467 135.652 61.3352C135.497 61.165 135.584 60.8646 135.781 60.7453C135.978 60.6261 136.234 60.6535 136.446 60.7425C136.583 60.8001 136.708 60.8802 136.834 60.9605C136.902 61.0044 136.971 61.0485 137.042 61.0888C137.118 61.1321 137.198 61.172 137.277 61.2118C137.503 61.3248 137.728 61.4379 137.882 61.6334C138.09 61.8979 138.047 62.3885 137.719 62.4638Z" fill="#25282B"/>
<path fill-rule="evenodd" clip-rule="evenodd" d="M138.605 63.5822C138.907 63.5103 139 63.2021 139.096 62.8816C139.175 62.6168 139.257 62.3437 139.462 62.1888C139.815 61.9222 140.314 62.145 140.694 62.3711L141.902 63.0901C142.095 63.2047 142.292 63.3232 142.43 63.4997C142.568 63.6761 142.636 63.9261 142.54 64.1283C142.475 64.2633 142.353 64.3528 142.23 64.4429C142.13 64.5168 142.028 64.5912 141.958 64.6914C141.867 64.8202 141.833 64.9815 141.8 65.1409C141.758 65.341 141.716 65.5381 141.564 65.6639C141.286 65.8931 140.872 65.7094 140.564 65.5215L138.862 64.481C138.69 64.376 138.509 64.2608 138.425 64.0781C138.341 63.8953 138.409 63.6288 138.605 63.5822ZM140.837 64.6154C141.081 64.5321 141.277 64.3513 141.465 64.1753C141.601 64.0478 141.419 63.8378 141.256 63.7462L140.213 63.1588C140.104 63.0975 139.953 63.0417 139.869 63.1337C139.597 63.4302 139.557 63.9141 139.777 64.2507C139.997 64.5874 140.456 64.7453 140.837 64.6154Z" fill="#25282B"/>
<path fill-rule="evenodd" clip-rule="evenodd" d="M128.87 64.5789C128.636 64.5131 128.398 64.4461 128.208 64.316C127.912 64.114 127.499 64.1629 127.188 64.3415C126.878 64.52 126.646 64.8062 126.422 65.0858C126.297 65.241 126.169 65.4029 126.122 65.596C126.074 65.7892 126.131 66.0233 126.305 66.1202L128.124 67.1341C128.261 67.2109 128.415 67.2903 128.569 67.2561C128.722 67.2222 128.828 67.086 128.92 66.9589L129.388 66.3149C129.649 65.9564 129.921 65.4995 129.73 65.0994C129.578 64.7787 129.229 64.6802 128.87 64.5789ZM128.294 66.2471C128.199 66.2723 128.101 66.2264 128.013 66.1818L126.774 65.5511C127.012 65.2139 127.466 65.0845 127.876 65.1253C128.287 65.1661 128.669 65.3488 129.04 65.5286L128.471 66.1201C128.42 66.1731 128.365 66.2283 128.294 66.2471Z" fill="#25282B"/>
<path fill-rule="evenodd" clip-rule="evenodd" d="M114.021 104.856C115.135 100.916 117.237 97.3405 119.318 93.8147C119.67 93.2187 120.105 92.5623 120.788 92.4493C121.057 92.4047 121.199 92.1122 121.291 91.8552C122.419 88.6895 122.528 85.1689 121.597 81.9395C121.331 81.0177 121.659 80.0405 121.982 79.1374L124.488 72.1458C124.228 71.695 123.735 71.497 123.236 71.2963C122.818 71.1284 122.396 70.9587 122.101 70.6378C121.269 69.731 121.897 68.2893 122.549 67.2455L133.971 48.9506C134.437 48.2034 135.461 47.9693 136.319 48.1683C137.177 48.3674 137.91 48.9074 138.615 49.4346L146.946 55.6576C148.436 56.7709 150.082 58.193 149.996 60.0514C149.948 61.0798 149.36 61.994 148.791 62.8518L142.188 72.8016C141.335 74.0882 141.231 75.6523 141.127 77.2237C141.08 77.9343 141.033 78.6464 140.916 79.335C140.347 82.6943 138.11 85.4763 135.967 88.1418C135.881 88.2481 135.796 88.3544 135.711 88.4604C133.493 91.2233 131.274 94.3084 131.149 97.8495C131 102.07 128.995 106.192 125.767 108.914L128.576 102.099C129.244 100.478 129.863 98.4612 128.745 97.1108C128.239 96.4998 127.475 96.1766 126.741 95.8755L122.378 94.0853C122.077 93.9618 121.767 93.8365 121.442 93.8345C120.428 93.8283 119.826 94.9277 119.415 95.8543C117.993 99.0598 116.177 102.09 114.021 104.856ZM128.367 95.5998C129.115 95.8768 130.168 96.045 130.523 95.3304C132.238 91.8716 134.001 88.3463 136.732 85.6171C138.306 84.0441 139.271 81.9452 139.817 79.7878C140.362 77.6304 140.517 75.3961 140.669 73.1759C140.007 73.4172 139.949 74.3116 139.952 75.0169C139.958 76.5718 139.686 78.1274 139.153 79.588C139.042 79.8937 138.892 80.2241 138.593 80.353C138.294 80.482 137.854 80.2229 137.955 79.9134C138.725 77.5375 139.012 75.0059 138.794 72.5177C138.726 71.7462 138.582 70.921 138.034 70.3743C138.093 71.5923 138.153 72.8159 138.029 74.0292C137.816 76.1284 137.063 78.1298 136.317 80.1035C136.22 80.3598 136.103 80.6391 135.857 80.7595C135.611 80.88 135.229 80.6891 135.294 80.4228L136.411 75.8047C137.025 73.2655 137.629 70.5341 136.678 68.1009C136.199 68.0688 136.086 68.7535 136.129 69.2316C136.422 72.5062 135.517 75.7564 134.621 78.9195C134.516 79.2888 134.146 79.7506 133.858 79.4966C133.734 79.3871 133.728 79.1983 133.738 79.0331C133.795 78.1029 134.05 77.2024 134.305 76.3029C134.384 76.0237 134.463 75.7446 134.536 75.4647C135.209 72.885 135.381 70.1753 135.039 67.5313C134.449 68.2877 134.198 69.247 133.962 70.1768L132.56 75.6963C131.926 78.1913 131.116 80.9343 128.919 82.2747C128.744 82.3815 128.541 82.4807 128.341 82.4334C128.093 82.3746 127.953 82.1184 127.849 81.8855C126.447 78.7259 126.271 75.0397 127.368 71.7613C127.435 71.5623 127.232 71.3544 127.023 71.3379C126.814 71.3215 126.618 71.4354 126.447 71.5564C124.647 72.8262 123.958 75.1264 123.386 77.2532L122.625 80.0812C122.514 80.4943 122.402 80.9111 122.379 81.3382C122.343 81.9873 122.513 82.6225 122.681 83.2543C122.72 83.4007 122.76 83.547 122.796 83.6932C123.528 86.6313 123.197 89.8223 121.878 92.5478C121.684 92.9496 122.197 93.3151 122.616 93.4701L128.367 95.5998ZM131.21 68.6104C130.91 68.4037 130.588 68.1677 130.495 67.8154C130.353 67.275 130.868 66.7322 131.422 66.6595C131.976 66.5868 132.517 66.8543 132.977 67.1727C133.623 67.6213 134.442 66.9373 134.926 66.3167C134.273 65.9259 133.65 65.3194 133.624 64.5586C133.598 63.7979 134.523 63.0732 135.138 63.521C135.377 63.6947 135.666 63.801 135.952 63.9062C136.38 64.0637 136.801 64.2186 137.036 64.5935C137.303 65.0199 137.208 65.5965 136.936 66.0199C136.664 66.4434 136.246 66.7473 135.837 67.0409C136.424 67.0991 136.994 67.3082 137.48 67.6426L138.009 66.1014C138.05 65.9819 138.094 65.8569 138.188 65.7725C138.369 65.6098 138.652 65.6601 138.884 65.7338C139.493 65.927 140.09 66.2288 140.492 66.7255C140.894 67.2221 141.061 67.9436 140.78 68.5175C140.499 69.0914 139.707 69.3975 139.17 69.0514C139.058 68.9796 138.946 68.8837 138.834 68.7877C138.535 68.5312 138.236 68.2747 137.947 68.48C138.829 69.1672 139.435 70.1996 139.605 71.3051C142.383 67.0732 145.131 62.8218 147.849 58.5512C148.109 58.1435 148.318 57.5009 147.895 57.2665C146.09 56.2651 144.495 54.9238 142.903 53.5858C140.894 51.8968 138.891 50.2129 136.481 49.2241C136.328 49.1613 136.16 49.1006 136 49.1428C135.833 49.187 135.715 49.3328 135.609 49.4704C131.12 55.3304 127.091 61.543 123.572 68.0321C123.081 68.9374 123.738 70.0165 124.367 70.8322C124.681 71.2398 125.287 71.6703 125.63 71.2864C126.061 70.8024 126.769 70.5258 127.381 70.7419C127.992 70.958 128.372 71.7532 128.04 72.31C127.799 72.7127 128.27 73.1604 128.682 73.3857C129.503 73.836 130.346 74.2476 131.207 74.6186C131.327 74.6702 131.466 74.7208 131.582 74.6624C131.693 74.6068 131.738 74.4747 131.773 74.3556L132.726 71.075C132.883 70.5355 132.988 69.8353 132.525 69.5166L131.21 68.6104ZM148.263 59.4141C148.137 59.3707 148.021 59.4974 147.947 59.6087L140.809 70.2949C140.617 70.5823 140.42 70.8813 140.364 71.2224C140.308 71.5635 140.433 71.9602 140.744 72.1121C141.258 72.3636 141.796 71.8351 142.126 71.3675L148.758 61.9668C149.25 61.2688 148.833 60.3146 148.412 59.5716C148.375 59.5073 148.333 59.4381 148.263 59.4141ZM128.166 73.6839C128.041 73.5924 127.853 73.647 127.748 73.7614C127.642 73.8759 127.599 74.0326 127.56 74.1829C127.462 74.553 127.364 74.9267 127.35 75.3091C127.335 75.6915 127.405 76.0715 127.474 76.4479L128.157 80.1639C128.186 80.3197 128.22 80.4852 128.33 80.5988C128.441 80.7123 128.656 80.7369 128.745 80.6062C129.757 79.1264 130.783 77.6177 131.312 75.9049C131.378 75.692 131.397 75.3926 131.188 75.3141C130.114 74.9098 129.094 74.3598 128.166 73.6839ZM136.06 64.5153C135.717 64.1889 135.265 63.9804 134.794 63.9324C134.365 63.8886 134.117 64.4915 134.313 64.8758C134.509 65.2602 134.942 65.4506 135.342 65.6111C135.625 65.7244 135.967 65.8312 136.214 65.6523C136.568 65.3952 136.377 64.8171 136.06 64.5153ZM133.242 68.8214C133.382 68.722 133.4 68.5188 133.361 68.3519C133.213 67.7229 132.524 67.4016 131.905 67.2173C131.665 67.1461 131.367 67.0964 131.199 67.2807C131.058 67.4345 131.088 67.6893 131.209 67.8588C131.331 68.0284 131.521 68.1329 131.705 68.2319L132.661 68.747C132.843 68.8449 133.074 68.9411 133.242 68.8214ZM138.683 66.5544C138.481 66.8255 138.501 67.2197 138.67 67.513C138.839 67.8062 139.132 68.0098 139.441 68.1484C139.546 68.196 139.662 68.2378 139.776 68.2151C139.874 68.1956 139.958 68.1296 140.018 68.0498C140.239 67.7545 140.131 67.3098 139.878 67.0417C139.625 66.7735 139.265 66.6392 138.918 66.5135C138.859 66.4918 138.789 66.4708 138.734 66.5036C138.714 66.516 138.698 66.535 138.683 66.5544Z" fill="#25282B"/>
<path d="M49.2662 33.8644C49.6284 33.8537 50.1116 33.9485 50.1371 34.3099L44.3967 35.1275C44.0873 35.1716 43.7406 35.2067 43.4917 35.0178C43.2428 34.8288 43.2678 34.3287 43.578 34.2912C45.4663 34.0627 47.365 33.9203 49.2662 33.8644Z" fill="#25282B"/>
<path d="M44.4952 36.4795C44.3095 36.5005 44.0756 36.5678 44.0593 36.754C44.0383 36.9924 44.3772 37.0609 44.6154 37.0378L56.0691 35.9262C56.2186 35.9117 56.3869 35.8869 56.4746 35.7649C56.5936 35.5994 56.4762 35.3499 56.2939 35.2587C56.1117 35.1674 55.8959 35.1882 55.6934 35.2111L44.4952 36.4795Z" fill="#25282B"/>
<path fill-rule="evenodd" clip-rule="evenodd" d="M42.7745 91.1319C42.907 90.1533 43.0925 89.0763 43.8613 88.4565C44.4744 87.9623 45.3159 87.8835 46.1032 87.8683C48.6821 87.8188 51.2694 88.2376 53.701 89.0984C54.4702 89.3707 55.2753 89.7293 55.6959 90.4286C56.1512 91.1857 56.0402 92.1406 55.9143 93.0151L53.9613 106.584C55.308 102.655 56.2748 98.5948 56.8439 94.48C57.1094 92.5603 57.202 90.3574 55.8623 88.9572C53.7711 86.7714 53.8281 83.6579 53.8861 80.4921C53.9361 77.76 53.9869 74.9888 52.658 72.7415C52.2244 72.0082 53.1911 71.2512 53.9951 70.9697C57.5388 69.7287 61.3164 69.1593 65.0684 69.3006C65.7563 74.7351 65.9424 80.233 65.6236 85.7016C65.5521 86.928 67.2912 87.2445 68.5121 87.1091L110.867 82.412C111.079 82.3885 111.308 82.3569 111.458 82.2057C111.634 82.0292 111.642 81.7516 111.64 81.5027C111.54 71.5779 111.254 61.6549 110.783 51.7407C110.765 51.3538 110.716 50.9095 110.395 50.6916C110.155 50.5283 109.839 50.5499 109.55 50.578L79.3191 53.5089C81.3051 44.1411 83.3024 34.5974 82.3966 25.0642C75.7879 29.471 67.2602 29.4379 59.331 28.9713C59.0015 28.9519 58.6712 28.9321 58.3403 28.9124C50.7097 28.4563 42.7522 27.9806 35.8922 31.2819C39.4841 40.8065 43.1171 51.203 40.1314 60.9347C39.8673 61.7957 39.553 62.6414 39.2388 63.4868C38.7544 64.7902 38.2704 66.0926 37.9711 67.4485C37.4776 69.6837 37.5518 72.1865 38.8745 74.0546C40.7898 76.7599 42.3119 79.8359 42.659 83.1324C42.9885 86.2607 42.2524 89.3632 41.5171 92.4622C40.7488 95.7002 39.9815 98.9343 40.4315 102.19C40.5076 102.741 40.6451 103.333 41.0762 103.684L42.7745 91.1319ZM49.1562 65.6237L48.9624 61.3085C48.9273 60.5282 48.0169 60.0561 47.8046 59.946L47.8038 59.9456C46.2204 59.1246 43.993 60.5181 44.0384 62.3013C42.7042 59.7257 42.5015 56.774 42.3008 53.8521C42.2572 53.2164 42.2136 52.5822 42.1585 51.9535C41.5694 45.2312 39.5437 38.729 37.5305 32.2883C37.2434 31.3699 38.4834 30.7743 39.4354 30.6347C45.6823 29.7187 52.0047 29.8452 58.33 29.9717C61.1972 30.0291 64.0649 30.0865 66.9264 30.0468C72.011 29.9762 77.3911 29.4949 81.5156 26.5202C82.4427 32.7009 81.1827 38.9369 79.9386 45.0943C79.7703 45.9272 79.6023 46.7587 79.44 47.5884C78.0783 54.5518 77.1514 61.9743 79.7569 68.5738C79.8666 68.8519 79.4923 69.0616 79.1997 69.1227C77.0568 69.5697 74.8411 69.666 72.6675 69.4065C71.7351 69.2952 70.8126 69.1193 69.8899 68.9434C69.1949 68.8109 68.5 68.6784 67.8006 68.5734C62.5357 67.7834 57.0403 68.6034 52.2353 70.8962C52.0428 70.9881 51.8137 70.9451 51.6121 70.8753C50.6389 70.5383 49.9447 69.6392 49.5984 68.6693C49.252 67.6994 49.2024 66.6525 49.1562 65.6237ZM69.8719 69.8664C70.3203 69.9559 70.8715 70.1558 70.8992 70.6123C71.1636 74.9658 74.623 78.8779 78.8762 79.8414C83.1294 80.805 87.843 78.8565 90.323 75.2689C92.8029 71.6813 92.9971 66.6975 90.9636 62.8393C88.7827 58.7015 83.4829 56.5042 79.0145 57.8851C78.8072 56.9707 78.8305 56.005 79.0818 55.1017C79.1285 54.934 79.1893 54.7586 79.3247 54.6491C79.4569 54.5422 79.6356 54.5178 79.8045 54.4975L92.3917 52.9812C93.4984 52.8479 94.6078 52.7144 95.7224 52.7052C100.515 52.6657 105.305 52.1878 110.011 51.2792C110.742 61.1001 111.086 70.9498 111.042 80.7977C111.04 81.2649 110.898 81.8857 110.431 81.8993C102.509 82.1301 94.6499 83.1723 86.7874 84.2149C81.5049 84.9153 76.221 85.616 70.9159 86.0709C69.7334 86.1722 68.5429 86.2614 67.3614 86.1488C67.1473 86.1284 66.9058 86.0847 66.7894 85.9037C66.7192 85.7946 66.7113 85.6581 66.7055 85.5284L65.9991 69.7768C65.99 69.5733 66.0023 69.3279 66.1785 69.2257C66.2953 69.158 66.4415 69.1823 66.5739 69.2087L69.8719 69.8664ZM48.1986 66.2196C48.0734 67.0377 47.9326 67.9582 48.4685 68.5771C50.4674 70.886 52.544 73.3527 53.0753 76.3601C53.3234 77.7645 53.2169 79.2099 53.1107 80.6495C52.977 82.4627 52.844 84.2667 53.4214 85.9678C53.4364 86.0121 53.452 86.0566 53.4676 86.1012C53.5737 86.4044 53.6818 86.7135 53.6474 87.0301C53.608 87.3933 53.2928 87.7586 52.9328 87.6965L48.754 86.9757C47.3701 86.737 45.9081 86.5048 44.5936 86.9988C44.3394 87.0944 44.0469 86.9267 43.9107 86.6918C43.7745 86.4569 43.7566 86.1741 43.7448 85.9029C43.7305 85.5754 43.7198 85.2456 43.7091 84.9147C43.6416 82.8341 43.5728 80.7146 42.6099 78.8916L39.5377 73.0753C39.0842 72.2166 38.62 71.3197 38.5887 70.3491C38.5678 69.701 38.7428 69.0643 38.9162 68.4394L40.4489 62.918C40.7715 61.7556 41.1129 60.5562 41.877 59.6228C43.7334 62.7725 43.9166 66.8475 42.3503 70.1512C42.2054 70.4568 42.648 70.7715 42.9636 70.6497C43.2791 70.5279 43.4393 70.1822 43.5505 69.8628C43.996 68.5834 44.1523 67.2345 44.3087 65.8838C44.4353 64.7909 44.562 63.6967 44.8423 62.637C45.0139 61.9878 45.2616 61.3251 45.7628 60.8783C46.264 60.4315 47.0815 60.2785 47.6068 60.6968C48.0087 61.017 48.1394 61.564 48.2159 62.0722C48.4176 63.413 48.4166 64.7841 48.2131 66.1245C48.2083 66.1561 48.2035 66.1878 48.1986 66.2196ZM81.0354 75.0349C78.9852 74.9927 77.2089 73.3198 76.6002 71.3614C76.4759 70.9616 76.7344 70.5229 77.0909 70.3034C77.4474 70.0838 77.8788 70.032 78.2948 69.9852L81.2988 69.6477C80.3853 67.8719 79.7346 65.9611 79.3746 63.9967C79.3419 63.8185 79.3122 63.6314 79.3685 63.4592C79.4674 63.1569 79.7931 62.9978 80.0946 62.8964C82.5352 62.0761 85.4659 63.072 86.9011 65.21C88.3363 67.3479 88.1481 70.4383 86.4636 72.3858C85.7343 73.2291 84.7787 73.8514 83.772 74.3303C82.9135 74.7386 81.9858 75.0545 81.0354 75.0349ZM90.7641 64.4798C91.1288 65.6845 91.2342 66.9518 91.2844 68.2096C90.4652 68.0855 89.6379 68.0151 88.8095 67.9989C88.6474 65.8833 87.2395 63.9718 85.3886 62.9349C83.5376 61.8981 81.3035 61.674 79.2119 62.029C79.1942 61.7308 79.1398 61.4196 79.0854 61.1084C78.942 60.2872 78.7985 59.466 79.3294 58.8831C79.6501 58.531 80.1386 58.3902 80.6068 58.3029C82.7392 57.9056 85.013 58.3219 86.8663 59.449C88.7197 60.5761 90.1356 62.4035 90.7641 64.4798ZM75.728 71.1479C75.7246 71.187 75.7212 71.2254 75.7195 71.2621C75.7056 71.5544 75.8419 71.8226 75.9767 72.088C76.0129 72.1591 76.0489 72.2301 76.0819 72.3012C76.2382 72.6379 76.3139 73.0814 76.0527 73.3451C75.4208 73.983 74.8623 74.6938 74.3919 75.4587C74.2756 75.6479 73.9893 75.6634 73.798 75.5506C73.6067 75.4377 73.488 75.2366 73.3775 75.0439C72.6783 73.8246 71.9616 72.5492 71.8744 71.1464C71.8636 70.9719 71.8827 70.7608 72.0374 70.6795C72.1056 70.6436 72.186 70.6426 72.263 70.6423L75.3901 70.6328C75.4648 70.6326 75.5435 70.6334 75.6084 70.6703C75.7619 70.7575 75.7443 70.96 75.728 71.1479Z" fill="#25282B"/>
<path d="M54.2916 44.4755C53.7569 44.1604 53.1458 44 52.4747 44H49.9268C49.6704 44 49.4521 44.0917 49.2721 44.275C49.092 44.4583 48.9993 44.699 48.9993 44.974V54.026C48.9993 54.2953 49.092 54.5302 49.2666 54.7193C49.4467 54.9083 49.6649 55 49.9268 55C50.1941 55 50.4178 54.9026 50.5979 54.7135C50.767 54.5245 50.8543 54.2953 50.8543 54.026V51.3792H52.4747C53.1458 51.3792 53.7569 51.2245 54.2916 50.9151C54.8317 50.6057 55.2518 50.1703 55.5519 49.6203C55.852 49.0703 55.9993 48.4401 55.9993 47.7411C55.9993 47.0307 55.8465 46.3833 55.5519 45.8161C55.2518 45.2432 54.8317 44.7964 54.2916 44.4755ZM54.1933 47.7411C54.1933 48.274 54.0351 48.6979 53.7132 49.0359C53.3859 49.374 52.9821 49.5344 52.4747 49.5344H50.8543V45.8391H52.4747C52.9821 45.8391 53.3859 46.0109 53.7078 46.3661C54.0351 46.7271 54.1933 47.1797 54.1933 47.7411Z" fill="#FEBE3F"/>
<path d="M59.5979 54.7135C59.767 54.5245 59.8543 54.2953 59.8543 54.026V51.3792H61.4747C62.1458 51.3792 62.7569 51.2245 63.2916 50.9151C63.8317 50.6057 64.2518 50.1703 64.5519 49.6203C64.852 49.0703 64.9993 48.4401 64.9993 47.7411C64.9993 47.0307 64.8465 46.3833 64.5519 45.8161C64.2518 45.249 63.8317 44.7964 63.2916 44.4755C62.7569 44.1604 62.1458 44 61.4747 44H58.9268C58.6704 44 58.4521 44.0917 58.2721 44.275C58.092 44.4583 57.9993 44.699 57.9993 44.974V54.026C57.9993 54.2953 58.092 54.5302 58.2666 54.7193C58.4467 54.9083 58.6649 55 58.9268 55C59.1996 55 59.4233 54.9026 59.5979 54.7135ZM59.8543 49.5344V45.8391H61.4747C61.9821 45.8391 62.3859 46.0109 62.7078 46.3661C63.0351 46.7271 63.1933 47.174 63.1933 47.7354C63.1933 48.2682 63.0351 48.6922 62.7132 49.0302C62.3859 49.3682 61.9821 49.5286 61.4747 49.5286H59.8543V49.5344Z" fill="#FEBE3F"/>
<path d="M69.534 54.0266C69.534 54.2957 69.6313 54.5304 69.8147 54.7194C70.0037 54.9084 70.2329 55 70.5079 55C70.7828 55 71.012 54.9027 71.201 54.7194C71.3901 54.5304 71.4818 54.3014 71.4818 54.0266V45.8438H74.0769C74.3405 45.8438 74.5639 45.7579 74.7357 45.5804C74.9076 45.4086 74.9993 45.1853 74.9993 44.9219C74.9993 44.6642 74.9076 44.4352 74.7357 44.2634C74.5639 44.0916 74.3405 44 74.0769 44H66.9216C66.6638 44 66.4347 44.0916 66.2628 44.2634C66.0909 44.4352 65.9993 44.6642 65.9993 44.9219C65.9993 45.1853 66.0852 45.4086 66.2628 45.5804C66.4347 45.7522 66.6581 45.8438 66.9216 45.8438H69.5282V54.0266H69.534Z" fill="#FEBE3F"/>
</svg>
