<svg width="32" height="30" viewBox="0 0 32 30" fill="none" xmlns="http://www.w3.org/2000/svg">
<path d="M3.4 30C1.13333 26.1921 0 22.3499 0 18.4734C0 15.0429 0.833333 11.7667 2.5 8.64494C4.2 5.48885 6.65 2.6072 9.85 0L13.7 2.41852C14.0333 2.62435 14.2667 2.88165 14.4 3.1904C14.5333 3.46484 14.6 3.73928 14.6 4.01372C14.6 4.32247 14.5333 4.61407 14.4 4.88851C14.2667 5.16295 14.1167 5.40309 13.95 5.60892C13.5167 6.1235 13.05 6.72384 12.55 7.40995C12.0833 8.09606 11.65 8.85077 11.25 9.6741C10.85 10.4631 10.5167 11.3379 10.25 12.2985C9.98333 13.259 9.85 14.2882 9.85 15.3859C9.85 16.5523 10.0333 17.8045 10.4 19.1424C10.7667 20.446 11.3833 21.8182 12.25 23.259C12.55 23.7393 12.7 24.2195 12.7 24.6998C12.7 25.7976 12.1 26.5695 10.9 27.0154L3.4 30ZM20 30C17.7333 26.1921 16.6 22.3499 16.6 18.4734C16.6 15.0429 17.4333 11.7667 19.1 8.64494C20.8 5.48885 23.25 2.6072 26.45 0L30.3 2.41852C30.6333 2.62435 30.8667 2.88165 31 3.1904C31.1333 3.46484 31.2 3.73928 31.2 4.01372C31.2 4.32247 31.1333 4.61407 31 4.88851C30.8667 5.16295 30.7167 5.40309 30.55 5.60892C30.1167 6.1235 29.65 6.72384 29.15 7.40995C28.6833 8.09606 28.25 8.85077 27.85 9.6741C27.45 10.4631 27.1167 11.3379 26.85 12.2985C26.5833 13.259 26.45 14.2882 26.45 15.3859C26.45 16.5523 26.6333 17.8045 27 19.1424C27.3667 20.446 27.9833 21.8182 28.85 23.259C29.15 23.7393 29.3 24.2195 29.3 24.6998C29.3 25.7976 28.7 26.5695 27.5 27.0154L20 30Z" fill="#0050C5"/>
</svg>
