<svg width="37" height="50" viewBox="0 0 37 50" fill="none" xmlns="http://www.w3.org/2000/svg">
<path d="M25.9 0C26.15 0 26.4 0.1 26.6 0.3L36.71 10.4C36.91 10.6 37 10.85 37 11.11V45C37 47.75 34.75 50 32 50H5C2.25 50 0 47.75 0 45V5C0 2.25 2.25 0 5 0H25.9Z" fill="white"/>
<path d="M36.71 10.4L36.36 10.05L35.07 8.76L28.3 2L26.6 0.3C26.4 0.1 26.15 0 25.9 0H5C2.25 0 0 2.25 0 5V45C0 47.75 2.25 50 5 50H32C34.75 50 37 47.75 37 45V11.11C37 10.85 36.91 10.6 36.71 10.4ZM33.53 10.05H29.5C28.09 10.05 26.95 8.91 26.95 7.5V3.47L33.53 10.05ZM35 45C35 46.66 33.65 48 32 48H5C3.34 48 2 46.66 2 45V5C2 3.35 3.34 2 5 2H24.5V7.5C24.5 10.25 26.75 12.5 29.5 12.5H35V45Z" fill="#7A62F4"/>
<path d="M11.36 28.65C11.78 28.41 12.13 28.09 12.39 27.69C12.7 27.21 12.86 26.66 12.86 26.04C12.86 25.42 12.72 24.86 12.44 24.38C12.16 23.89 11.76 23.51 11.25 23.24C10.75 22.97 10.17 22.84 9.54 22.84H7.38C7.14 22.84 6.92999 22.92 6.75999 23.08C6.58999 23.24 6.5 23.46 6.5 23.71V31.83C6.5 32.07 6.58 32.28 6.75 32.45C7.09 32.79 7.68 32.78 8 32.45C8.16 32.28 8.25 32.07 8.25 31.83V29.1H9.61L11.6 32.3C11.77 32.57 12.03 32.72 12.35 32.72C12.6 32.72 12.81 32.64 12.97 32.48C13.12 32.33 13.2 32.13 13.2 31.9C13.2 31.72 13.15 31.54 13.04 31.37L11.36 28.65ZM11.16 26.05C11.16 26.47 11.02 26.8 10.72 27.06C10.41 27.33 10.02 27.46 9.54 27.46H8.25V24.5H9.54C10.02 24.5 10.41 24.64 10.71 24.93C11.02 25.22 11.16 25.59 11.16 26.05Z" fill="#7A62F4"/>
<path d="M19.7807 23.43C19.6407 23.05 19.3507 22.85 18.9607 22.85C18.7007 22.85 18.3407 22.95 18.1407 23.42L14.7607 31.48C14.7107 31.62 14.6807 31.74 14.6807 31.85C14.6807 32.08 14.7607 32.29 14.9207 32.46C15.1907 32.75 15.6607 32.82 16.0107 32.58C16.1507 32.49 16.2607 32.36 16.3407 32.18L16.9607 30.66H20.9307L21.5407 32.18C21.6107 32.35 21.7207 32.48 21.8707 32.58C22.0207 32.67 22.1807 32.72 22.3407 32.72C22.5807 32.72 22.7907 32.64 22.9607 32.47C23.1307 32.3 23.2107 32.09 23.2107 31.86C23.2107 31.76 23.1807 31.64 23.1307 31.5L19.7807 23.43ZM20.3307 29.12H17.6007L18.9807 25.76L20.3307 29.12Z" fill="#7A62F4"/>
<path d="M30.8703 31.38L29.1803 28.66C29.6003 28.42 29.9503 28.1 30.2103 27.7C30.5203 27.22 30.6803 26.67 30.6803 26.05C30.6803 25.43 30.5403 24.87 30.2603 24.39C29.9803 23.9 29.5803 23.52 29.0703 23.25C28.5703 22.98 27.9903 22.85 27.3603 22.85H25.2003C24.9603 22.85 24.7503 22.93 24.5803 23.09C24.4103 23.25 24.3203 23.47 24.3203 23.72V31.84C24.3203 32.08 24.4003 32.29 24.5703 32.46C24.9103 32.8 25.5003 32.79 25.8203 32.46C25.9803 32.29 26.0603 32.08 26.0603 31.84V29.1H27.4203L29.4103 32.3C29.5803 32.57 29.8403 32.72 30.1603 32.72C30.4103 32.72 30.6203 32.64 30.7703 32.49C30.9203 32.34 31.0103 32.14 31.0103 31.91C31.0303 31.72 30.9803 31.54 30.8703 31.38ZM28.9903 26.05C28.9903 26.47 28.8503 26.8 28.5503 27.06C28.2403 27.33 27.8603 27.46 27.3703 27.46H26.0803V24.5H27.3703C27.8503 24.5 28.2403 24.64 28.5403 24.93C28.8403 25.22 28.9903 25.59 28.9903 26.05Z" fill="#7A62F4"/>
</svg>
