<svg width="100" height="30" viewBox="0 0 100 30" fill="none" xmlns="http://www.w3.org/2000/svg">
<path d="M34.9739 25.0081V15.3364H36.3409C36.5799 15.3364 36.7469 15.3804 36.8409 15.4684C36.9349 15.5564 36.9979 15.7074 37.0299 15.9214L37.1709 17.0904C37.5159 16.4934 37.9219 16.0224 38.3869 15.6764C38.8519 15.3304 39.3739 15.1584 39.9519 15.1584C40.4289 15.1584 40.8249 15.2684 41.1389 15.4884L40.8369 17.2324C40.8179 17.3454 40.7769 17.4254 40.7139 17.4724C40.6509 17.5194 40.5659 17.5434 40.4589 17.5434C40.3649 17.5434 40.2359 17.5214 40.0729 17.4774C39.9089 17.4334 39.6929 17.4114 39.4219 17.4114C38.9379 17.4114 38.5229 17.5454 38.1779 17.8124C37.8329 18.0794 37.5399 18.4713 37.3009 18.9863V25.0091H34.9739V25.0081Z" fill="#004970"/>
<path d="M50.1678 25.0079H49.1218C48.9018 25.0079 48.7288 24.9749 48.6038 24.9089C48.4778 24.8429 48.3838 24.7099 48.3208 24.5079L48.1138 23.82C47.8688 24.04 47.6288 24.2339 47.3928 24.3999C47.1568 24.5659 46.9138 24.7059 46.6628 24.8189C46.4118 24.9319 46.1448 25.0169 45.8618 25.0739C45.5788 25.1299 45.2648 25.1589 44.9188 25.1589C44.5098 25.1589 44.1328 25.1039 43.7878 24.9939C43.4428 24.8839 43.1458 24.7179 42.8968 24.4979C42.6488 24.2769 42.4558 24.003 42.3178 23.675C42.1798 23.347 42.1108 22.966 42.1108 22.53C42.1108 22.164 42.2068 21.803 42.3978 21.447C42.5898 21.09 42.9088 20.7691 43.3548 20.4821C43.8008 20.1951 44.3948 19.9571 45.1358 19.7681C45.8778 19.5791 46.7978 19.4841 47.8978 19.4841V18.9141C47.8978 18.2621 47.7608 17.7791 47.4878 17.4662C47.2148 17.1522 46.8168 16.9952 46.2958 16.9952C45.9188 16.9952 45.6048 17.0392 45.3538 17.1272C45.1028 17.2152 44.8838 17.3142 44.6988 17.4242C44.5138 17.5342 44.3418 17.6331 44.1848 17.7211C44.0278 17.8091 43.8548 17.8531 43.6658 17.8531C43.5088 17.8531 43.3738 17.8131 43.2608 17.7301C43.1478 17.6491 43.0568 17.5482 42.9878 17.4292L42.5638 16.6842C43.6758 15.6662 45.0178 15.1572 46.5888 15.1572C47.1548 15.1572 47.6588 15.2502 48.1018 15.4352C48.5448 15.6202 48.9198 15.8782 49.2288 16.2082C49.5368 16.5382 49.7708 16.9332 49.9308 17.3912C50.0908 17.8501 50.1708 18.3531 50.1708 18.8991V25.0079H50.1678ZM45.6438 23.556C45.8828 23.556 46.1028 23.535 46.3038 23.491C46.5048 23.448 46.6948 23.383 46.8738 23.296C47.0528 23.21 47.2258 23.103 47.3918 22.976C47.5588 22.849 47.7268 22.699 47.8958 22.526V20.907C47.2168 20.907 46.6498 20.949 46.1948 21.035C45.7388 21.12 45.3728 21.23 45.0968 21.363C44.8198 21.496 44.6238 21.651 44.5078 21.828C44.3918 22.005 44.3328 22.198 44.3328 22.407C44.3328 22.819 44.4538 23.113 44.6958 23.29C44.9388 23.467 45.2538 23.556 45.6438 23.556Z" fill="#004970"/>
<path d="M57.1528 25.0076H55.0418L51.1958 15.3359H53.1278C53.2978 15.3359 53.4408 15.3769 53.5568 15.4589C53.6728 15.5409 53.7528 15.6449 53.7968 15.7699L55.6628 20.9358C55.7698 21.2367 55.8588 21.5327 55.9318 21.8217C56.0038 22.1107 56.0688 22.3997 56.1248 22.6887C56.1808 22.3997 56.2458 22.1107 56.3178 21.8217C56.3898 21.5327 56.4828 21.2377 56.5958 20.9358L58.5088 15.7699C58.5528 15.6439 58.6318 15.5409 58.7448 15.4589C58.8578 15.3779 58.9928 15.3359 59.1498 15.3359H60.9878L57.1528 25.0076Z" fill="#004970"/>
<path d="M66.2386 15.1851C66.8476 15.1851 67.4086 15.2821 67.9206 15.477C68.4326 15.672 68.8736 15.956 69.2446 16.33C69.6156 16.704 69.9046 17.163 70.1116 17.707C70.3186 18.25 70.4226 18.8709 70.4226 19.5689C70.4226 19.7449 70.4146 19.8909 70.3986 20.0069C70.3826 20.1229 70.3546 20.2149 70.3136 20.2799C70.2726 20.3459 70.2176 20.3929 70.1486 20.4219C70.0796 20.4499 69.9916 20.4649 69.8846 20.4649H63.9086C63.9776 21.4569 64.2446 22.1868 64.7096 22.6518C65.1746 23.1178 65.7906 23.3498 66.5566 23.3498C66.9336 23.3498 67.2586 23.3058 67.5326 23.2178C67.8056 23.1298 68.0446 23.0328 68.2486 22.9258C68.4526 22.8188 68.6316 22.7218 68.7866 22.6338C68.9406 22.5458 69.0896 22.5018 69.2336 22.5018C69.3276 22.5018 69.4096 22.5208 69.4786 22.5578C69.5476 22.5958 69.6076 22.6488 69.6576 22.7188L70.3366 23.5678C70.0786 23.8688 69.7896 24.1218 69.4696 24.3258C69.1486 24.5308 68.8146 24.6938 68.4656 24.8168C68.1166 24.9398 67.7616 25.0248 67.4006 25.0758C67.0396 25.1258 66.6886 25.1508 66.3496 25.1508C65.6766 25.1508 65.0516 25.0398 64.4736 24.8158C63.8956 24.5928 63.3926 24.2628 62.9656 23.8258C62.5376 23.3888 62.2016 22.8488 61.9566 22.2038C61.7116 21.5599 61.5886 20.8139 61.5886 19.9649C61.5886 19.3049 61.6956 18.685 61.9086 18.103C62.1216 17.522 62.4286 17.016 62.8276 16.585C63.2266 16.154 63.7136 15.814 64.2886 15.562C64.8666 15.3111 65.5156 15.1851 66.2386 15.1851ZM66.2856 16.853C65.6066 16.853 65.0756 17.045 64.6926 17.428C64.3096 17.812 64.0646 18.355 63.9576 19.0589H68.3306C68.3306 18.757 68.2896 18.473 68.2076 18.206C68.1256 17.939 68.0006 17.705 67.8306 17.504C67.6606 17.303 67.4476 17.144 67.1896 17.028C66.9326 16.912 66.6306 16.853 66.2856 16.853Z" fill="#004970"/>
<path d="M72.5056 25.008V15.3363H73.9286C74.2306 15.3363 74.4286 15.4783 74.5226 15.7603L74.6826 16.5242C74.8776 16.3232 75.0836 16.1403 75.2996 15.9773C75.5166 15.8143 75.7456 15.6733 75.9876 15.5533C76.2296 15.4333 76.4886 15.3423 76.7656 15.2803C77.0416 15.2173 77.3436 15.1863 77.6706 15.1863C78.1986 15.1863 78.6666 15.2753 79.0746 15.4543C79.4836 15.6343 79.8236 15.8853 80.0976 16.2082C80.3716 16.5322 80.5786 16.9192 80.7196 17.3682C80.8606 17.8172 80.9316 18.3122 80.9316 18.8522V25.008H78.6036V18.8522C78.6036 18.2612 78.4666 17.8042 78.1936 17.4812C77.9206 17.1572 77.5106 16.9952 76.9636 16.9952C76.5616 16.9952 76.1846 17.0862 75.8326 17.2682C75.4806 17.4512 75.1476 17.6992 74.8336 18.0132V25.007H72.5056V25.008Z" fill="#004970"/>
<path d="M83.4104 25.0079V15.3362H84.7774C85.0164 15.3362 85.1834 15.3802 85.2774 15.4682C85.3714 15.5562 85.4344 15.7072 85.4664 15.9212L85.6074 17.0901C85.9524 16.4932 86.3584 16.0222 86.8234 15.6762C87.2884 15.3302 87.8104 15.1582 88.3884 15.1582C88.8654 15.1582 89.2614 15.2682 89.5754 15.4882L89.2734 17.2321C89.2544 17.3451 89.2134 17.4251 89.1504 17.4721C89.0874 17.5191 89.0024 17.5431 88.8954 17.5431C88.8014 17.5431 88.6724 17.5211 88.5094 17.4771C88.3454 17.4331 88.1294 17.4111 87.8584 17.4111C87.3744 17.4111 86.9594 17.5451 86.6144 17.8121C86.2694 18.0791 85.9764 18.4711 85.7374 18.9861V25.0089H83.4104V25.0079Z" fill="#004970"/>
<path d="M94.7303 27.6662C94.6613 27.8302 94.5713 27.9532 94.4613 28.0382C94.3513 28.1232 94.1833 28.1652 93.9573 28.1652H92.2233L94.0333 24.2913L90.1213 15.3357H92.1573C92.3453 15.3357 92.4903 15.3797 92.5903 15.4677C92.6903 15.5557 92.7663 15.6567 92.8163 15.7697L94.8803 20.7845C94.9493 20.9485 95.0093 21.1175 95.0593 21.2935C95.1093 21.4694 95.1533 21.6454 95.1913 21.8204C95.2413 21.6384 95.2963 21.4624 95.3563 21.2935C95.4163 21.1245 95.4803 20.9515 95.5493 20.7745L97.4913 15.7697C97.5413 15.6437 97.6243 15.5407 97.7413 15.4587C97.8573 15.3777 97.9883 15.3357 98.1323 15.3357H99.9993L94.7303 27.6662Z" fill="#004970"/>
<path d="M29.9048 18.3995L29.8658 18.2815L27.2139 14.6216C27.1959 14.5966 27.1699 14.5786 27.1409 14.5696L24.3189 13.7196L21.5519 7.0599L12.965 0.0361738C12.914 -0.00582454 12.843 -0.0118243 12.786 0.0211744C12.729 0.0541731 12.699 0.116171 12.709 0.180168L14 8.59184L14.972 10.7798L8.48401 9.23081L8.47401 9.22881L0.110075 9.6008C0.0590757 9.6028 0.016076 9.6378 0.00307615 9.6868C-0.00992374 9.73579 0.0110761 9.78679 0.0550757 9.81279L12.605 17.3915L16.8309 21.1233L12.973 23.5053C12.941 23.5253 12.914 23.5533 12.895 23.5853L11.474 26.0542C11.447 26.1012 11.443 26.1581 11.464 26.2081C11.485 26.2591 11.528 26.2961 11.581 26.3111L12.974 26.6901L12.679 28.849C12.672 28.903 12.692 28.957 12.733 28.993C12.775 29.03 12.831 29.043 12.886 29.029L15.563 28.3091L15.7679 29.876C15.7739 29.924 15.8049 29.966 15.8489 29.986C15.8689 29.995 15.8889 30 15.9099 30C15.9369 30 15.9629 29.993 15.9869 29.978L18.6819 28.2791C18.7229 28.2531 18.7539 28.2141 18.7699 28.1681L19.2679 26.7411L20.0649 23.1923L24.2089 19.1894L27.3149 18.6734L29.7678 20.1844C29.8158 20.2134 29.8758 20.2144 29.9238 20.1854C29.9718 20.1574 29.9988 20.1054 29.9958 20.0494L29.9048 18.3995ZM28.9708 18.6124L27.8949 17.9505L27.9599 17.1605L28.9708 18.6124ZM26.1289 15.2226L23.9729 17.9335L21.8869 14.9606L23.9489 14.5656L26.1289 15.2226ZM15.116 14.3166L12.818 16.4535L4.35804 11.3387L15.116 14.3166ZM8.38501 10.1498L15.6709 11.8897L16.4709 12.0897L15.7789 13.5496L4.17404 10.3368L8.38501 10.1498ZM20.0159 9.89979L21.0709 8.31585L23.3299 13.7516L21.2109 14.1576L20.6819 13.7766L20.0159 9.89979ZM20.5039 14.7816L17.7829 19.8684L16.5179 14.1486L17.3099 12.4787L20.5039 14.7816ZM19.1229 10.1688L19.6099 13.0027L17.3409 11.3667L17.3289 11.3587L16.1099 11.0537L15.271 9.19981L19.1229 10.1688ZM14.869 8.15386L13.926 2.0111L20.5509 7.42988L19.3229 9.27281L14.869 8.15386ZM16.8419 19.9054L13.568 17.0145L15.7529 14.9826L16.8419 19.9054ZM17.5529 23.0733L18.3469 26.5731L17.9749 27.6371L16.5289 28.5491L16.3659 27.3091L17.5529 23.0733ZM23.3849 18.7034L19.6259 22.3353L18.1819 21.0833L21.1559 15.5256L23.3849 18.7034ZM15.5949 22.9663L13.314 25.8312L12.756 25.6792L13.614 24.1882L15.5949 22.9663ZM16.5379 23.2633L15.461 27.1051L15.288 27.4321L13.751 27.8461L13.93 26.5391L16.5379 23.2633ZM19.1309 23.1243L18.8249 24.4922L18.3639 22.4583L19.1309 23.1243ZM27.1279 15.9835L26.9789 17.7985L24.9979 18.1285L26.9149 15.7186L27.1279 15.9835Z" fill="#004970"/>
</svg>
