<svg width="110" height="33" viewBox="0 0 110 33" fill="none" xmlns="http://www.w3.org/2000/svg">
<path d="M38.4727 27.5105V16.8716H39.9764C40.2393 16.8716 40.423 16.92 40.5264 17.0168C40.6298 17.1136 40.6991 17.2797 40.7343 17.5151L40.8894 18.8009C41.2689 18.1442 41.7155 17.6262 42.227 17.2456C42.7385 16.865 43.3126 16.6758 43.9484 16.6758C44.4731 16.6758 44.9087 16.7968 45.2541 17.0388L44.9219 18.9571C44.901 19.0814 44.8559 19.1694 44.7866 19.2211C44.7173 19.2728 44.6238 19.2992 44.5061 19.2992C44.4027 19.2992 44.2608 19.275 44.0815 19.2266C43.9012 19.1782 43.6635 19.154 43.3654 19.154C42.8331 19.154 42.3766 19.3014 41.9971 19.5951C41.6176 19.8888 41.2953 20.32 41.0324 20.8865V27.5116H38.4727V27.5105Z" fill="#0050C5"/>
<path d="M55.1869 27.5076H54.0363C53.7943 27.5076 53.604 27.4713 53.4665 27.3987C53.3279 27.3261 53.2245 27.1798 53.1552 26.9577L52.9275 26.2009C52.658 26.4429 52.394 26.6563 52.1344 26.8389C51.8748 27.0215 51.6075 27.1754 51.3314 27.2997C51.0553 27.424 50.7616 27.5175 50.4503 27.5802C50.139 27.6418 49.7936 27.6737 49.413 27.6737C48.9631 27.6737 48.5484 27.6132 48.1689 27.4922C47.7894 27.3712 47.4627 27.1886 47.1888 26.9467C46.916 26.7036 46.7037 26.4022 46.5519 26.0414C46.4001 25.6806 46.3242 25.2615 46.3242 24.7819C46.3242 24.3793 46.4298 23.9822 46.6399 23.5907C46.8511 23.198 47.202 22.8449 47.6926 22.5292C48.1832 22.2135 48.8366 21.9517 49.6517 21.7438C50.4679 21.5359 51.4799 21.4314 52.6899 21.4314V20.8044C52.6899 20.0873 52.5392 19.556 52.2389 19.2117C51.9386 18.8663 51.5008 18.6936 50.9277 18.6936C50.513 18.6936 50.1676 18.742 49.8915 18.8388C49.6154 18.9356 49.3745 19.0445 49.171 19.1655C48.9675 19.2865 48.7783 19.3954 48.6056 19.4922C48.4329 19.589 48.2426 19.6374 48.0347 19.6374C47.862 19.6374 47.7135 19.5934 47.5892 19.5021C47.4649 19.413 47.3648 19.3019 47.2889 19.171L46.8225 18.3515C48.0457 17.2318 49.5219 16.6719 51.25 16.6719C51.8726 16.6719 52.427 16.7742 52.9143 16.9777C53.4016 17.1812 53.8141 17.4649 54.154 17.8279C54.4928 18.1909 54.7502 18.6254 54.9262 19.1292C55.1022 19.6341 55.1902 20.1874 55.1902 20.7879V27.5076H55.1869ZM50.2105 25.9105C50.4734 25.9105 50.7154 25.8874 50.9365 25.839C51.1576 25.7917 51.3666 25.7202 51.5635 25.6245C51.7604 25.5299 51.9507 25.4122 52.1333 25.2725C52.317 25.1328 52.5018 24.9678 52.6877 24.7775V22.9967C51.9408 22.9967 51.3171 23.0429 50.8166 23.1375C50.315 23.231 49.9124 23.352 49.6088 23.4983C49.3041 23.6446 49.0885 23.8151 48.9609 24.0097C48.8333 24.2044 48.7684 24.4167 48.7684 24.6466C48.7684 25.0998 48.9015 25.4232 49.1677 25.6179C49.435 25.8126 49.7815 25.9105 50.2105 25.9105Z" fill="#0050C5"/>
<path d="M62.8691 27.5061H60.547L56.3164 16.8672H58.4416C58.6286 16.8672 58.7859 16.9123 58.9135 17.0025C59.0411 17.0927 59.1291 17.2071 59.1775 17.3446L61.2301 23.027C61.3478 23.3581 61.4457 23.6837 61.526 24.0016C61.6052 24.3195 61.6767 24.6374 61.7383 24.9552C61.7999 24.6374 61.8714 24.3195 61.9506 24.0016C62.0298 23.6837 62.1321 23.3592 62.2564 23.027L64.3607 17.3446C64.4091 17.206 64.496 17.0927 64.6203 17.0025C64.7446 16.9134 64.8931 16.8672 65.0658 16.8672H67.0876L62.8691 27.5061Z" fill="#0050C5"/>
<path d="M72.865 16.7031C73.5349 16.7031 74.152 16.8098 74.7152 17.0243C75.2783 17.2388 75.7634 17.5512 76.1715 17.9626C76.5796 18.374 76.8975 18.8789 77.1252 19.4772C77.3529 20.0745 77.4673 20.7576 77.4673 21.5254C77.4673 21.719 77.4585 21.8796 77.4409 22.0072C77.4233 22.1348 77.3925 22.236 77.3474 22.3075C77.3023 22.3801 77.2418 22.4318 77.1659 22.4637C77.09 22.4945 76.9932 22.511 76.8755 22.511H70.302C70.3779 23.6021 70.6716 24.4051 71.1831 24.9166C71.6946 25.4292 72.3722 25.6844 73.2148 25.6844C73.6295 25.6844 73.987 25.636 74.2884 25.5392C74.5887 25.4424 74.8515 25.3357 75.0759 25.218C75.3003 25.1003 75.4972 24.9936 75.6677 24.8968C75.8371 24.8 76.001 24.7516 76.1594 24.7516C76.2628 24.7516 76.353 24.7725 76.4289 24.8132C76.5048 24.855 76.5708 24.9133 76.6258 24.9903L77.3727 25.9242C77.0889 26.2552 76.771 26.5335 76.419 26.7579C76.0659 26.9834 75.6985 27.1627 75.3146 27.298C74.9307 27.4333 74.5403 27.5268 74.1432 27.5829C73.7461 27.6379 73.36 27.6654 72.9871 27.6654C72.2468 27.6654 71.5593 27.5433 70.9235 27.2969C70.2877 27.0516 69.7344 26.6886 69.2647 26.2079C68.7939 25.7273 68.4243 25.1333 68.1548 24.4238C67.8853 23.7154 67.75 22.8948 67.75 21.961C67.75 21.235 67.8677 20.553 68.102 19.9128C68.3363 19.2737 68.674 18.7172 69.1129 18.2431C69.5518 17.769 70.0875 17.395 70.72 17.1178C71.3558 16.8417 72.0697 16.7031 72.865 16.7031ZM72.9167 18.5379C72.1698 18.5379 71.5857 18.7491 71.1644 19.1704C70.7431 19.5927 70.4736 20.19 70.3559 20.9644H75.1661C75.1661 20.6322 75.121 20.3198 75.0308 20.0261C74.9406 19.7324 74.8031 19.475 74.6161 19.254C74.4292 19.0329 74.1949 18.858 73.9111 18.7304C73.6284 18.6028 73.2962 18.5379 72.9167 18.5379Z" fill="#0050C5"/>
<path d="M79.7578 27.507V16.8681H81.3231C81.6553 16.8681 81.8731 17.0243 81.9765 17.3345L82.1525 18.1749C82.367 17.9538 82.5936 17.7525 82.8312 17.5732C83.0699 17.3939 83.3218 17.2388 83.588 17.1068C83.8542 16.9748 84.1391 16.8747 84.4438 16.8065C84.7474 16.7372 85.0796 16.7031 85.4393 16.7031C86.0201 16.7031 86.5349 16.801 86.9836 16.9979C87.4335 17.1959 87.8075 17.472 88.1089 17.8273C88.4103 18.1837 88.638 18.6094 88.7931 19.1033C88.9482 19.5971 89.0263 20.1416 89.0263 20.7356V27.507H86.4655V20.7356C86.4655 20.0855 86.3149 19.5828 86.0146 19.2276C85.7143 18.8712 85.2633 18.693 84.6616 18.693C84.2194 18.693 83.8047 18.7931 83.4175 18.9933C83.0303 19.1946 82.664 19.4673 82.3186 19.8127V27.5059H79.7578V27.507Z" fill="#0050C5"/>
<path d="M91.7539 27.5065V16.8677H93.2576C93.5205 16.8677 93.7042 16.9161 93.8076 17.0129C93.911 17.1097 93.9803 17.2758 94.0155 17.5111L94.1706 18.797C94.5501 18.1403 94.9967 17.6222 95.5082 17.2417C96.0197 16.8611 96.5939 16.6719 97.2297 16.6719C97.7544 16.6719 98.19 16.7929 98.5354 17.0349L98.2032 18.9532C98.1823 19.0775 98.1372 19.1655 98.0679 19.2172C97.9986 19.2689 97.9051 19.2953 97.7874 19.2953C97.684 19.2953 97.5421 19.2711 97.3628 19.2227C97.1824 19.1743 96.9448 19.1501 96.6467 19.1501C96.1143 19.1501 95.6578 19.2975 95.2783 19.5912C94.8988 19.8849 94.5765 20.3161 94.3136 20.8825V27.5076H91.7539V27.5065Z" fill="#0050C5"/>
<path d="M104.203 30.4308C104.127 30.6111 104.028 30.7464 103.907 30.8399C103.786 30.9334 103.601 30.9796 103.352 30.9796H101.445L103.436 26.7184L99.1328 16.8672H101.372C101.579 16.8672 101.739 16.9156 101.849 17.0124C101.959 17.1092 102.042 17.2203 102.097 17.3446L104.368 22.8609C104.444 23.0412 104.51 23.2271 104.565 23.4207C104.62 23.6143 104.668 23.8079 104.71 24.0004C104.765 23.8002 104.825 23.6066 104.891 23.4207C104.957 23.2348 105.028 23.0445 105.104 22.8499L107.24 17.3446C107.295 17.206 107.386 17.0927 107.515 17.0025C107.642 16.9134 107.787 16.8672 107.945 16.8672H109.999L104.203 30.4308Z" fill="#0050C5"/>
<path d="M32.8962 20.2394L32.8533 20.1096L29.9361 16.0838C29.9163 16.0563 29.8877 16.0365 29.8558 16.0266L26.7516 15.0916L23.7079 7.7659L14.2623 0.0397912C14.2062 -0.00640701 14.1281 -0.0130068 14.0654 0.0232919C14.0027 0.0595905 13.9697 0.127788 13.9807 0.198185L15.4008 9.45104L16.47 11.8577L9.33323 10.1539L9.32223 10.1517L0.121889 10.5609C0.0657891 10.5631 0.0184893 10.6016 0.00418944 10.6555C-0.0101105 10.7094 0.0129894 10.7655 0.0613891 10.7941L13.8663 19.1307L18.5149 23.2357L14.2711 25.8558C14.2359 25.8778 14.2062 25.9086 14.1853 25.9438L12.6222 28.6596C12.5925 28.7113 12.5881 28.774 12.6112 28.829C12.6343 28.8851 12.6816 28.9258 12.7399 28.9423L14.2722 29.3592L13.9477 31.734C13.94 31.7934 13.962 31.8528 14.0071 31.8924C14.0533 31.9331 14.1149 31.9474 14.1754 31.932L17.1201 31.14L17.3456 32.8637C17.3522 32.9165 17.3863 32.9626 17.4347 32.9846C17.4567 32.9945 17.4787 33 17.5018 33C17.5315 33 17.5601 32.9923 17.5865 32.9758L20.551 31.107C20.5961 31.0784 20.6302 31.0355 20.6478 30.9849L21.1956 29.4153L22.0723 25.5115L26.6306 21.1084L30.0472 20.5408L32.7455 22.2029C32.7983 22.2348 32.8643 22.2359 32.9171 22.204C32.9699 22.1732 32.9996 22.116 32.9963 22.0544L32.8962 20.2394ZM31.8688 20.4737L30.6852 19.7455L30.7567 18.8766L31.8688 20.4737ZM28.7426 16.7449L26.371 19.7268L24.0764 16.4567L26.3446 16.0222L28.7426 16.7449ZM16.6284 15.7483L14.1006 18.0989L4.79466 12.4726L16.6284 15.7483ZM9.22433 11.1648L17.2389 13.0787L18.1189 13.2987L17.3577 14.9046L4.59226 11.3705L9.22433 11.1648ZM22.0184 10.8898L23.1788 9.14745L25.6637 15.1268L23.3328 15.5734L22.751 15.1543L22.0184 10.8898ZM22.5552 16.2598L19.5621 21.8553L18.1706 15.5635L19.0418 13.7266L22.5552 16.2598ZM21.0361 11.1857L21.5718 14.303L19.0759 12.5034L19.0627 12.4946L17.7218 12.1591L16.7989 10.1198L21.0361 11.1857ZM16.3567 8.96925L15.3194 2.21221L22.6069 8.17288L21.2561 10.2001L16.3567 8.96925ZM18.527 21.896L14.9256 18.716L17.3291 16.4809L18.527 21.896ZM19.3091 25.3806L20.1825 29.2305L19.7733 30.4008L18.1827 31.404L18.0034 30.0401L19.3091 25.3806ZM25.7242 20.5738L21.5894 24.5689L20.001 23.1917L23.2723 17.0781L25.7242 20.5738ZM17.1553 25.2629L14.6462 28.4143L14.0324 28.2471L14.9762 26.6071L17.1553 25.2629ZM18.1926 25.5896L17.0079 29.8157L16.8176 30.1754L15.1269 30.6307L15.3238 29.1931L18.1926 25.5896ZM21.0449 25.4367L20.7083 26.9415L20.2012 24.7042L21.0449 25.4367ZM29.8415 17.5819L29.6776 19.5784L27.4985 19.9413L29.6072 17.2904L29.8415 17.5819Z" fill="#0050C5"/>
</svg>
