<svg width="37" height="50" viewBox="0 0 37 50" fill="none" xmlns="http://www.w3.org/2000/svg">
<path d="M25.9 0C26.15 0 26.4 0.1 26.6 0.3L36.71 10.4C36.91 10.6 37 10.85 37 11.11V45C37 47.75 34.75 50 32 50H5C2.25 50 0 47.75 0 45V5C0 2.25 2.25 0 5 0H25.9Z" fill="white"/>
<path d="M36.71 10.4L36.36 10.05L35.07 8.76L28.3 2L26.6 0.300003C26.4 0.100003 26.15 0 25.9 0H5C2.25 0 0 2.25 0 5V45C0 47.75 2.25 50 5 50H32C34.75 50 37 47.75 37 45V11.11C37 10.85 36.91 10.6 36.71 10.4ZM33.53 10.05H29.5C28.09 10.05 26.95 8.91 26.95 7.5V3.47L33.53 10.05ZM35 45C35 46.66 33.65 48 32 48H5C3.34 48 2 46.66 2 45V5C2 3.35 3.34 2 5 2H24.5V7.5C24.5 10.25 26.75 12.5 29.5 12.5H35V45Z" fill="#FEBE3F"/>
<path d="M10.61 26.84C9.8 26.76 9.24 26.59 8.94 26.34C8.66 26.11 8.53 25.83 8.53 25.49C8.53 25.13 8.67001 24.87 8.98001 24.68C9.31001 24.47 9.77001 24.36 10.32 24.36C10.77 24.36 11.14 24.44 11.42 24.61C11.71 24.78 11.95 25.02 12.13 25.33C12.21 25.48 12.32 25.59 12.47 25.68C12.76 25.85 13.12 25.85 13.39 25.67C13.62 25.51 13.74 25.29 13.74 25.03C13.74 24.85 13.68 24.66 13.56 24.46C13.21 23.91 12.78 23.48 12.28 23.18C11.77 22.88 11.14 22.72 10.41 22.72C9.75 22.72 9.15 22.82 8.61 23.03C8.06 23.24 7.62 23.55 7.3 23.96C6.97 24.38 6.81001 24.87 6.81001 25.44C6.81001 26.24 7.13 26.92 7.75 27.45C8.36 27.97 9.19001 28.28 10.23 28.38C10.89 28.45 11.38 28.62 11.69 28.91C11.99 29.19 12.14 29.51 12.14 29.9C12.14 30.29 11.97 30.6 11.63 30.83C11.26 31.08 10.79 31.2 10.24 31.2C9.77001 31.2 9.34001 31.1 8.95001 30.9C8.58001 30.71 8.33001 30.48 8.21001 30.23C8.13001 30.06 8.02 29.92 7.86 29.82C7.7 29.72 7.53 29.66 7.36 29.66C7.28 29.66 7.21 29.67 7.19 29.68C6.99 29.72 6.82001 29.81 6.70001 29.94C6.57001 30.08 6.5 30.25 6.5 30.43C6.5 30.53 6.53 30.64 6.58 30.77C6.84 31.39 7.32 31.89 8 32.27C8.67 32.64 9.42001 32.83 10.24 32.83C10.86 32.83 11.45 32.72 11.99 32.51C12.55 32.29 13 31.95 13.34 31.5C13.68 31.05 13.86 30.5 13.86 29.87C13.86 29.01 13.57 28.3 12.99 27.77C12.42 27.25 11.62 26.94 10.61 26.84Z" fill="#FEBE3F"/>
<path d="M21.6598 22.95C21.5198 23.03 21.4098 23.17 21.3398 23.36L18.4998 30.06L15.7098 23.36C15.5698 23.02 15.2898 22.83 14.8998 22.83C14.6598 22.83 14.4598 22.9 14.3198 23.04C14.1698 23.18 14.0898 23.37 14.0898 23.6C14.0898 23.75 14.1298 23.91 14.2098 24.12L17.7298 32.16C17.9298 32.61 18.2698 32.7 18.5198 32.7C18.8898 32.7 19.1798 32.5 19.3098 32.15L22.8598 24C22.9198 23.86 22.9498 23.72 22.9498 23.59C22.9498 23.37 22.8698 23.18 22.7198 23.04C22.4598 22.8 21.9598 22.79 21.6598 22.95Z" fill="#FEBE3F"/>
<path d="M30.5302 27.35H28.2902C28.0402 27.35 27.8402 27.42 27.6702 27.57C27.5002 27.72 27.4102 27.92 27.4102 28.15C27.4102 28.38 27.5002 28.58 27.6702 28.73C27.8302 28.88 28.0402 28.95 28.2902 28.95H29.7002V30.7C28.6302 31.35 27.3902 31.34 26.4302 30.74C25.9402 30.44 25.5502 30.02 25.2702 29.5C24.9802 28.98 24.8402 28.4 24.8402 27.77C24.8402 27.15 24.9902 26.57 25.2702 26.05C25.5602 25.53 25.9502 25.11 26.4302 24.8C26.9102 24.5 27.4402 24.35 28.0202 24.35C28.4802 24.35 28.8602 24.41 29.1402 24.52C29.4202 24.63 29.7202 24.82 30.0302 25.09C30.3902 25.39 30.8702 25.36 31.1802 25.08C31.3502 24.93 31.4402 24.73 31.4402 24.5C31.4402 24.36 31.4202 24.24 31.3702 24.13C31.3202 24.01 31.2302 23.91 31.1102 23.81C30.6302 23.43 30.1602 23.15 29.6902 22.98C29.2202 22.81 28.6602 22.73 28.0302 22.73C27.1302 22.73 26.3002 22.96 25.5602 23.41C24.8202 23.86 24.2302 24.47 23.8002 25.24C23.3702 26.01 23.1602 26.86 23.1602 27.78C23.1602 28.71 23.3802 29.57 23.8002 30.34C24.2302 31.11 24.8202 31.73 25.5602 32.17C26.3002 32.62 27.1402 32.84 28.0302 32.84C29.2102 32.84 30.2502 32.47 31.1302 31.74C31.3202 31.59 31.4102 31.37 31.4102 31.1V28.23C31.4102 27.98 31.3202 27.77 31.1602 27.6C30.9802 27.44 30.7702 27.35 30.5302 27.35Z" fill="#FEBE3F"/>
</svg>
