<svg width="200" height="200" viewBox="0 0 200 200" fill="none" xmlns="http://www.w3.org/2000/svg">
    <path fill-rule="evenodd" clip-rule="evenodd"
        d="M128.777 42.654C145.985 38.8018 161.928 43.3722 170.497 56.4268C179.067 69.4814 176.825 90.1965 174.969 99.3402C173.112 108.484 168.404 116.859 162.559 124.13C151.704 137.634 137.035 147.969 120.636 153.547C104.238 159.126 86.4328 160.27 69.3432 157.448C59.7565 155.865 29.7687 148.109 23.2954 124.704C16.8222 101.299 12.7254 81.2955 26.7433 73.1698C40.7613 65.0441 50.471 71.1556 57.4107 74.161C89.8316 88.202 111.568 46.5062 128.777 42.654Z"
        fill="#0050C5" />
    <path fill-rule="evenodd" clip-rule="evenodd"
        d="M153.009 64.5761C155.769 64.3629 158.745 64.5008 160.995 66.1149C163.244 67.729 164.266 71.2734 162.419 73.3359C164.507 72.5194 166.962 73.9042 168.008 75.8875C169.054 77.8709 168.999 80.2471 168.685 82.4672C167.905 87.9654 165.664 93.2496 162.252 97.6314C162.096 98.0933 161.939 98.5552 161.782 99.0171C165.814 100.057 181.56 106.172 177.305 121.246C173.051 136.321 154.471 142.059 152.569 143.863C149.255 147.007 144.195 147.222 139.628 147.078C128.399 146.721 117.205 145.294 106.246 142.822C105.314 142.612 104.134 142.484 103.596 143.274C99.709 148.989 91.5795 149.5 84.685 149.003C75.8289 148.364 67.0236 147.021 58.3797 144.99C53.4767 143.839 48.2702 142.235 45.2158 138.23C41.6549 133.562 42.0661 127.089 42.6439 121.246C40.3035 122.548 36.4218 123.252 30.9987 123.361C27.8057 122.709 25.814 121.552 25.0236 119.888C21.4091 112.281 20.1696 102.477 24.6707 94.9788C25.2114 94.078 25.8352 93.1904 26.7157 92.6171C27.6491 92.0094 28.787 91.8096 29.8965 91.7114C34.2726 91.3238 38.7625 92.3452 42.5402 94.5878C42.5064 82.3097 42.4727 70.0315 42.439 57.7534C42.437 57.0503 42.4468 56.3042 42.8217 55.7093C43.3639 54.8489 44.4745 54.5822 45.4742 54.3956C54.5682 52.698 63.7653 51.553 72.998 50.9692C76.0146 50.7785 80.1431 51.6181 80.1568 54.6407C80.2094 66.2165 80.262 77.7922 80.3146 89.3679C80.3271 92.1231 80.5042 91.8927 81.795 91.0943C80.9836 91.1784 81.1646 89.8021 81.7796 89.2661C84.0751 87.2648 87.4204 87.1912 90.4656 87.2224C97.2772 87.2921 104.089 87.3618 110.9 87.4315C117.5 87.4991 125.415 88.336 128.403 94.2212C128.316 92.4722 129.902 90.8216 131.653 90.8377C133.562 90.8552 135.16 89.1985 135.717 87.3719C136.275 85.5452 136.029 83.5825 135.778 81.6893C132.698 78.7076 131.892 73.639 133.895 69.8491C135.897 66.0592 140.538 63.8687 144.737 64.7321C147.449 65.2898 150.248 64.7893 153.009 64.5761ZM73.9698 121.358C73.8792 123.795 73.7833 126.265 73.066 128.596L73.9698 121.358ZM71.1477 91.4478C71.7817 91.6333 72.5661 92.1955 72.2333 92.7661C74.9874 93.0413 74.165 92.9138 74.2889 89.6683C74.4146 86.3751 74.4251 82.7338 72.2691 80.2412C70.3613 78.0357 67.25 77.3458 64.3444 77.0978C60.953 76.8082 57.5252 76.9473 54.1683 77.5108C52.5305 77.7857 50.7564 78.2594 49.8059 79.6213C49.2739 80.3835 49.0782 81.3248 48.9219 82.2411C48.3072 85.8452 48.1152 89.5213 48.3512 93.1698C55.4121 89.8847 63.6735 89.2606 71.1477 91.4478ZM132.426 115.644C132.598 115.47 132.86 115.427 133.103 115.394C134.073 115.26 135.043 115.127 136.014 114.993C133.787 113.987 132.437 111.598 132.034 109.188C131.631 106.778 132.024 104.314 132.422 101.903C130.998 103.489 131.1 105.88 131.287 108.003C131.695 112.65 132.253 115.818 132.426 115.644ZM114.105 138.531C114.296 137.911 114.945 137.577 115.421 137.135C116.277 136.339 116.595 135.136 116.875 134.001C117.84 130.079 118.811 126.109 118.799 122.069C118.796 121.214 118.753 120.334 119.036 119.527C119.32 118.719 120.03 117.989 120.885 117.985C121.788 117.98 122.003 116.729 121.923 115.83C121.644 112.731 121.366 109.632 121.088 106.533C120.999 105.543 120.909 104.544 120.608 103.597C119.498 100.094 115.218 97.9768 111.76 99.2185C111.337 99.3705 111.224 99.9052 111.175 100.352C110.643 105.309 110.111 110.266 109.579 115.223C109.484 116.104 110.621 116.666 111.48 116.448C112.338 116.23 112.994 115.559 113.736 115.076C114.478 114.593 115.525 114.314 116.206 114.88C116.977 115.52 118.117 114.809 118.786 114.065C119.456 113.32 120.327 112.423 121.279 112.733C120.163 113.801 119.046 114.869 117.93 115.937C117.559 116.291 117.233 116.998 117.701 117.207C118.984 116.752 120.143 115.955 121.027 114.92C121.436 114.907 121.455 115.549 121.227 115.889C120.368 117.168 118.345 117.453 117.824 118.903C116.608 122.288 112.817 124.537 109.263 123.98C108.534 123.866 108.171 124.825 108.083 125.557C107.733 128.478 107.383 131.4 107.033 134.321C106.953 134.993 106.878 135.703 107.155 136.321C107.616 137.352 108.851 137.742 109.946 138.019C111.393 138.385 112.856 138.754 114.335 138.914C114.958 138.981 114.955 138.753 114.105 138.531ZM56.4583 133.176C58.5258 133.868 60.7142 134.103 62.8824 134.333C63.8018 134.431 64.781 134.518 65.6058 134.1C66.5768 133.609 67.0941 132.543 67.5117 131.538C69.8405 125.932 71.1701 119.914 71.4193 113.849C71.4547 112.987 70.3515 112.607 69.4909 112.549C62.621 112.088 56.0509 115.108 49.8292 118.057C49.531 118.199 49.2118 118.36 49.0645 118.655C48.9546 118.875 48.9604 119.133 48.9686 119.379C49.08 122.729 49.2206 126.2 50.719 129.198C51.1236 130.008 51.6384 130.788 52.3672 131.325C52.8086 131.65 53.3139 131.876 53.8149 132.099C54.6844 132.486 55.5558 132.873 56.4583 133.176ZM100.9 120.776C101.816 115.851 102.461 110.876 102.832 105.881C102.959 104.172 103.052 102.435 102.683 100.762C102.314 99.0883 101.422 97.4617 99.9652 96.5598C99.0674 96.0041 98.0164 95.7548 96.977 95.5693C95.08 95.2309 93.1502 95.0774 91.2236 95.1116C89.5236 95.1418 87.7391 95.349 86.3513 96.3314C85.8923 96.6562 85.4755 97.0814 85.3078 97.6181C85.1402 98.1548 85.2813 98.8143 85.7469 99.1296C86.9236 99.9264 87.4033 101.417 87.6238 102.821C87.8443 104.225 87.8973 105.695 88.5371 106.964C88.867 107.619 89.3401 108.19 89.8362 108.729C92.5262 111.654 96.0349 113.818 99.856 114.908C100.528 115.1 101.382 115.515 101.241 116.199C103.354 117.532 100.865 120.965 100.9 120.776ZM95.0763 135.301C95.8543 134.828 96.3819 134.041 96.8463 133.258C98.8169 129.936 100.109 126.213 100.621 122.384C93.5325 122.352 86.4867 119.677 81.1625 114.998C80.9803 115.729 81.0151 116.495 81.04 117.248C81.1955 121.951 80.9164 126.668 80.2076 131.319C80.0386 132.428 80.7011 133.537 81.6118 134.192C82.5224 134.847 83.6443 135.128 84.7457 135.34C87.2286 135.818 89.7658 136.014 92.2927 135.923C93.2537 135.889 94.2544 135.8 95.0763 135.301ZM139.804 94.7368C139.391 93.7411 139.081 92.6185 138.224 91.9648C137.366 91.3111 135.752 91.631 135.702 92.7078C136.55 92.5516 137.199 93.5988 137.054 94.4491C136.91 95.2995 136.292 95.9757 135.8 96.6848C135.122 97.6645 134.658 98.7736 134.198 99.8734C133.106 102.49 132.681 105.382 132.974 108.203C133.146 109.864 133.601 111.569 134.724 112.805C135.847 114.04 137.772 114.658 139.251 113.885C140.522 113.221 141.156 111.756 141.447 110.352C141.739 108.948 141.791 107.479 142.341 106.155C143.357 103.712 145.862 102.237 148.34 101.31C144.615 100.804 141.245 98.2088 139.804 94.7368ZM129.504 97.379C129.669 98.0193 129.899 98.6431 130.187 99.2382C130.361 98.3996 130.639 97.5828 131.013 96.8128C130.634 96.7694 130.253 96.7488 129.872 96.7511C129.779 96.7517 129.681 96.7551 129.603 96.8047C129.427 96.9164 129.451 97.1771 129.504 97.379ZM84.606 96.72C84.3714 96.9087 84.2338 97.315 84.4814 97.4861C84.8606 97.1065 85.2398 96.7269 85.619 96.3473C85.5406 96.2501 85.4266 96.1823 85.3038 96.1597C85.1535 96.4205 84.8405 96.5312 84.606 96.72Z"
        fill="#F5F7FA" />
    <path
        d="M150.267 94C151.077 94 151.733 93.3433 151.733 92.5333C151.733 91.7233 151.077 91.0667 150.267 91.0667C149.457 91.0667 148.8 91.7233 148.8 92.5333C148.8 93.3433 149.457 94 150.267 94Z"
        fill="#FEBE3F" />
    <path
        d="M141.867 92.5333C142.308 92.5333 142.667 92.1752 142.667 91.7333C142.667 91.2915 142.308 90.9333 141.867 90.9333C141.425 90.9333 141.067 91.2915 141.067 91.7333C141.067 92.1752 141.425 92.5333 141.867 92.5333Z"
        fill="#FEBE3F" />
    <path fill-rule="evenodd" clip-rule="evenodd"
        d="M66.1136 71.4871C68.5136 71.5023 70.9135 71.5176 73.3135 71.5328C73.4258 71.5335 73.5466 71.5369 73.6371 71.6033C73.8223 71.7392 73.7484 72.0575 73.5578 72.1856C73.3672 72.3137 73.1201 72.3083 72.8905 72.3003C70.7785 72.227 68.6602 72.3367 66.567 72.6278C66.2487 72.672 65.9128 72.7185 65.6151 72.5975C65.3174 72.4765 65.0896 72.12 65.2267 71.8293C65.3698 71.5256 65.7778 71.485 66.1136 71.4871ZM58.088 71.2514C58.2401 71.403 58.1672 71.6813 57.9983 71.8139C57.8293 71.9464 57.603 71.9729 57.3894 71.9945C55.2617 72.21 53.134 72.4254 51.0064 72.6408C50.7547 72.6663 50.4946 72.691 50.2538 72.6135C50.0131 72.536 49.7953 72.3279 49.7896 72.075C49.7837 71.8142 50.0053 71.5926 50.2525 71.5094C50.4998 71.4262 50.7684 71.4495 51.0286 71.4699C53.2086 71.6414 55.4099 71.5425 57.5658 71.1762C57.7464 71.1455 57.9583 71.1221 58.088 71.2514ZM57.79 67.1673C57.949 67.2955 57.8924 67.5705 57.7329 67.6982C57.5733 67.8258 57.3562 67.8469 57.1526 67.863L50.3197 68.4021C50.0639 68.4223 49.7989 68.4413 49.5576 68.354C49.3163 68.2667 49.1047 68.042 49.1185 67.7858C49.1326 67.5262 49.3723 67.3248 49.6249 67.2636C49.8775 67.2023 50.142 67.248 50.3991 67.286C52.7182 67.6288 55.0764 67.3163 57.411 67.104C57.542 67.0921 57.6877 67.0847 57.79 67.1673ZM67.3328 65.8135C68.7585 65.9956 70.2039 66.0233 71.6356 65.8959C72.2048 65.8453 72.8928 65.8216 73.2162 66.2927C72.8323 66.603 72.3048 66.647 71.8122 66.678C70.1796 66.7809 68.547 66.8838 66.9144 66.9867C66.5419 67.0102 66.0778 66.982 65.9244 66.6418C65.7867 66.3366 66.029 65.9695 66.3402 65.8458C66.6514 65.7222 67.0006 65.771 67.3328 65.8135ZM55.0157 64.0679C55.0174 64.3145 54.7085 64.4209 54.4645 64.4567L50.8763 64.9826C50.6201 65.0202 50.3555 65.0573 50.1054 64.9905C49.8553 64.9237 49.6215 64.7248 49.5981 64.467C49.5695 64.1514 49.8658 63.885 50.1751 63.8163C50.4845 63.7475 50.805 63.8194 51.1193 63.8599C52.2031 63.9996 53.2965 63.7614 54.3886 63.7239C54.6558 63.7147 55.0138 63.8006 55.0157 64.0679ZM72.3293 63.2091C72.6069 63.2401 72.8918 63.4057 72.966 63.675C72.473 64.0479 71.8213 64.1158 71.2055 64.1704C70.1515 64.2638 69.0975 64.3572 68.0435 64.4506C67.6722 64.4836 67.3009 64.5165 66.9296 64.5494C66.6581 64.5734 66.3757 64.5961 66.1207 64.4998C65.8658 64.4034 65.6479 64.1504 65.6859 63.8805C65.7457 63.4552 66.304 63.3448 66.7334 63.354C68.3266 63.3883 69.9399 63.6287 71.5009 63.308C71.7746 63.2517 72.0516 63.178 72.3293 63.2091ZM73.7288 59.1857C65.919 60.2388 57.9117 59.6935 50.2093 61.3594C49.7525 61.4583 49.115 61.4631 48.9968 61.0109C49.0074 60.4781 49.6966 60.2858 50.2281 60.2479C57.721 59.7135 65.2139 59.1791 72.7069 58.6448C73.1465 58.6134 73.7634 58.7464 73.7288 59.1857Z"
        fill="#FEBE3F" />
    <path fill-rule="evenodd" clip-rule="evenodd"
        d="M46.2565 140.141C46.3381 141.086 45.0357 141.406 44.0873 141.409C39.1585 141.429 34.2346 142.343 29.6272 144.094C28.9241 144.362 28.1715 144.698 27.8293 145.368C27.3761 146.255 27.8707 147.39 28.6724 147.981C29.4741 148.572 30.4974 148.753 31.4805 148.913C57.0344 153.074 82.9684 154.898 108.853 154.354L109.269 154.345C112.255 154.276 115.301 154.116 118.036 152.934C115.772 151.347 113.508 149.76 111.244 148.173C115.163 147.39 119.207 147.948 123.185 148.341C132.288 149.239 141.478 149.258 150.585 148.395C149.944 149.42 148.534 149.562 147.326 149.588C135.871 149.835 124.401 149.428 112.992 148.37C114.481 149.349 115.969 150.329 117.458 151.309C117.997 151.663 118.594 152.114 118.625 152.759C118.672 153.728 117.481 154.212 116.524 154.37C113.347 154.895 110.115 154.979 106.895 155.026C81.7486 155.393 56.571 153.594 31.7326 149.654C30.5206 149.462 29.2648 149.247 28.2542 148.551C27.2436 147.855 26.5547 146.531 26.9793 145.38C27.4017 144.235 28.6869 143.697 29.8472 143.318C35.1569 141.584 40.6832 140.514 46.2565 140.141ZM80.1569 54.6407C80.2094 66.2165 80.262 77.7922 80.3146 89.3679C80.3272 92.1231 80.87 95.6096 83.5344 96.3111C87.2161 94.6115 91.366 93.94 95.3957 94.392C97.7026 94.6507 100.098 95.3481 101.66 97.0656C103.802 99.4216 103.806 102.97 103.576 106.146C103.109 112.583 102.191 118.988 100.83 125.298C101.911 125.229 103.014 125.663 103.76 126.45C102.612 126.975 101.245 126.997 100.081 126.509C100.88 130.843 97.3497 135.118 93.1217 136.359C88.8937 137.601 84.3056 136.43 80.3298 134.53C79.9569 135.982 81.8994 136.835 83.3825 137.055C87.1472 137.611 90.9119 138.167 94.6766 138.724C90.0274 138.864 85.3627 138.483 80.7976 137.592C79.9569 138.782 81.8605 139.984 83.2992 140.217C87.1151 140.834 90.931 141.452 94.7469 142.07C90.4369 142.041 86.1287 141.753 81.853 141.209C84.5722 143.662 88.284 144.981 91.9413 144.794C89.8783 145.472 87.5862 145.432 85.5487 144.68C88.0977 148.094 93.3127 148.726 97.1213 146.817C100.93 144.907 103.416 141.001 104.633 136.918C105.849 132.835 105.968 128.52 106.183 124.265C106.581 116.411 107.341 108.568 108.717 100.825C109.644 95.611 111.92 89.3939 117.164 88.6572C107.821 88.2266 98.469 87.9944 89.1163 87.9608C86.2743 87.9505 82.7441 88.4154 81.795 91.0943C80.9836 91.1784 81.1647 89.8021 81.7796 89.2661C84.0751 87.2648 87.4204 87.1912 90.4657 87.2224L110.9 87.4315C117.5 87.4991 125.415 88.336 128.403 94.2212C128.316 92.4722 129.902 90.8216 131.653 90.8377C133.562 90.8552 135.16 89.1985 135.717 87.3719C136.275 85.5452 136.029 83.5825 135.778 81.6893C132.699 78.7076 131.892 73.639 133.895 69.8491C134.461 68.7772 135.298 66.2212 139.971 64.5761C143.087 63.4793 146.167 63.5999 149.21 64.9378C154.927 63.8325 158.855 64.2248 160.995 66.1149C164.205 68.9499 164.266 71.2734 162.419 73.3359C164.507 72.5194 166.962 73.9042 168.008 75.8875C169.054 77.8709 168.999 80.2471 168.685 82.4672C167.905 87.9654 165.664 93.2496 162.252 97.6314L161.782 99.0171C170.034 101.145 176.71 108.439 178.101 116.847C175.357 110.663 171.643 104.113 165.243 101.918C163.799 103.433 162.315 105.013 161.637 106.993C160.958 108.973 161.325 111.474 163.044 112.667C161.964 112.917 160.884 113.167 159.804 113.418C160.164 114.055 160.523 114.693 160.883 115.331C156.802 118.433 156.332 124.301 156.357 129.427C156.382 134.553 156.288 140.335 152.569 143.863C149.255 147.007 144.195 147.223 139.628 147.078C128.399 146.721 117.205 145.294 106.246 142.822C105.314 142.612 104.134 142.484 103.596 143.274C99.709 148.989 91.5796 149.5 84.685 149.003C75.8289 148.364 67.0237 147.021 58.3798 144.99C53.4767 143.839 48.2702 142.235 45.2158 138.23C41.655 133.562 42.0662 127.089 42.644 121.246C39.1333 123.198 34.9714 123.954 30.9987 123.361C35.1864 120.623 37.2171 115.385 37.2553 110.382C37.2934 105.379 35.6234 100.53 33.7655 95.8841C29.6719 98.2585 27.518 103.263 27.8383 107.985C28.1586 112.706 30.6637 117.089 34.0249 120.42C29.8815 117.805 27.1398 113.095 26.9129 108.2C26.686 103.306 28.98 98.3619 32.8636 95.3748C32.243 93.2526 29.0413 92.9932 27.3633 94.4331C25.6853 95.873 25.1586 98.2101 24.727 100.379C23.9294 104.386 23.1286 108.486 23.7081 112.53C24.2876 116.575 26.5216 120.623 30.2652 122.26C28.5157 123.521 26.1855 121.705 25.0236 119.888C20.3119 112.52 20.1696 102.477 24.6707 94.9788C25.2114 94.078 25.8353 93.1904 26.7157 92.6172C27.6491 92.0094 28.7871 91.8096 29.8965 91.7114C34.2726 91.3238 38.7625 92.3452 42.5402 94.5878C42.5065 82.3097 42.4727 70.0315 42.439 57.7534C42.4371 57.0503 42.4468 56.3042 42.8217 55.7093C43.3639 54.8489 44.4746 54.5822 45.4743 54.3956C54.5682 52.698 63.7654 51.553 72.998 50.9692C76.0147 50.7785 80.1431 51.6181 80.1569 54.6407ZM73.9906 51.709C64.2019 52.1698 54.4486 53.3798 44.8441 55.3251C44.4353 55.4079 44.0025 55.5046 43.7053 55.7972C43.3006 56.1959 43.2693 56.8276 43.264 57.3957C43.1493 69.6214 43.1978 81.8486 43.4095 94.073C44.5848 93.7799 45.7602 93.4869 46.9356 93.1938C46.4761 90.6854 46.0147 88.143 46.2112 85.6004C46.4076 83.0579 47.3407 80.4721 49.2598 78.7927C51.3369 76.9751 54.2355 76.4615 56.9888 76.2682C59.6364 76.0823 62.3001 76.1254 64.9403 76.3968C67.6355 76.6738 70.4747 77.2723 72.4191 79.1591C75.2279 81.8846 75.2733 86.3001 75.1279 90.2111C74.7419 100.593 74.3559 110.976 73.9699 121.358C73.8793 123.795 73.7833 126.265 73.066 128.596C72.3488 130.927 70.9252 133.142 68.7713 134.286C66.6577 135.409 64.1286 135.377 61.7508 135.107C59.4805 134.849 57.2322 134.399 55.0376 133.763C53.7045 133.377 52.3706 132.912 51.2377 132.11C47.4888 129.457 47.0456 124.163 46.9545 119.571C45.5151 119.311 44.1078 120.407 43.5135 121.744C42.9191 123.08 42.9454 124.599 42.9824 126.061C43.0745 129.709 43.2166 133.538 45.0787 136.676C47.9517 141.518 53.9862 143.306 59.496 144.462C69.2755 146.514 79.2047 147.853 89.1785 148.463C84.7273 146.196 80.7809 142.316 79.8421 137.409C79.587 136.077 79.5597 134.712 79.5331 133.356C79.0134 106.828 78.4937 80.3003 77.974 53.7727C77.9412 52.0951 75.6667 51.6301 73.9906 51.709ZM111.937 95.2623C111.689 95.8662 111.509 96.5361 111.674 97.1676C111.839 97.7991 112.452 98.3504 113.096 98.2432C115.98 97.763 119.088 99.1832 120.612 101.677C121.87 103.735 122.044 106.253 122.186 108.661L123.475 130.593C123.613 132.937 123.681 135.516 122.225 137.357C120.335 139.746 116.786 139.826 113.754 139.529C111.253 139.285 108.621 138.869 106.679 137.273C106.748 138.202 106.477 139.152 105.929 139.905C105.253 140.834 106.345 142.057 107.407 142.496C108.704 143.033 110.115 143.22 111.507 143.401C117.883 144.228 124.264 145.027 130.647 145.795C135.561 146.387 140.553 146.959 145.438 146.165C142.348 145.298 139.391 143.958 136.701 142.206C135.36 141.331 134.062 140.333 133.147 139.018C131.654 136.873 131.339 134.147 131.09 131.545C130.351 123.807 129.801 116.05 129.441 108.285C129.175 102.558 127.338 96.9115 124.184 92.1236C123.62 91.2674 122.93 90.379 121.933 90.1406C117.969 89.193 113.483 91.4909 111.937 95.2623ZM93.7578 144.825C94.0941 144.882 94.4393 144.957 94.7165 145.156C94.9937 145.355 95.187 145.708 95.1017 146.038C95.0163 146.369 94.5804 146.586 94.305 146.384C94.0012 146.162 93.597 146.155 93.2348 146.052C92.8726 145.95 92.4929 145.649 92.558 145.278C92.6405 144.808 93.2874 144.745 93.7578 144.825ZM79.7957 144.964C80.2129 145.051 80.7014 145.349 80.6159 145.766C80.5405 146.134 80.085 146.257 79.7125 146.307C79.295 146.362 78.8494 146.414 78.4703 146.23C78.0912 146.047 77.8453 145.529 78.094 145.189C78.2617 144.96 78.5756 144.899 78.8595 144.887C79.1731 144.875 79.4883 144.9 79.7957 144.964ZM104.758 140.324C104.362 140.61 104.09 141.031 103.81 141.431C102.537 143.256 100.922 144.843 99.0749 146.084C99.1211 146.28 99.4146 146.231 99.5888 146.13C101.728 144.89 103.254 142.843 104.719 140.852C104.839 140.689 104.937 140.417 104.758 140.324ZM123.882 91.0189C125.024 92.3662 126.173 93.7264 127.008 95.2823C127.913 96.9691 128.422 98.8382 128.831 100.708C131.121 111.169 130.51 122.044 131.994 132.649C132.261 134.563 132.616 136.517 133.611 138.173C134.778 140.113 136.713 141.458 138.686 142.569C140.281 143.468 141.945 144.257 143.697 144.789C146.483 145.636 149.829 145.695 151.964 143.716C153.163 142.605 153.794 141.019 154.287 139.46C156.398 132.779 156.631 125.514 154.95 118.711C154.992 122.78 155.52 126.839 155.4 130.906C155.279 134.973 154.444 139.161 152.053 142.454C151.579 143.106 151.031 143.732 150.315 144.102C149.372 144.591 148.252 144.581 147.199 144.453C145.358 144.228 143.559 143.672 141.912 142.819C140.662 142.171 139.505 141.357 138.384 140.505C137.081 139.514 135.801 138.446 134.888 137.087C133.983 135.741 133.479 134.167 133.079 132.595C130.157 121.113 132.246 108.727 128.78 97.3983C127.963 94.7282 126.544 91.8635 123.882 91.0189ZM54.1898 141.531C60.9337 142.572 67.6776 143.613 74.4215 144.654C74.2507 145.1 73.6341 145.116 73.1606 145.052C67.3931 144.282 61.6256 143.511 55.8581 142.741C55.2061 142.654 54.5541 142.567 53.902 142.48C53.5926 142.438 53.2083 142.326 53.1692 142.017C53.114 141.58 53.7549 141.464 54.1898 141.531ZM132.422 101.904C130.998 103.489 131.1 105.88 131.287 108.003C131.695 112.65 132.104 117.297 132.512 121.943C132.531 122.161 132.554 122.39 132.682 122.567C132.89 122.857 133.294 122.907 133.65 122.932C138.499 123.274 143.347 123.615 148.196 123.957C147.833 124.53 147.016 124.539 146.34 124.487C141.775 124.134 137.192 124.02 132.616 124.145C132.537 126.492 132.883 128.852 133.631 131.078C133.956 132.042 135.206 132.248 136.223 132.289C140.101 132.446 143.979 132.603 147.858 132.76C148.036 133.162 147.409 133.413 146.97 133.408C142.983 133.362 138.997 133.316 135.011 133.27C134.465 133.264 134.267 134.038 134.473 134.543C135.011 135.865 136.723 136.15 138.147 136.239L147.06 136.797C147.263 136.81 147.305 137.13 147.157 137.269C147.008 137.409 146.782 137.413 146.578 137.408L136.143 137.187C138.841 140.398 142.625 142.68 146.725 143.567C147.608 143.759 148.544 143.884 149.403 143.601C150.429 143.262 151.187 142.39 151.779 141.485C154.924 136.689 154.714 130.517 154.393 124.791L154.029 118.3C154.156 118.125 154.417 118.065 154.609 118.166C154.682 117.848 154.268 117.659 153.947 117.6C146.854 116.297 139.576 114.992 132.478 116.264C132.251 116.171 132.253 115.818 132.426 115.644C132.598 115.47 132.86 115.427 133.103 115.394C134.073 115.26 135.043 115.127 136.014 114.993C133.787 113.987 132.437 111.598 132.034 109.188C131.631 106.778 132.024 104.314 132.422 101.904ZM97.5617 141.361C98.1934 141.478 98.9229 141.671 99.1695 142.265C98.4661 142.744 97.5425 142.695 96.6939 142.627C96.4605 142.609 96.2054 142.58 96.0414 142.413C95.7513 142.117 95.9677 141.572 96.3411 141.393C96.7144 141.213 97.1544 141.285 97.5617 141.361ZM49.4465 137.025C56.7123 139.308 64.2416 140.751 71.8365 141.317C72.4257 141.361 73.2175 141.642 73.1044 142.222C65.072 141.313 57.0887 139.971 49.2009 138.202C48.6976 138.089 48.0518 137.73 48.2393 137.25C48.404 136.828 49.0141 136.889 49.4465 137.025ZM76.0592 140.549C76.4302 140.548 76.7884 140.675 77.1351 140.807C77.3115 140.874 77.5055 140.961 77.5739 141.136C77.7197 141.511 77.2028 141.779 76.807 141.851C76.5406 141.899 76.2743 141.948 76.0079 141.996C75.7832 142.037 75.5413 142.076 75.3345 141.979C74.9986 141.821 74.9113 141.337 75.104 141.02C75.2967 140.702 75.6882 140.55 76.0592 140.549ZM110.273 139.748C113.487 140.359 116.779 140.394 120.051 140.426C120.304 140.429 120.372 140.827 120.191 141.004C120.01 141.182 119.728 141.189 119.475 141.184C116.421 141.124 113.363 140.803 110.318 141.043C109.987 141.069 109.643 141.1 109.331 140.983C109.02 140.867 108.755 140.552 108.814 140.225C108.865 139.943 109.14 139.745 109.421 139.691C109.702 139.636 109.992 139.694 110.273 139.748ZM117.534 89.3644C113.895 89.9078 110.838 93.1466 110.505 96.8108C110.195 100.233 109.25 103.561 108.577 106.931C106.418 117.753 107.073 128.968 105.164 139.837C105.861 138.567 106.049 137.089 106.225 135.651L110.854 97.7396C110.978 96.7309 111.104 95.7105 111.466 94.7611C112.456 92.1662 115.016 90.5362 117.534 89.3644ZM100.989 138.466C101.187 138.529 101.39 138.612 101.522 138.773C101.654 138.933 101.687 139.193 101.543 139.342C101.434 139.455 101.263 139.476 101.107 139.489C100.596 139.535 100.084 139.58 99.5725 139.625C99.2964 139.649 99.0112 139.673 98.7481 139.586C98.4849 139.498 98.2477 139.27 98.24 138.993C98.2271 138.524 98.8062 138.288 99.2747 138.258C99.8523 138.22 100.437 138.291 100.989 138.466ZM111.76 99.2185C111.337 99.3705 111.224 99.9052 111.176 100.352L109.579 115.223C109.484 116.104 110.621 116.666 111.48 116.448C112.338 116.23 112.994 115.559 113.736 115.076C114.478 114.593 115.525 114.314 116.207 114.88C116.977 115.52 118.117 114.809 118.786 114.065C119.456 113.32 120.327 112.423 121.279 112.733C120.163 113.801 119.046 114.869 117.93 115.937C117.559 116.291 117.233 116.998 117.701 117.207C118.984 116.752 120.143 115.955 121.027 114.92C121.436 114.907 121.455 115.549 121.227 115.889C120.368 117.168 118.345 117.453 117.824 118.903C116.608 122.288 112.817 124.537 109.263 123.98C108.534 123.866 108.171 124.825 108.083 125.557C107.733 128.478 107.383 131.4 107.033 134.321C106.953 134.993 106.878 135.703 107.155 136.321C107.616 137.352 108.851 137.742 109.946 138.019C112.002 138.54 114.092 139.064 116.212 138.99C118.332 138.915 120.523 138.157 121.866 136.514C121.494 136.032 120.666 136.651 120.125 136.371C119.595 136.098 119.876 135.188 120.445 135.009C121.014 134.831 121.614 135.115 122.142 135.391C122.474 134.744 122.815 134.051 122.747 133.327C122.678 132.603 122.014 131.887 121.305 132.05C120.839 132.157 120.649 131.349 121.025 131.054C121.4 130.758 121.94 130.854 122.405 130.965C122.431 129.217 122.457 127.47 122.482 125.722C122.488 125.365 122.489 124.991 122.32 124.677C122.151 124.363 121.75 124.143 121.428 124.298C120.99 124.509 120.611 123.763 120.904 123.375C121.197 122.987 121.75 122.937 122.236 122.92C122.274 121.368 122.173 119.813 121.937 118.279C120.107 119.195 119.787 121.614 119.603 123.651C119.249 127.559 118.537 131.434 117.48 135.212C117.243 136.059 116.976 136.924 116.422 137.607C115.868 138.289 114.955 138.753 114.105 138.531C114.296 137.911 114.945 137.577 115.421 137.135C116.277 136.339 116.595 135.136 116.875 134.001C117.84 130.079 118.811 126.109 118.799 122.069L118.797 121.798C118.791 121.029 118.783 120.249 119.036 119.527C119.32 118.719 120.03 117.989 120.885 117.985C121.788 117.981 122.003 116.729 121.923 115.83C121.644 112.731 121.366 109.632 121.088 106.533C120.999 105.543 120.909 104.544 120.608 103.597C119.498 100.094 115.218 97.9768 111.76 99.2185ZM125.377 137.014C125.801 137.128 126.212 137.564 126.036 137.967C125.868 138.351 125.339 138.372 124.922 138.332C124.717 138.313 124.5 138.289 124.34 138.16C124.061 137.933 124.1 137.454 124.362 137.207C124.624 136.961 125.029 136.921 125.377 137.014ZM74.4084 136.585C74.6874 136.645 74.9781 136.727 75.1787 136.93C75.3792 137.133 75.4456 137.495 75.2463 137.699C75.0834 137.866 74.8205 137.869 74.5874 137.861C74.2522 137.849 73.9171 137.838 73.5819 137.826C73.3878 137.819 73.1803 137.808 73.0244 137.692C72.6914 137.444 72.8375 136.864 73.1951 136.653C73.5528 136.443 74.0028 136.497 74.4084 136.585ZM48.5818 133.544C50.4583 134.417 52.5198 134.797 54.5585 135.152C58.6855 135.871 62.8249 136.519 66.9742 137.095C67.5548 137.175 68.1979 137.289 68.5517 137.757C66.9449 137.866 65.3389 137.599 63.7506 137.332C58.5147 136.453 53.2787 135.574 48.0428 134.694C47.494 134.602 46.7853 134.297 46.8922 133.751C47.0189 133.104 47.9837 133.266 48.5818 133.544ZM81.1626 114.998C80.9803 115.729 81.0152 116.495 81.0401 117.248C81.1955 121.951 80.9164 126.668 80.2076 131.319C80.0387 132.428 80.7012 133.537 81.6118 134.192C82.5225 134.847 83.6443 135.128 84.7457 135.34C87.2286 135.818 89.7658 136.014 92.2928 135.923C93.2538 135.889 94.2545 135.8 95.0763 135.301C95.8543 134.828 96.3819 134.041 96.8463 133.258C98.8169 129.936 100.109 126.213 100.621 122.384C93.5325 122.352 86.4867 119.677 81.1626 114.998ZM99.7011 133.643C100.185 133.803 100.669 133.963 101.153 134.122C101.314 134.176 101.487 134.237 101.583 134.378C101.745 134.615 101.588 134.962 101.337 135.103C101.087 135.244 100.783 135.236 100.496 135.225C99.9739 135.204 99.3968 135.16 99.0321 134.786C98.6674 134.411 98.7925 133.603 99.3142 133.569C99.4462 133.56 99.5756 133.602 99.7011 133.643ZM125.069 133.713C125.357 133.759 125.66 133.812 125.882 134.002C126.104 134.191 126.195 134.565 125.991 134.773C125.908 134.857 125.794 134.9 125.683 134.938C125.255 135.087 124.779 135.206 124.355 135.044C123.932 134.882 123.643 134.322 123.909 133.954C124.154 133.617 124.657 133.648 125.069 133.713ZM49.8292 118.057C49.531 118.199 49.2119 118.36 49.0645 118.655C48.9547 118.875 48.9604 119.133 48.9686 119.379C49.08 122.729 49.2206 126.2 50.719 129.198C51.1237 130.008 51.6384 130.788 52.3672 131.325C52.8087 131.65 53.314 131.876 53.815 132.099C54.6844 132.486 55.5558 132.873 56.4583 133.176C58.5259 133.868 60.7142 134.103 62.8824 134.333C63.8018 134.431 64.781 134.518 65.6059 134.1C66.5768 133.609 67.0941 132.543 67.5117 131.538C69.8406 125.933 71.1702 119.914 71.4193 113.849C71.4548 112.987 70.3515 112.607 69.4909 112.549C62.621 112.088 56.051 115.108 49.8292 118.057ZM72.4862 113.606C72.3099 113.838 72.288 114.148 72.2705 114.439C71.8595 121.297 70.1525 128.076 67.2663 134.311C70.016 132.919 72.0649 130.217 72.6623 127.194C72.8677 126.154 72.9098 125.09 72.9512 124.031C73.0819 120.693 73.2126 117.354 73.3434 114.016C73.3502 113.84 73.3516 113.646 73.2395 113.51C73.0543 113.286 72.6624 113.374 72.4862 113.606ZM73.625 130.311C73.974 130.33 74.3019 130.475 74.6411 130.559C74.9448 130.635 75.0365 131.067 74.867 131.33C74.6974 131.594 74.3705 131.708 74.0605 131.751C73.737 131.797 73.389 131.78 73.1107 131.608C72.8325 131.437 72.652 131.08 72.7631 130.772C72.882 130.444 73.2761 130.292 73.625 130.311ZM125.269 129.404C125.595 129.472 125.875 129.674 126.144 129.871C126.289 129.978 126.444 130.098 126.492 130.272C126.553 130.495 126.406 130.735 126.204 130.846C126.001 130.957 125.759 130.965 125.529 130.946C125.202 130.92 124.864 130.839 124.617 130.623C124.371 130.407 124.245 130.027 124.399 129.738C124.555 129.443 124.943 129.337 125.269 129.404ZM47.6548 119.033C47.5656 119.192 47.5836 119.387 47.6042 119.568L48.089 123.836C48.352 126.152 48.6965 128.648 50.3154 130.326C50.5853 130.198 50.433 129.792 50.2629 129.546C48.9515 127.654 48.699 125.248 48.4863 122.955C48.3616 121.611 48.2369 120.267 48.1123 118.924C47.9869 118.791 47.7441 118.874 47.6548 119.033ZM133.982 127.776C138.43 127.885 142.877 127.995 147.325 128.105C148.006 128.122 148.689 128.139 149.362 128.24C149.222 128.726 148.582 128.818 148.076 128.813C143.616 128.771 139.141 128.495 134.704 128.958C134.325 128.998 133.916 129.037 133.586 128.845C133.257 128.652 133.11 128.124 133.412 127.891C133.569 127.771 133.784 127.771 133.982 127.776ZM121.762 126.902C121.86 126.934 121.96 126.968 122.04 127.033C122.306 127.249 122.207 127.712 121.935 127.92C121.663 128.129 121.296 128.153 120.954 128.162C120.597 128.17 120.181 128.142 119.978 127.849C119.722 127.481 120.026 126.936 120.448 126.787C120.87 126.637 121.336 126.762 121.762 126.902ZM125.014 126.003C125.428 126.048 125.832 126.193 126.18 126.423C126.446 126.599 126.393 127.04 126.151 127.248C125.909 127.455 125.563 127.484 125.245 127.473C124.923 127.461 124.586 127.412 124.326 127.223C124.065 127.033 123.91 126.666 124.05 126.376C124.209 126.044 124.648 125.963 125.014 126.003ZM80.2076 115.853C79.9653 119.343 79.8568 122.844 79.8822 126.343C79.8833 126.491 79.984 126.701 80.1103 126.624C80.3781 123.683 80.5096 120.729 80.5041 117.775C80.5028 117.121 80.4896 116.443 80.2076 115.853ZM75.4529 124.808C75.8345 124.837 76.1711 125.059 76.4821 125.281C76.5779 125.35 76.6765 125.423 76.73 125.528C76.8409 125.746 76.7079 126.026 76.4996 126.153C76.2913 126.28 76.0334 126.29 75.7896 126.279C75.2349 126.253 74.5377 125.951 74.5997 125.399C74.6424 125.019 75.0713 124.779 75.4529 124.808ZM125.938 122.456C126.309 122.609 126.691 123.007 126.499 123.36C126.369 123.598 126.053 123.65 125.781 123.653C125.466 123.656 125.15 123.63 124.839 123.576C124.402 123.5 124.335 122.812 124.674 122.526C125.014 122.24 125.527 122.288 125.938 122.456ZM169.218 115.626C169.371 115.882 169.374 116.198 169.372 116.496C169.359 118.608 169.346 120.721 169.333 122.833C169.331 123.09 169.297 123.401 169.064 123.508C168.863 123.601 168.615 123.471 168.503 123.279C168.391 123.088 168.381 122.856 168.377 122.634C168.344 120.748 168.554 118.817 168.02 117.008C167.862 116.471 167.672 115.8 168.087 115.423C168.411 115.129 168.993 115.25 169.218 115.626ZM114.91 115.381C113.308 116.375 111.624 117.396 109.745 117.532C109.403 117.556 109.249 117.965 109.181 118.301C108.878 119.813 108.71 121.353 108.681 122.895C108.68 122.989 108.681 123.09 108.735 123.167C108.822 123.29 108.998 123.295 109.148 123.287C110.614 123.21 112.101 123.057 113.462 122.508C114.824 121.959 116.063 120.964 116.618 119.605C117.173 118.246 116.906 116.512 115.773 115.578C115.529 115.378 115.178 115.215 114.91 115.381ZM102.651 121.327C103.166 121.462 103.68 121.597 104.195 121.733C104.387 121.783 104.601 121.85 104.693 122.026C104.801 122.234 104.675 122.502 104.479 122.63C104.283 122.758 104.039 122.782 103.806 122.803C103.436 122.836 103.055 122.868 102.701 122.758C102.346 122.649 102.019 122.363 101.978 121.994C101.938 121.625 102.292 121.233 102.651 121.327ZM31.2872 93.1777C33.2127 93.9575 34.6619 95.6443 35.5608 97.5171C36.4596 99.3899 36.8689 101.455 37.2256 103.501C37.816 106.888 38.2861 110.346 37.8557 113.757C37.4252 117.168 35.9993 120.569 33.3558 122.768C35.2814 122.871 37.5805 122.794 38.6259 121.174C39.095 120.447 40.1047 120.125 40.9081 120.446C40.403 120.01 40.7843 119.197 41.1592 118.644C42.6951 116.38 43.7489 113.779 44.1255 111.069C44.8557 105.815 43.0199 100.49 40.2958 95.9386C38.5284 92.9854 34.4058 91.722 31.2872 93.1777ZM76.9398 120.394C77.3372 120.551 77.2446 121.207 76.8733 121.418C76.502 121.629 76.0391 121.534 75.6253 121.429C75.4323 121.38 75.2275 121.322 75.0965 121.172C74.7905 120.822 75.1416 120.231 75.5946 120.126C76.0476 120.022 76.5073 120.224 76.9398 120.394ZM91.2236 95.1116C89.5236 95.1418 87.7391 95.349 86.3513 96.3314C85.8923 96.6562 85.4755 97.0814 85.3078 97.6181C85.1402 98.1548 85.2813 98.8143 85.7469 99.1296C86.9236 99.9264 87.4033 101.417 87.6238 102.821C87.8443 104.225 87.8973 105.695 88.5371 106.964C88.867 107.619 89.3401 108.19 89.8362 108.729C92.5262 111.654 96.0349 113.818 99.8561 114.908C100.528 115.1 101.383 115.515 101.241 116.199C95.7431 115.046 90.73 111.728 87.5201 107.119C86.5446 110.115 84.6205 112.794 82.0933 114.675C87.023 118.87 93.4024 121.328 99.8725 121.525C100.166 121.534 100.497 121.523 100.695 121.306C100.825 121.164 100.865 120.965 100.9 120.776C101.816 115.851 102.461 110.876 102.832 105.881C102.959 104.172 103.052 102.435 102.683 100.762C102.314 99.0883 101.422 97.4617 99.9653 96.5598C99.0675 96.0041 98.0164 95.7548 96.977 95.5693C95.08 95.2309 93.1502 95.0774 91.2236 95.1116ZM125.002 119.078C125.448 119.079 126.01 119.209 126.088 119.648C126.166 120.085 125.668 120.411 125.228 120.467C124.905 120.508 124.555 120.469 124.299 120.269C124.043 120.068 123.925 119.675 124.102 119.403C124.284 119.124 124.669 119.078 125.002 119.078ZM157.937 110.297C157.119 113.466 156.641 116.712 156.165 119.95C156.141 120.111 156.128 120.302 156.249 120.41C157.525 118.826 158.695 117.156 159.749 115.417C159.853 115.245 159.955 115.021 159.838 114.858C159.574 114.488 159.31 114.119 159.046 113.75C158.85 113.476 158.648 113.114 158.82 112.825C158.96 112.589 159.274 112.54 159.547 112.515L161.788 112.308C161.763 112.17 161.679 112.05 161.597 111.935C160.997 111.101 160.342 110.223 159.382 109.857C158.85 109.654 158.079 109.745 157.937 110.297ZM54.1684 77.5108C52.5305 77.7857 50.7564 78.2594 49.8059 79.6213C49.2739 80.3835 49.0782 81.3248 48.922 82.2411C48.3073 85.8452 48.1153 89.5213 48.3512 93.1698C55.4121 89.8847 63.6735 89.2606 71.1478 91.4478C71.7817 91.6333 72.5661 92.1955 72.2333 92.7661C66.6266 90.6923 60.3817 90.383 54.5975 91.8927C52.7259 92.3812 50.907 93.053 49.0461 93.5807C46.2804 94.3648 43.424 94.8285 40.5524 94.9593C45.7824 102.06 46.4592 112.229 42.2164 119.96C44.8562 119.461 47.3366 118.351 49.7706 117.214C53.4047 115.516 57.023 113.725 60.8833 112.635C64.7436 111.544 68.9174 111.188 72.7465 112.383C73.1944 112.523 73.4412 111.876 73.4591 111.408L74.2889 89.6684C74.4146 86.3751 74.4251 82.7338 72.2691 80.2412C70.3614 78.0357 67.2501 77.3458 64.3445 77.0978C60.953 76.8082 57.5252 76.9473 54.1684 77.5108ZM104.755 117.86C104.862 117.93 104.973 118.018 104.998 118.143C105.049 118.398 104.739 118.56 104.489 118.631C104.126 118.734 103.752 118.837 103.377 118.798C103.001 118.759 102.619 118.543 102.496 118.186C102.373 117.83 102.621 117.362 102.998 117.355C103.616 117.343 104.237 117.522 104.755 117.86ZM158.014 104.18C156.648 104.946 155.016 105.226 153.473 104.959C153.67 105.509 154.536 105.701 154.54 106.286C154.543 106.642 154.207 106.893 154.017 107.193C153.87 107.425 153.806 107.698 153.748 107.965C153.198 110.482 152.883 113.051 152.807 115.626C152.793 116.07 152.904 116.656 153.345 116.704C154.259 116.805 155.12 117.317 155.644 118.073C156.073 115.373 156.502 112.672 156.931 109.972C157.031 109.346 157.115 108.646 156.747 108.128C156.242 107.416 156.682 106.441 157.125 105.689L158.014 104.18ZM76.689 115.852C77.1551 115.945 77.6855 116.348 77.5089 116.789C77.4001 117.061 77.0716 117.171 76.7791 117.186C76.4866 117.202 76.1823 117.159 75.9084 117.262C75.586 117.385 75.2066 117.099 75.1672 116.757C75.1279 116.414 75.3659 116.082 75.6761 115.931C75.9863 115.781 76.3509 115.784 76.689 115.852ZM124.997 115.435C125.29 115.476 125.6 115.54 125.814 115.746C126.028 115.951 126.087 116.343 125.859 116.533C125.784 116.596 125.689 116.629 125.596 116.661C125.193 116.799 124.761 116.934 124.346 116.831C123.932 116.729 123.572 116.29 123.715 115.888C123.881 115.424 124.509 115.368 124.997 115.435ZM151.749 109.884C151.438 109.959 151.211 110.218 151.006 110.464L149.77 111.944C149.529 112.233 149.954 112.636 150.329 112.668C150.705 112.699 151.143 112.611 151.41 112.877C151.69 113.155 151.575 113.64 151.346 113.962C151.117 114.283 150.791 114.546 150.653 114.915C150.446 115.468 150.789 116.16 151.354 116.331C151.661 116.423 152.091 116.281 152.094 115.96C152.11 114.087 152.219 112.214 152.422 110.351C152.456 110.033 152.06 109.809 151.749 109.884ZM89.0387 110.814C89.2754 110.971 89.4286 111.223 89.5864 111.46C90.9423 113.49 93.2101 114.885 95.6336 115.18C96.1941 115.248 96.8556 115.317 97.1366 115.806C96.6086 116.329 95.7481 116.266 95.0243 116.097C92.4584 115.5 90.1073 114.018 88.4626 111.96C88.2003 111.632 87.9608 111.133 88.2534 110.831C88.4513 110.627 88.8019 110.657 89.0387 110.814ZM150.417 101.843C148.605 102.288 146.795 102.916 145.327 104.067C143.858 105.218 142.766 106.967 142.777 108.833C142.792 111.199 141.629 113.544 139.737 114.965L142.923 115.34C143.296 115.384 143.714 115.415 144.006 115.179C144.434 114.834 144.324 114.171 144.216 113.632C144.108 113.093 144.132 112.381 144.645 112.183C145.281 111.937 145.808 112.82 145.711 113.495C145.615 114.171 145.223 114.821 145.346 115.492C146.854 115.706 148.368 115.887 149.885 116.033C149.583 115.785 149.55 115.316 149.703 114.957C149.855 114.597 150.152 114.322 150.44 114.059C150.747 113.778 150.305 113.284 149.891 113.239C149.478 113.195 148.991 113.294 148.7 112.997C148.337 112.629 148.609 112.01 148.918 111.596C149.518 110.791 150.262 109.821 149.876 108.895C148.934 106.636 149.141 103.932 150.417 101.843ZM80.9281 95.6705C80.6756 101.854 80.7101 108.05 81.0317 114.23C83.3938 112.949 85.1198 110.693 86.1902 108.228C86.8433 106.724 87.2804 105.067 87.0193 103.448C86.8246 102.241 86.2531 101.126 85.5886 100.099C84.4098 98.2784 82.871 96.6348 80.9281 95.6705ZM135.702 92.7078C136.55 92.5516 137.199 93.5988 137.054 94.4492C136.91 95.2995 136.292 95.9757 135.8 96.6848C135.122 97.6645 134.658 98.7736 134.198 99.8734C133.106 102.49 132.681 105.382 132.974 108.203C133.146 109.864 133.601 111.569 134.724 112.805C135.847 114.04 137.772 114.658 139.251 113.885C140.522 113.221 141.156 111.756 141.447 110.352C141.739 108.948 141.791 107.479 142.341 106.155C143.357 103.712 145.862 102.237 148.34 101.31C144.615 100.804 141.245 98.2088 139.804 94.7368C139.391 93.7411 139.081 92.6185 138.224 91.9648C137.367 91.3111 135.753 91.631 135.702 92.7078ZM104.217 112.628C104.479 112.678 104.736 112.754 104.983 112.855C105.391 113.021 105.829 113.479 105.567 113.833C105.423 114.026 105.148 114.049 104.908 114.056C104.469 114.067 103.997 114.068 103.639 113.815C103.28 113.562 103.157 112.949 103.518 112.701C103.716 112.564 103.98 112.583 104.217 112.628ZM123.964 111.584C124.319 111.614 124.672 111.663 125.022 111.732C125.194 111.765 125.381 111.812 125.489 111.951C125.654 112.161 125.551 112.49 125.342 112.657C125.134 112.824 124.857 112.871 124.593 112.912C124.19 112.975 123.76 113.035 123.389 112.867C123.017 112.7 122.763 112.208 122.991 111.87C123.189 111.574 123.61 111.554 123.964 111.584ZM22.5862 109.677C22.2858 109.673 22.1819 110.074 22.191 110.375C22.2172 111.238 22.3918 112.096 22.705 112.9C22.7922 112.989 22.8934 112.803 22.8812 112.68L22.5862 109.677ZM80.3037 111.898C80.1162 112 80.0449 112.269 80.1574 112.45L80.1619 112.457L80.1579 112.461C80.1528 112.467 80.1474 112.475 80.1417 112.483C80.0663 112.597 80.172 112.778 80.3085 112.769C80.4008 112.488 80.3991 112.178 80.3037 111.898ZM76.3997 110.677C76.8061 110.767 77.2473 111.104 77.1462 111.508C77.0792 111.776 76.7977 111.933 76.5284 111.992C76.2592 112.052 75.9746 112.048 75.7175 112.148C75.3905 112.275 74.9967 112.011 74.9293 111.667C74.8619 111.323 75.0729 110.963 75.3772 110.789C75.6815 110.614 76.0571 110.601 76.3997 110.677ZM78.7519 53.7171C78.7755 72.3324 79.2031 90.9472 80.0345 109.544L80.1219 111.467L80.1351 110.848C80.159 109.403 80.1378 107.957 80.1167 106.511C79.8685 89.5666 79.6203 72.6219 79.3722 55.6773C79.3618 54.9678 79.3059 54.1603 78.7519 53.7171ZM105.378 107.955C105.606 108.023 105.834 108.127 105.982 108.313C106.13 108.5 106.173 108.786 106.026 108.974C105.885 109.156 105.628 109.19 105.398 109.21L104.419 109.297C104.259 109.312 104.087 109.323 103.948 109.243C103.835 109.178 103.761 109.059 103.727 108.934C103.624 108.557 103.879 108.148 104.232 107.98C104.585 107.812 105.003 107.843 105.378 107.955ZM26.4881 93.3831C25.4698 94.3836 24.9402 95.7666 24.4508 97.1077C23.0873 100.844 21.7915 104.811 22.4643 108.731C22.6723 108.769 22.7715 108.486 22.7869 108.275C23.0635 104.493 23.8193 100.746 25.0306 97.1525C25.4927 95.7813 26.0486 94.3888 27.0752 93.3691C27.0612 93.1208 26.6655 93.2087 26.4881 93.3831ZM151.669 101.558C151.492 101.601 151.377 101.769 151.284 101.926C150.408 103.413 149.995 105.169 150.118 106.89C150.168 107.601 150.397 108.42 151.061 108.679C151.6 108.161 152.14 107.643 152.68 107.125C152.765 107.042 152.853 106.957 152.901 106.848C153.019 106.575 152.85 106.271 152.694 106.018C151.925 104.766 151.347 103.18 151.988 101.858C152.068 101.694 151.847 101.514 151.669 101.558ZM162.884 99.9533C162.798 99.9983 162.731 100.073 162.667 100.145C161.074 101.947 159.535 103.797 158.053 105.692C157.744 106.088 157.421 106.534 157.452 107.035C157.479 107.481 157.792 107.869 158.172 108.104C158.552 108.338 158.995 108.445 159.429 108.549C159.546 108.576 159.672 108.603 159.781 108.555C159.882 108.51 159.945 108.412 160.003 108.318C160.91 106.856 161.83 105.365 162.258 103.698C162.35 103.343 162.658 103.094 162.904 102.822C163.388 102.288 163.672 101.576 163.688 100.856C163.693 100.611 163.665 100.354 163.524 100.155C163.382 99.9558 163.1 99.8404 162.884 99.9533ZM124.082 107.086C124.302 107.14 124.544 107.224 124.642 107.427C124.816 107.786 124.409 108.16 124.028 108.278C123.733 108.369 123.404 108.401 123.12 108.277C122.837 108.153 122.623 107.841 122.687 107.539C122.801 107.002 123.55 106.954 124.082 107.086ZM76.7631 106.303C76.8667 106.395 76.9627 106.505 77.002 106.638C77.0811 106.907 76.8936 107.203 76.6363 107.313C76.3791 107.424 76.0787 107.381 75.8195 107.275C75.5465 107.164 75.2806 106.951 75.2459 106.658C75.2062 106.323 75.5095 106.015 75.8431 105.967C76.1768 105.919 76.5119 106.078 76.7631 106.303ZM106.29 103.359C106.556 103.468 106.584 103.87 106.4 104.092C106.217 104.313 105.91 104.386 105.624 104.41C105.338 104.435 105.041 104.424 104.774 104.529C104.362 104.69 103.915 104.193 104.013 103.762C104.111 103.332 104.573 103.064 105.015 103.043C105.456 103.023 105.881 103.192 106.29 103.359ZM123.626 102.711C124.003 102.73 124.377 102.829 124.713 103C124.86 103.074 125.011 103.177 125.052 103.336C125.138 103.662 124.728 103.886 124.397 103.95C124.103 104.007 123.804 104.04 123.505 104.05C123.136 104.063 122.691 103.992 122.544 103.653C122.429 103.39 122.569 103.067 122.802 102.901C123.036 102.734 123.339 102.697 123.626 102.711ZM147.961 78.6023C145.759 78.9576 143.547 79.2521 141.329 79.4854C139.722 79.6543 138.208 80.5661 137.307 81.9076C137.122 82.1833 136.995 82.6231 137.281 82.7921C138.089 81.8592 139.187 81.1804 140.383 80.8737C140.81 80.7641 141.278 80.7043 141.681 80.8839C142.084 81.0635 142.372 81.5579 142.19 81.9597C141.91 82.5767 141.016 82.4041 140.34 82.3629C138.459 82.2481 136.833 84.4007 137.457 86.1787C137.894 84.4814 140.318 83.7445 141.676 84.8526C143.034 85.9607 142.868 88.3943 141.415 89.3753C140.935 89.6994 140.319 89.9254 140.1 90.4617C139.912 90.9214 140.093 91.4406 140.273 91.9034C140.556 92.6297 140.839 93.356 141.121 94.0823C141.714 95.6051 142.344 97.1835 143.544 98.2927C144.467 99.1456 145.664 99.6531 146.885 99.9506C151.286 101.023 156.241 99.3161 159.048 95.7596C159.273 95.4746 159.786 95.745 159.826 96.1058C159.866 96.4666 159.62 96.7911 159.376 97.0598C158.119 98.4431 156.535 99.527 154.791 100.197C153.966 100.514 152.986 100.857 152.733 101.703C152.523 102.404 152.964 103.178 153.598 103.543C154.233 103.908 155.006 103.938 155.733 103.859C157.183 103.7 158.586 103.133 159.739 102.238C160.088 101.967 160.427 101.65 160.582 101.236C160.729 100.844 160.695 100.411 160.66 99.9932L160.629 99.6345C160.493 98.0787 160.317 96.5046 159.682 95.0819C159.377 94.3974 158.969 93.7562 158.744 93.0413C158.467 92.1597 158.484 91.2139 158.298 90.3088C158.112 89.4036 157.64 88.4635 156.778 88.1298C157.006 87.5515 157.574 87.1875 157.942 86.6865C158.31 86.1855 158.364 85.3101 157.785 85.0838C157.508 84.9756 157.193 85.0688 156.929 85.2059C155.817 85.7833 155.217 87.1963 155.574 88.3972C155.807 89.1809 154.569 89.7067 153.902 89.2333C153.236 88.7599 153.071 87.8585 152.94 87.0515C152.43 83.9233 151.408 80.551 148.736 78.8458C148.502 78.6968 148.235 78.5581 147.961 78.6023ZM76.5296 100.792C76.8808 100.906 77.2311 101.221 77.158 101.583C77.0889 101.925 76.6951 102.085 76.351 102.144C75.8629 102.228 75.2264 102.132 75.0892 101.656C74.9587 101.204 75.4326 100.77 75.9012 100.72C76.1124 100.698 76.3276 100.726 76.5296 100.792ZM132.86 94.2761C132.532 94.5864 132.372 95.0295 132.224 95.4554C131.888 96.4163 131.548 97.4052 131.587 98.4223C131.611 99.0771 131.232 99.6669 130.96 100.263C130.689 100.86 130.542 101.624 130.967 102.122C131.982 101.269 132.226 99.8319 132.449 98.5245C132.716 96.9613 133.079 95.3409 134.09 94.1191C133.736 93.8392 133.187 93.9657 132.86 94.2761ZM106.108 98.6325C106.369 98.7165 106.665 98.8844 106.668 99.159C106.672 99.4928 106.261 99.6464 105.933 99.7065C105.768 99.7366 105.603 99.7667 105.439 99.7968C105.019 99.8736 104.57 99.9472 104.18 99.7745C103.79 99.6018 103.53 99.0754 103.784 98.7331C103.949 98.5118 104.252 98.4515 104.527 98.4345C105.06 98.4015 105.599 98.469 106.108 98.6325ZM67.9562 93.8108C68.4153 94.0304 68.9288 94.463 68.7588 94.9427C64.0294 93.9115 58.9769 94.4215 54.5489 96.3769C52.5564 97.2567 50.6862 98.4201 48.6241 99.1215C47.9186 99.3614 47.1484 99.5456 46.4358 99.328C45.7231 99.1104 45.1287 98.3542 45.3372 97.6388C45.5329 96.9673 46.2807 96.6481 46.9432 96.4238C50.2086 95.3184 53.5309 94.3809 56.8925 93.6162C60.5604 92.7819 64.5629 92.1878 67.9562 93.8108ZM135.864 93.7542C135.527 93.7528 135.243 94.0006 135.02 94.255C134.482 94.8721 134.099 95.6124 133.814 96.3804C133.46 97.3345 133.251 98.3422 133.196 99.3583C134.174 97.6761 135.219 96.0331 136.329 94.4348C136.522 94.1574 136.202 93.7556 135.864 93.7542ZM129.872 96.7511C129.779 96.7517 129.681 96.7551 129.603 96.8047C129.427 96.9164 129.452 97.1771 129.504 97.379C129.669 98.0193 129.899 98.6431 130.187 99.2382C130.361 98.3996 130.639 97.5828 131.013 96.8128C130.634 96.7695 130.253 96.7489 129.872 96.7511ZM55.7629 94.5894C52.9635 95.4498 50.1641 96.3101 47.3648 97.1705C47.0303 97.2733 46.6423 97.432 46.5711 97.7745C46.7987 98.1066 47.2322 98.2475 47.6344 98.2281C48.0365 98.2086 48.4182 98.0542 48.7909 97.9019C51.6309 96.7416 54.471 95.5812 57.311 94.4208C56.8038 94.279 56.2663 94.4347 55.7629 94.5894ZM85.3039 96.1597C85.1535 96.4205 84.8405 96.5312 84.606 96.72C84.3714 96.9087 84.2338 97.315 84.4815 97.4862C84.8607 97.1065 85.2398 96.7269 85.619 96.3473C85.5406 96.2501 85.4267 96.1823 85.3039 96.1597ZM114.84 95.9577C116.875 96.1697 118.928 96.2779 120.967 96.1023C121.494 96.0569 122.125 96.0356 122.438 96.4625C122.043 96.8648 121.422 96.9134 120.858 96.9376C118.743 97.0282 116.627 97.1188 114.511 97.2094C114.098 97.2271 113.576 97.1745 113.442 96.7837C113.336 96.4761 113.576 96.1367 113.877 96.0133C114.178 95.8898 114.517 95.9241 114.84 95.9577ZM146.299 93.7344C146.792 94.3333 146.971 95.1759 146.766 95.9236C146.716 96.1081 146.642 96.2891 146.524 96.4397C146.214 96.8349 145.643 96.9516 145.155 96.8347C144.667 96.7177 144.248 96.407 143.876 96.0705C143.492 95.7238 143.132 95.3287 142.948 94.8453C142.763 94.3619 142.785 93.7738 143.112 93.3729C143.381 93.0424 143.816 92.8839 144.242 92.8528C145.015 92.7962 145.807 93.1355 146.299 93.7344ZM77.7035 95.1268C77.898 95.2838 77.8653 95.6102 77.6993 95.797C77.5333 95.9839 77.2802 96.0636 77.0377 96.1241C76.7513 96.1955 76.4501 96.2514 76.163 96.1831C75.8759 96.1149 75.6066 95.8921 75.5713 95.5991C75.52 95.174 75.965 94.8413 76.3879 94.7746C76.8497 94.7018 77.3399 94.833 77.7035 95.1268ZM144.046 93.8755C143.831 94.1546 143.972 94.6581 144.322 94.7059C144.725 94.7611 145.039 95.1851 144.974 95.5873C144.923 95.903 145.308 96.1669 145.614 96.0721C145.919 95.9773 146.096 95.6349 146.089 95.3151C146.082 94.9954 145.93 94.6973 145.757 94.4283C145.566 94.1317 145.333 93.8437 145.011 93.6994C144.689 93.555 144.262 93.5964 144.046 93.8755ZM142.971 65.21C140.038 65.7473 137.132 67.0286 135.24 69.3339C133.348 71.6392 132.693 75.0892 134.173 77.6788C134.695 78.594 135.493 79.392 136.497 79.7141C137.5 80.0363 138.714 79.7992 139.383 78.9853C140.143 78.0621 141.676 78.9475 142.819 78.5971C144.4 78.1123 146.043 77.8311 147.695 77.7624C148.087 77.7461 148.491 77.7436 148.857 77.8854C149.253 78.0393 149.567 78.3477 149.868 78.6481C150.914 79.6901 151.981 80.7621 152.601 82.1023C153.582 84.2275 153.339 86.8188 154.58 88.8043C154.725 87.5592 154.87 86.3142 155.015 85.0691C155.068 84.6071 155.128 84.1274 155.378 83.735C155.628 83.3426 156.127 83.0672 156.564 83.226C157.335 83.5061 158.138 83.807 158.692 84.4127C159.245 85.0183 159.45 86.0279 158.918 86.6524C158.404 87.256 158.987 88.1282 159.26 88.8726C159.733 90.1622 159.177 91.6358 159.549 92.9581C159.857 94.0536 160.747 94.8714 161.597 95.6277C161.845 95.8489 162.135 96.0846 162.467 96.0544C162.744 96.0291 162.967 95.8223 163.157 95.6181C164.286 94.4002 165.06 92.8559 165.36 91.2218C165.48 90.5625 165.251 89.6019 164.587 89.6919C164.768 88.11 166.223 87.0324 167.077 85.6885C167.998 84.239 168.215 82.4568 168.257 80.7399C168.3 79.0145 168.131 77.1392 166.981 75.852C165.6 74.3056 162.915 74.19 161.406 75.612C161.03 75.9665 160.534 76.435 160.085 76.1785C160.437 75.5475 160.789 74.9164 161.141 74.2854C161.714 73.257 162.299 72.1913 162.416 71.0197C162.646 68.7082 160.886 66.5195 158.71 65.7066C156.534 64.8937 154.077 65.2308 151.894 66.0258C151.347 66.2251 150.701 66.6531 150.849 67.2161C150.935 67.5422 151.265 67.739 151.435 68.0305C151.54 68.2123 151.53 68.2705 151.41 68.4176C151.338 68.5064 151.208 68.7636 151.092 68.7134C149.854 67.2802 148.516 65.7797 146.701 65.2376C145.499 64.8783 144.206 64.9838 142.971 65.21ZM128.916 94.7693C128.762 94.6776 128.466 94.6174 128.494 94.7949C128.578 95.229 128.969 95.5519 129.391 95.6846C129.812 95.8173 130.265 95.7949 130.707 95.7712C130.879 95.762 131.064 95.7486 131.201 95.6437C131.316 95.5557 131.379 95.4174 131.438 95.2848C131.538 95.0577 131.639 94.8306 131.74 94.6035C130.919 94.0695 129.759 95.2683 128.916 94.7693ZM105.223 93.2863C105.568 93.3122 105.91 93.3724 106.244 93.4658C106.532 93.5467 106.864 93.7157 106.878 94.0153C106.897 94.4096 106.384 94.5706 105.991 94.6046C105.591 94.6391 105.19 94.6737 104.79 94.7083C104.499 94.7335 104.169 94.7464 103.954 94.5471C103.666 94.2795 103.783 93.7604 104.094 93.5211C104.406 93.2817 104.831 93.257 105.223 93.2863ZM114.583 93.2006C116.497 93.4568 118.437 93.5186 120.364 93.3847C120.59 93.369 120.836 93.3557 121.022 93.4849C121.208 93.6142 121.255 93.9473 121.051 94.0476C120.99 94.078 120.919 94.0812 120.85 94.0838C118.521 94.1717 116.192 94.2596 113.862 94.3475C113.65 94.3555 113.416 94.3566 113.253 94.2206C112.96 93.9772 113.128 93.4566 113.464 93.2768C113.799 93.097 114.206 93.1501 114.583 93.2006ZM133.169 91.3034C132.425 91.3435 131.668 91.4124 130.982 91.7008C130.295 91.9892 129.679 92.5318 129.474 93.2478C129.432 93.3931 129.417 93.5719 129.528 93.674C129.615 93.7535 129.746 93.7546 129.863 93.75C131.099 93.7015 132.329 93.5175 133.524 93.2025C134.119 93.0459 134.835 92.6681 134.755 92.0587C134.712 91.7379 134.436 91.4872 134.13 91.3809C133.824 91.2747 133.492 91.286 133.169 91.3034ZM47.378 91.2138C47.2594 91.8413 47.2305 92.4857 47.2922 93.1214C47.4458 93.2873 47.648 92.9634 47.635 92.7377C47.6054 92.2224 47.519 91.7103 47.378 91.2138ZM87.1546 90.4462C91.4366 90.6397 95.7185 90.8333 100 91.0268C100.4 91.0448 100.931 91.1979 100.907 91.5973C100.396 91.9255 99.737 91.8576 99.1338 91.7873C95.3169 91.3425 91.4554 91.2811 87.6263 91.6041C87.2957 91.632 86.9447 91.659 86.6496 91.5074C86.3546 91.3557 86.1644 90.9515 86.3559 90.6806C86.5234 90.4437 86.8647 90.4331 87.1546 90.4462ZM76.7716 89.9971C76.9601 90.0256 77.1562 90.0748 77.2931 90.2074C77.606 90.5106 77.4128 91.0868 77.0365 91.3065C76.6602 91.5261 76.1942 91.4953 75.7602 91.4578C75.2838 91.4166 75.1293 90.7021 75.4421 90.3406C75.755 89.979 76.2989 89.9257 76.7716 89.9971ZM91.8316 88.4133C98.8101 88.7754 105.789 89.1374 112.767 89.4994C113.141 89.5188 113.636 89.6626 113.616 90.0364C112.465 90.2436 111.273 90.2206 110.132 89.9689L111.145 90.8414C110.662 91.1462 110.147 91.4609 109.576 91.4736C109.005 91.4862 108.383 91.065 108.399 90.4938C108.688 90.3604 108.977 90.227 109.266 90.0936C103.629 89.6106 97.965 89.4344 92.3085 89.5659C91.982 89.5735 91.6338 89.5764 91.3581 89.4014C91.0824 89.2264 90.943 88.801 91.1712 88.5675C91.3343 88.4005 91.5985 88.4012 91.8316 88.4133ZM137.018 89.3465C136.767 89.3603 136.554 89.5273 136.359 89.6868C136.128 89.8758 135.897 90.0649 135.666 90.2539C135.424 90.452 135.161 90.6883 135.147 91.0007C135.139 91.1703 135.268 91.3715 135.434 91.3334C135.48 91.3227 135.52 91.2948 135.559 91.2675C136.109 90.8793 136.66 90.4911 137.21 90.1029C137.322 90.0237 137.442 89.9341 137.478 89.8016C137.545 89.5587 137.27 89.3328 137.018 89.3465ZM145.579 87.3132C145.601 87.8793 145.32 88.4097 145.22 88.9674C145.12 89.525 145.31 90.235 145.861 90.3656C146.024 90.4041 146.071 90.6367 145.979 90.7763C145.888 90.9159 145.714 90.9762 145.55 91.006C145.039 91.0988 144.434 90.9349 144.199 90.4719C144.082 90.2401 144.073 89.9704 144.066 89.7107C144.048 89.0152 144.03 88.3196 144.013 87.6241C144 87.1486 144.054 86.563 144.489 86.3711C145.007 86.1425 145.557 86.7471 145.579 87.3132ZM137.988 90.4684C137.887 90.5153 137.819 90.6241 137.82 90.7351L137.795 90.7416C137.851 90.8656 138.051 90.8849 138.13 90.7739C138.209 90.6629 138.123 90.4799 137.988 90.4684ZM137.025 86.8332C136.794 86.8391 136.536 86.881 136.399 87.0673C136.253 87.2665 136.313 87.5588 136.463 87.755C136.613 87.9512 136.833 88.0775 137.04 88.2135C137.908 88.7862 138.601 89.6205 139.005 90.579C139.28 90.2173 139.555 89.8556 139.829 89.494C140.035 89.2239 140.251 88.9149 140.208 88.5785C140.176 88.3354 140.013 88.131 139.84 87.9577C139.106 87.2232 138.063 86.8068 137.025 86.8332ZM48.5182 81.2376C48.1954 81.2641 48.0282 81.6264 47.9267 81.934C47.7721 82.4025 47.6175 82.8711 47.4629 83.3396C47.294 83.8515 47.1239 84.3691 47.0776 84.9062C47.0468 85.2621 47.0712 85.6202 47.0955 85.9766C47.1714 87.0896 47.2473 88.2027 47.3233 89.3157C47.338 89.5309 47.5017 89.828 47.6796 89.7061C47.6057 86.8631 47.8882 84.011 48.5182 81.2376ZM139.803 85.3303C139.51 85.4419 139.199 85.638 139.156 85.9486C139.114 86.2593 139.571 86.5476 139.749 86.289C139.975 85.9592 140.541 86.1314 140.728 86.485C140.915 86.8386 140.86 87.264 140.858 87.6641C140.855 88.0641 140.947 88.5232 141.296 88.7191C141.354 88.1839 141.412 87.6487 141.471 87.1135C141.543 86.4528 141.539 85.6334 140.958 85.3101C140.611 85.1165 140.175 85.1887 139.803 85.3303ZM149.21 85.0279C149.686 85.0491 150.194 85.2149 150.454 85.6135C150.714 86.0122 150.576 86.6652 150.118 86.7936C149.464 86.9768 148.852 86.0551 148.213 86.284C147.813 86.4271 147.566 86.9894 147.149 86.9087C146.89 86.8587 146.747 86.549 146.799 86.2907C146.85 86.0324 147.043 85.8256 147.249 85.6621C147.799 85.2262 148.509 84.9967 149.21 85.0279ZM76.3948 84.5572C76.8531 84.6313 77.3019 85.1331 77.0603 85.5296C76.9924 85.6409 76.8822 85.72 76.7668 85.7807C76.481 85.9312 76.1283 85.9823 75.8332 85.8511C75.538 85.7199 75.3304 85.3794 75.4103 85.0664C75.5107 84.6731 75.9941 84.4924 76.3948 84.5572ZM149.956 81.9475C150.271 82.2475 150.517 82.8123 150.164 83.0668C149.79 83.336 149.343 82.8816 148.986 82.5913C148.586 82.2669 148.045 82.1238 147.537 82.2082C147.213 82.2622 146.907 82.4032 146.581 82.4505C146.256 82.4978 145.877 82.423 145.699 82.1461C145.513 81.8556 145.631 81.4443 145.888 81.2132C146.144 80.9821 146.5 80.8976 146.844 80.8661C147.971 80.763 149.136 81.1676 149.956 81.9475ZM76.3789 81.0283C76.6604 81.1933 76.812 81.5824 76.6554 81.8686C76.4484 82.2468 75.9058 82.2417 75.4874 82.1377C75.3367 82.1003 75.1782 82.0509 75.0785 81.9319C74.8404 81.6479 75.1073 81.2024 75.4397 81.0384C75.7323 80.8941 76.0975 80.8632 76.3789 81.0283Z"
        fill="#25282B" />
    <path fill-rule="evenodd" clip-rule="evenodd"
        d="M38.6005 119.062C38.639 119.169 38.6746 119.289 38.6306 119.393C38.5517 119.581 38.2947 119.588 38.0911 119.587C36.6588 119.575 35.3272 120.806 35.2254 122.234C35.2147 122.385 35.0072 122.454 34.873 122.384C34.7388 122.314 34.6697 122.164 34.6233 122.02C34.3616 121.208 34.5303 120.297 34.9474 119.553C35.3646 118.809 36.0101 118.216 36.7113 117.73C36.9834 117.542 37.3221 117.361 37.6299 117.482C37.8332 117.563 37.9661 117.757 38.0768 117.945C38.2854 118.3 38.461 118.675 38.6005 119.062ZM37.7686 118.9C37.6425 118.514 37.1309 118.376 36.7487 118.512C36.3665 118.648 36.0878 118.973 35.8278 119.285C35.5812 119.58 35.3232 119.902 35.2942 120.286C35.9532 119.588 36.829 119.097 37.7686 118.9Z"
        fill="#FEBE3F" />
</svg>