<svg width="24" height="20" viewBox="0 0 24 20" fill="none" xmlns="http://www.w3.org/2000/svg">
<path d="M21.4791 5.02842C21.4936 5.24116 21.4936 5.45391 21.4936 5.66861C21.4936 12.2108 16.5775 19.7559 7.5881 19.7559V19.7519C4.93261 19.7559 2.33229 18.9853 0.0968018 17.5323C0.482931 17.5794 0.870996 17.6029 1.26003 17.6039C3.46067 17.6059 5.59842 16.8578 7.32971 15.4804C5.23842 15.4402 3.40454 14.0588 2.7639 12.0421C3.49648 12.1853 4.25132 12.1559 4.97035 11.9568C2.69035 11.4902 1.05003 9.46077 1.05003 7.10391C1.05003 7.08234 1.05003 7.06175 1.05003 7.04116C1.72938 7.4245 2.49003 7.63724 3.26809 7.66077C1.12067 6.20685 0.458737 3.31273 1.75551 1.04999C4.2368 4.14312 7.89777 6.02352 11.8278 6.22254C11.4339 4.50293 11.972 2.70097 13.2416 1.49214C15.21 -0.382365 18.3058 -0.286286 20.1562 1.70685C21.2507 1.48822 22.2997 1.08136 23.2597 0.50489C22.8949 1.65097 22.1313 2.6245 21.1113 3.24312C22.08 3.12744 23.0265 2.86469 23.9178 2.46371C23.2616 3.45979 22.4352 4.32744 21.4791 5.02842Z" fill="#1D9BF0"/>
</svg>
