<svg width="75" height="100" viewBox="0 0 75 100" fill="none" xmlns="http://www.w3.org/2000/svg">
<path d="M74.96 22.17C74.92 21.9 74.79 21.66 74.59 21.46L74.46 21.33L72.17 19.04L55.94 2.83L55.1 1.99L53.53 0.42C53.33 0.22 53.09 0.09 52.82 0.05V0H7.07C3.18 0 0 3.18 0 7.07V92.93C0 96.82 3.18 100 7.07 100H67.93C71.82 100 75 96.82 75 92.93V22.47C75 22.37 74.99 22.27 74.96 22.17ZM52.83 3.7L70.45 21.33L71.28 22.16H57.07C54.72 22.16 52.83 20.25 52.83 17.92V3.7ZM72.17 92.93C72.17 95.26 70.26 97.17 67.93 97.17H7.07C4.72 97.17 2.83 95.26 2.83 92.93V7.07C2.83 4.72 4.72 2.83 7.07 2.83H50V17.93C50 21.82 53.18 25 57.07 25H72.17V92.93Z" fill="#25282B"/>
<path d="M54.19 32.15H20.81C20.27 32.15 19.83 32.59 19.83 33.13V33.94C19.83 34.48 20.27 34.92 20.81 34.92H54.19C54.73 34.92 55.17 34.48 55.17 33.94V33.13C55.17 32.59 54.73 32.15 54.19 32.15Z" fill="#25282B"/>
<path d="M38.7701 41.68L38.7201 41.63C38.6401 41.51 38.5501 41.42 38.4301 41.34L38.1901 41.1C37.8101 40.72 37.1801 40.72 36.8001 41.1L36.5601 41.34C36.4401 41.42 36.3501 41.51 36.2701 41.63L36.2201 41.68L24.7201 53.2C24.3401 53.58 24.3401 54.21 24.7201 54.59L25.3001 55.17C25.6801 55.55 26.3101 55.55 26.6901 55.17L36.1201 45.74V75.54C36.1201 76.08 36.5601 76.52 37.1001 76.52H37.9101C38.4501 76.52 38.8901 76.08 38.8901 75.54V45.74L48.3201 55.17C48.7001 55.55 49.3301 55.55 49.7101 55.17L50.2901 54.59C50.6701 54.21 50.6701 53.58 50.2901 53.2L38.7701 41.68Z" fill="#25282B"/>
</svg>
