<svg width="14" height="18" viewBox="0 0 14 18" fill="none" xmlns="http://www.w3.org/2000/svg">
<path d="M4.74333 11.2543C4.58519 11.0961 4.50195 10.8881 4.50195 10.6633C4.50195 10.4386 4.58519 10.2305 4.74333 10.0723L6.40804 8.40764C6.48295 8.33273 6.58283 8.27447 6.68272 8.23285C6.7826 8.19123 6.89081 8.16626 6.99901 8.16626C7.10722 8.16626 7.21542 8.19123 7.3153 8.23285C7.41519 8.27447 7.50675 8.33273 7.58998 8.40764L9.25469 10.0723C9.41283 10.2305 9.49607 10.4386 9.49607 10.6633C9.49607 10.8881 9.41283 11.0961 9.25469 11.2543C9.09654 11.4124 8.88845 11.504 8.66372 11.504C8.43898 11.504 8.23089 11.4124 8.07274 11.2543L7.83136 11.0046V13.1604C7.83136 13.3851 7.73981 13.5932 7.58998 13.7513C7.43183 13.9095 7.22375 13.9927 6.99901 13.9927C6.77428 13.9927 6.56619 13.9095 6.40804 13.7513C6.25822 13.5932 6.16666 13.3851 6.16666 13.1604V11.0046L5.92528 11.2543C5.76713 11.4124 5.55904 11.504 5.33431 11.504C5.10957 11.504 4.90148 11.4124 4.74333 11.2543Z" fill="#25282B"/>
<path d="M13.6075 6.22684V6.15193C13.5659 6.0687 13.516 5.98546 13.4494 5.91887L8.45529 0.924755C8.3887 0.858166 8.30546 0.808225 8.22222 0.766608H8.13899C8.05576 0.72499 7.97252 0.691696 7.88096 0.675049H2.8369C2.17102 0.675049 1.53843 0.933078 1.07232 1.40752C0.606198 1.87364 0.339844 2.50623 0.339844 3.17211V14.825C0.339844 15.4826 0.606198 16.1235 1.07232 16.5896C1.53843 17.0558 2.17102 17.3221 2.8369 17.3221H11.1604C11.8263 17.3221 12.4589 17.0558 12.925 16.5896C13.3911 16.1235 13.6575 15.4826 13.6575 14.825V6.50152C13.6575 6.50152 13.6575 6.50152 13.6575 6.45158C13.6492 6.37667 13.6325 6.30175 13.6075 6.22684ZM8.66337 3.51337L10.8192 5.66917H9.49573C9.27932 5.66917 9.0629 5.57761 8.90475 5.42778C8.75493 5.26964 8.66337 5.05323 8.66337 4.83681V3.51337ZM11.9928 14.825C11.9928 15.0415 11.9012 15.2579 11.7514 15.416C11.5933 15.5658 11.3852 15.6574 11.1604 15.6574H2.8369C2.61217 15.6574 2.40408 15.5658 2.24593 15.416C2.09611 15.2579 2.00455 15.0415 2.00455 14.825V3.17211C2.00455 2.94737 2.09611 2.73928 2.24593 2.58114C2.40408 2.42299 2.61217 2.33975 2.8369 2.33975H6.99867V4.83681C6.99867 5.49437 7.26502 6.13528 7.73114 6.6014C8.19725 7.06752 8.82984 7.33387 9.49573 7.33387H11.9928V14.825Z" fill="#25282B"/>
</svg>
