<svg width="34" height="24" viewBox="0 0 34 24" fill="none" xmlns="http://www.w3.org/2000/svg">
<path d="M0.5 3.5C0.5 2.11929 1.61929 1 3 1H31C32.3807 1 33.5 2.11929 33.5 3.5V20.5C33.5 21.8807 32.3807 23 31 23H3C1.61929 23 0.5 21.8807 0.5 20.5V3.5Z" fill="white" stroke="#D6D6D7"/>
<path fill-rule="evenodd" clip-rule="evenodd" d="M15.5125 15.0362H13.5469L14.7763 7.63281H16.7418L15.5125 15.0362Z" fill="#0742A6"/>
<path fill-rule="evenodd" clip-rule="evenodd" d="M22.6424 7.81519C22.2547 7.66539 21.6397 7.5 20.8794 7.5C18.9383 7.5 17.5714 8.50806 17.563 9.94929C17.5469 11.0126 18.5417 11.6032 19.2857 11.9578C20.0461 12.3201 20.3046 12.5565 20.3046 12.8795C20.2969 13.3755 19.6901 13.6041 19.1242 13.6041C18.3395 13.6041 17.919 13.4862 17.28 13.2103L17.0212 13.092L16.7461 14.7539C17.2071 14.9584 18.0565 15.1399 18.9383 15.1479C21.0007 15.1479 22.3434 14.1554 22.3594 12.6196C22.3672 11.7768 21.8419 11.131 20.7094 10.6033C20.022 10.2646 19.6009 10.0362 19.6009 9.68958C19.609 9.3745 19.957 9.05177 20.7331 9.05177C21.3721 9.03596 21.8416 9.18555 22.1973 9.33524L22.375 9.41386L22.6424 7.81519Z" fill="#0742A6"/>
<path fill-rule="evenodd" clip-rule="evenodd" d="M26.1579 7.63281H27.6783L29.2641 15.0361H27.4441C27.4441 15.0361 27.266 14.1854 27.2096 13.9255H24.6859C24.6129 14.1223 24.2734 15.0361 24.2734 15.0361H22.2109L25.1306 8.24707C25.3329 7.76659 25.6891 7.63281 26.1579 7.63281ZM26.0385 10.342C26.0385 10.342 25.4156 11.9881 25.2537 12.4134H26.8875C26.8067 12.0433 26.4345 10.2711 26.4345 10.2711L26.2971 9.63323C26.2393 9.7975 26.1556 10.0233 26.0992 10.1757C26.0609 10.2789 26.0352 10.3484 26.0385 10.342Z" fill="#0742A6"/>
<path fill-rule="evenodd" clip-rule="evenodd" d="M11.9076 7.63281L9.98262 12.6812L9.77226 11.6573C9.41638 10.4759 8.30024 9.19233 7.05469 8.5541L8.81789 15.0283H10.8965L13.9861 7.63281H11.9076V7.63281Z" fill="#0742A6"/>
<path fill-rule="evenodd" clip-rule="evenodd" d="M8.19482 7.63281H5.03235L5 7.7824C7.46692 8.39676 9.10071 9.87767 9.77196 11.6576L9.08448 8.25513C8.9713 7.7823 8.62347 7.64841 8.19482 7.63281Z" fill="#0742A6"/>
</svg>
