<svg width="20" height="20" viewBox="0 0 20 20" fill="none" xmlns="http://www.w3.org/2000/svg">
    <path
        d="M17.8416 7.20006C17.8416 7.20006 17.8416 7.20006 17.8416 7.1584C17.2545 5.55525 16.1891 4.17113 14.7895 3.19328C13.39 2.21543 11.7239 1.69104 10.0166 1.69104C8.30933 1.69104 6.64324 2.21543 5.24372 3.19328C3.8442 4.17113 2.77879 5.55525 2.19163 7.1584C2.19163 7.1584 2.19163 7.1584 2.19163 7.20006C1.5359 9.00914 1.5359 10.991 2.19163 12.8001C2.19163 12.8001 2.19163 12.8001 2.19163 12.8417C2.77879 14.4449 3.8442 15.829 5.24372 16.8068C6.64324 17.7847 8.30933 18.3091 10.0166 18.3091C11.7239 18.3091 13.39 17.7847 14.7895 16.8068C16.1891 15.829 17.2545 14.4449 17.8416 12.8417C17.8416 12.8417 17.8416 12.8417 17.8416 12.8001C18.4974 10.991 18.4974 9.00914 17.8416 7.20006ZM3.54996 11.6667C3.26098 10.5744 3.26098 9.42572 3.54996 8.3334H5.09996C4.96665 9.44051 4.96665 10.5596 5.09996 11.6667H3.54996ZM4.23329 13.3334H5.39996C5.59556 14.0766 5.87514 14.7951 6.23329 15.4751C5.41604 14.9183 4.73287 14.1868 4.23329 13.3334ZM5.39996 6.66673H4.23329C4.72568 5.81597 5.40012 5.08462 6.20829 4.52506C5.85875 5.2061 5.58758 5.92458 5.39996 6.66673ZM9.16663 16.4167C8.1431 15.6656 7.42425 14.5711 7.14163 13.3334H9.16663V16.4167ZM9.16663 11.6667H6.78329C6.62778 10.5611 6.62778 9.43907 6.78329 8.3334H9.16663V11.6667ZM9.16663 6.66673H7.14163C7.42425 5.42904 8.1431 4.3345 9.16663 3.5834V6.66673ZM15.7666 6.66673H14.6C14.4044 5.92353 14.1248 5.20501 13.7666 4.52506C14.5839 5.08179 15.267 5.81335 15.7666 6.66673ZM10.8333 3.5834C11.8568 4.3345 12.5757 5.42904 12.8583 6.66673H10.8333V3.5834ZM10.8333 16.4167V13.3334H12.8583C12.5757 14.5711 11.8568 15.6656 10.8333 16.4167ZM13.2166 11.6667H10.8333V8.3334H13.2166C13.3721 9.43907 13.3721 10.5611 13.2166 11.6667ZM13.7916 15.4751C14.1498 14.7951 14.4294 14.0766 14.625 13.3334H15.7916C15.292 14.1868 14.6089 14.9183 13.7916 15.4751ZM16.45 11.6667H14.9C14.9677 11.1138 15.0011 10.5572 15 10.0001C15.0009 9.44298 14.9675 8.88637 14.9 8.3334H16.45C16.7389 9.42572 16.7389 10.5744 16.45 11.6667Z"
        fill="#25282B" />
</svg>