<svg width="37" height="50" viewBox="0 0 37 50" fill="none" xmlns="http://www.w3.org/2000/svg">
<path d="M25.9 0C26.15 0 26.4 0.1 26.6 0.3L36.71 10.4C36.91 10.6 37 10.85 37 11.11V45C37 47.75 34.75 50 32 50H5C2.25 50 0 47.75 0 45V5C0 2.25 2.25 0 5 0H25.9Z" fill="white"/>
<path d="M36.71 10.4L36.36 10.05L35.07 8.76L28.3 2L26.6 0.3C26.4 0.1 26.15 0 25.9 0H5C2.25 0 0 2.25 0 5V45C0 47.75 2.25 50 5 50H32C34.75 50 37 47.75 37 45V11.11C37 10.85 36.91 10.6 36.71 10.4ZM33.53 10.05H29.5C28.09 10.05 26.95 8.91 26.95 7.5V3.47L33.53 10.05ZM35 45C35 46.66 33.65 48 32 48H5C3.34 48 2 46.66 2 45V5C2 3.35 3.34 2 5 2H24.5V7.5C24.5 10.25 26.75 12.5 29.5 12.5H35V45Z" fill="#059E00"/>
<path d="M14.46 23.67C14.46 23.45 14.39 23.25 14.25 23.1C13.95 22.76 13.37 22.75 13.02 23.13L10.54 26.43L8.16 23.13C8.06 23 7.87 22.84 7.51 22.84C7.26 22.84 7.05 22.93 6.9 23.11C6.76 23.28 6.68 23.48 6.68 23.71C6.68 23.91 6.74 24.09 6.85 24.23L9.38 27.74L6.69 31.31C6.56 31.48 6.5 31.68 6.5 31.89C6.5 32.11 6.57 32.31 6.71 32.46C7 32.78 7.55 32.83 7.94 32.43L10.5 29.04L12.91 32.39C13.08 32.6 13.31 32.71 13.59 32.71C13.84 32.71 14.05 32.62 14.2 32.44C14.34 32.27 14.42 32.08 14.42 31.86C14.42 31.66 14.36 31.48 14.24 31.31L11.66 27.72L14.3 24.2C14.41 24.04 14.46 23.85 14.46 23.67Z" fill="#059E00"/>
<path d="M21.9401 30.9699H17.8501V23.7199C17.8501 23.4799 17.7601 23.2599 17.6001 23.0999C17.2701 22.7699 16.7101 22.7599 16.3701 23.0999C16.2001 23.2699 16.1201 23.4799 16.1201 23.7199V31.8399C16.1201 32.0799 16.2001 32.2899 16.3601 32.4599C16.5201 32.6299 16.7301 32.7199 16.9801 32.7199H21.9501C22.1901 32.7199 22.4001 32.6399 22.5701 32.4699C22.7401 32.2999 22.8201 32.0899 22.8201 31.8499C22.8201 31.6099 22.7401 31.3999 22.5701 31.2299C22.4001 31.0599 22.1801 30.9699 21.9401 30.9699Z" fill="#059E00"/>
<path d="M30.0503 27.78C29.4803 27.26 28.6803 26.95 27.6703 26.85C26.8603 26.77 26.3003 26.6 26.0003 26.35C25.7203 26.12 25.5903 25.84 25.5903 25.5C25.5903 25.14 25.7303 24.88 26.0403 24.69C26.3703 24.48 26.8303 24.37 27.3803 24.37C27.8303 24.37 28.2003 24.45 28.4803 24.62C28.7703 24.79 29.0103 25.03 29.2003 25.34C29.2803 25.49 29.3903 25.6 29.5403 25.68C29.8303 25.85 30.1903 25.85 30.4603 25.67C30.6903 25.51 30.8103 25.29 30.8103 25.03C30.8103 24.85 30.7503 24.66 30.6303 24.46C30.2803 23.91 29.8503 23.48 29.3503 23.18C28.8403 22.88 28.2103 22.72 27.4803 22.72C26.8203 22.72 26.2103 22.82 25.6803 23.03C25.1303 23.24 24.6903 23.55 24.3703 23.96C24.0403 24.38 23.8803 24.87 23.8803 25.44C23.8803 26.24 24.2003 26.92 24.8203 27.45C25.4203 27.97 26.2603 28.28 27.3003 28.38C27.9603 28.45 28.4503 28.62 28.7603 28.91C29.0603 29.19 29.2103 29.51 29.2103 29.9C29.2103 30.29 29.0403 30.6 28.7003 30.83C28.3303 31.08 27.8603 31.2 27.3103 31.2C26.8403 31.2 26.4103 31.1 26.0203 30.9C25.6503 30.71 25.4003 30.48 25.2803 30.23C25.2003 30.06 25.0903 29.92 24.9303 29.82C24.7703 29.72 24.6003 29.66 24.4303 29.66C24.3503 29.66 24.2803 29.67 24.2603 29.68C24.0603 29.72 23.8903 29.81 23.7703 29.94C23.6403 30.08 23.5703 30.25 23.5703 30.43C23.5703 30.53 23.6003 30.64 23.6503 30.77C23.9103 31.39 24.3903 31.89 25.0703 32.27C25.7403 32.64 26.4903 32.83 27.3103 32.83C27.9303 32.83 28.5203 32.72 29.0603 32.51C29.6203 32.29 30.0703 31.95 30.4103 31.5C30.7503 31.05 30.9303 30.5 30.9303 29.87C30.9203 29.01 30.6303 28.31 30.0503 27.78Z" fill="#059E00"/>
</svg>
