<svg width="150" height="110" viewBox="0 0 150 110" fill="none" xmlns="http://www.w3.org/2000/svg">
<path fill-rule="evenodd" clip-rule="evenodd" d="M16.3204 98.0285C27.6417 110.354 71.4216 103.274 100.248 103.274C112.685 103.274 154.419 109.507 137.185 66.6969C80.6784 -73.6716 -19.5511 58.9766 16.3204 98.0285Z" fill="#058900"/>
<path fill-rule="evenodd" clip-rule="evenodd" d="M64.792 97.693C64.8296 97.6646 64.869 97.634 64.8853 97.5903C64.9378 97.4504 64.7319 97.3575 64.58 97.3608C64.3596 97.3657 64.0769 97.5114 64.1444 97.7174C64.1834 97.8366 64.333 97.8918 64.4586 97.8698C64.5843 97.8479 64.6908 97.7692 64.792 97.693ZM68.1578 95.3611C68.4622 95.4549 68.7627 95.5706 69.0278 95.7448C69.5256 96.0718 69.8643 96.5796 70.1893 97.0733C70.4223 97.4273 70.6586 97.7882 70.7748 98.1939C70.9008 98.6333 70.8783 99.1022 70.7939 99.551C70.5312 100.949 69.6518 102.225 68.4272 102.985C67.2025 103.745 65.6509 103.977 64.2509 103.61C63.9784 103.539 63.704 103.442 63.4943 103.257C63.3182 103.101 63.1995 102.894 63.0909 102.687C62.5206 101.602 62.1363 100.397 62.1802 99.1774C62.2241 97.9575 62.7352 96.7232 63.7031 95.9565C64.9179 94.9944 66.6683 94.9025 68.1578 95.3611Z" fill="white"/>
<path fill-rule="evenodd" clip-rule="evenodd" d="M117.279 40.2348C116.969 40.2311 116.677 40.4737 116.647 40.7615C116.634 40.8791 116.688 41.0253 116.813 41.0416C116.908 41.0537 116.99 40.9859 117.054 40.9198C117.188 40.78 117.303 40.6245 117.395 40.4581C117.426 40.4023 117.454 40.3307 117.413 40.2806C117.383 40.2441 117.328 40.2354 117.279 40.2348ZM118.748 39.0133C119.555 39.2753 120.285 39.7363 120.846 40.3364C121.328 40.8521 121.695 41.5216 121.594 42.1988C121.556 42.4474 121.458 42.6845 121.346 42.9126C120.92 43.7767 120.189 44.6049 119.184 44.7722C118.657 44.86 118.114 44.7548 117.607 44.5942C117.021 44.4084 116.462 44.1479 115.951 43.8221C115.68 43.6493 115.411 43.4443 115.292 43.1591C115.21 42.9625 115.208 42.746 115.211 42.5352C115.218 42.0138 115.255 41.4836 115.451 40.9948C115.698 40.3765 116.181 39.866 116.693 39.4104C116.899 39.2272 117.118 39.0467 117.382 38.9485C117.815 38.7879 118.308 38.8703 118.748 39.0133Z" fill="white"/>
<path fill-rule="evenodd" clip-rule="evenodd" d="M118.839 0.822246C121.978 4.06035 124.456 7.93237 126.078 12.1344C126.19 12.423 126.298 12.7436 126.191 13.0342C125.373 15.271 123.794 17.1359 122.245 18.9492C121.256 20.1079 120.266 21.2666 119.277 22.4253C118.332 23.5314 117.387 24.6377 116.411 25.7161C111.439 31.2064 105.564 36.0072 98.7597 38.9611C98.5029 39.0726 98.2274 39.1838 97.9509 39.1392C97.6744 39.0947 97.4153 38.8272 97.4876 38.5576C98.3289 35.4245 99.1755 32.1489 98.5005 28.9761C98.3376 28.2108 98.1561 27.2473 98.7908 26.7868C103.93 23.0584 107.63 17.7292 111.175 12.4724C112.067 11.1506 112.956 9.82509 113.745 8.44004C115.146 5.98091 116.225 3.33997 116.946 0.605156C117.045 0.229869 117.52 0.0608773 117.897 0.159227C118.274 0.257576 118.568 0.543171 118.839 0.822246" fill="white"/>
<path fill-rule="evenodd" clip-rule="evenodd" d="M20.9299 13.4019C21.4403 18.0169 22.8609 22.5294 25.0863 26.6043C26.4641 29.1274 28.1401 31.4733 29.8116 33.8122C30.9747 35.4397 32.2185 37.1358 34.0333 37.9769C34.5158 38.2006 34.4485 38.8964 34.319 39.4122C33.7592 41.6422 33.498 43.9468 33.5446 46.2455C33.549 46.4627 33.5547 46.6878 33.4694 46.8875C33.1798 47.5656 32.1875 47.4526 31.5043 47.1753C27.2776 45.4593 24.0325 42.0083 21.0011 38.5991C17.0653 34.1727 13.188 29.552 10.863 24.1041C10.7049 23.7337 10.5515 23.3439 10.5779 22.9421C10.6049 22.5327 10.8152 22.1605 11.0286 21.8101C13.1363 18.3477 16.0686 15.3912 19.5133 13.2553C19.7559 13.1048 20.015 12.954 20.3003 12.9442C20.5856 12.9343 20.8985 13.1181 20.9299 13.4019Z" fill="white"/>
<path fill-rule="evenodd" clip-rule="evenodd" d="M118.222 94.3612C118.587 93.7439 119.038 93.0642 119.745 92.9471C120.024 92.9009 120.171 92.598 120.266 92.3318C121.435 89.053 121.547 85.4068 120.583 82.062C120.308 81.1073 120.647 80.0952 120.982 79.1599C121.847 76.7462 122.712 74.3324 123.578 71.9187C123.082 71.0612 121.775 71.0866 121.105 70.3568C120.244 69.4176 120.894 67.9244 121.569 66.8433C125.512 60.5273 129.455 54.2112 133.399 47.8952C133.882 47.1214 134.942 46.8788 135.831 47.085C136.719 47.2912 137.478 47.8505 138.209 48.3964C141.085 50.5448 143.961 52.6932 146.837 54.8416C148.381 55.9947 150.085 57.4676 149.996 59.3924C149.947 60.4575 149.337 61.4043 148.748 62.2927C146.468 65.7278 144.189 69.1628 141.91 72.5978C140.626 74.533 140.98 77.0746 140.592 79.3645C139.979 82.9827 137.498 85.9542 135.201 88.8157C132.904 91.6773 130.605 94.8726 130.476 98.5401C130.322 102.911 128.246 107.18 124.902 110C125.872 107.647 119.745 108.585 112.737 105.797C113.89 101.716 116.068 98.013 118.222 94.3612Z" fill="white"/>
<path fill-rule="evenodd" clip-rule="evenodd" d="M41.2658 104.595C40.8288 104.237 40.6894 103.634 40.6123 103.073C39.7197 96.5822 43.5529 90.1761 42.8701 83.6601C42.5182 80.3022 40.9755 77.169 39.0342 74.4134C37.6936 72.5105 37.6184 69.9612 38.1186 67.6843C38.6187 65.4074 39.6277 63.2784 40.3082 61.0493C43.3344 51.1364 39.6521 40.5464 36.0115 30.8445C43.266 27.336 51.7314 28.0155 59.7681 28.4909C67.8049 28.9662 76.4482 28.9999 83.1465 24.5111C84.0646 34.2217 82.0402 43.943 80.0273 53.4853C90.241 52.4901 100.455 51.4949 110.668 50.4997C110.961 50.4712 111.282 50.4492 111.525 50.6155C111.85 50.8374 111.9 51.29 111.918 51.6842C112.396 61.7829 112.685 71.8905 112.786 82.0001C112.789 82.2537 112.78 82.5364 112.602 82.7162C112.45 82.8702 112.218 82.9024 112.003 82.9263C97.6932 84.5212 83.3835 86.116 69.0738 87.7109C67.8363 87.8488 66.0736 87.5265 66.146 86.2772C66.4692 80.7068 66.2806 75.1066 65.5834 69.5709C61.7805 69.427 57.9517 70.007 54.3599 71.271C53.545 71.5578 52.5652 72.3289 53.0047 73.0758C55.9122 78.0175 52.3035 85.4453 56.2524 89.5934C57.6102 91.0197 57.5164 93.2635 57.2473 95.219C56.6705 99.4104 55.6905 103.546 54.3256 107.549C54.9854 102.941 41.669 107.065 41.2658 104.595Z" fill="white"/>
<path fill-rule="evenodd" clip-rule="evenodd" d="M0.335944 0.00668329C0.348165 0.105018 0.294957 0.208274 0.207784 0.255391C0.13836 0.185933 0.0689358 0.116476 -0.000488281 0.0470182C0.103587 0.001498 0.22162 -0.0114856 0.333102 0.0103235L0.335944 0.00668329Z" fill="#25282B"/>
<path fill-rule="evenodd" clip-rule="evenodd" d="M67.1207 95.3601C67.3644 95.4366 67.605 95.531 67.8172 95.6732C68.2157 95.94 68.4869 96.3543 68.747 96.7572C68.9336 97.046 69.1227 97.3405 69.2157 97.6715C69.3166 98.03 69.2986 98.4126 69.231 98.7789C69.0207 99.9197 68.3167 100.961 67.3364 101.581C66.356 102.201 65.1139 102.39 63.9932 102.091C63.775 102.033 63.5553 101.954 63.3875 101.802C63.2465 101.676 63.1515 101.506 63.0646 101.338C62.6081 100.453 62.3003 99.4693 62.3355 98.474C62.3706 97.4787 62.7798 96.4715 63.5547 95.8459C64.5271 95.0609 65.9283 94.9859 67.1207 95.3601M65.7541 101.286C66.3637 101.194 66.9002 100.795 67.2505 100.288C67.6009 99.7805 67.7806 99.172 67.8669 98.5614C67.9162 98.2128 67.9207 97.8132 67.6746 97.5614C67.5273 97.4107 67.3169 97.3434 67.115 97.283C66.3571 97.0562 65.4919 96.8634 64.8131 97.2696C64.3188 97.5654 64.0432 98.1136 63.7933 98.6327C63.5007 99.2407 63.573 100.008 63.974 100.551C64.375 101.093 65.0871 101.387 65.7541 101.286V101.286Z" fill="#25282B"/>
<path fill-rule="evenodd" clip-rule="evenodd" d="M94.9658 67.9776C94.9764 67.8483 94.992 67.7095 95.0776 67.612C95.1613 67.5166 95.293 67.4823 95.4166 67.4535C98.6011 66.712 101.89 66.4219 105.156 66.5946C105.571 66.6166 106.106 66.7574 106.134 67.1729C106.291 69.5554 106.449 71.9379 106.607 74.3204C106.615 74.441 106.619 74.5747 106.542 74.6677C106.479 74.7435 106.377 74.7728 106.282 74.7976C102.886 75.6831 99.3064 75.8576 95.8403 75.3068C95.7511 75.2926 95.6572 75.2759 95.5879 75.2179C95.5041 75.1477 95.4748 75.0335 95.4509 74.9269C94.9399 72.6527 94.7757 70.3008 94.9658 67.9776ZM95.7167 71.9299C95.7792 72.8296 95.9679 73.7205 96.2755 74.5683C96.5823 74.6125 96.8859 74.6762 97.1916 74.7279C99.8256 75.174 102.52 74.7252 105.153 74.277C105.34 74.2452 105.545 74.2029 105.66 74.0525C105.778 73.8988 105.763 73.6848 105.741 73.4923C105.651 72.6713 105.56 71.8504 105.469 71.0294C105.462 70.9632 105.452 70.8922 105.408 70.8429C105.353 70.7831 105.264 70.7735 105.184 70.7682C103.312 70.6449 101.434 70.7846 99.5639 70.9242C98.5301 71.0014 97.4962 71.0785 96.4624 71.1557C96.2194 71.1738 95.9434 71.2098 95.8037 71.4095C95.7008 71.5565 95.7042 71.7508 95.7167 71.9299ZM95.7462 68.4961C95.5826 69.0209 95.5532 69.5868 95.6616 70.1257C95.6811 70.2225 95.7085 70.3247 95.782 70.3906C95.8909 70.4884 96.057 70.4722 96.2018 70.451C97.9632 70.193 99.7436 70.0648 101.524 70.0678C101.775 70.0682 101.852 69.7301 101.849 69.479C101.845 69.111 101.841 68.743 101.837 68.375C101.835 68.1621 101.824 67.9275 101.678 67.7723C101.503 67.5857 101.211 67.5916 100.955 67.6111C100.366 67.6561 99.7759 67.7012 99.1861 67.7462C98.904 67.7678 98.1558 67.9594 97.8119 67.9821C97.2131 68.0776 96.6144 68.1732 96.0156 68.2687C95.9518 68.2789 95.8844 68.2907 95.8352 68.3326C95.7874 68.3735 95.7649 68.4361 95.7462 68.4961ZM103.643 70.0969C104.111 70.103 104.579 70.0561 105.037 69.9576C105.146 69.9342 105.261 69.9044 105.338 69.8245C105.452 69.7072 105.451 69.5233 105.443 69.3599C105.419 68.8855 105.395 68.411 105.37 67.9365C105.362 67.7673 105.343 67.5767 105.21 67.4708C105.094 67.3776 104.93 67.3832 104.781 67.3933C104.261 67.4287 103.74 67.4641 103.22 67.4995C103.137 67.5052 103.051 67.5121 102.982 67.5577C102.856 67.641 102.837 67.8155 102.833 67.9665C102.822 68.4694 102.842 68.9731 102.895 69.4734C102.91 69.6182 102.931 69.7707 103.021 69.8855C103.16 70.0644 103.416 70.094 103.643 70.0969Z" fill="#FEBE3F"/>
<path fill-rule="evenodd" clip-rule="evenodd" d="M103.116 57.5658C103.812 57.2647 104.665 57.3656 105.272 57.8206C105.878 58.2755 106.214 59.0669 106.119 59.8191C106.546 59.5887 107.086 59.3617 107.484 59.6385C107.933 59.951 107.831 60.624 107.763 61.1671C107.645 62.116 107.798 63.0969 108.199 63.9649C108.365 64.3234 108.507 64.8674 108.14 65.012C108.078 65.0364 108.01 65.042 107.944 65.0474C103.635 65.3947 99.3258 65.742 95.0169 66.0893C94.8987 66.0988 94.7664 66.1039 94.677 66.0261C94.5858 65.9466 94.5744 65.8114 94.5694 65.6905C94.5281 64.6769 94.4868 63.6632 94.4455 62.6496C94.4345 62.3777 94.4292 62.0845 94.5827 61.8599C94.8368 61.4881 95.3691 61.4892 95.8138 61.418C96.2584 61.3468 96.7757 60.9716 96.6045 60.555C96.4137 60.0906 97.064 59.7513 97.5603 59.6757C98.0566 59.6002 98.7149 59.3043 98.5646 58.8253C98.4003 58.302 99.1203 57.9772 99.6639 57.905C100.048 57.8541 100.449 57.8048 100.813 57.9364C101.176 58.0681 101.484 58.4427 101.402 58.8209C101.308 59.2539 101.835 59.6573 102.251 59.5044C102.667 59.3514 102.835 58.7831 102.625 58.3933C102.453 58.0749 102.784 57.7096 103.116 57.5658ZM105.341 64.2455C105.18 63.9467 105.179 63.5909 105.177 63.2514C105.171 61.6571 105.073 60.0632 104.884 58.4801C104.875 58.4002 104.86 58.3109 104.794 58.2641C104.738 58.2237 104.662 58.2285 104.593 58.2349C104.256 58.2664 103.857 58.3408 103.724 58.6517C103.668 58.7843 103.674 58.9342 103.682 59.0782C103.767 60.6761 103.853 62.274 103.938 63.8718C103.946 64.0207 103.966 64.1915 104.09 64.2747C104.157 64.32 104.242 64.3284 104.323 64.3329C104.664 64.3515 105.008 64.322 105.341 64.2455ZM99.5458 61.7888C99.504 62.0549 99.4453 62.3193 99.4297 62.5882C99.4036 63.0378 99.4983 63.4847 99.5924 63.925C99.6528 64.2074 100.018 64.3464 100.285 64.2375C100.553 64.1286 100.714 63.8433 100.758 63.558C100.803 63.2727 100.751 62.9824 100.705 62.6972C100.527 61.577 100.449 60.4407 100.475 59.3066C100.481 59.0196 100.201 58.7605 99.9156 58.7888C99.63 58.8171 99.4065 59.1262 99.4691 59.4064C99.6434 60.1863 99.6696 60.9992 99.5458 61.7888ZM102.38 60.2585C102.212 60.0384 101.827 60.1556 101.696 60.3995C101.565 60.6433 101.605 60.9391 101.637 61.214C101.722 61.9321 101.73 62.6592 101.661 63.3789C101.641 63.5911 101.618 63.8228 101.736 64.0008C101.916 64.2748 102.311 64.2723 102.637 64.2392C102.739 64.2288 102.857 64.209 102.908 64.12C102.944 64.058 102.936 63.9811 102.926 63.9102C102.776 62.7935 102.625 61.6768 102.475 60.56C102.461 60.4543 102.444 60.3433 102.38 60.2585ZM106.112 60.7383C105.985 60.9109 105.958 61.1356 105.947 61.3494C105.91 62.0824 106.007 62.8149 106.104 63.5424C106.142 63.8291 106.273 64.1975 106.562 64.1779C106.854 64.1581 106.93 63.767 106.923 63.474C106.905 62.698 106.887 61.922 106.869 61.146C106.865 60.9419 106.843 60.7056 106.674 60.5916C106.496 60.4722 106.238 60.5657 106.112 60.7383ZM97.2799 60.555C97.2799 60.555 97.4082 61.5677 97.453 62.0838C97.5093 62.7316 97.5809 63.3781 97.6679 64.0225C97.6805 64.1161 97.6973 64.2174 97.7664 64.2818C97.8861 64.3935 98.3477 64.3193 98.4328 64.1794C98.5178 64.0395 98.5131 63.8649 98.5057 63.7014C98.4822 63.1841 98.4588 62.6669 98.4354 62.1496C98.4102 61.5951 98.2784 60.3995 98.2784 60.3995M95.6053 64.2221C95.6422 64.3382 95.6857 64.4596 95.7795 64.5372C95.9626 64.6887 96.2594 64.5949 96.4037 64.4062C96.548 64.2174 96.5805 63.9688 96.6081 63.7328C96.6419 63.4432 96.6747 63.1423 96.5809 62.8662C96.4872 62.5902 96.2276 62.3473 95.9373 62.3729C95.6702 62.3965 95.4633 62.6406 95.401 62.9014C95.3387 63.1622 95.3912 63.4357 95.4561 63.6959C95.5002 63.8728 95.5499 64.0484 95.6053 64.2221Z" fill="#E7EAF0"/>
<path fill-rule="evenodd" clip-rule="evenodd" d="M114.416 24.3174C113.78 25.2725 113.09 26.24 112.106 26.8297C111.121 27.4194 109.762 27.5343 108.878 26.8032C107.902 25.9966 107.841 24.5426 107.919 23.2788C107.948 22.7923 107.987 22.3018 108.127 21.8347C108.368 21.0246 108.896 20.3332 109.448 19.6921C110.116 18.9144 110.857 18.1642 111.784 17.7265C112.712 17.2888 113.864 17.212 114.733 17.7565C115.774 18.4084 116.158 19.7949 115.961 21.0067C115.764 22.2184 115.096 23.2957 114.416 24.3174ZM112.396 25.3279C113.198 24.4733 113.886 23.5117 114.436 22.4765C114.798 21.7953 115.105 21.0548 115.091 20.2836C115.076 19.5124 114.67 18.7062 113.954 18.42C113.021 18.0473 111.997 18.6436 111.217 19.2771C110.662 19.7282 110.125 20.223 109.769 20.8433C109.543 21.2355 109.397 21.6671 109.252 22.0955C108.978 22.906 108.7 23.7505 108.804 24.5997C108.909 25.4489 109.516 26.3015 110.367 26.3895C111.155 26.4709 111.854 25.9052 112.396 25.3279Z" fill="#FEBE3F"/>
<path fill-rule="evenodd" clip-rule="evenodd" d="M26.6297 29.5401C27.6263 30.5498 28.449 31.7307 29.0508 33.0155C29.6557 34.3067 29.0459 35.9661 27.8589 36.7561C26.6719 37.546 25.0671 37.5356 23.7656 36.9535C22.4641 36.3713 21.4414 35.2849 20.6881 34.0742C20.1202 33.1615 19.6799 32.1386 19.6327 31.0647C19.5855 29.9907 19.9808 28.8605 20.8303 28.2019C21.6895 27.5358 22.8977 27.4406 23.9367 27.7602C24.9758 28.0799 25.866 28.7664 26.6297 29.5401ZM22.7412 28.9262C21.8788 28.8374 21.1128 29.6289 20.9648 30.4832C20.8169 31.3375 21.1425 32.2043 21.5639 32.962C22.4776 34.6051 24.1078 36.0646 25.9855 35.9737C26.9507 35.927 28.0087 35.2583 27.9915 34.292C27.9841 33.8741 27.778 33.4886 27.5721 33.1249C27.0252 32.1587 26.4345 31.2024 25.6457 30.4212C24.8568 29.6401 23.8455 29.0399 22.7412 28.9262Z" fill="#FEBE3F"/>
<path fill-rule="evenodd" clip-rule="evenodd" d="M64.6643 98.1576C65.0429 97.8699 65.5137 97.6837 65.9882 97.7144C66.4626 97.745 66.9322 98.0172 67.1306 98.4492C67.3437 98.913 67.2109 99.4891 66.8786 99.8763C66.5463 100.264 66.0455 100.477 65.5402 100.548C65.1953 100.596 64.7842 100.553 64.5954 100.26C64.5042 100.119 64.4836 99.9452 64.4653 99.7782C64.4324 99.4783 64.3995 99.1784 64.3666 98.8786C64.3527 98.7515 64.3392 98.6197 64.3801 98.4986C64.4281 98.3562 64.5447 98.2485 64.6643 98.1576M66.1619 99.0201C66.217 98.9778 66.2746 98.932 66.2986 98.8669C66.3754 98.6581 66.074 98.5194 65.8516 98.5244C65.5289 98.5317 65.1151 98.7491 65.2139 99.0565C65.2711 99.2344 65.49 99.3167 65.674 99.284C65.8579 99.2512 66.0138 99.1339 66.1619 99.0201H66.1619Z" fill="#25282B"/>
<path fill-rule="evenodd" clip-rule="evenodd" d="M118.286 2.28362C121.235 5.33734 123.564 8.98886 125.087 12.9516C125.192 13.2238 125.294 13.5261 125.194 13.8001C124.425 15.9096 122.941 17.6683 121.486 19.3784L118.698 22.6565C117.81 23.6996 116.923 24.743 116.005 25.7599C111.334 30.9376 105.815 35.465 99.4221 38.2507C99.1809 38.3558 98.9221 38.4607 98.6623 38.4187C98.4025 38.3766 98.1591 38.1244 98.2271 37.8701C99.0174 34.9155 99.8128 31.8264 99.1786 28.8343C99.0257 28.1126 98.8551 27.2039 99.4514 26.7696C104.279 23.2536 107.755 18.2278 111.087 13.2703C111.924 12.0238 112.76 10.7738 113.501 9.46763C114.817 7.14853 115.83 4.65798 116.508 2.0789C116.601 1.72498 117.047 1.56561 117.401 1.65836C117.755 1.75111 118.032 2.02044 118.286 2.28362ZM116.222 6.07581C115.922 5.95184 115.646 6.28714 115.493 6.57333C115.353 6.83633 115.212 7.09967 115.072 7.36323L114.997 7.50402C111.941 13.2449 108.838 19.0739 104.181 23.5956C103.741 24.0228 103.25 24.539 103.331 25.1469C103.591 27.0957 102.55 29.1536 100.827 30.0997C100.045 30.5293 100.054 31.6376 100.169 32.5228C100.214 32.8772 100.348 33.3214 100.704 33.3514C101.749 33.4394 102.751 33.9536 103.432 34.7505C103.646 35.0019 104.053 34.8448 104.333 34.6688C111.378 30.2392 116.792 23.6964 122.077 17.2679C122.259 17.0461 122.453 16.7667 122.358 16.4957C121.559 14.2171 121.687 11.6276 122.708 9.43918C122.105 8.24038 121.387 7.09968 120.567 6.03803C119.202 6.63066 117.597 6.64462 116.222 6.07581ZM99.5114 37.0805C99.7892 37.2261 100.126 37.0877 100.404 36.9425C101.134 36.5611 101.838 36.1281 102.508 35.6479C102.685 35.521 102.738 35.2675 102.675 35.0589C102.613 34.8502 102.456 34.682 102.283 34.5503C101.741 34.1391 100.984 34.0309 100.349 34.2741C100.231 34.319 100.115 34.3776 100.034 34.4737C99.939 34.5863 99.9044 34.7363 99.874 34.8802C99.7206 35.6078 99.5995 36.3422 99.5114 37.0805ZM119.296 4.55855C118.817 3.62243 118.079 2.82078 117.185 2.2668C116.875 2.54083 116.814 2.95724 116.753 3.38175C116.71 3.67304 116.667 3.96815 116.543 4.2237C116.502 4.30692 116.453 4.38654 116.403 4.46597C116.309 4.6172 116.215 4.76778 116.184 4.94145C116.138 5.20635 116.363 5.53867 116.617 5.45102C116.823 5.37976 117.04 5.42553 117.258 5.4717C117.374 5.49606 117.49 5.52054 117.605 5.52797C118.276 5.57129 118.832 5.04558 119.296 4.55855ZM123.09 10.1693C122.577 11.1894 122.658 12.3943 122.752 13.5323L122.885 15.1643C122.9 15.3438 122.998 15.586 123.171 15.5363C123.278 15.2357 123.483 14.9877 123.688 14.739C123.867 14.5215 124.047 14.3035 124.163 14.0493C124.554 13.1886 124.119 12.1966 123.691 11.3535L123.09 10.1693ZM100.135 28.2832C100.156 28.6024 100.488 28.8414 100.807 28.8324C101.127 28.8234 101.415 28.6165 101.602 28.3568C101.789 28.0971 101.891 27.7877 101.991 27.4838L102.321 26.48C102.413 26.2002 102.418 25.7723 102.126 25.7394C102.02 25.7275 101.919 25.7834 101.833 25.845C101.505 26.0782 101.266 26.4133 101.033 26.7418L100.4 27.6367C100.262 27.8308 100.119 28.0459 100.135 28.2832Z" fill="#25282B"/>
<path fill-rule="evenodd" clip-rule="evenodd" d="M24.586 25.6039C22.3607 21.5289 20.94 17.0164 20.4296 12.4014C20.3982 12.1177 20.0853 11.9338 19.8 11.9437C19.5147 11.9536 19.2557 12.1043 19.013 12.2548C15.5683 14.3908 12.6361 17.3473 10.5283 20.8096C10.315 21.1601 10.1046 21.5322 10.0777 21.9416C10.0513 22.3435 10.2047 22.7332 10.3627 23.1036C12.6878 28.5515 16.565 33.1723 20.5009 37.5986C23.5323 41.0078 26.7774 44.4588 31.0041 46.1748C31.6872 46.4522 32.6795 46.5652 32.9691 45.8871C33.0534 45.6898 33.0489 45.4678 33.0445 45.2532L33.0443 45.245C32.9978 42.9464 33.259 40.6417 33.8188 38.4118C33.9483 37.8959 34.0156 37.2001 33.533 36.9765C31.7182 36.1353 30.4744 34.4392 29.3113 32.8117C27.6398 30.4729 25.9639 28.1269 24.586 25.6039ZM28.5147 43.4163C28.2646 43.483 28.015 43.3253 27.8063 43.1724C23.9593 40.3535 20.9782 36.5383 18.0491 32.7743L12.8801 26.132C13.7526 25.5763 13.8634 24.3688 13.8824 23.3344C13.9072 21.9899 13.9252 20.6056 13.4396 19.3516C13.3316 19.0729 13.4721 18.764 13.6226 18.5057C14.268 17.3982 15.1631 16.4371 16.2219 15.7147C16.3244 15.6447 16.4329 15.5753 16.5558 15.5579C16.8801 15.5121 17.1288 15.8275 17.3021 16.1054C17.9865 17.2029 18.927 18.4442 20.2172 18.3538C20.7084 18.3194 20.9808 18.8981 21.1242 19.3693C22.9063 25.2289 26.2524 30.5141 30.1764 35.2163C30.6863 35.8273 30.8142 36.652 30.941 37.4692C31.0824 38.3805 31.2223 39.2825 31.8889 39.8684C32.458 40.3687 32.3524 41.2671 32.1988 42.0092C32.1673 42.161 32.1299 42.3237 32.0146 42.4273C31.9289 42.5043 31.8132 42.5364 31.7019 42.5661L28.5147 43.4163ZM19.3947 16.9965C18.689 16.5033 18.0794 15.8732 17.61 15.1515C17.5084 14.9953 17.4098 14.8204 17.4276 14.635C17.447 14.4334 17.5987 14.2721 17.7495 14.1371C18.1221 13.8036 18.5432 13.5244 18.9955 13.311C19.1611 13.2329 19.3749 13.1694 19.5124 13.2903C19.5935 13.3614 19.619 13.4751 19.6402 13.5808L20.292 16.8411C20.3305 17.0338 20.1283 17.2074 19.9319 17.213C19.7354 17.2186 19.5558 17.1091 19.3947 16.9965ZM12.9445 23.3023C12.9307 23.9156 12.8839 24.6038 12.4243 25.01C12.3282 25.0215 12.2643 24.9159 12.2266 24.8267C11.8955 24.0429 11.5599 23.2401 11.5077 22.3908C11.4556 21.5415 11.7402 20.6218 12.4341 20.1295C12.528 20.0629 12.6658 20.0079 12.7486 20.0878C12.782 20.1199 12.7962 20.1665 12.8084 20.2112C12.9969 20.9044 12.9821 21.6345 12.9659 22.3527L12.9445 23.3023ZM31.6709 43.7004C31.7823 43.7916 31.7942 43.9547 31.7972 44.0987L31.8303 45.675C31.1838 45.3165 30.5644 44.9091 29.9792 44.4575C29.8682 44.3718 29.7463 44.2331 29.8143 44.1105C29.848 44.0497 29.918 44.0204 29.9832 43.9964C30.4016 43.8421 30.8341 43.7264 31.2736 43.6511C31.4095 43.6279 31.5642 43.6131 31.6709 43.7004ZM31.7081 37.4915C31.7022 37.4203 31.7022 37.3427 31.7445 37.2852C31.8561 37.1334 32.0983 37.2708 32.2007 37.429C32.4473 37.8099 32.5017 38.3089 32.3431 38.7341C31.981 38.4235 31.7477 37.967 31.7081 37.4915Z" fill="#25282B"/>
<path fill-rule="evenodd" clip-rule="evenodd" d="M131.617 27.2762C131.576 26.7868 131.248 26.3056 130.773 26.183C130.169 26.0273 129.584 26.4526 129.104 26.8515C128.963 26.9695 128.814 27.0964 128.754 27.2709C128.652 27.5669 128.836 27.8788 129.016 28.1346C129.223 28.4275 129.444 28.7219 129.746 28.9154C130.048 29.109 130.45 29.1842 130.767 29.0159C130.928 28.9302 131.054 28.7902 131.163 28.6436C131.456 28.2496 131.658 27.7655 131.617 27.2762ZM130.278 28.5306C130.073 28.5613 129.861 28.4786 129.71 28.3367C129.484 28.1241 129.395 27.7824 129.474 27.4825C129.557 27.1668 129.822 26.906 130.139 26.8281C130.456 26.7502 130.811 26.8585 131.031 27.0998C131.023 27.1656 131.016 27.2318 131.009 27.298C130.986 27.523 130.963 27.7484 130.885 27.9598C130.784 28.2334 130.566 28.4874 130.278 28.5306Z" fill="#25282B"/>
<path fill-rule="evenodd" clip-rule="evenodd" d="M130.864 24.6196C129.828 24.5943 128.654 24.7111 128.009 25.5228C127.755 25.8427 127.616 26.2382 127.515 26.6342C127.358 27.2538 127.287 27.895 127.303 28.5339C127.311 28.811 127.542 29.0255 127.765 29.1894C128.223 29.5247 128.727 29.7964 129.259 29.9943C129.658 30.1428 130.087 30.2507 130.507 30.1804C130.779 30.1349 131.035 30.0153 131.257 29.8513C131.749 29.4865 132.057 28.9137 132.206 28.3191C132.355 27.7245 132.358 27.1039 132.339 26.4913C132.319 25.818 132.189 25.0171 131.576 24.7377C131.355 24.6373 131.106 24.6256 130.864 24.6196ZM131.701 28.3607C131.388 29.1624 130.508 29.8026 129.68 29.565C129.156 29.4146 128.644 29.1688 128.278 28.7647C127.912 28.3606 127.714 27.7785 127.864 27.2542C127.914 27.079 128 26.9164 128.085 26.7553L128.57 25.8391C128.635 25.7166 128.701 25.5925 128.796 25.4919C128.971 25.3075 129.226 25.2221 129.475 25.1722C129.977 25.0719 130.502 25.0897 130.995 25.2237C131.314 25.3103 131.66 25.4911 131.726 25.815C131.899 26.6584 132.015 27.5589 131.701 28.3607Z" fill="#25282B"/>
<path fill-rule="evenodd" clip-rule="evenodd" d="M119.71 41.0276C119.902 41.3202 119.842 41.7111 119.714 42.037C119.547 42.4665 119.263 42.8645 118.863 43.093C118.462 43.3215 117.936 43.3549 117.546 43.1093C117.156 42.8637 116.96 42.3176 117.169 41.9066C117.217 41.8116 117.283 41.7274 117.349 41.6432C117.412 41.5626 117.475 41.482 117.523 41.3918C117.555 41.3324 117.579 41.2695 117.604 41.2066C117.639 41.1159 117.674 41.0254 117.73 40.9463C117.929 40.665 118.32 40.6097 118.664 40.6146C119.055 40.6201 119.496 40.7009 119.71 41.0276ZM118.838 41.2134C118.304 41.2067 117.803 41.6548 117.75 42.1866C117.728 42.4039 117.82 42.6741 118.037 42.704C118.199 42.7265 118.341 42.6012 118.45 42.4791C118.68 42.2208 118.878 41.9335 119.038 41.6261C119.091 41.523 119.138 41.3906 119.068 41.2981C119.017 41.2307 118.923 41.2145 118.838 41.2134Z" fill="#25282B"/>
<path fill-rule="evenodd" clip-rule="evenodd" d="M120.581 40.1655C120.053 39.5592 119.365 39.0935 118.607 38.8287C118.192 38.6843 117.728 38.601 117.321 38.7633C117.072 38.8625 116.867 39.0449 116.673 39.23C116.191 39.6903 115.736 40.206 115.504 40.8307C115.32 41.3245 115.285 41.8602 115.278 42.387C115.275 42.6 115.277 42.8187 115.354 43.0173C115.466 43.3055 115.719 43.5126 115.975 43.6872C116.455 44.0163 116.981 44.2796 117.533 44.4672C118.01 44.6295 118.521 44.7358 119.017 44.6471C119.962 44.478 120.65 43.6414 121.051 42.7683C121.156 42.5378 121.249 42.2983 121.284 42.0471C121.379 41.363 121.034 40.6866 120.581 40.1655ZM120.163 41.3246C120.25 42.0912 119.931 42.8778 119.382 43.4204C119.045 43.7538 118.614 44.0063 118.144 44.0658C117.673 44.1252 117.166 43.9718 116.855 43.614C116.369 43.0554 116.142 42.2809 116.248 41.5484C116.355 40.8158 116.793 40.1381 117.418 39.7409C117.564 39.6481 117.72 39.5696 117.887 39.5234C118.196 39.438 118.53 39.4683 118.832 39.5771C119.557 39.8388 120.076 40.5581 120.163 41.3246Z" fill="#25282B"/>
<path fill-rule="evenodd" clip-rule="evenodd" d="M143.82 61.7112C143.633 61.781 143.424 61.7333 143.233 61.6734C141.942 61.2674 140.894 60.3596 139.863 59.4673L139.862 59.4664L139.861 59.4655C139.722 59.3453 139.583 59.2253 139.445 59.107C137.737 57.6503 135.884 56.3643 133.922 55.2744C133.722 55.1635 133.513 55.0468 133.391 54.8539C133.268 54.6611 133.272 54.3674 133.461 54.2387C134.34 53.6379 134.911 52.6069 134.953 51.5422C134.964 51.2585 135.285 51.0693 135.568 51.0921C135.851 51.1148 136.097 51.2849 136.329 51.4492L145.295 57.8144C145.469 57.9383 145.657 58.0819 145.7 58.2916C145.735 58.4628 145.663 58.636 145.591 58.7951C145.204 59.6485 144.76 60.4755 144.261 61.2686C144.148 61.4482 144.019 61.6371 143.82 61.7112ZM134.851 54.1603C134.745 54.3462 134.654 54.6151 134.825 54.7437L142.141 60.2531C142.542 60.5549 143.164 60.8376 143.48 60.4477C143.842 59.9999 144.181 59.5328 144.493 59.049C144.579 58.9166 144.666 58.7654 144.635 58.6108C144.607 58.4697 144.488 58.3673 144.376 58.2767C141.691 56.0993 138.848 54.1166 135.877 52.3494L134.851 54.1603Z" fill="#25282B"/>
<path fill-rule="evenodd" clip-rule="evenodd" d="M131.21 57.5295C131.328 57.3268 131.471 57.105 131.7 57.0553C131.876 57.0172 132.054 57.0923 132.216 57.1708C133.097 57.5987 133.903 58.1786 134.59 58.8773C134.755 59.0454 134.775 59.316 134.702 59.5399C134.628 59.7638 134.477 59.9522 134.328 60.1352C134.09 60.4293 133.835 60.7352 133.483 60.8748C133.103 61.0254 132.661 60.9528 132.301 60.7589C131.941 60.5651 131.652 60.2618 131.398 59.9419C131.065 59.5247 130.768 59.0243 130.82 58.4934C130.853 58.1456 131.034 57.8314 131.21 57.5295ZM132.75 59.8656C133.304 60.0811 133.659 59.9103 133.673 59.5469C133.683 59.3176 133.482 59.141 133.301 59.0011L132.75 58.5777C132.568 58.4378 132.368 58.2913 132.138 58.2927C131.909 58.2942 131.675 58.5308 131.769 58.7402C131.755 58.8413 132.196 59.6501 132.75 59.8656Z" fill="#25282B"/>
<path fill-rule="evenodd" clip-rule="evenodd" d="M130.564 64.3391C130.699 64.4131 130.842 64.4855 130.996 64.4887C131.15 64.492 131.317 64.4047 131.355 64.2554C131.443 63.9048 131.675 63.6142 131.902 63.3297C131.927 63.2986 131.952 63.2677 131.976 63.2367C132.225 62.9219 132.465 62.5654 132.472 62.1643C132.478 61.7633 132.146 61.3358 131.749 61.3906C131.436 61.4337 131.145 61.2285 130.917 61.009C130.905 60.997 130.893 60.9849 130.88 60.9727C130.856 60.9493 130.833 60.9257 130.809 60.9021C130.619 60.7123 130.425 60.5194 130.173 60.437C129.872 60.3391 129.463 60.4949 129.439 60.81C129.391 61.4447 128.864 61.9226 128.375 62.3297C128.228 62.4515 128.36 62.6853 128.497 62.8177C129.114 63.4139 129.811 63.9271 130.564 64.3391ZM130.661 63.1297L129.698 62.4778C129.453 62.312 129.472 61.9059 129.691 61.7064C129.909 61.5069 130.249 61.4916 130.527 61.5915C130.806 61.6914 131.037 61.8873 131.262 62.0793C131.411 62.2065 131.432 62.4379 131.364 62.6215C131.295 62.8051 131.157 62.9522 131.022 63.0938C130.975 63.1423 130.924 63.1937 130.857 63.2023C130.786 63.2114 130.72 63.1696 130.661 63.1297Z" fill="#25282B"/>
<path fill-rule="evenodd" clip-rule="evenodd" d="M138.301 63.1726L138.772 62.1714C138.916 61.8648 139.056 61.4854 138.861 61.2082C138.794 61.1119 138.694 61.044 138.596 60.9783L136.882 59.8229C136.697 59.6983 136.497 59.5688 136.274 59.5723C136.01 59.5765 135.788 59.7651 135.601 59.9511C135.32 60.2297 135.057 60.5267 134.815 60.8396C134.63 61.0779 134.479 61.4698 134.731 61.6351L137.354 63.3564C137.561 63.4922 137.824 63.6318 138.041 63.5135C138.169 63.4441 138.239 63.3041 138.301 63.1726ZM137.719 62.4638C137.609 62.4892 137.494 62.4612 137.386 62.4286C136.724 62.229 136.118 61.8467 135.652 61.3352C135.497 61.165 135.585 60.8646 135.781 60.7453C135.978 60.6261 136.234 60.6535 136.446 60.7425C136.583 60.8001 136.708 60.8802 136.834 60.9605C136.903 61.0044 136.972 61.0485 137.042 61.0888C137.119 61.1321 137.198 61.172 137.277 61.2118C137.503 61.3248 137.729 61.4379 137.882 61.6334C138.09 61.8979 138.047 62.3885 137.719 62.4638Z" fill="#25282B"/>
<path fill-rule="evenodd" clip-rule="evenodd" d="M138.605 63.5822C138.908 63.5103 139 63.2021 139.096 62.8816C139.175 62.6168 139.257 62.3437 139.462 62.1888C139.815 61.9222 140.314 62.145 140.694 62.3711L141.903 63.0901C142.095 63.2047 142.292 63.3232 142.431 63.4997C142.569 63.6761 142.636 63.9261 142.54 64.1283C142.475 64.2633 142.353 64.3528 142.231 64.4429C142.13 64.5168 142.029 64.5912 141.958 64.6914C141.867 64.8202 141.833 64.9815 141.8 65.1409C141.758 65.341 141.717 65.5381 141.564 65.6639C141.286 65.8931 140.872 65.7094 140.565 65.5215L138.862 64.481C138.691 64.376 138.509 64.2608 138.425 64.0781C138.341 63.8953 138.41 63.6288 138.605 63.5822ZM140.837 64.6154C141.081 64.5321 141.277 64.3513 141.465 64.1753C141.601 64.0478 141.419 63.8378 141.256 63.7462L140.213 63.1588C140.104 63.0975 139.953 63.0417 139.869 63.1337C139.597 63.4302 139.558 63.9141 139.778 64.2507C139.998 64.5874 140.457 64.7453 140.837 64.6154Z" fill="#25282B"/>
<path fill-rule="evenodd" clip-rule="evenodd" d="M128.87 64.5789C128.636 64.5131 128.399 64.4461 128.208 64.316C127.912 64.114 127.499 64.1629 127.189 64.3415C126.878 64.52 126.646 64.8062 126.422 65.0858C126.297 65.241 126.169 65.4029 126.122 65.596C126.074 65.7892 126.131 66.0233 126.305 66.1202L128.124 67.1341C128.261 67.2109 128.415 67.2903 128.569 67.2561C128.722 67.2222 128.828 67.086 128.921 66.9589L129.389 66.3149C129.649 65.9564 129.921 65.4995 129.731 65.0994C129.578 64.7787 129.229 64.6802 128.87 64.5789ZM128.294 66.2471C128.199 66.2723 128.101 66.2264 128.014 66.1818L126.774 65.5511C127.013 65.2139 127.466 65.0845 127.877 65.1253C128.287 65.1661 128.669 65.3488 129.041 65.5286L128.471 66.1201C128.42 66.1731 128.365 66.2283 128.294 66.2471Z" fill="#25282B"/>
<path fill-rule="evenodd" clip-rule="evenodd" d="M114.022 104.856C115.135 100.916 117.237 97.3405 119.318 93.8147C119.67 93.2187 120.106 92.5623 120.788 92.4493C121.058 92.4047 121.199 92.1122 121.291 91.8552C122.42 88.6895 122.528 85.1689 121.597 81.9395C121.332 81.0177 121.659 80.0405 121.983 79.1374L124.489 72.1458C124.228 71.695 123.735 71.497 123.236 71.2963C122.818 71.1284 122.396 70.9587 122.102 70.6378C121.27 69.731 121.897 68.2893 122.549 67.2455L133.971 48.9506C134.438 48.2034 135.461 47.9693 136.319 48.1683C137.177 48.3674 137.91 48.9074 138.616 49.4346L146.946 55.6576C148.437 56.7709 150.082 58.193 149.996 60.0514C149.949 61.0798 149.36 61.994 148.791 62.8518L142.189 72.8016C141.335 74.0882 141.231 75.6523 141.127 77.2237C141.08 77.9343 141.033 78.6464 140.917 79.335C140.347 82.6943 138.11 85.4763 135.967 88.1418C135.882 88.2481 135.796 88.3544 135.711 88.4604C133.493 91.2233 131.274 94.3084 131.149 97.8495C131.001 102.07 128.996 106.192 125.768 108.914L128.577 102.099C129.245 100.478 129.863 98.4612 128.745 97.1108C128.24 96.4998 127.475 96.1766 126.741 95.8755L122.378 94.0853C122.078 93.9618 121.767 93.8365 121.442 93.8345C120.429 93.8283 119.826 94.9277 119.415 95.8543C117.993 99.0598 116.177 102.09 114.022 104.856ZM128.367 95.5998C129.115 95.8768 130.168 96.045 130.523 95.3304C132.238 91.8716 134.001 88.3463 136.732 85.6171C138.306 84.0441 139.271 81.9452 139.817 79.7878C140.363 77.6304 140.517 75.3961 140.67 73.1759C140.007 73.4172 139.949 74.3116 139.952 75.0169C139.958 76.5718 139.687 78.1274 139.153 79.588C139.042 79.8937 138.892 80.2241 138.593 80.353C138.295 80.482 137.854 80.2229 137.955 79.9134C138.726 77.5375 139.013 75.0059 138.794 72.5177C138.726 71.7462 138.582 70.921 138.034 70.3743C138.094 71.5923 138.153 72.8159 138.03 74.0292C137.816 76.1284 137.063 78.1298 136.318 80.1035C136.221 80.3598 136.104 80.6391 135.858 80.7595C135.611 80.88 135.23 80.6891 135.294 80.4228L136.411 75.8047C137.025 73.2655 137.629 70.5341 136.678 68.1009C136.199 68.0688 136.087 68.7535 136.129 69.2316C136.422 72.5062 135.517 75.7564 134.621 78.9195C134.516 79.2888 134.146 79.7506 133.858 79.4966C133.734 79.3871 133.729 79.1983 133.739 79.0331C133.795 78.1029 134.05 77.2024 134.305 76.3029C134.384 76.0237 134.463 75.7446 134.536 75.4647C135.209 72.885 135.381 70.1753 135.039 67.5313C134.449 68.2877 134.198 69.247 133.962 70.1768L132.56 75.6963C131.926 78.1913 131.117 80.9343 128.919 82.2747C128.744 82.3815 128.541 82.4807 128.341 82.4334C128.093 82.3746 127.953 82.1184 127.85 81.8855C126.447 78.7259 126.272 75.0397 127.368 71.7613C127.435 71.5623 127.233 71.3544 127.023 71.3379C126.814 71.3215 126.618 71.4354 126.447 71.5564C124.648 72.8262 123.958 75.1264 123.386 77.2532L122.625 80.0812C122.514 80.4943 122.402 80.9111 122.379 81.3382C122.343 81.9873 122.513 82.6225 122.682 83.2543C122.721 83.4007 122.76 83.547 122.796 83.6932C123.528 86.6313 123.197 89.8223 121.879 92.5478C121.684 92.9496 122.197 93.3151 122.616 93.4701L128.367 95.5998ZM131.21 68.6104C130.91 68.4037 130.588 68.1677 130.496 67.8154C130.353 67.275 130.868 66.7322 131.422 66.6595C131.976 66.5868 132.518 66.8543 132.977 67.1727C133.623 67.6213 134.442 66.9373 134.926 66.3167C134.273 65.9259 133.65 65.3194 133.624 64.5586C133.598 63.7979 134.523 63.0732 135.139 63.521C135.378 63.6947 135.666 63.801 135.952 63.9062C136.38 64.0637 136.801 64.2186 137.036 64.5935C137.303 65.0199 137.208 65.5965 136.936 66.0199C136.664 66.4434 136.246 66.7473 135.837 67.0409C136.424 67.0991 136.995 67.3082 137.48 67.6426L138.009 66.1014C138.05 65.9819 138.094 65.8569 138.188 65.7725C138.37 65.6098 138.652 65.6601 138.884 65.7338C139.493 65.927 140.09 66.2288 140.492 66.7255C140.894 67.2221 141.061 67.9436 140.781 68.5175C140.5 69.0914 139.707 69.3975 139.17 69.0514C139.059 68.9796 138.947 68.8837 138.835 68.7877C138.535 68.5312 138.236 68.2747 137.947 68.48C138.829 69.1672 139.435 70.1996 139.605 71.3051C142.383 67.0732 145.131 62.8218 147.849 58.5512C148.109 58.1435 148.318 57.5009 147.896 57.2665C146.091 56.2651 144.495 54.9238 142.904 53.5858C140.894 51.8968 138.892 50.2129 136.481 49.2241C136.328 49.1613 136.16 49.1006 136.001 49.1428C135.833 49.187 135.715 49.3328 135.61 49.4704C131.12 55.3304 127.091 61.543 123.572 68.0321C123.081 68.9374 123.738 70.0165 124.367 70.8322C124.681 71.2398 125.287 71.6703 125.63 71.2864C126.062 70.8024 126.769 70.5258 127.381 70.7419C127.992 70.958 128.373 71.7532 128.04 72.31C127.8 72.7127 128.27 73.1604 128.682 73.3857C129.504 73.836 130.347 74.2476 131.207 74.6186C131.327 74.6702 131.466 74.7208 131.583 74.6624C131.694 74.6068 131.739 74.4747 131.773 74.3556L132.726 71.075C132.883 70.5355 132.988 69.8353 132.526 69.5166L131.21 68.6104ZM148.264 59.4141C148.137 59.3707 148.021 59.4974 147.947 59.6087L140.809 70.2949C140.617 70.5823 140.42 70.8813 140.364 71.2224C140.308 71.5635 140.434 71.9602 140.744 72.1121C141.258 72.3636 141.796 71.8351 142.126 71.3675L148.758 61.9668C149.25 61.2688 148.834 60.3146 148.412 59.5716C148.376 59.5073 148.333 59.4381 148.264 59.4141ZM128.167 73.6839C128.041 73.5924 127.853 73.647 127.748 73.7614C127.643 73.8759 127.6 74.0326 127.56 74.1829C127.462 74.553 127.364 74.9267 127.35 75.3091C127.335 75.6915 127.405 76.0715 127.474 76.4479L128.158 80.1639C128.186 80.3197 128.22 80.4852 128.33 80.5988C128.441 80.7123 128.656 80.7369 128.745 80.6062C129.757 79.1264 130.783 77.6177 131.312 75.9049C131.378 75.692 131.397 75.3926 131.189 75.3141C130.114 74.9098 129.095 74.3598 128.167 73.6839ZM136.06 64.5153C135.718 64.1889 135.265 63.9804 134.794 63.9324C134.365 63.8886 134.117 64.4915 134.313 64.8758C134.509 65.2602 134.942 65.4506 135.342 65.6111C135.625 65.7244 135.968 65.8312 136.214 65.6523C136.568 65.3952 136.377 64.8171 136.06 64.5153ZM133.242 68.8214C133.382 68.722 133.4 68.5188 133.361 68.3519C133.214 67.7229 132.524 67.4016 131.905 67.2173C131.665 67.1461 131.368 67.0964 131.199 67.2807C131.058 67.4345 131.088 67.6893 131.209 67.8588C131.331 68.0284 131.521 68.1329 131.705 68.2319L132.661 68.747C132.843 68.8449 133.074 68.9411 133.242 68.8214ZM138.684 66.5544C138.481 66.8255 138.502 67.2197 138.671 67.513C138.84 67.8062 139.132 68.0098 139.441 68.1484C139.547 68.196 139.663 68.2378 139.776 68.2151C139.874 68.1956 139.958 68.1296 140.018 68.0498C140.239 67.7545 140.132 67.3098 139.878 67.0417C139.625 66.7735 139.265 66.6392 138.919 66.5135C138.859 66.4918 138.789 66.4708 138.735 66.5036C138.714 66.516 138.698 66.535 138.684 66.5544Z" fill="#25282B"/>
<path d="M49.2665 33.8644C49.6286 33.8537 50.1118 33.9485 50.1373 34.3099L44.3969 35.1275C44.0876 35.1716 43.7408 35.2067 43.4919 35.0178C43.243 34.8288 43.2681 34.3287 43.5783 34.2912C45.4666 34.0627 47.3653 33.9203 49.2665 33.8644Z" fill="#25282B"/>
<path d="M44.4954 36.4795C44.3097 36.5005 44.0758 36.5678 44.0595 36.754C44.0386 36.9924 44.3774 37.0609 44.6156 37.0378L56.0693 35.9262C56.2189 35.9117 56.3871 35.8869 56.4749 35.7649C56.5939 35.5994 56.4764 35.3499 56.2942 35.2587C56.1119 35.1674 55.8961 35.1882 55.6936 35.2111L44.4954 36.4795Z" fill="#25282B"/>
<path fill-rule="evenodd" clip-rule="evenodd" d="M42.7748 91.1319C42.9072 90.1533 43.0927 89.0763 43.8616 88.4565C44.4746 87.9623 45.3162 87.8835 46.1034 87.8683C48.6824 87.8188 51.2696 88.2376 53.7012 89.0984C54.4704 89.3707 55.2755 89.7293 55.6961 90.4286C56.1514 91.1857 56.0404 92.1406 55.9146 93.0151L53.9615 106.584C55.3082 102.655 56.275 98.5948 56.8441 94.48C57.1096 92.5603 57.2022 90.3574 55.8626 88.9572C53.7713 86.7714 53.8283 83.6579 53.8863 80.4921C53.9364 77.76 53.9872 74.9888 52.6583 72.7415C52.2246 72.0082 53.1914 71.2512 53.9953 70.9697C57.5391 69.7287 61.3167 69.1593 65.0687 69.3006C65.7566 74.7351 65.9426 80.233 65.6238 85.7016C65.5523 86.928 67.2915 87.2445 68.5124 87.1091L110.867 82.412C111.079 82.3885 111.308 82.3569 111.459 82.2057C111.634 82.0292 111.643 81.7516 111.64 81.5027C111.54 71.5779 111.255 61.6549 110.784 51.7407C110.765 51.3538 110.716 50.9095 110.396 50.6916C110.156 50.5283 109.84 50.5499 109.551 50.578L79.3193 53.5089C81.3053 44.1411 83.3027 34.5974 82.3968 25.0642C75.7881 29.471 67.2604 29.4379 59.3313 28.9713C59.0017 28.9519 58.6715 28.9321 58.3406 28.9124C50.7099 28.4563 42.7524 27.9806 35.8924 31.2819C39.4843 40.8065 43.1174 51.203 40.1317 60.9347C39.8675 61.7957 39.5532 62.6414 39.239 63.4868C38.7547 64.7902 38.2707 66.0926 37.9713 67.4485C37.4779 69.6837 37.552 72.1865 38.8747 74.0546C40.7901 76.7599 42.3121 79.8359 42.6593 83.1324C42.9887 86.2607 42.2526 89.3632 41.5173 92.4622C40.7491 95.7002 39.9817 98.9343 40.4317 102.19C40.5078 102.741 40.6453 103.333 41.0765 103.684L42.7748 91.1319ZM49.1564 65.6237L48.9626 61.3085C48.9276 60.5282 48.0172 60.0561 47.8048 59.946L47.8041 59.9456C46.2207 59.1246 43.9932 60.5181 44.0386 62.3013C42.7044 59.7257 42.5017 56.774 42.3011 53.8521C42.2574 53.2164 42.2138 52.5822 42.1588 51.9535C41.5697 45.2312 39.544 38.729 37.5308 32.2883C37.2437 31.3699 38.4837 30.7743 39.4356 30.6347C45.6825 29.7187 52.0049 29.8452 58.3303 29.9717C61.1974 30.0291 64.0651 30.0865 66.9267 30.0468C72.0113 29.9762 77.3914 29.4949 81.5158 26.5202C82.4429 32.7009 81.1829 38.9369 79.9388 45.0943C79.7705 45.9272 79.6025 46.7587 79.4403 47.5884C78.0785 54.5518 77.1516 61.9743 79.7571 68.5738C79.8669 68.8519 79.4926 69.0616 79.1999 69.1227C77.057 69.5697 74.8414 69.666 72.6678 69.4065C71.7354 69.2952 70.8128 69.1193 69.8901 68.9434C69.1952 68.8109 68.5002 68.6784 67.8009 68.5734C62.536 67.7834 57.0405 68.6034 52.2356 70.8962C52.043 70.9881 51.814 70.9451 51.6123 70.8753C50.6392 70.5383 49.945 69.6392 49.5986 68.6693C49.2522 67.6994 49.2026 66.6525 49.1564 65.6237ZM69.8721 69.8664C70.3205 69.9559 70.8717 70.1558 70.8995 70.6123C71.1639 74.9658 74.6232 78.8779 78.8764 79.8414C83.1296 80.805 87.8433 78.8565 90.3232 75.2689C92.8031 71.6813 92.9973 66.6975 90.9638 62.8393C88.783 58.7015 83.4832 56.5042 79.0148 57.8851C78.8074 56.9707 78.8308 56.005 79.082 55.1017C79.1287 54.934 79.1895 54.7586 79.3249 54.6491C79.4572 54.5422 79.6358 54.5178 79.8047 54.4975L92.392 52.9812C93.4986 52.8479 94.608 52.7144 95.7226 52.7052C100.516 52.6657 105.305 52.1878 110.011 51.2792C110.743 61.1001 111.087 70.9498 111.043 80.7977C111.04 81.2649 110.898 81.8857 110.431 81.8993C102.51 82.1301 94.6501 83.1723 86.7876 84.2149C81.5051 84.9153 76.2212 85.616 70.9161 86.0709C69.7337 86.1722 68.5431 86.2614 67.3617 86.1488C67.1476 86.1284 66.906 86.0847 66.7896 85.9037C66.7194 85.7946 66.7115 85.6581 66.7057 85.5284L65.9993 69.7768C65.9902 69.5733 66.0025 69.3279 66.1788 69.2257C66.2956 69.158 66.4417 69.1823 66.5741 69.2087L69.8721 69.8664ZM48.1988 66.2196C48.0737 67.0377 47.9328 67.9582 48.4687 68.5771C50.4677 70.886 52.5442 73.3527 53.0756 76.3601C53.3237 77.7645 53.2171 79.2099 53.1109 80.6495C52.9772 82.4627 52.8442 84.2667 53.4216 85.9678C53.4367 86.0121 53.4522 86.0566 53.4678 86.1012C53.5739 86.4044 53.6821 86.7135 53.6477 87.0301C53.6082 87.3933 53.293 87.7586 52.9331 87.6965L48.7542 86.9757C47.3704 86.737 45.9084 86.5048 44.5938 86.9988C44.3397 87.0944 44.0471 86.9267 43.9109 86.6918C43.7748 86.4569 43.7568 86.1741 43.745 85.9029C43.7308 85.5754 43.7201 85.2456 43.7093 84.9147C43.6418 82.8341 43.5731 80.7146 42.6102 78.8916L39.5379 73.0753C39.0844 72.2166 38.6203 71.3197 38.589 70.3491C38.5681 69.701 38.743 69.0643 38.9165 68.4394L40.4491 62.918C40.7718 61.7556 41.1132 60.5562 41.8773 59.6228C43.7337 62.7725 43.9168 66.8475 42.3506 70.1512C42.2057 70.4568 42.6483 70.7715 42.9638 70.6497C43.2793 70.5279 43.4395 70.1822 43.5508 69.8628C43.9963 68.5834 44.1525 67.2345 44.309 65.8838C44.4355 64.7909 44.5623 63.6967 44.8425 62.637C45.0142 61.9878 45.2618 61.3251 45.7631 60.8783C46.2643 60.4315 47.0818 60.2785 47.607 60.6968C48.009 61.017 48.1396 61.564 48.2161 62.0722C48.4178 63.413 48.4169 64.7841 48.2134 66.1245C48.2086 66.1561 48.2037 66.1878 48.1988 66.2196ZM81.0356 75.0349C78.9854 74.9927 77.2091 73.3198 76.6004 71.3614C76.4761 70.9616 76.7346 70.5229 77.0911 70.3034C77.4476 70.0838 77.879 70.032 78.2951 69.9852L81.299 69.6477C80.3855 67.8719 79.7349 65.9611 79.3748 63.9967C79.3422 63.8185 79.3124 63.6314 79.3687 63.4592C79.4676 63.1569 79.7933 62.9978 80.0948 62.8964C82.5355 62.0761 85.4661 63.072 86.9013 65.21C88.3365 67.3479 88.1484 70.4383 86.4639 72.3858C85.7346 73.2291 84.7789 73.8514 83.7722 74.3303C82.9138 74.7386 81.986 75.0545 81.0356 75.0349ZM90.7644 64.4798C91.1291 65.6845 91.2345 66.9518 91.2846 68.2096C90.4654 68.0855 89.6381 68.0151 88.8097 67.9989C88.6477 65.8833 87.2398 63.9718 85.3888 62.9349C83.5378 61.8981 81.3037 61.674 79.2121 62.029C79.1944 61.7308 79.14 61.4196 79.0857 61.1084C78.9422 60.2872 78.7987 59.466 79.3297 58.8831C79.6503 58.531 80.1389 58.3902 80.607 58.3029C82.7394 57.9056 85.0132 58.3219 86.8666 59.449C88.72 60.5761 90.1358 62.4035 90.7644 64.4798ZM75.7282 71.1479C75.7248 71.187 75.7215 71.2254 75.7197 71.2621C75.7059 71.5544 75.8421 71.8226 75.977 72.088C76.0131 72.1591 76.0492 72.2301 76.0822 72.3012C76.2384 72.6379 76.3142 73.0814 76.053 73.3451C75.421 73.983 74.8626 74.6938 74.3922 75.4587C74.2758 75.6479 73.9896 75.6634 73.7983 75.5506C73.6069 75.4377 73.4882 75.2366 73.3777 75.0439C72.6786 73.8246 71.9618 72.5492 71.8747 71.1464C71.8638 70.9719 71.883 70.7608 72.0377 70.6795C72.1058 70.6436 72.1862 70.6426 72.2632 70.6423L75.3904 70.6328C75.4651 70.6326 75.5437 70.6334 75.6087 70.6703C75.7621 70.7575 75.7445 70.96 75.7282 71.1479Z" fill="#25282B"/>
<path d="M56.9995 45.8362C56.9995 45.6125 56.9272 45.4149 56.7826 45.2537C56.4779 44.9104 55.8891 44.9104 55.5431 45.2849L53.0486 48.629L50.6574 45.2901C50.5644 45.1601 50.3733 45.004 50.0066 45.004C49.7587 45.004 49.547 45.0976 49.3972 45.2745C49.2526 45.4409 49.1803 45.6437 49.1803 45.8778C49.1803 46.0806 49.2371 46.2574 49.3507 46.403L51.8917 49.9552L49.1958 53.5698C49.0667 53.7414 48.9995 53.939 48.9995 54.1575C48.9995 54.3811 49.0718 54.5787 49.2113 54.74C49.3559 54.9064 49.5676 54.9948 49.8155 54.9948C50.0531 54.9948 50.2597 54.9064 50.4508 54.714L53.0176 51.2866L55.4398 54.6724C55.6051 54.8856 55.8426 55 56.1215 55C56.3694 55 56.5812 54.9064 56.731 54.7296C56.8756 54.5631 56.9479 54.3603 56.9479 54.1367C56.9479 53.939 56.8859 53.7518 56.7723 53.5802L54.1796 49.95L56.8291 46.3926C56.9375 46.2054 56.9995 46.0234 56.9995 45.8362Z" fill="#058900"/>
<path d="M65.0816 53.2286H60.8086V45.8825C60.8086 45.6376 60.7173 45.424 60.5455 45.2521C60.2073 44.9238 59.6115 44.9082 59.2625 45.2521C59.0854 45.424 58.9995 45.6324 58.9995 45.8825V54.1143C58.9995 54.3592 59.0854 54.5728 59.2572 54.7395C59.429 54.9114 59.6437 55 59.9014 55H65.0869C65.3392 55 65.5593 54.9114 65.7365 54.7447C65.9136 54.5728 65.9995 54.3644 65.9995 54.1143C65.9995 53.8642 65.9083 53.6558 65.7365 53.4839C65.554 53.3172 65.3339 53.2286 65.0816 53.2286Z" fill="#058900"/>
<path d="M70.9052 49.058C70.1329 48.9766 69.605 48.8086 69.3214 48.5693C69.0575 48.3401 68.9304 48.0652 68.9304 47.724C68.9304 47.3625 69.0672 47.1079 69.3557 46.9195C69.6734 46.7108 70.1036 46.609 70.6315 46.609C71.0568 46.609 71.4087 46.6904 71.6825 46.8534C71.9513 47.0163 72.186 47.2607 72.3619 47.5713C72.4353 47.7138 72.5428 47.831 72.6797 47.9124C72.9534 48.0754 73.2907 48.0804 73.5498 47.9073C73.7649 47.7495 73.8773 47.5306 73.8773 47.276C73.8773 47.0927 73.8186 46.9043 73.7062 46.7159C73.3738 46.1711 72.9632 45.7434 72.4841 45.4481C72.0002 45.1477 71.4038 45 70.7097 45C70.084 45 69.5072 45.1018 68.9988 45.3055C68.4758 45.5143 68.0603 45.8248 67.7572 46.2271C67.4492 46.6395 67.2879 47.1334 67.2879 47.6935C67.2879 48.4878 67.591 49.1548 68.1825 49.6843C68.7593 50.1935 69.5512 50.5041 70.5386 50.6008C71.1692 50.667 71.6336 50.8452 71.9318 51.1253C72.2153 51.4002 72.3571 51.721 72.3571 52.1028C72.3571 52.4949 72.1957 52.7953 71.8682 53.0194C71.5163 53.2638 71.0714 53.386 70.5533 53.386C70.1085 53.386 69.6929 53.2892 69.3263 53.0906C68.9744 52.9022 68.7348 52.6782 68.6273 52.4287C68.554 52.2607 68.4416 52.1232 68.2949 52.0163C68.1434 51.9145 67.9869 51.8636 67.8159 51.8636C67.7328 51.8636 67.6741 51.8737 67.6545 51.8788C67.4639 51.9196 67.3075 52.0061 67.1902 52.1334C67.0631 52.2709 66.9995 52.4389 66.9995 52.6222C66.9995 52.7189 67.024 52.831 67.0777 52.9583C67.327 53.5693 67.7816 54.0733 68.4318 54.445C69.0672 54.8116 69.7858 55 70.5582 55C71.1497 55 71.7069 54.8931 72.2251 54.6792C72.753 54.4603 73.1881 54.1242 73.5058 53.6813C73.8333 53.2332 73.9995 52.6884 73.9995 52.0621C73.9995 51.2118 73.7209 50.5092 73.1685 49.9847C72.6259 49.4654 71.8682 49.1548 70.9052 49.058Z" fill="#058900"/>
</svg>
