<svg width="37" height="50" viewBox="0 0 37 50" fill="none" xmlns="http://www.w3.org/2000/svg">
<path d="M25.9 0C26.15 0 26.4 0.1 26.6 0.3L36.71 10.4C36.91 10.6 37 10.85 37 11.11V45C37 47.75 34.75 50 32 50H5C2.25 50 0 47.75 0 45V5C0 2.25 2.25 0 5 0H25.9Z" fill="white"/>
<path d="M36.71 10.4L36.36 10.05L35.07 8.76L28.3 2L26.6 0.300003C26.4 0.100003 26.15 0 25.9 0H5C2.25 0 0 2.25 0 5V45C0 47.75 2.25 50 5 50H32C34.75 50 37 47.75 37 45V11.11C37 10.85 36.91 10.6 36.71 10.4ZM33.53 10.05H29.5C28.09 10.05 26.95 8.91 26.95 7.5V3.47L33.53 10.05ZM35 45C35 46.66 33.65 48 32 48H5C3.34 48 2 46.66 2 45V5C2 3.35 3.34 2 5 2H24.5V7.5C24.5 10.25 26.75 12.5 29.5 12.5H35V45Z" fill="#FEBE3F"/>
<path d="M15.58 23.96C15.58 23.73 15.5 23.52 15.34 23.35C15.18 23.18 14.95 23.08 14.7 23.08H8.51C8.26 23.08 8.05 23.16 7.89 23.31C7.72 23.47 7.64 23.68 7.65 23.89C7.64 24.12 7.72 24.32 7.87 24.47C8.02 24.61 8.23 24.68 8.48 24.68H13.21L7.67 31.54C7.56 31.69 7.5 31.86 7.5 32.07C7.5 32.3 7.58 32.5 7.73 32.68C7.89 32.86 8.11 32.96 8.36 32.96H14.7C14.95 32.96 15.15 32.89 15.31 32.75C15.48 32.6 15.56 32.4 15.56 32.15C15.56 31.94 15.47 31.74 15.31 31.59C15.15 31.44 14.94 31.36 14.7 31.36H9.84L15.4 24.48C15.52 24.32 15.58 24.15 15.58 23.96Z" fill="#FEBE3F"/>
<path d="M18.0998 23.33C17.9298 23.49 17.8398 23.71 17.8398 23.96V32.08C17.8398 32.32 17.9198 32.53 18.0898 32.7C18.2598 32.87 18.4698 32.95 18.7098 32.95C18.9598 32.95 19.1798 32.86 19.3398 32.69C19.4998 32.52 19.5798 32.31 19.5798 32.07V23.95C19.5798 23.7 19.4898 23.49 19.3298 23.32C19.0198 23.01 18.4398 23 18.0998 23.33Z" fill="#FEBE3F"/>
<path d="M28.5599 24.72C28.2799 24.21 27.8799 23.8 27.3699 23.52C26.8699 23.24 26.2899 23.09 25.6599 23.09H23.2599C23.0199 23.09 22.8099 23.17 22.6399 23.33C22.4699 23.49 22.3799 23.71 22.3799 23.96V32.08C22.3799 32.32 22.4599 32.53 22.6299 32.7C22.7999 32.87 23.0099 32.95 23.2499 32.95C23.4999 32.95 23.7199 32.86 23.8799 32.69C24.0399 32.52 24.1199 32.31 24.1199 32.07V29.69H25.6499C26.2799 29.69 26.8599 29.55 27.3599 29.28C27.8699 29 28.2699 28.61 28.5499 28.12C28.8299 27.63 28.9699 27.06 28.9699 26.44C28.9799 25.81 28.8399 25.22 28.5599 24.72ZM27.2899 26.44C27.2899 26.92 27.1399 27.3 26.8399 27.6C26.5299 27.9 26.1499 28.05 25.6699 28.05H24.1399V24.73H25.6699C26.1499 24.73 26.5299 24.89 26.8299 25.2C27.1399 25.54 27.2899 25.94 27.2899 26.44Z" fill="#FEBE3F"/>
</svg>
